<?xml version="1.0" standalone="no"?>
<!DOCTYPE svg PUBLIC "-//W3C//DTD SVG 1.1//EN" "http://www.w3.org/Graphics/SVG/1.1/DTD/svg11.dtd" >
<svg xmlns="http://www.w3.org/2000/svg" xmlns:xlink="http://www.w3.org/1999/xlink" version="1.1">
<metadata>
Created by FontForge 20161003 at Wed May  9 14:28:27 2018
 By www-data
Copyright (c) 2017 by TypeType. Designer Ivan Gladkikh, technical designers Philipp Nurullin, Nadyr Rakhimov, Dmitriy Greshnev. All rights reserved.
</metadata>
<defs>
<font id="TTHazelnutsExtraBold" horiz-adv-x="595" >
  <font-face 
    font-family="TTHazelnutsExtraBold"
    font-weight="800"
    font-stretch="normal"
    units-per-em="1000"
    panose-1="2 0 5 3 4 0 0 2 0 4"
    ascent="800"
    descent="-200"
    x-height="530"
    cap-height="700"
    bbox="-145 -350 1260 1010"
    underline-thickness="50"
    underline-position="-150"
    unicode-range="U+000D-F739"
  />
<missing-glyph horiz-adv-x="0" 
 />
    <glyph glyph-name=".notdef" horiz-adv-x="0" 
 />
    <glyph glyph-name=".null" horiz-adv-x="0" 
 />
    <glyph glyph-name=".null" horiz-adv-x="0" 
 />
    <glyph glyph-name="nonmarkingreturn" horiz-adv-x="333" 
 />
    <glyph glyph-name="CR" unicode="&#xd;" horiz-adv-x="0" 
 />
    <glyph glyph-name="space" unicode=" " horiz-adv-x="240" 
 />
    <glyph glyph-name="exclam" unicode="!" horiz-adv-x="330" 
d="M225 240h-120l-30 180v280h180v-280zM70 80q0 42 25 66t70 24t70 -24t25 -66t-25 -66t-70 -24t-70 24t-25 66z" />
    <glyph glyph-name="quotedbl" unicode="&#x22;" horiz-adv-x="450" 
d="M65 510l-15 140v110h150v-110l-15 -140h-120zM265 510l-15 140v110h150v-110l-15 -140h-120z" />
    <glyph glyph-name="numbersign" unicode="#" horiz-adv-x="710" 
d="M20 140v150h130l20 120h-100v150h120l20 140h145l-20 -140h100l20 140h145l-20 -140h110v-150h-130l-20 -120h100v-150h-120l-20 -140h-145l20 140h-100l-20 -140h-145l20 140h-110zM315 410l-20 -120h100l20 120h-100z" />
    <glyph glyph-name="dollar" unicode="$" horiz-adv-x="620" 
d="M290 145q105 0 105 65q0 18 -19.5 32t-50 24t-68 21.5t-75 28.5t-68 39.5t-50 59.5t-19.5 85q0 72 48 128.5t132 76.5v95h155v-91q91 -14 140.5 -64.5t49.5 -114.5q0 -16 -2.5 -31t-5.5 -22l-2 -7h-180q5 10 5 25q0 65 -75 65q-36 0 -58 -18t-22 -42q0 -18 19.5 -32
t50 -24t68 -21.5t75 -28.5t68 -39.5t50 -59.5t19.5 -85q0 -83 -52 -141.5t-148 -76.5v-92h-155v92q-60 11 -112.5 39.5t-74.5 50.5l-23 23l95 125q3 -3 8 -9t22.5 -20.5t36.5 -26t50 -20.5t63 -9z" />
    <glyph glyph-name="percent" unicode="%" horiz-adv-x="910" 
d="M740 700l-400 -700h-170l400 700h170zM160 520q0 -80 45 -80t45 80t-45 80t-45 -80zM380 520q0 -89 -47.5 -139.5t-127.5 -50.5t-127.5 50.5t-47.5 139.5t47.5 139.5t127.5 50.5t127.5 -50.5t47.5 -139.5zM660 180q0 -80 45 -80t45 80t-45 80t-45 -80zM880 180
q0 -89 -47.5 -139.5t-127.5 -50.5t-127.5 50.5t-47.5 139.5t47.5 139.5t127.5 50.5t127.5 -50.5t47.5 -139.5z" />
    <glyph glyph-name="ampersand" unicode="&#x26;" horiz-adv-x="725" 
d="M430 490v10q0 23 -18 39t-47 16q-26 0 -43 -16t-17 -39q0 -31 45 -80l130 -140q20 45 20 100h150q0 -62 -15 -116t-30 -76l-15 -23l160 -165h-200l-60 60q-3 -3 -9 -8t-26.5 -18t-44 -23t-61.5 -18t-79 -8q-116 0 -185.5 59.5t-69.5 145.5q0 45 17 82t41.5 58t48.5 35.5
t41 19.5l17 5q-6 6 -15 17.5t-24.5 46.5t-15.5 71q0 82 63 136t172 54q100 0 165 -53.5t65 -121.5q0 -13 -2.5 -25.5t-5.5 -18.5l-2 -6h-150zM290 135q27 0 49.5 10t31.5 20l9 10l-105 115q-3 -1 -8 -2t-18 -7.5t-23 -15t-18 -24.5t-8 -36q0 -31 23 -50.5t67 -19.5z" />
    <glyph glyph-name="quotesingle" unicode="'" horiz-adv-x="250" 
d="M65 510l-15 140v110h150v-110l-15 -140h-120z" />
    <glyph glyph-name="parenleft" unicode="(" horiz-adv-x="400" 
d="M230 260q0 -64 15 -129t36 -111.5t42.5 -84t36.5 -56.5l15 -19l-81 -75q-10 7 -26 20t-57 59t-72.5 97t-57.5 132.5t-26 166.5t24.5 165.5t59.5 134.5t70.5 95.5t60.5 60.5l24 20l81 -76q-6 -7 -15.5 -20t-34.5 -54.5t-44.5 -85.5t-35 -110t-15.5 -130z" />
    <glyph glyph-name="parenright" unicode=")" horiz-adv-x="400" 
d="M170 260q0 64 -15 129t-36 111.5t-42.5 84t-36.5 56.5l-15 19l81 76q10 -7 26 -20.5t57 -59.5t72.5 -97t57.5 -132.5t26 -166.5t-24.5 -165.5t-59.5 -134t-70.5 -95t-60.5 -61.5l-24 -19l-81 75q6 7 15.5 20t34.5 54.5t44.5 85.5t35 110t15.5 130z" />
    <glyph glyph-name="asterisk" unicode="*" horiz-adv-x="460" 
d="M230 420l-60 -105l-100 55l65 105l-115 40l35 105l115 -40v120h120v-120l115 40l35 -105l-115 -40l65 -105l-100 -55z" />
    <glyph glyph-name="plus" unicode="+" horiz-adv-x="500" 
d="M30 255v150h145v155h150v-155h145v-150h-145v-155h-150v155h-145z" />
    <glyph glyph-name="comma" unicode="," horiz-adv-x="270" 
d="M40 80q0 42 25 66t70 24q95 0 95 -110q0 -83 -48.5 -135t-121.5 -55v80q52 6 60 40q-80 8 -80 90z" />
    <glyph glyph-name="hyphen" unicode="-" horiz-adv-x="460" 
d="M30 255v150h400v-150h-400z" />
    <glyph glyph-name="period" unicode="." horiz-adv-x="270" 
d="M40 80q0 42 25 66t70 24t70 -24t25 -66t-25 -66t-70 -24t-70 24t-25 66z" />
    <glyph glyph-name="slash" unicode="/" horiz-adv-x="550" 
d="M0 -220l390 980h160l-390 -980h-160z" />
    <glyph glyph-name="zero" unicode="0" horiz-adv-x="710" 
d="M235 350q0 -102 35 -153.5t85 -51.5t85 51.5t35 153.5t-35 153.5t-85 51.5t-85 -51.5t-35 -153.5zM665 350q0 -172 -85.5 -268.5t-224.5 -96.5t-224.5 96.5t-85.5 268.5t85.5 268.5t224.5 96.5t224.5 -96.5t85.5 -268.5z" />
    <glyph glyph-name="one" unicode="1" horiz-adv-x="415" 
d="M345 0h-180v470q-5 -6 -14 -14t-44 -22t-77 -14v160q35 0 62.5 12.5t41.5 30t22.5 35t11.5 30.5l2 12h175v-700z" />
    <glyph glyph-name="two" unicode="2" 
d="M360 490q0 30 -18.5 47.5t-51.5 17.5q-40 0 -60 -16.5t-20 -43.5l5 -40h-170q-10 30 -10 70q0 79 69 134.5t191 55.5q116 0 185.5 -60.5t69.5 -149.5q0 -79 -34 -131t-106 -114l-70 -60q-16 -13 -31 -23t-22 -13l-7 -4v-10q25 10 100 10h170v-160h-505v150l215 190
q56 49 78 80t22 70z" />
    <glyph glyph-name="three" unicode="3" horiz-adv-x="590" 
d="M525 555l-155 -135v-10q77 -8 126 -61t49 -134q0 -100 -73 -165t-197 -65q-49 0 -94 11t-74 26t-50.5 30.5t-31.5 26.5l-10 11l95 120q7 -7 19.5 -18t51.5 -29t79 -18q44 0 69.5 22.5t25.5 57.5q0 38 -25.5 61.5t-69.5 23.5q-18 0 -36.5 -2.5t-28.5 -5.5l-10 -2l-35 105
l110 95q16 13 31 22.5t22 11.5l7 3v8q-25 -5 -90 -5h-170v160h465v-145z" />
    <glyph glyph-name="four" unicode="4" horiz-adv-x="610" 
d="M335 285l35 115h145v-115h75v-160h-75v-125h-180v125h-305v150l265 425h195l-200 -320q-20 -31 -39 -52.5t-28 -27.5l-9 -5v-10h121z" />
    <glyph glyph-name="five" unicode="5" horiz-adv-x="590" 
d="M280 -15q-50 0 -95.5 11t-74 26t-50 30.5t-30.5 26.5l-10 11l90 120q7 -7 19.5 -18t51.5 -29t79 -18q48 0 74 23.5t26 61.5q0 35 -26.5 57.5t-73.5 22.5q-22 0 -43.5 -5t-31.5 -10l-10 -5l-110 60l55 350h395v-150h-245l-20 -110q30 10 70 10q105 0 167.5 -62.5
t62.5 -167.5q0 -102 -72.5 -168.5t-197.5 -66.5z" />
    <glyph glyph-name="six" unicode="6" horiz-adv-x="620" 
d="M326 715q110 0 174.5 -51.5t64.5 -123.5q0 -16 -2.5 -31t-4.5 -22l-3 -7h-165q5 15 5 30q0 19 -15 32t-40 13q-48 0 -79 -40t-31 -115q5 5 15.5 12.5t44.5 20t70 12.5q98 0 161.5 -64.5t63.5 -165.5q0 -99 -69.5 -164.5t-180.5 -65.5q-129 0 -209.5 95.5t-80.5 269.5
q0 170 81 267.5t200 97.5zM240 270q14 -125 95 -125q27 0 46 22t19 58q0 34 -21.5 54.5t-58.5 20.5q-22 0 -42 -7.5t-29 -14.5z" />
    <glyph glyph-name="seven" unicode="7" horiz-adv-x="540" 
d="M30 540v160h480v-130l-225 -570h-190l215 530v10h-280z" />
    <glyph glyph-name="eight" unicode="8" horiz-adv-x="630" 
d="M315 715q115 0 182.5 -55.5t67.5 -134.5q0 -32 -10 -60t-23.5 -44.5t-27.5 -28.5t-24 -17l-10 -5q5 -2 13.5 -6t30 -19t38 -33.5t30 -49.5t13.5 -67q0 -91 -73.5 -150.5t-206.5 -59.5t-206.5 59.5t-73.5 150.5q0 36 13.5 67.5t32.5 50.5t38 32.5t33 18.5l13 6q-4 2 -11 5
t-24 16.5t-30 29.5t-24 44t-11 60q0 82 67 136t183 54zM405 205q0 31 -27.5 56t-55.5 35l-27 9q-3 -1 -7.5 -4t-16.5 -12t-21.5 -19.5t-17 -26.5t-7.5 -33q0 -34 25 -57t65 -23t65 22t25 53zM245 510q0 -27 25 -48t50 -29l25 -8q6 3 14 9.5t22 27.5t14 43q0 65 -75 65
q-32 0 -53.5 -18t-21.5 -42z" />
    <glyph glyph-name="nine" unicode="9" horiz-adv-x="620" 
d="M294 -15q-46 0 -88 9.5t-69 22.5t-48 26t-30 23l-9 9l95 125q5 -6 15 -15t45 -24.5t75 -15.5q47 0 78.5 41.5t31.5 113.5q-5 -5 -15.5 -12.5t-44.5 -20t-70 -12.5q-98 0 -161.5 64.5t-63.5 165.5q0 99 69.5 164.5t180.5 65.5q129 0 209.5 -95.5t80.5 -269.5
q0 -170 -81 -267.5t-200 -97.5zM380 430q-14 125 -95 125q-27 0 -46 -22t-19 -58q0 -34 21.5 -54.5t58.5 -20.5q22 0 42 7.5t29 14.5z" />
    <glyph glyph-name="colon" unicode=":" horiz-adv-x="270" 
d="M40 80q0 42 25 66t70 24t70 -24t25 -66t-25 -66t-70 -24t-70 24t-25 66zM40 450q0 42 25 66t70 24t70 -24t25 -66t-25 -66t-70 -24t-70 24t-25 66z" />
    <glyph glyph-name="semicolon" unicode=";" horiz-adv-x="270" 
d="M40 80q0 42 25 66t70 24q95 0 95 -110q0 -83 -48.5 -135t-121.5 -55v80q52 6 60 40q-80 8 -80 90zM40 450q0 42 25 66t70 24t70 -24t25 -66t-25 -66t-70 -24t-70 24t-25 66z" />
    <glyph glyph-name="less" unicode="&#x3c;" horiz-adv-x="540" 
d="M500 365l-275 -100v-10l275 -100v-150l-460 180v150l460 180v-150z" />
    <glyph glyph-name="equal" unicode="=" horiz-adv-x="510" 
d="M40 150v135h430v-135h-430zM40 375v135h430v-135h-430z" />
    <glyph glyph-name="greater" unicode="&#x3e;" horiz-adv-x="540" 
d="M315 265l-275 100v150l460 -180v-150l-460 -180v150l275 100v10z" />
    <glyph glyph-name="question" unicode="?" horiz-adv-x="550" 
d="M340 501q0 26 -17.5 42.5t-47.5 16.5q-33 0 -51.5 -17.5t-18.5 -47.5l5 -25h-180q-10 20 -10 60q0 77 67 131t188 54q117 0 186 -58.5t69 -141.5q0 -42 -14 -74t-35 -49.5t-46 -33.5t-46 -27.5t-35 -29.5t-14 -41v-20h-150q-10 25 -10 55q0 37 16.5 65.5t40 45t47 30.5
t40 30t16.5 35zM165 80q0 42 25 66t70 24t70 -24t25 -66t-25 -66t-70 -24t-70 24t-25 66z" />
    <glyph glyph-name="at" unicode="@" horiz-adv-x="1020" 
d="M630 120h-10q-1 -3 -4 -7.5t-13.5 -16.5t-24.5 -21.5t-39 -17t-54 -7.5q-77 0 -131 60t-54 155q0 98 59.5 156.5t160.5 58.5q46 0 94.5 -10t74.5 -20l26 -10v-190q0 -30 16.5 -47.5t43.5 -17.5q60 0 60 105q0 126 -85.5 205.5t-229.5 79.5q-145 0 -235 -87t-90 -223
t90 -223t235 -87q51 0 102.5 13.5t77.5 27.5l25 14l55 -125q-13 -7 -37 -18t-92.5 -29t-130.5 -18q-215 0 -345 124t-130 321t130 321t345 124q214 0 339.5 -118t125.5 -302q0 -111 -60.5 -175.5t-159.5 -64.5q-29 0 -54 7t-39 17.5t-24.5 21t-13.5 17.5zM515 185
q27 0 43.5 17.5t16.5 47.5v85q-20 10 -50 10q-75 0 -75 -80t65 -80z" />
    <glyph glyph-name="A" unicode="A" horiz-adv-x="700" 
d="M355 520h-10q-1 -40 -20 -100l-45 -140h140l-45 140q-8 27 -13 52t-6 36zM475 120h-250l-40 -120h-190l260 700h190l260 -700h-190z" />
    <glyph glyph-name="B" unicode="B" horiz-adv-x="685" 
d="M380 0h-310v700h300q126 0 190.5 -51t64.5 -134q0 -34 -11.5 -60.5t-27.5 -41t-32 -23.5t-28 -12l-11 -3v-10q5 -1 14.5 -3t32.5 -13.5t41 -27.5t32.5 -48t14.5 -73q0 -87 -70 -143.5t-200 -56.5zM460 220q0 27 -20 43.5t-60 16.5h-130v-120h131q39 0 59 16.5t20 43.5z
M370 540h-120v-100h120q65 0 65 50t-65 50z" />
    <glyph glyph-name="C" unicode="C" horiz-adv-x="710" 
d="M390 715q130 0 207.5 -62.5t77.5 -152.5q0 -18 -2.5 -35.5t-4.5 -26.5l-3 -8h-185q5 15 5 45q0 35 -25.5 57.5t-69.5 22.5q-70 0 -112.5 -51t-42.5 -149q0 -103 47 -156.5t128 -53.5q32 0 62 7.5t49.5 18.5t34.5 22.5t22 18.5l7 8l90 -115q-4 -5 -11.5 -13t-34 -28.5
t-56 -36.5t-78 -29t-100.5 -13q-162 0 -256 97t-94 268t93 268t252 97z" />
    <glyph glyph-name="D" unicode="D" horiz-adv-x="735" 
d="M505 350q0 190 -175 190h-80v-380h80q175 0 175 190zM695 350q0 -166 -95 -258t-270 -92h-260v700h260q175 0 270 -92t95 -258z" />
    <glyph glyph-name="E" unicode="E" horiz-adv-x="600" 
d="M250 540v-110h255v-160h-255v-110h310v-160h-490v700h490v-160h-310z" />
    <glyph glyph-name="F" unicode="F" horiz-adv-x="580" 
d="M250 540v-130h260v-160h-260v-250h-180v700h485v-160h-305z" />
    <glyph glyph-name="G" unicode="G" horiz-adv-x="750" 
d="M390 715q132 0 208.5 -60.5t76.5 -144.5q0 -18 -2.5 -34t-4.5 -24l-3 -7h-185q5 10 5 35q0 31 -26 53t-69 22q-70 0 -112.5 -51t-42.5 -149q0 -103 47 -156.5t128 -53.5q29 0 55 6.5t38 12.5l12 6v80h-100v140h280v-286q-4 -5 -12.5 -13t-37.5 -28.5t-61 -36t-84 -28.5
t-107 -13q-162 0 -255 96t-93 269q0 171 93 268t252 97z" />
    <glyph glyph-name="H" unicode="H" horiz-adv-x="750" 
d="M500 0v250h-250v-250h-180v700h180v-290h250v290h180v-700h-180z" />
    <glyph glyph-name="I" unicode="I" horiz-adv-x="320" 
d="M250 700v-700h-180v700h180z" />
    <glyph glyph-name="J" unicode="J" horiz-adv-x="395" 
d="M110 -15q-22 0 -44.5 2.5t-33.5 4.5l-12 3v150h25q53 0 74 21.5t21 73.5v460h180v-490q0 -112 -54 -168.5t-156 -56.5z" />
    <glyph glyph-name="K" unicode="K" horiz-adv-x="699" 
d="M709 0h-210l-175 275h-75v-275h-179v700h179v-265h70l160 265h205l-215 -340z" />
    <glyph glyph-name="L" unicode="L" horiz-adv-x="560" 
d="M250 700v-540h290v-160h-470v700h180z" />
    <glyph glyph-name="M" unicode="M" horiz-adv-x="950" 
d="M530 130h-110l-120 210q-18 31 -30.5 58.5t-15.5 39.5l-4 12h-10q10 -40 10 -110v-340h-180v700h220l150 -265q13 -23 20.5 -47t8.5 -36l1 -12h10q0 43 30 95l150 265h220v-700h-180v340q0 31 2.5 58.5t5.5 39.5l2 12h-10q-10 -40 -50 -110z" />
    <glyph glyph-name="N" unicode="N" horiz-adv-x="780" 
d="M525 0l-210 310q-24 36 -40.5 63.5t-20.5 36.5l-4 10h-10q10 -30 10 -110v-310h-180v700h185l210 -310q24 -36 40 -63.5t21 -36.5l4 -10h10q-10 30 -10 110v310h180v-700h-185z" />
    <glyph glyph-name="O" unicode="O" horiz-adv-x="790" 
d="M235 350q0 -102 43 -153.5t117 -51.5t117 51.5t43 153.5t-43 153.5t-117 51.5t-117 -51.5t-43 -153.5zM745 350q0 -171 -94 -268t-256 -97t-256 97t-94 268t94 268t256 97t256 -97t94 -268z" />
    <glyph glyph-name="P" unicode="P" horiz-adv-x="680" 
d="M70 700h265q305 0 305 -245t-305 -245h-85v-210h-180v700zM340 540h-90v-170h90q54 0 82 23t28 62q0 40 -27.5 62.5t-82.5 22.5z" />
    <glyph glyph-name="Q" unicode="Q" horiz-adv-x="790" 
d="M745 350q0 -96 -28.5 -166t-71.5 -108.5t-105 -66.5q0 -69 90 -69l65 5v-150q-35 -15 -95 -15q-93 0 -156.5 60.5t-63.5 144.5q-156 4 -245.5 99.5t-89.5 265.5q0 171 94 268t256 97t256 -97t94 -268zM235 350q0 -102 43 -153.5t117 -51.5t117 51.5t43 153.5t-43 153.5
t-117 51.5t-117 -51.5t-43 -153.5z" />
    <glyph glyph-name="R" unicode="R" horiz-adv-x="690" 
d="M250 380h95q55 0 80 19.5t25 60.5q0 80 -105 80h-95v-160zM70 700h275q149 0 222 -60t73 -165q0 -43 -15 -77.5t-36 -53t-42.5 -30.5t-36.5 -16l-15 -3v-10q41 -15 60 -50l30 -55q19 -35 65 -35h25v-145q-35 -15 -80 -15q-67 0 -105.5 28t-64.5 82l-35 75q-23 50 -70 50
h-70v-220h-180v700z" />
    <glyph glyph-name="S" unicode="S" horiz-adv-x="625" 
d="M295 145q50 0 75 18.5t25 46.5q0 21 -25.5 37t-64 26t-83 28t-83 39.5t-64 63t-25.5 96.5q0 90 72.5 152.5t192.5 62.5q121 0 190.5 -54.5t69.5 -130.5q0 -16 -2.5 -31t-4.5 -22l-3 -7h-180q5 10 5 25q0 65 -75 65q-33 0 -54 -18t-21 -42q0 -21 25.5 -37t64 -26t83 -28
t83 -39.5t64 -63t25.5 -96.5q0 -97 -74.5 -161t-205.5 -64q-52 0 -101 12.5t-81.5 30t-58 35t-37.5 29.5l-12 13l95 125q3 -3 8.5 -9t23.5 -20.5t38 -26t51.5 -20.5t63.5 -9z" />
    <glyph glyph-name="T" unicode="T" horiz-adv-x="610" 
d="M395 540v-540h-180v540h-195v160h570v-160h-195z" />
    <glyph glyph-name="U" unicode="U" horiz-adv-x="750" 
d="M375 145q58 0 91.5 39.5t33.5 116.5v399h180v-399q0 -150 -81 -233t-224 -83t-224 83t-81 233v399h180v-399q0 -77 33.5 -116.5t91.5 -39.5z" />
    <glyph glyph-name="V" unicode="V" horiz-adv-x="690" 
d="M340 220h10q0 50 20 110l125 370h195l-255 -700h-180l-255 700h195l125 -370q9 -27 14 -54.5t6 -41.5v-14z" />
    <glyph glyph-name="W" unicode="W" horiz-adv-x="1030" 
d="M655 0l-115 345q-9 27 -14 52t-6 37v11h-10q0 -40 -20 -100l-115 -345h-170l-205 700h185l95 -330q9 -31 14 -58.5t6 -39.5v-12h10q2 40 25 110l110 330h140l110 -330q10 -31 16.5 -58.5t7.5 -39.5l1 -12h10q0 40 20 110l95 330h185l-205 -700h-170z" />
    <glyph glyph-name="X" unicode="X" horiz-adv-x="680" 
d="M345 240h-10q0 -25 -45 -100l-85 -140h-215l240 370l-220 330h215l65 -100q20 -31 31 -56t13 -34l1 -10h10q0 30 45 100l65 100h215l-220 -330l240 -370h-215l-85 140q-20 33 -31 58t-13 34z" />
    <glyph glyph-name="Y" unicode="Y" horiz-adv-x="670" 
d="M330 410h10q0 44 30 100l105 190h200l-250 -455v-245h-180v245l-250 455h200l105 -190q13 -25 20.5 -50t8.5 -38z" />
    <glyph glyph-name="Z" unicode="Z" horiz-adv-x="615" 
d="M245 160h345v-160h-565v160l255 300q15 18 35 35.5t33 26.5l12 8v10h-315v160h535v-160l-255 -300q-15 -18 -35 -35.5t-32 -26.5l-13 -8v-10z" />
    <glyph glyph-name="bracketleft" unicode="[" horiz-adv-x="390" 
d="M70 -215v970h295v-155h-120v-660h120v-155h-295z" />
    <glyph glyph-name="backslash" unicode="\" horiz-adv-x="550" 
d="M160 760l390 -980h-160l-390 980h160z" />
    <glyph glyph-name="bracketright" unicode="]" horiz-adv-x="390" 
d="M320 755v-970h-295v155h120v660h-120v155h295z" />
    <glyph glyph-name="asciicircum" unicode="^" horiz-adv-x="490" 
d="M20 350l165 350h120l165 -350h-145l-75 170h-10l-75 -170h-145z" />
    <glyph glyph-name="underscore" unicode="_" horiz-adv-x="440" 
d="M-10 -220v150h460v-150h-460z" />
    <glyph glyph-name="grave" unicode="`" horiz-adv-x="310" 
d="M220 755l60 -185h-110l-140 185h190z" />
    <glyph glyph-name="a" unicode="a" 
d="M250 125q32 0 57 21t33 49h-90q-50 0 -50 -35t50 -35zM280 545q104 0 167 -59.5t63 -150.5v-155q0 -45 45 -45h15v-135q-40 -15 -85 -15q-29 0 -52 9.5t-34 22.5t-18.5 26t-8.5 23l-2 9h-10l-5 -10t-16.5 -21.5t-30 -27.5t-45.5 -21.5t-63 -9.5q-74 0 -122 46t-48 114
q0 73 54.5 121.5t145.5 48.5h110v15q0 33 -16.5 51.5t-43.5 18.5q-60 0 -60 -50v-10h-150q-10 20 -10 45q0 64 60 112t160 48z" />
    <glyph glyph-name="b" unicode="b" horiz-adv-x="630" 
d="M70 60v700h170v-280q5 7 15 18t46.5 29t78.5 18q94 0 152 -70.5t58 -204.5t-73.5 -209.5t-201.5 -75.5q-41 0 -81 7.5t-68.5 18.5t-51 22.5t-33.5 18.5zM240 270v-115q35 -20 75 -20q43 0 69 31.5t26 93.5q0 63 -23.5 96.5t-56.5 33.5q-40 0 -65 -29.5t-25 -90.5z" />
    <glyph glyph-name="c" unicode="c" horiz-adv-x="575" 
d="M545 355q0 -16 -2.5 -31t-4.5 -22l-3 -7h-165q5 15 5 35q0 30 -17.5 47.5t-47.5 17.5q-90 0 -90 -125q0 -135 110 -135q38 0 69 13.5t43 27.5l13 14l85 -115q-3 -4 -8.5 -10t-26 -21.5t-45 -27.5t-64.5 -21.5t-84 -9.5q-126 0 -199 74.5t-73 205.5t73.5 205.5t201.5 74.5
q106 0 168 -54.5t62 -135.5z" />
    <glyph glyph-name="d" unicode="d" horiz-adv-x="645" 
d="M390 260v115q-35 20 -75 20q-43 0 -69 -32.5t-26 -97.5q0 -63 23.5 -96.5t56.5 -33.5q40 0 65 32t25 93zM560 760v-580q0 -45 45 -45h15v-135q-40 -15 -85 -15q-31 0 -54 9.5t-34 22.5t-18 26t-8 23l-1 9h-10l-5 -10t-16.5 -21.5t-30 -27.5t-45.5 -21.5t-63 -9.5
q-94 0 -152 70.5t-58 204.5q0 135 68 210t177 75q27 0 53 -5t39 -10l13 -5v235h170z" />
    <glyph glyph-name="e" unicode="e" 
d="M315 405q-33 0 -57.5 -23.5t-32.5 -61.5h125q35 0 35 30q0 23 -18.5 39t-51.5 16zM335 125q38 0 71.5 13.5t48.5 27.5l15 14l70 -115q-3 -3 -9 -8.5t-27 -19.5t-45.5 -24.5t-64 -19t-82.5 -8.5q-126 0 -199 74.5t-73 205.5t73.5 205.5t201.5 74.5q111 0 175.5 -60
t64.5 -155q0 -29 -7.5 -59t-15.5 -45l-7 -16h-300q4 -36 33.5 -60.5t76.5 -24.5z" />
    <glyph glyph-name="f" unicode="f" horiz-adv-x="420" 
d="M95 520v40q0 96 55.5 155.5t139.5 59.5q36 0 69.5 -6.5t49.5 -12.5l16 -6l-20 -140q-35 15 -75 15q-65 0 -65 -75v-30h125v-150h-125v-370h-170v370h-75v150h75z" />
    <glyph glyph-name="g" unicode="g" horiz-adv-x="565" 
d="M465 630q20 0 41.5 -5t32.5 -10l11 -5v-120q-15 5 -40 5q-11 0 -21 -5t-15 -10l-4 -5q5 -4 12.5 -13t20 -41.5t12.5 -70.5q0 -85 -63 -140t-172 -55q-20 0 -40 2.5t-30 4.5l-10 3q-10 -5 -10 -21q0 -24 40 -24h145q81 0 130.5 -46.5t49.5 -118.5q0 -83 -68 -136.5
t-197 -53.5q-131 0 -198 48.5t-67 121.5q0 21 7.5 40.5t18.5 32.5t22.5 23t18.5 15l8 4q-6 3 -14 8.5t-22 26.5t-14 45q0 27 12.5 48t25.5 29l12 8q-6 5 -15 15t-24.5 45t-15.5 75q0 85 63 140t172 55l70 -5q0 36 32 63t83 27zM390 -50q0 40 -62 40h-123q-25 -10 -25 -40
q0 -55 105 -55q52 0 78.5 16.5t26.5 38.5zM350 350q0 30 -18.5 47.5t-51.5 17.5t-51.5 -17.5t-18.5 -47.5t18.5 -47.5t51.5 -17.5t51.5 17.5t18.5 47.5z" />
    <glyph glyph-name="h" unicode="h" horiz-adv-x="635" 
d="M330 395q-40 0 -65 -33t-25 -97v-265h-170v760h170v-280q5 7 14 18t45.5 29t80.5 18q84 0 134.5 -53.5t50.5 -146.5v-345h-170v330q0 30 -17.5 47.5t-47.5 17.5z" />
    <glyph glyph-name="i" unicode="i" horiz-adv-x="330" 
d="M260 395v-395h-170v350q0 45 -45 45h-15v135q40 15 85 15q145 0 145 -150zM270 690q0 -38 -25.5 -61.5t-69.5 -23.5t-69.5 23.5t-25.5 61.5t25.5 61.5t69.5 23.5t69.5 -23.5t25.5 -61.5z" />
    <glyph glyph-name="j" unicode="j" horiz-adv-x="315" 
d="M245 530v-555q0 -101 -54 -158t-141 -57q-24 0 -50 4.5t-40 9.5l-15 4l15 137q20 -5 45 -5q70 0 70 75v545h170zM255 690q0 -38 -25.5 -61.5t-69.5 -23.5t-69.5 23.5t-25.5 61.5t25.5 61.5t69.5 23.5t69.5 -23.5t25.5 -61.5z" />
    <glyph glyph-name="k" unicode="k" horiz-adv-x="590" 
d="M240 760v-415h50l110 185h185l-160 -250v-10l175 -270h-190l-120 195h-50v-195h-170v760h170z" />
    <glyph glyph-name="l" unicode="l" horiz-adv-x="325" 
d="M70 135v625h170v-580q0 -45 45 -45h15v-135q-40 -15 -85 -15q-145 0 -145 150z" />
    <glyph glyph-name="m" unicode="m" horiz-adv-x="925" 
d="M555 0h-170v330q0 65 -55 65q-29 0 -52 -33t-23 -92v-270h-170v350q0 45 -45 45h-15v135q40 15 85 15q29 0 52 -9.5t34 -22.5t18.5 -26t9.5 -23l1 -9h10q1 4 4 10t15 21.5t27 27.5t41.5 21.5t57.5 9.5t56.5 -9.5t40.5 -22.5t25 -26t14 -23l4 -9h10q1 4 4.5 10t15.5 21.5
t27.5 27.5t43 21.5t59.5 9.5q77 0 126 -54t49 -146v-345h-170v330q0 65 -55 65q-29 0 -52 -33t-23 -92v-270z" />
    <glyph glyph-name="n" unicode="n" horiz-adv-x="650" 
d="M345 395q-40 0 -65 -32t-25 -93v-270h-170v350q0 45 -45 45h-15v135q40 15 85 15q29 0 52 -9.5t34 -22.5t18.5 -26t9.5 -23l1 -9h10q1 4 4.5 10t16 21.5t29 27.5t46 21.5t64.5 9.5q84 0 134.5 -53.5t50.5 -146.5v-345h-170v330q0 30 -17.5 47.5t-47.5 17.5z" />
    <glyph glyph-name="o" unicode="o" horiz-adv-x="630" 
d="M410 265q0 65 -26 97.5t-69 32.5t-69 -32.5t-26 -97.5t26 -97.5t69 -32.5t69 32.5t26 97.5zM40 265q0 131 73.5 205.5t201.5 74.5t201.5 -74.5t73.5 -205.5t-73.5 -205.5t-201.5 -74.5t-201.5 74.5t-73.5 205.5z" />
    <glyph glyph-name="p" unicode="p" horiz-adv-x="645" 
d="M255 270v-115q35 -20 75 -20q43 0 69 32.5t26 97.5q0 63 -23.5 96.5t-56.5 33.5q-40 0 -65 -32t-25 -93zM85 -220v570q0 45 -45 45h-15v135q40 15 85 15q29 0 52 -9.5t34 -22.5t18.5 -26t9.5 -23l1 -9h10q1 4 4.5 10t16 21.5t29 27.5t46 21.5t64.5 9.5q94 0 152 -70.5
t58 -204.5q0 -135 -68 -210t-177 -75q-27 0 -53 5t-39 10l-13 5v-225h-170z" />
    <glyph glyph-name="q" unicode="q" horiz-adv-x="630" 
d="M560 470v-690h-170v270q-5 -7 -15 -18t-46.5 -29t-78.5 -18q-94 0 -152 70.5t-58 204.5t73.5 209.5t201.5 75.5q41 0 81 -7.5t68.5 -19t51 -22.5t33.5 -18zM390 260v115q-35 20 -75 20q-43 0 -69 -31.5t-26 -93.5q0 -63 23.5 -96.5t56.5 -33.5q40 0 65 29.5t25 90.5z" />
    <glyph glyph-name="r" unicode="r" horiz-adv-x="445" 
d="M395 540h40v-165h-70q-53 0 -81.5 -33t-28.5 -96v-246h-170v345q0 45 -45 45h-15v135q40 15 85 15q29 0 52 -9.5t34 -22.5t18.5 -26t9.5 -22l1 -10h10q1 4 4.5 10t16 21.5t29 27.5t46 21.5t64.5 9.5z" />
    <glyph glyph-name="s" unicode="s" horiz-adv-x="520" 
d="M230 130q65 0 65 30q0 16 -27 27t-65 22t-76 27t-65 52t-27 87q0 71 60.5 120.5t164.5 49.5q107 0 163.5 -43.5t56.5 -111.5q0 -11 -2.5 -21t-5.5 -15l-2 -4h-160v10q0 16 -14 28t-36 12q-18 0 -29 -9t-11 -21q0 -16 27 -27t65 -22t76 -27t65 -51.5t27 -87.5
q0 -75 -58.5 -122.5t-166.5 -47.5q-46 0 -88 9.5t-68.5 22.5t-46.5 26t-28 23l-9 9l80 105q5 -6 15 -14t45 -22t75 -14z" />
    <glyph glyph-name="t" unicode="t" horiz-adv-x="460" 
d="M95 200v180h-75v150h80l20 130h145v-130h125v-150h-125v-170q0 -75 65 -75q18 0 36.5 3.5t28.5 7.5l10 4l20 -140q-55 -25 -135 -25q-84 0 -139.5 59.5t-55.5 155.5z" />
    <glyph glyph-name="u" unicode="u" horiz-adv-x="650" 
d="M305 135q40 0 65 32t25 93v270h170v-350q0 -45 45 -45h15v-135q-40 -15 -85 -15q-31 0 -54 9.5t-34 22.5t-18 26t-8 23l-1 9h-10l-5 -10t-16.5 -21.5t-30 -27.5t-45.5 -21.5t-63 -9.5q-84 0 -134.5 53.5t-50.5 146.5v345h170v-330q0 -30 17.5 -47.5t47.5 -17.5z" />
    <glyph glyph-name="v" unicode="v" horiz-adv-x="570" 
d="M280 210h10q0 40 20 100l70 220h185l-195 -530h-170l-195 530h185l70 -220q9 -27 14 -52t6 -36v-12z" />
    <glyph glyph-name="w" unicode="w" horiz-adv-x="830" 
d="M285 340l55 190h150l55 -190q8 -27 13 -52t6 -36l1 -12h10q2 40 20 100l55 190h175l-155 -530h-160l-70 220q-9 27 -14 52t-6 36v12h-10q0 -40 -20 -100l-70 -220h-160l-155 530h175l55 -190q8 -27 13 -52t6 -36l1 -12h10q2 40 20 100z" />
    <glyph glyph-name="x" unicode="x" horiz-adv-x="550" 
d="M270 380h10q0 34 30 80l45 70h185l-160 -255l175 -275h-190l-50 80q-16 24 -24.5 44t-9.5 28l-1 8h-10q0 -25 -35 -80l-50 -80h-190l175 275l-160 255h185l45 -70q13 -20 20.5 -40t8.5 -30z" />
    <glyph glyph-name="y" unicode="y" horiz-adv-x="570" 
d="M145 -240q-24 0 -49 4t-38 8l-13 3q10 75 20 145q20 -10 45 -10q34 0 54.5 20.5t35.5 69.5l-195 530h185l75 -220q9 -27 14 -54.5t5 -41.5l1 -14h10q1 50 20 110l70 220h180l-195 -545q-44 -123 -95 -174t-130 -51z" />
    <glyph glyph-name="z" unicode="z" horiz-adv-x="515" 
d="M490 150v-150h-465v150l165 170q13 13 29.5 25.5t26.5 18.5l9 6v10h-215v150h440v-150l-165 -170q-13 -13 -29.5 -25.5t-25.5 -18.5l-10 -6v-10h240z" />
    <glyph glyph-name="braceleft" unicode="{" horiz-adv-x="440" 
d="M65 200h-25v140h25q30 0 47.5 18.5t17.5 51.5v130q0 215 200 215q20 0 42.5 -2.5t35.5 -4.5l12 -3v-140h-30q-41 0 -63 -20.5t-22 -54.5v-115q0 -35 -9.5 -62.5t-22.5 -41t-26 -22.5t-23 -11l-9 -3v-10l10 -2.5t21.5 -11t27.5 -23t21.5 -41t9.5 -62.5v-115
q0 -34 22 -54.5t63 -20.5h30v-140q-45 -10 -90 -10q-200 0 -200 215v130q0 33 -17.5 51.5t-47.5 18.5z" />
    <glyph glyph-name="bar" unicode="|" horiz-adv-x="380" 
d="M110 -220v980h160v-980h-160z" />
    <glyph glyph-name="braceright" unicode="}" horiz-adv-x="440" 
d="M400 200h-25q-30 0 -47.5 -18.5t-17.5 -51.5v-130q0 -215 -200 -215q-20 0 -42.5 2.5t-35.5 4.5l-12 3v140h30q41 0 63 20.5t22 54.5v115q0 35 9.5 62.5t22.5 41t26 22.5t23 11l9 3v10l-10 2.5t-21.5 11t-27.5 23t-21.5 41t-9.5 62.5v115q0 34 -22 54.5t-63 20.5h-30v140
q45 10 90 10q200 0 200 -215v-130q0 -33 17.5 -51.5t47.5 -18.5h25v-140z" />
    <glyph glyph-name="asciitilde" unicode="~" 
d="M420 210q-45 0 -83.5 20t-66.5 40t-50 20t-36 -14t-14 -36v-20h-130q-10 39 -10 80q0 67 40.5 108.5t104.5 41.5q45 0 83.5 -20t66.5 -40t50 -20q23 0 36.5 14t13.5 36v20h130q10 -39 10 -80q0 -67 -40.5 -108.5t-104.5 -41.5z" />
    <glyph glyph-name="nbspace" unicode="&#xa0;" horiz-adv-x="240" 
 />
    <glyph glyph-name="exclamdown" unicode="&#xa1;" horiz-adv-x="330" 
d="M105 290h120l30 -180v-330h-180v330zM260 450q0 -42 -25 -66t-70 -24t-70 24t-25 66t25 66t70 24t70 -24t25 -66z" />
    <glyph glyph-name="cent" unicode="&#xa2;" horiz-adv-x="575" 
d="M545 355q0 -16 -2.5 -31t-4.5 -22l-3 -7h-165q5 15 5 35q0 30 -17.5 47.5t-47.5 17.5q-90 0 -90 -125q0 -135 110 -135q38 0 69 13.5t43 27.5l13 14l85 -115q-6 -7 -17.5 -18.5t-53 -34t-89.5 -31.5v-86h-155v91q-88 23 -136.5 93t-48.5 176q0 105 48.5 175t136.5 93v87
h155v-82q77 -15 121 -65.5t44 -117.5z" />
    <glyph glyph-name="sterling" unicode="&#xa3;" horiz-adv-x="635" 
d="M55 350v85h55q-15 35 -15 71q0 89 69.5 149t185.5 60q115 0 180 -53t65 -132q0 -13 -2.5 -28t-4.5 -24l-3 -8h-175q5 15 5 30q0 23 -18.5 39t-51.5 16q-75 0 -75 -65q0 -13 4 -27t8 -21l3 -7h170v-85h-145q5 -15 5 -30h140v-85h-150q-4 -16 -14 -33.5t-18 -27.5l-8 -9
l5 -5q35 20 80 20q31 0 73 -17.5t72 -17.5q24 0 44 7.5t28 15.5l8 7l60 -145q-6 -5 -17.5 -12.5t-48 -20t-74.5 -12.5q-52 0 -120.5 25t-109.5 25q-36 0 -73.5 -13.5t-57.5 -27.5l-19 -14l-65 155q8 3 20 10t38 33t37 57h-90v85h95l-5 30h-90z" />
    <glyph glyph-name="currency" unicode="&#xa4;" horiz-adv-x="700" 
d="M290 410h100q40 0 62.5 19.5t22.5 50.5t-22.5 50.5t-62.5 19.5h-100v-140zM665 490q0 -97 -67 -153.5t-198 -56.5h-110v-50h237v-130h-237v-100h-180v100h-75v130h75v50h-75v130h75v290h290q131 0 198 -56.5t67 -153.5z" />
    <glyph glyph-name="yen" unicode="&#xa5;" horiz-adv-x="670" 
d="M330 410h10q0 44 30 100l105 190h200l-155 -280h80v-120h-145l-20 -40h125v-120h-135v-140h-180v140h-135v120h125l-20 40h-145v120h80l-155 280h200l105 -190q13 -25 20.5 -50t8.5 -38z" />
    <glyph glyph-name="brokenbar" unicode="&#xa6;" horiz-adv-x="380" 
d="M110 350v410h160v-410h-160zM110 -220v410h160v-410h-160z" />
    <glyph glyph-name="section" unicode="&#xa7;" horiz-adv-x="570" 
d="M120 470q-2 1 -6 4t-13.5 13t-16.5 22t-13 31t-6 40q0 64 60 112t160 48q107 0 163.5 -43t56.5 -107q0 -11 -2.5 -22.5t-4.5 -17.5l-3 -5h-155v10q0 16 -14 28t-36 12q-18 0 -29 -9t-11 -21q0 -18 26.5 -31t64 -25t74.5 -28.5t63.5 -50t26.5 -80.5q0 -31 -15 -60t-30 -42
l-15 -13q2 -1 6 -4t13.5 -13t16.5 -22t13 -31t6 -40q0 -67 -59.5 -116t-160.5 -49q-51 0 -94 9.5t-68 22.5t-42.5 26t-23.5 22l-7 10l80 105q5 -6 15 -14t43.5 -22t71.5 -14q31 0 45.5 11t14.5 24q0 18 -26.5 31t-63.5 25t-74.5 28.5t-64 50t-26.5 80.5q0 31 15 60t30 42z
M335 295q15 11 15 30q0 60 -120 85q-15 -11 -15 -30q0 -60 120 -85z" />
    <glyph glyph-name="dieresis" unicode="&#xa8;" horiz-adv-x="460" 
d="M30 675q0 37 24 61t61 24t61 -24t24 -61t-24 -61t-61 -24t-61 24t-24 61zM260 675q0 37 24 61t61 24t61 -24t24 -61t-24 -61t-61 -24t-61 24t-24 61z" />
    <glyph glyph-name="copyright" unicode="&#xa9;" horiz-adv-x="950" 
d="M180 335q0 -127 84 -211t211 -84t211 84t84 211t-84 211t-211 84t-211 -84t-84 -211zM655 405l-5 -40h-125q5 10 5 25q0 40 -45 40q-31 0 -50.5 -24t-19.5 -71q0 -44 23.5 -69.5t61.5 -25.5q27 0 49.5 10t31.5 20l9 10l65 -85q-2 -3 -6 -8t-19 -18t-33 -23t-48 -18
t-64 -8q-101 0 -158 57t-57 158t57 158t158 57q77 0 123.5 -42t46.5 -103zM900 335q0 -170 -123 -290t-302 -120t-302 120t-123 290t123 290t302 120t302 -120t123 -290z" />
    <glyph glyph-name="ordfeminine" unicode="&#xaa;" horiz-adv-x="440" 
d="M205 430q19 0 34.5 15.5t15.5 34.5h-50q-35 0 -35 -25t35 -25zM220 710q74 0 119.5 -42.5t45.5 -107.5v-90q0 -30 25 -30h20v-100q-20 -10 -50 -10q-46 0 -70.5 18.5t-24.5 46.5h-10q-1 -3 -3 -7t-11 -15.5t-20.5 -20t-31.5 -15.5t-44 -7q-52 0 -86 33t-34 81
q0 47 36.5 79t98.5 32h75v15q0 40 -40 40q-14 0 -22 -9t-8 -21v-10h-115q-5 15 -5 35q0 44 40 74.5t115 30.5z" />
    <glyph glyph-name="guillemotleft" unicode="&#xab;" horiz-adv-x="610" 
d="M20 265l240 250l95 -95l-145 -150v-10l145 -150l-95 -95zM495 45l-210 220l210 220l95 -95l-115 -120v-10l115 -120z" />
    <glyph glyph-name="logicalnot" unicode="&#xac;" horiz-adv-x="520" 
d="M30 325v150h460v-255h-160v105h-300z" />
    <glyph glyph-name="uni00AD" unicode="&#xad;" horiz-adv-x="460" 
d="M30 255v150h400v-150h-400z" />
    <glyph glyph-name="registered" unicode="&#xae;" horiz-adv-x="950" 
d="M670 250l-15 -115q-15 -5 -40 -5q-36 0 -61.5 19t-36 41t-22.5 41t-25 19h-30v-120h-135v410h169q90 0 138 -37t48 -93q0 -33 -19 -57t-37 -31l-19 -7v-10q19 -6 37 -30.5t48 -24.5zM525 395q0 35 -45 35h-40v-70h40q45 0 45 35zM180 335q0 -127 84 -211t211 -84t211 84
t84 211t-84 211t-211 84t-211 -84t-84 -211zM900 335q0 -170 -123 -290t-302 -120t-302 120t-123 290t123 290t302 120t302 -120t123 -290z" />
    <glyph glyph-name="macron" unicode="&#xaf;" horiz-adv-x="430" 
d="M30 620v120h370v-120h-370z" />
    <glyph glyph-name="degree" unicode="&#xb0;" horiz-adv-x="450" 
d="M160 535q0 -30 17.5 -47.5t47.5 -17.5t47.5 17.5t17.5 47.5t-17.5 47.5t-47.5 17.5t-47.5 -17.5t-17.5 -47.5zM410 535q0 -76 -51.5 -125.5t-133.5 -49.5t-133.5 49.5t-51.5 125.5t51.5 125.5t133.5 49.5t133.5 -49.5t51.5 -125.5z" />
    <glyph glyph-name="plusminus" unicode="&#xb1;" horiz-adv-x="520" 
d="M45 40v150h140v110h-145v150h145v155h150v-155h145v-150h-145v-110h140v-150h-430z" />
    <glyph glyph-name="twosuperior" unicode="&#xb2;" horiz-adv-x="375" 
d="M350 700q0 -27 -14 -52.5t-33.5 -42t-39.5 -30t-34 -19.5l-14 -6v-10q35 10 80 10h55v-110h-320v110q8 4 20.5 10t45.5 24t58 34t45.5 35t20.5 32t-9 21.5t-26 8.5q-15 0 -25 -11t-10 -29v-5h-120q-5 15 -5 30q0 51 42 85.5t118 34.5q79 0 122 -34t43 -86z" />
    <glyph glyph-name="threesuperior" unicode="&#xb3;" horiz-adv-x="360" 
d="M330 730l-85 -55v-10l10 -2.5t21.5 -8.5t27.5 -17t21.5 -29t9.5 -43q0 -55 -42 -90t-118 -35q-47 0 -87 15t-56 30l-17 15l60 78q33 -38 81 -38q21 0 32.5 9.5t11.5 25.5q0 12 -11 21t-29 9h-40l-20 60l40 30q9 7 21.5 13t20.5 9l8 3v10q-30 -10 -50 -10h-100v100h290
v-90z" />
    <glyph glyph-name="acute" unicode="&#xb4;" horiz-adv-x="310" 
d="M30 570l60 185h190l-140 -185h-110z" />
    <glyph glyph-name="mu" unicode="&#xb5;" horiz-adv-x="640" 
d="M305 135q40 0 65 32t25 93v270h170v-350q0 -45 45 -45h15v-135q-40 -15 -85 -15q-31 0 -54 9.5t-34 22.5t-18 26t-8 23l-1 9h-10l-5 -10t-16.5 -21.5t-30 -27.5t-45.5 -21.5t-63 -9.5h-15v-205h-170v750h170v-330q0 -30 17.5 -47.5t47.5 -17.5z" />
    <glyph glyph-name="paragraph" unicode="&#xb6;" horiz-adv-x="700" 
d="M260 -220v490q-107 0 -166 58t-59 157q0 102 58.5 158.5t166.5 56.5h420v-140h-80v-780h-144l-1 780h-50v-780h-145z" />
    <glyph glyph-name="periodcentered" unicode="&#xb7;" horiz-adv-x="240" 
d="M25 300q0 42 25 66t70 24t70 -24t25 -66t-25 -66t-70 -24t-70 24t-25 66z" />
    <glyph glyph-name="cedilla" unicode="&#xb8;" horiz-adv-x="310" 
d="M140 -290q-29 0 -56.5 5t-40.5 10l-13 5l30 80q28 -15 60 -15q45 0 45 40q0 17 -18.5 28.5t-56.5 11.5h-25l35 125h90l-20 -65q4 -1 11.5 -2.5t26.5 -9.5t33.5 -19.5t26.5 -33.5t12 -50q0 -47 -37.5 -78.5t-102.5 -31.5z" />
    <glyph glyph-name="onesuperior" unicode="&#xb9;" horiz-adv-x="290" 
d="M245 440h-130v220q-25 -30 -85 -30v110q33 0 55.5 20t28.5 40l6 20h125v-380z" />
    <glyph glyph-name="ordmasculine" unicode="&#xba;" horiz-adv-x="410" 
d="M160 520q0 -80 45 -80t45 80t-45 80t-45 -80zM380 520q0 -89 -47.5 -139.5t-127.5 -50.5t-127.5 50.5t-47.5 139.5t47.5 139.5t127.5 50.5t127.5 -50.5t47.5 -139.5z" />
    <glyph glyph-name="guillemotright" unicode="&#xbb;" horiz-adv-x="610" 
d="M350 515l240 -250l-240 -250l-95 95l145 150v10l-145 150zM325 265l-210 -220l-95 95l115 120v10l-115 120l95 95z" />
    <glyph glyph-name="onequarter" unicode="&#xbc;" horiz-adv-x="865" 
d="M705 700l-400 -700h-170l400 700h170zM245 320h-130v220q-25 -30 -85 -30v110q33 0 55.5 20t28.5 40l6 20h125v-380zM625 380h125l-80 -140q-10 -18 -22.5 -33t-19.5 -21l-8 -6v-10h60l25 85h95v-85h45v-100h-45v-70h-130v70h-170v100q41 70 125 210z" />
    <glyph glyph-name="onehalf" unicode="&#xbd;" horiz-adv-x="900" 
d="M705 700l-400 -700h-170l400 700h170zM245 320h-130v220q-25 -30 -85 -30v110q33 0 55.5 20t28.5 40l6 20h125v-380zM865 260q0 -27 -14 -52.5t-33.5 -42t-39.5 -30t-34 -19.5l-14 -6v-10q35 10 80 10h55v-110h-320v110q8 4 20.5 10t45.5 24t58 34t45.5 35t20.5 32
t-8.5 21.5t-26.5 8.5q-15 0 -25 -11t-10 -29v-5h-120q-5 15 -5 30q0 51 42 85.5t118 34.5q79 0 122 -34t43 -86z" />
    <glyph glyph-name="threequarters" unicode="&#xbe;" horiz-adv-x="910" 
d="M750 700l-400 -700h-170l400 700h170zM670 380h125l-80 -140q-10 -18 -22.5 -33t-20.5 -21l-7 -6v-10h60l25 85h95v-85h45v-100h-45v-70h-130v70h-170v100q41 70 125 210zM330 610l-85 -55v-10l10 -2.5t21.5 -8.5t27.5 -17t21.5 -29t9.5 -43q0 -55 -42 -90t-118 -35
q-47 0 -87 15t-56 30l-17 15q9 12 19 25t22 28.5t19 24.5q33 -38 81 -38q21 0 32.5 9.5t11.5 25.5q0 12 -11 21t-29 9h-40l-20 60l40 30q9 7 21.5 13t20.5 9l8 3v10q-30 -10 -50 -10h-100v100h290v-90z" />
    <glyph glyph-name="questiondown" unicode="&#xbf;" horiz-adv-x="500" 
d="M200 -21q0 -26 17.5 -42.5t47.5 -16.5q33 0 51.5 17.5t18.5 47.5l-5 25h180q10 -20 10 -60q0 -77 -67 -131t-188 -54q-117 0 -186 58.5t-69 141.5q0 50 19.5 90.5t47.5 66.5t56 48.5t47.5 47.5t19.5 52v20h150q10 -25 10 -55q0 -37 -16.5 -71t-40 -57.5t-47 -45
t-40 -42.5t-16.5 -40zM375 450q0 -42 -25 -66t-70 -24t-70 24t-25 66t25 66t70 24t70 -24t25 -66z" />
    <glyph glyph-name="Agrave" unicode="&#xc0;" horiz-adv-x="700" 
d="M355 520h-10q-1 -40 -20 -100l-45 -140h140l-45 140q-8 27 -13 52t-6 36zM475 120h-250l-40 -120h-190l260 700h190l260 -700h-190zM345 950l60 -185h-110l-140 185h190z" />
    <glyph glyph-name="Aacute" unicode="&#xc1;" horiz-adv-x="700" 
d="M355 520h-10q-1 -40 -20 -100l-45 -140h140l-45 140q-8 27 -13 52t-6 36zM475 120h-250l-40 -120h-190l260 700h190l260 -700h-190zM295 765l60 185h190l-140 -185h-110z" />
    <glyph glyph-name="Acircumflex" unicode="&#xc2;" horiz-adv-x="700" 
d="M355 520h-10q-1 -40 -20 -100l-45 -140h140l-45 140q-8 27 -13 52t-6 36zM475 120h-250l-40 -120h-190l260 700h190l260 -700h-190zM120 765l170 185h120l170 -185h-150l-77 90h-6l-77 -90h-150z" />
    <glyph glyph-name="Atilde" unicode="&#xc3;" horiz-adv-x="700" 
d="M355 520h-10q-1 -40 -20 -100l-45 -140h140l-45 140q-8 27 -13 52t-6 36zM475 120h-250l-40 -120h-190l260 700h190l260 -700h-190zM435 770q-39 0 -67.5 15t-46.5 30t-31 15q-15 0 -25 -11t-10 -29v-10h-90q-10 24 -10 57q0 51 30.5 82t79.5 31q39 0 67.5 -15t46.5 -30
t31 -15q15 0 25 11t10 29v10h90q10 -24 10 -57q0 -51 -30.5 -82t-79.5 -31z" />
    <glyph glyph-name="Adieresis" unicode="&#xc4;" horiz-adv-x="700" 
d="M355 520h-10q-1 -40 -20 -100l-45 -140h140l-45 140q-8 27 -13 52t-6 36zM475 120h-250l-40 -120h-190l260 700h190l260 -700h-190zM150 855q0 37 24 61t61 24t61 -24t24 -61t-24 -61t-61 -24t-61 24t-24 61zM380 855q0 37 24 61t61 24t61 -24t24 -61t-24 -61t-61 -24
t-61 24t-24 61z" />
    <glyph glyph-name="Aring" unicode="&#xc5;" horiz-adv-x="700" 
d="M355 520h-10q-1 -40 -20 -100l-45 -140h140l-45 140q-8 27 -13 52t-6 36zM475 120h-250l-40 -120h-190l260 700h190l260 -700h-190zM305 880q0 -22 13 -36t32 -14t32 14t13 36t-13 36t-32 14t-32 -14t-13 -36zM485 880q0 -57 -37.5 -93.5t-97.5 -36.5t-97.5 36.5
t-37.5 93.5t37.5 93.5t97.5 36.5t97.5 -36.5t37.5 -93.5z" />
    <glyph glyph-name="AE" unicode="&#xc6;" horiz-adv-x="990" 
d="M640 540v-110h255v-160h-255v-110h310v-160h-490v150h-225l-70 -150h-195l320 700h660v-160h-310zM405 545l-110 -245h165v245h-55z" />
    <glyph glyph-name="Ccedilla" unicode="&#xc7;" horiz-adv-x="710" 
d="M375 -290q-29 0 -56.5 5t-40.5 10l-13 5l30 80q28 -15 60 -15q45 0 45 40q0 17 -18.5 28.5t-56.5 11.5h-25l32 114q-135 18 -211 112.5t-76 248.5q0 171 93 268t252 97q130 0 207.5 -62.5t77.5 -152.5q0 -18 -2.5 -35.5t-4.5 -26.5l-3 -8h-185q5 15 5 45q0 35 -25.5 57.5
t-69.5 22.5q-70 0 -112.5 -51t-42.5 -149q0 -103 47 -156.5t128 -53.5q32 0 62 7.5t49.5 18.5t34.5 22.5t22 18.5l7 8l90 -115q-4 -4 -10.5 -11.5t-30.5 -27t-51.5 -34.5t-71.5 -29t-91 -17l-15 -51q4 -1 11.5 -2.5t26.5 -9.5t33.5 -19.5t26.5 -33.5t12 -50
q0 -47 -37.5 -78.5t-102.5 -31.5z" />
    <glyph glyph-name="Egrave" unicode="&#xc8;" horiz-adv-x="600" 
d="M250 540v-110h255v-160h-255v-110h310v-160h-490v700h490v-160h-310zM330 950l60 -185h-110l-140 185h190z" />
    <glyph glyph-name="Eacute" unicode="&#xc9;" horiz-adv-x="600" 
d="M250 540v-110h255v-160h-255v-110h310v-160h-490v700h490v-160h-310zM255 765l60 185h190l-140 -185h-110z" />
    <glyph glyph-name="Ecircumflex" unicode="&#xca;" horiz-adv-x="600" 
d="M250 540v-110h255v-160h-255v-110h310v-160h-490v700h490v-160h-310zM85 765l170 185h120l170 -185h-150l-77 90h-6l-77 -90h-150z" />
    <glyph glyph-name="Edieresis" unicode="&#xcb;" horiz-adv-x="600" 
d="M250 540v-110h255v-160h-255v-110h310v-160h-490v700h490v-160h-310zM120 855q0 37 24 61t61 24t61 -24t24 -61t-24 -61t-61 -24t-61 24t-24 61zM350 855q0 37 24 61t61 24t61 -24t24 -61t-24 -61t-61 -24t-61 24t-24 61z" />
    <glyph glyph-name="Igrave" unicode="&#xcc;" horiz-adv-x="320" 
d="M250 700v-700h-180v700h180zM160 940l60 -185h-110l-140 185h190z" />
    <glyph glyph-name="Iacute" unicode="&#xcd;" horiz-adv-x="320" 
d="M250 700v-700h-180v700h180zM100 755l60 185h190l-140 -185h-110z" />
    <glyph glyph-name="Icircumflex" unicode="&#xce;" horiz-adv-x="320" 
d="M250 700v-700h-180v700h180zM-70 765l170 185h120l170 -185h-150l-77 90h-6l-77 -90h-150z" />
    <glyph glyph-name="Idieresis" unicode="&#xcf;" horiz-adv-x="320" 
d="M250 700v-700h-180v700h180zM-40 855q0 37 24 61t61 24t61 -24t24 -61t-24 -61t-61 -24t-61 24t-24 61zM190 855q0 37 24 61t61 24t61 -24t24 -61t-24 -61t-61 -24t-61 24t-24 61z" />
    <glyph glyph-name="Eth" unicode="&#xd0;" horiz-adv-x="755" 
d="M715 350q0 -166 -95 -258t-270 -92h-260v275h-70v150h70v275h260q175 0 270 -92t95 -258zM525 350q0 190 -175 190h-80v-115h105v-150h-105v-115h80q175 0 175 190z" />
    <glyph glyph-name="Ntilde" unicode="&#xd1;" horiz-adv-x="780" 
d="M525 0l-210 310q-24 36 -40.5 63.5t-20.5 36.5l-4 10h-10q10 -30 10 -110v-310h-180v700h185l210 -310q24 -36 40 -63.5t21 -36.5l4 -10h10q-10 30 -10 110v310h180v-700h-185zM475 765q-39 0 -67.5 15t-46.5 30t-31 15q-15 0 -25 -11t-10 -29v-10h-90q-10 24 -10 57
q0 51 30.5 82t79.5 31q39 0 67.5 -15t46.5 -30t31 -15q15 0 25 11t10 29v10h90q10 -24 10 -57q0 -51 -30.5 -82t-79.5 -31z" />
    <glyph glyph-name="Ograve" unicode="&#xd2;" horiz-adv-x="790" 
d="M235 350q0 -102 43 -153.5t117 -51.5t117 51.5t43 153.5t-43 153.5t-117 51.5t-117 -51.5t-43 -153.5zM745 350q0 -171 -94 -268t-256 -97t-256 97t-94 268t94 268t256 97t256 -97t94 -268zM395 950l60 -185h-110l-140 185h190z" />
    <glyph glyph-name="Oacute" unicode="&#xd3;" horiz-adv-x="790" 
d="M235 350q0 -102 43 -153.5t117 -51.5t117 51.5t43 153.5t-43 153.5t-117 51.5t-117 -51.5t-43 -153.5zM745 350q0 -171 -94 -268t-256 -97t-256 97t-94 268t94 268t256 97t256 -97t94 -268zM340 765l60 185h190l-140 -185h-110z" />
    <glyph glyph-name="Ocircumflex" unicode="&#xd4;" horiz-adv-x="790" 
d="M235 350q0 -102 43 -153.5t117 -51.5t117 51.5t43 153.5t-43 153.5t-117 51.5t-117 -51.5t-43 -153.5zM745 350q0 -171 -94 -268t-256 -97t-256 97t-94 268t94 268t256 97t256 -97t94 -268zM165 765l170 185h120l170 -185h-150l-77 90h-6l-77 -90h-150z" />
    <glyph glyph-name="Otilde" unicode="&#xd5;" horiz-adv-x="790" 
d="M235 350q0 -102 43 -153.5t117 -51.5t117 51.5t43 153.5t-43 153.5t-117 51.5t-117 -51.5t-43 -153.5zM745 350q0 -171 -94 -268t-256 -97t-256 97t-94 268t94 268t256 97t256 -97t94 -268zM483 770q-39 0 -67.5 15t-46.5 30t-31 15q-15 0 -25 -11t-10 -29v-10h-90
q-10 24 -10 57q0 51 30.5 82t79.5 31q39 0 67.5 -15t46.5 -30t31 -15q15 0 25 11t10 29v10h90q10 -24 10 -57q0 -51 -30.5 -82t-79.5 -31z" />
    <glyph glyph-name="Odieresis" unicode="&#xd6;" horiz-adv-x="790" 
d="M235 350q0 -102 43 -153.5t117 -51.5t117 51.5t43 153.5t-43 153.5t-117 51.5t-117 -51.5t-43 -153.5zM745 350q0 -171 -94 -268t-256 -97t-256 97t-94 268t94 268t256 97t256 -97t94 -268zM195 855q0 37 23.5 61t61.5 24t61.5 -24t23.5 -61t-23.5 -61t-61.5 -24
t-61.5 24t-23.5 61zM425 855q0 37 23.5 61t61.5 24t61.5 -24t23.5 -61t-23.5 -61t-61.5 -24t-61.5 24t-23.5 61z" />
    <glyph glyph-name="multiply" unicode="&#xd7;" horiz-adv-x="530" 
d="M370 330l125 -125l-105 -105l-125 125l-125 -125l-105 105l125 125l-125 125l105 105l125 -125l125 125l105 -105z" />
    <glyph glyph-name="Oslash" unicode="&#xd8;" horiz-adv-x="790" 
d="M45 350q0 171 94 268t256 97q58 0 105.5 -11.5t65.5 -22.5l19 -11l55 55l105 -90l-55 -65q6 -8 15 -23.5t24.5 -72.5t15.5 -124q0 -171 -94 -268t-256 -97q-56 0 -103.5 11t-67.5 22l-19 12l-55 -55l-105 90l55 65q-6 8 -15 23.5t-24.5 72.5t-15.5 124zM555 350
q0 22 -1.5 39.5t-2.5 24.5l-1 6l-230 -260q20 -15 75 -15q74 0 117 51.5t43 153.5zM235 350q0 -22 1.5 -39.5t2.5 -24.5l1 -6l230 260q-20 15 -75 15q-74 0 -117 -51.5t-43 -153.5z" />
    <glyph glyph-name="Ugrave" unicode="&#xd9;" horiz-adv-x="750" 
d="M375 145q58 0 91.5 39.5t33.5 116.5v399h180v-399q0 -150 -81 -233t-224 -83t-224 83t-81 233v399h180v-399q0 -77 33.5 -116.5t91.5 -39.5zM380 950l60 -185h-110l-140 185h190z" />
    <glyph glyph-name="Uacute" unicode="&#xda;" horiz-adv-x="750" 
d="M375 145q58 0 91.5 39.5t33.5 116.5v399h180v-399q0 -150 -81 -233t-224 -83t-224 83t-81 233v399h180v-399q0 -77 33.5 -116.5t91.5 -39.5zM315 765l60 185h190l-140 -185h-110z" />
    <glyph glyph-name="Ucircumflex" unicode="&#xdb;" horiz-adv-x="750" 
d="M375 145q58 0 91.5 39.5t33.5 116.5v399h180v-399q0 -150 -81 -233t-224 -83t-224 83t-81 233v399h180v-399q0 -77 33.5 -116.5t91.5 -39.5zM145 765l170 185h120l170 -185h-150l-77 90h-6l-77 -90h-150z" />
    <glyph glyph-name="Udieresis" unicode="&#xdc;" horiz-adv-x="750" 
d="M375 145q58 0 91.5 39.5t33.5 116.5v399h180v-399q0 -150 -81 -233t-224 -83t-224 83t-81 233v399h180v-399q0 -77 33.5 -116.5t91.5 -39.5zM180 855q0 37 24 61t61 24t61 -24t24 -61t-24 -61t-61 -24t-61 24t-24 61zM410 855q0 37 24 61t61 24t61 -24t24 -61t-24 -61
t-61 -24t-61 24t-24 61z" />
    <glyph glyph-name="Yacute" unicode="&#xdd;" horiz-adv-x="670" 
d="M330 410h10q0 44 30 100l105 190h200l-250 -455v-245h-180v245l-250 455h200l105 -190q13 -25 20.5 -50t8.5 -38zM280 765l60 185h190l-140 -185h-110z" />
    <glyph glyph-name="Thorn" unicode="&#xde;" horiz-adv-x="710" 
d="M250 220h60q84 0 127 37t43 103t-43 103t-127 37h-60v-280zM670 360q0 -135 -94 -217.5t-266 -82.5h-60v-60h-180v720h180v-60h60q172 0 266 -82.5t94 -217.5z" />
    <glyph glyph-name="germandbls" unicode="&#xdf;" horiz-adv-x="660" 
d="M390 135q33 0 51.5 16.5t18.5 43.5q0 23 -19 43t-41 33t-41 39t-19 60q0 31 22.5 73.5t22.5 66.5q0 23 -18.5 39t-51.5 16q-38 0 -61.5 -24.5t-23.5 -65.5v-475h-170v475q0 102 72 171t183 69q108 0 171.5 -52t63.5 -123q0 -50 -20 -90t-20 -60q0 -22 19 -44t41 -40
t41 -56.5t19 -89.5q0 -79 -55 -127t-145 -48q-29 0 -57.5 5t-42.5 10l-15 5q13 87 20 140q25 -10 55 -10z" />
    <glyph glyph-name="agrave" unicode="&#xe0;" 
d="M250 125q32 0 57 21t33 49h-90q-50 0 -50 -35t50 -35zM280 545q104 0 167 -59.5t63 -150.5v-155q0 -45 45 -45h15v-135q-40 -15 -85 -15q-29 0 -52 9.5t-34 22.5t-18.5 26t-8.5 23l-2 9h-10l-5 -10t-16.5 -21.5t-30 -27.5t-45.5 -21.5t-63 -9.5q-74 0 -122 46t-48 114
q0 73 54.5 121.5t145.5 48.5h110v15q0 33 -16.5 51.5t-43.5 18.5q-60 0 -60 -50v-10h-150q-10 20 -10 45q0 64 60 112t160 48zM290 780l60 -185h-110l-140 185h190z" />
    <glyph glyph-name="aacute" unicode="&#xe1;" 
d="M250 125q32 0 57 21t33 49h-90q-50 0 -50 -35t50 -35zM280 545q104 0 167 -59.5t63 -150.5v-155q0 -45 45 -45h15v-135q-40 -15 -85 -15q-29 0 -52 9.5t-34 22.5t-18.5 26t-8.5 23l-2 9h-10l-5 -10t-16.5 -21.5t-30 -27.5t-45.5 -21.5t-63 -9.5q-74 0 -122 46t-48 114
q0 73 54.5 121.5t145.5 48.5h110v15q0 33 -16.5 51.5t-43.5 18.5q-60 0 -60 -50v-10h-150q-10 20 -10 45q0 64 60 112t160 48zM230 595l60 185h190l-140 -185h-110z" />
    <glyph glyph-name="acircumflex" unicode="&#xe2;" 
d="M250 125q32 0 57 21t33 49h-90q-50 0 -50 -35t50 -35zM280 545q104 0 167 -59.5t63 -150.5v-155q0 -45 45 -45h15v-135q-40 -15 -85 -15q-29 0 -52 9.5t-34 22.5t-18.5 26t-8.5 23l-2 9h-10l-5 -10t-16.5 -21.5t-30 -27.5t-45.5 -21.5t-63 -9.5q-74 0 -122 46t-48 114
q0 73 54.5 121.5t145.5 48.5h110v15q0 33 -16.5 51.5t-43.5 18.5q-60 0 -60 -50v-10h-150q-10 20 -10 45q0 64 60 112t160 48zM60 595l170 185h120l170 -185h-150l-77 90h-6l-77 -90h-150z" />
    <glyph glyph-name="atilde" unicode="&#xe3;" 
d="M250 125q32 0 57 21t33 49h-90q-50 0 -50 -35t50 -35zM280 545q104 0 167 -59.5t63 -150.5v-155q0 -45 45 -45h15v-135q-40 -15 -85 -15q-29 0 -52 9.5t-34 22.5t-18.5 26t-8.5 23l-2 9h-10l-5 -10t-16.5 -21.5t-30 -27.5t-45.5 -21.5t-63 -9.5q-74 0 -122 46t-48 114
q0 73 54.5 121.5t145.5 48.5h110v15q0 33 -16.5 51.5t-43.5 18.5q-60 0 -60 -50v-10h-150q-10 20 -10 45q0 64 60 112t160 48zM370 600q-39 0 -67.5 15t-46.5 30t-31 15q-15 0 -25 -11t-10 -29v-10h-90q-10 24 -10 57q0 51 30.5 82t79.5 31q39 0 67.5 -15t46.5 -30t31 -15
q15 0 25 11t10 29v10h90q10 -24 10 -57q0 -51 -30.5 -82t-79.5 -31z" />
    <glyph glyph-name="adieresis" unicode="&#xe4;" 
d="M250 125q32 0 57 21t33 49h-90q-50 0 -50 -35t50 -35zM280 545q104 0 167 -59.5t63 -150.5v-155q0 -45 45 -45h15v-135q-40 -15 -85 -15q-29 0 -52 9.5t-34 22.5t-18.5 26t-8.5 23l-2 9h-10l-5 -10t-16.5 -21.5t-30 -27.5t-45.5 -21.5t-63 -9.5q-74 0 -122 46t-48 114
q0 73 54.5 121.5t145.5 48.5h110v15q0 33 -16.5 51.5t-43.5 18.5q-60 0 -60 -50v-10h-150q-10 20 -10 45q0 64 60 112t160 48zM90 685q0 37 24 61t61 24t61 -24t24 -61t-24 -61t-61 -24t-61 24t-24 61zM320 685q0 37 24 61t61 24t61 -24t24 -61t-24 -61t-61 -24t-61 24
t-24 61z" />
    <glyph glyph-name="aring" unicode="&#xe5;" 
d="M250 125q32 0 57 21t33 49h-90q-50 0 -50 -35t50 -35zM280 545q104 0 167 -59.5t63 -150.5v-155q0 -45 45 -45h15v-135q-40 -15 -85 -15q-29 0 -52 9.5t-34 22.5t-18.5 26t-8.5 23l-2 9h-10l-5 -10t-16.5 -21.5t-30 -27.5t-45.5 -21.5t-63 -9.5q-74 0 -122 46t-48 114
q0 73 54.5 121.5t145.5 48.5h110v15q0 33 -16.5 51.5t-43.5 18.5q-60 0 -60 -50v-10h-150q-10 20 -10 45q0 64 60 112t160 48zM245 710q0 -22 13 -36t32 -14t32 14t13 36t-13 36t-32 14t-32 -14t-13 -36zM425 710q0 -57 -37.5 -93.5t-97.5 -36.5t-97.5 36.5t-37.5 93.5
t37.5 93.5t97.5 36.5t97.5 -36.5t37.5 -93.5z" />
    <glyph glyph-name="ae" unicode="&#xe6;" horiz-adv-x="885" 
d="M440 475h5q2 3 6.5 7.5t20 16.5t34 21.5t48 17t61.5 7.5q104 0 167 -60t63 -155q0 -29 -7.5 -59t-15.5 -45l-7 -16h-300q4 -36 33.5 -60.5t76.5 -24.5q38 0 71.5 13.5t48.5 27.5l15 14l70 -115q-3 -3 -9 -8.5t-26.5 -19.5t-43.5 -24.5t-60 -19t-76 -8.5
q-53 0 -100.5 21.5t-68.5 42.5l-21 21h-5q-2 -3 -7 -9t-23.5 -20.5t-40.5 -26t-59.5 -20.5t-79.5 -9q-81 0 -130.5 45.5t-49.5 114.5q0 73 54.5 121.5t145.5 48.5h110v15q0 33 -16.5 51.5t-43.5 18.5q-60 0 -60 -50v-10h-150q-10 20 -10 45q0 64 60 112t160 48
q44 0 84 -17.5t58 -35.5zM605 405q-33 0 -57.5 -23.5t-32.5 -61.5h125q35 0 35 30q0 23 -18.5 39t-51.5 16zM250 125q32 0 57 21t33 49h-90q-50 0 -50 -35t50 -35z" />
    <glyph glyph-name="ccedilla" unicode="&#xe7;" horiz-adv-x="575" 
d="M300 -290q-29 0 -56.5 5t-40.5 10l-13 5l30 80q28 -15 60 -15q45 0 45 40q0 17 -18.5 28.5t-56.5 11.5h-25l32 114q-102 16 -159.5 88.5t-57.5 187.5q0 131 73.5 205.5t201.5 74.5q106 0 168 -54.5t62 -135.5q0 -16 -2.5 -31t-4.5 -22l-3 -7h-165q5 15 5 35
q0 30 -17.5 47.5t-47.5 17.5q-90 0 -90 -125q0 -135 110 -135q38 0 69 13.5t43 27.5l13 14l85 -115q-2 -3 -7 -8t-23 -19t-38.5 -25t-54.5 -22t-71 -14l-16 -52q4 -1 11.5 -2.5t26.5 -9.5t33.5 -19.5t26.5 -33.5t12 -50q0 -47 -37.5 -78.5t-102.5 -31.5z" />
    <glyph glyph-name="egrave" unicode="&#xe8;" 
d="M315 405q-33 0 -57.5 -23.5t-32.5 -61.5h125q35 0 35 30q0 23 -18.5 39t-51.5 16zM335 125q38 0 71.5 13.5t48.5 27.5l15 14l70 -115q-3 -3 -9 -8.5t-27 -19.5t-45.5 -24.5t-64 -19t-82.5 -8.5q-126 0 -199 74.5t-73 205.5t73.5 205.5t201.5 74.5q111 0 175.5 -60
t64.5 -155q0 -29 -7.5 -59t-15.5 -45l-7 -16h-300q4 -36 33.5 -60.5t76.5 -24.5zM310 780l60 -185h-110l-140 185h190z" />
    <glyph glyph-name="eacute" unicode="&#xe9;" 
d="M315 405q-33 0 -57.5 -23.5t-32.5 -61.5h125q35 0 35 30q0 23 -18.5 39t-51.5 16zM335 125q38 0 71.5 13.5t48.5 27.5l15 14l70 -115q-3 -3 -9 -8.5t-27 -19.5t-45.5 -24.5t-64 -19t-82.5 -8.5q-126 0 -199 74.5t-73 205.5t73.5 205.5t201.5 74.5q111 0 175.5 -60
t64.5 -155q0 -29 -7.5 -59t-15.5 -45l-7 -16h-300q4 -36 33.5 -60.5t76.5 -24.5zM255 595l60 185h190l-140 -185h-110z" />
    <glyph glyph-name="ecircumflex" unicode="&#xea;" 
d="M315 405q-33 0 -57.5 -23.5t-32.5 -61.5h125q35 0 35 30q0 23 -18.5 39t-51.5 16zM335 125q38 0 71.5 13.5t48.5 27.5l15 14l70 -115q-3 -3 -9 -8.5t-27 -19.5t-45.5 -24.5t-64 -19t-82.5 -8.5q-126 0 -199 74.5t-73 205.5t73.5 205.5t201.5 74.5q111 0 175.5 -60
t64.5 -155q0 -29 -7.5 -59t-15.5 -45l-7 -16h-300q4 -36 33.5 -60.5t76.5 -24.5zM80 595l170 185h120l170 -185h-150l-77 90h-6l-77 -90h-150z" />
    <glyph glyph-name="edieresis" unicode="&#xeb;" 
d="M315 405q-33 0 -57.5 -23.5t-32.5 -61.5h125q35 0 35 30q0 23 -18.5 39t-51.5 16zM335 125q38 0 71.5 13.5t48.5 27.5l15 14l70 -115q-3 -3 -9 -8.5t-27 -19.5t-45.5 -24.5t-64 -19t-82.5 -8.5q-126 0 -199 74.5t-73 205.5t73.5 205.5t201.5 74.5q111 0 175.5 -60
t64.5 -155q0 -29 -7.5 -59t-15.5 -45l-7 -16h-300q4 -36 33.5 -60.5t76.5 -24.5zM110 685q0 37 24 61t61 24t61 -24t24 -61t-24 -61t-61 -24t-61 24t-24 61zM340 685q0 37 24 61t61 24t61 -24t24 -61t-24 -61t-61 -24t-61 24t-24 61z" />
    <glyph glyph-name="igrave" unicode="&#xec;" horiz-adv-x="330" 
d="M170 780l60 -185h-110l-140 185h190zM260 395v-395h-170v350q0 45 -45 45h-15v135q40 15 85 15q145 0 145 -150z" />
    <glyph glyph-name="iacute" unicode="&#xed;" horiz-adv-x="330" 
d="M120 595l60 185h190l-140 -185h-110zM260 395v-395h-170v350q0 45 -45 45h-15v135q40 15 85 15q145 0 145 -150z" />
    <glyph glyph-name="icircumflex" unicode="&#xee;" horiz-adv-x="330" 
d="M262 395v-395h-170v350q0 45 -45 45h-15v135q40 15 85 15q145 0 145 -150zM-55 595l170 185h120l170 -185h-150l-77 90h-6l-77 -90h-150z" />
    <glyph glyph-name="idieresis" unicode="&#xef;" horiz-adv-x="330" 
d="M-25 685q0 37 23.5 61t61.5 24t61.5 -24t23.5 -61t-23.5 -61t-61.5 -24t-61.5 24t-23.5 61zM205 685q0 37 23.5 61t61.5 24t61.5 -24t23.5 -61t-23.5 -61t-61.5 -24t-61.5 24t-23.5 61zM260 395v-395h-170v350q0 45 -45 45h-15v135q40 15 85 15q145 0 145 -150z" />
    <glyph glyph-name="eth" unicode="&#xf0;" horiz-adv-x="615" 
d="M405 405h10q-10 66 -40 106.5t-65 53.5l-15 -55l-115 35l20 60q-20 5 -50 5l35 125l45 -5l15 55l115 -35l-15 -55q88 -31 159 -132.5t71 -252.5v-20q0 -141 -75.5 -223t-202.5 -82q-119 0 -190.5 69t-71.5 176q0 106 61.5 170.5t159.5 64.5q51 0 88 -15t49 -30zM385 230
q0 48 -23.5 74t-61.5 26t-61.5 -26t-23.5 -74t23.5 -74t61.5 -26t61.5 26t23.5 74z" />
    <glyph glyph-name="ntilde" unicode="&#xf1;" horiz-adv-x="650" 
d="M345 395q-40 0 -65 -32t-25 -93v-270h-170v350q0 45 -45 45h-15v135q40 15 85 15q29 0 52 -9.5t34 -22.5t18.5 -26t9.5 -23l1 -9h10q1 4 4.5 10t16 21.5t29 27.5t46 21.5t64.5 9.5q84 0 134.5 -53.5t50.5 -146.5v-345h-170v330q0 30 -17.5 47.5t-47.5 17.5zM420 600
q-39 0 -67.5 15t-46.5 30t-31 15q-15 0 -25 -11t-10 -29v-10h-90q-10 24 -10 57q0 51 30.5 82t79.5 31q39 0 67.5 -15t46.5 -30t31 -15q15 0 25 11t10 29v10h90q10 -24 10 -57q0 -51 -30.5 -82t-79.5 -31z" />
    <glyph glyph-name="ograve" unicode="&#xf2;" horiz-adv-x="630" 
d="M410 265q0 65 -26 97.5t-69 32.5t-69 -32.5t-26 -97.5t26 -97.5t69 -32.5t69 32.5t26 97.5zM40 265q0 131 73.5 205.5t201.5 74.5t201.5 -74.5t73.5 -205.5t-73.5 -205.5t-201.5 -74.5t-201.5 74.5t-73.5 205.5zM315 780l60 -185h-110l-140 185h190z" />
    <glyph glyph-name="oacute" unicode="&#xf3;" horiz-adv-x="630" 
d="M410 265q0 65 -26 97.5t-69 32.5t-69 -32.5t-26 -97.5t26 -97.5t69 -32.5t69 32.5t26 97.5zM40 265q0 131 73.5 205.5t201.5 74.5t201.5 -74.5t73.5 -205.5t-73.5 -205.5t-201.5 -74.5t-201.5 74.5t-73.5 205.5zM260 595l60 185h190l-140 -185h-110z" />
    <glyph glyph-name="ocircumflex" unicode="&#xf4;" horiz-adv-x="630" 
d="M410 265q0 65 -26 97.5t-69 32.5t-69 -32.5t-26 -97.5t26 -97.5t69 -32.5t69 32.5t26 97.5zM40 265q0 131 73.5 205.5t201.5 74.5t201.5 -74.5t73.5 -205.5t-73.5 -205.5t-201.5 -74.5t-201.5 74.5t-73.5 205.5zM80 595l170 185h120l170 -185h-150l-77 90h-6l-77 -90
h-150z" />
    <glyph glyph-name="otilde" unicode="&#xf5;" horiz-adv-x="630" 
d="M410 265q0 65 -26 97.5t-69 32.5t-69 -32.5t-26 -97.5t26 -97.5t69 -32.5t69 32.5t26 97.5zM40 265q0 131 73.5 205.5t201.5 74.5t201.5 -74.5t73.5 -205.5t-73.5 -205.5t-201.5 -74.5t-201.5 74.5t-73.5 205.5zM400 590q-39 0 -67.5 15t-46.5 30t-31 15q-15 0 -25 -11
t-10 -29v-10h-90q-10 24 -10 57q0 51 30.5 82t79.5 31q39 0 67.5 -15t46.5 -30t31 -15q15 0 25 11t10 29v10h90q10 -24 10 -57q0 -51 -30.5 -82t-79.5 -31z" />
    <glyph glyph-name="odieresis" unicode="&#xf6;" horiz-adv-x="630" 
d="M410 265q0 65 -26 97.5t-69 32.5t-69 -32.5t-26 -97.5t26 -97.5t69 -32.5t69 32.5t26 97.5zM40 265q0 131 73.5 205.5t201.5 74.5t201.5 -74.5t73.5 -205.5t-73.5 -205.5t-201.5 -74.5t-201.5 74.5t-73.5 205.5zM115 685q0 37 23.5 61t61.5 24t61.5 -24t23.5 -61
t-23.5 -61t-61.5 -24t-61.5 24t-23.5 61zM345 685q0 37 23.5 61t61.5 24t61.5 -24t23.5 -61t-23.5 -61t-61.5 -24t-61.5 24t-23.5 61z" />
    <glyph glyph-name="divide" unicode="&#xf7;" horiz-adv-x="500" 
d="M35 385h430v-110h-430v110zM345 530q0 -42 -25 -66t-70 -24t-70 24t-25 66t25 66t70 24t70 -24t25 -66zM345 130q0 -42 -25 -66t-70 -24t-70 24t-25 66t25 66t70 24t70 -24t25 -66z" />
    <glyph glyph-name="oslash" unicode="&#xf8;" horiz-adv-x="630" 
d="M590 265q0 -131 -73.5 -205.5t-201.5 -74.5q-44 0 -84 10t-58 20l-18 10l-40 -45l-75 70l45 45q-5 6 -12.5 18.5t-20 56.5t-12.5 95q0 131 73.5 205.5t201.5 74.5q44 0 83 -10t56 -20l16 -10l45 45l75 -70l-45 -45q5 -7 12.5 -20t20 -57t12.5 -93zM410 265v25l-140 -145
q20 -10 45 -10q43 0 69 32.5t26 97.5zM220 265v-25l140 145q-15 10 -45 10q-43 0 -69 -32.5t-26 -97.5z" />
    <glyph glyph-name="ugrave" unicode="&#xf9;" horiz-adv-x="650" 
d="M305 135q40 0 65 32t25 93v270h170v-350q0 -45 45 -45h15v-135q-40 -15 -85 -15q-31 0 -54 9.5t-34 22.5t-18 26t-8 23l-1 9h-10l-5 -10t-16.5 -21.5t-30 -27.5t-45.5 -21.5t-63 -9.5q-84 0 -134.5 53.5t-50.5 146.5v345h170v-330q0 -30 17.5 -47.5t47.5 -17.5zM310 780
l60 -185h-110l-140 185h190z" />
    <glyph glyph-name="uacute" unicode="&#xfa;" horiz-adv-x="650" 
d="M305 135q40 0 65 32t25 93v270h170v-350q0 -45 45 -45h15v-135q-40 -15 -85 -15q-31 0 -54 9.5t-34 22.5t-18 26t-8 23l-1 9h-10l-5 -10t-16.5 -21.5t-30 -27.5t-45.5 -21.5t-63 -9.5q-84 0 -134.5 53.5t-50.5 146.5v345h170v-330q0 -30 17.5 -47.5t47.5 -17.5zM265 595
l60 185h190l-140 -185h-110z" />
    <glyph glyph-name="ucircumflex" unicode="&#xfb;" horiz-adv-x="650" 
d="M305 135q40 0 65 32t25 93v270h170v-350q0 -45 45 -45h15v-135q-40 -15 -85 -15q-31 0 -54 9.5t-34 22.5t-18 26t-8 23l-1 9h-10l-5 -10t-16.5 -21.5t-30 -27.5t-45.5 -21.5t-63 -9.5q-84 0 -134.5 53.5t-50.5 146.5v345h170v-330q0 -30 17.5 -47.5t47.5 -17.5zM90 595
l170 185h120l170 -185h-150l-77 90h-6l-77 -90h-150z" />
    <glyph glyph-name="udieresis" unicode="&#xfc;" horiz-adv-x="650" 
d="M305 135q40 0 65 32t25 93v270h170v-350q0 -45 45 -45h15v-135q-40 -15 -85 -15q-31 0 -54 9.5t-34 22.5t-18 26t-8 23l-1 9h-10l-5 -10t-16.5 -21.5t-30 -27.5t-45.5 -21.5t-63 -9.5q-84 0 -134.5 53.5t-50.5 146.5v345h170v-330q0 -30 17.5 -47.5t47.5 -17.5zM120 685
q0 37 24 61t61 24t61 -24t24 -61t-24 -61t-61 -24t-61 24t-24 61zM350 685q0 37 24 61t61 24t61 -24t24 -61t-24 -61t-61 -24t-61 24t-24 61z" />
    <glyph glyph-name="yacute" unicode="&#xfd;" horiz-adv-x="570" 
d="M145 -240q-24 0 -49 4t-38 8l-13 3q10 75 20 145q20 -10 45 -10q34 0 54.5 20.5t35.5 69.5l-195 530h185l75 -220q9 -27 14 -54.5t5 -41.5l1 -14h10q1 50 20 110l70 220h180l-195 -545q-44 -123 -95 -174t-130 -51zM235 595l60 185h190l-140 -185h-110z" />
    <glyph glyph-name="thorn" unicode="&#xfe;" horiz-adv-x="635" 
d="M245 625v-140q2 2 5.5 6.5t16.5 14.5t28 18t39 14.5t51 6.5q94 0 152 -70.5t58 -204.5q0 -135 -68 -210t-177 -75q-27 0 -53 5t-39 10l-13 5v-225h-170v800q0 45 -45 45h-15v135q40 15 85 15q145 0 145 -150zM245 270v-115q35 -20 75 -20q43 0 69 32.5t26 97.5
q0 63 -23.5 96.5t-56.5 33.5q-40 0 -65 -32t-25 -93z" />
    <glyph glyph-name="ydieresis" unicode="&#xff;" horiz-adv-x="570" 
d="M145 -240q-24 0 -49 4t-38 8l-13 3q10 75 20 145q20 -10 45 -10q34 0 54.5 20.5t35.5 69.5l-195 530h185l75 -220q9 -27 14 -54.5t5 -41.5l1 -14h10q1 50 20 110l70 220h180l-195 -545q-44 -123 -95 -174t-130 -51zM85 685q0 37 23.5 61t61.5 24t61.5 -24t23.5 -61
t-23.5 -61t-61.5 -24t-61.5 24t-23.5 61zM315 685q0 37 23.5 61t61.5 24t61.5 -24t23.5 -61t-23.5 -61t-61.5 -24t-61.5 24t-23.5 61z" />
    <glyph glyph-name="Amacron" unicode="&#x100;" horiz-adv-x="700" 
d="M355 520h-10q-1 -40 -20 -100l-45 -140h140l-45 140q-8 27 -13 52t-6 36zM475 120h-250l-40 -120h-190l260 700h190l260 -700h-190zM165 790v120h370v-120h-370z" />
    <glyph glyph-name="amacron" unicode="&#x101;" 
d="M250 125q32 0 57 21t33 49h-90q-50 0 -50 -35t50 -35zM280 545q104 0 167 -59.5t63 -150.5v-155q0 -45 45 -45h15v-135q-40 -15 -85 -15q-29 0 -52 9.5t-34 22.5t-18.5 26t-8.5 23l-2 9h-10l-5 -10t-16.5 -21.5t-30 -27.5t-45.5 -21.5t-63 -9.5q-74 0 -122 46t-48 114
q0 73 54.5 121.5t145.5 48.5h110v15q0 33 -16.5 51.5t-43.5 18.5q-60 0 -60 -50v-10h-150q-10 20 -10 45q0 64 60 112t160 48zM105 620v120h370v-120h-370z" />
    <glyph glyph-name="Abreve" unicode="&#x102;" horiz-adv-x="700" 
d="M355 520h-10q-1 -40 -20 -100l-45 -140h140l-45 140q-8 27 -13 52t-6 36zM475 120h-250l-40 -120h-190l260 700h190l260 -700h-190zM140 945h130q0 -31 21.5 -50.5t58.5 -19.5t58.5 19.5t21.5 50.5h130q0 -88 -53.5 -136.5t-156.5 -48.5t-156.5 48.5t-53.5 136.5z" />
    <glyph glyph-name="abreve" unicode="&#x103;" 
d="M250 125q32 0 57 21t33 49h-90q-50 0 -50 -35t50 -35zM280 545q104 0 167 -59.5t63 -150.5v-155q0 -45 45 -45h15v-135q-40 -15 -85 -15q-29 0 -52 9.5t-34 22.5t-18.5 26t-8.5 23l-2 9h-10l-5 -10t-16.5 -21.5t-30 -27.5t-45.5 -21.5t-63 -9.5q-74 0 -122 46t-48 114
q0 73 54.5 121.5t145.5 48.5h110v15q0 33 -16.5 51.5t-43.5 18.5q-60 0 -60 -50v-10h-150q-10 20 -10 45q0 64 60 112t160 48zM80 785h130q0 -31 21.5 -50.5t58.5 -19.5t58.5 19.5t21.5 50.5h130q0 -88 -53.5 -136.5t-156.5 -48.5t-156.5 48.5t-53.5 136.5z" />
    <glyph glyph-name="Aogonek" unicode="&#x104;" horiz-adv-x="700" 
d="M630 -250q-65 0 -102.5 30.5t-37.5 74.5q0 27 12.5 51.5t30 41t35 29t30.5 17.5l12 6h-95l-40 120h-250l-40 -120h-190l260 700h190l260 -700q-4 -2 -10 -6t-21.5 -16t-27.5 -25.5t-21.5 -33t-9.5 -39.5q0 -15 11 -25t29 -10q11 0 22.5 2.5t16.5 4.5l6 3l30 -85
q-40 -20 -100 -20zM355 520h-10q-1 -40 -20 -100l-45 -140h140l-45 140q-8 27 -13 52t-6 36z" />
    <glyph glyph-name="aogonek" unicode="&#x105;" 
d="M495 -250q-65 0 -102.5 30.5t-37.5 74.5q0 79 97 134q-32 5 -52.5 26.5t-25.5 40.5l-4 19h-10l-5 -10t-16.5 -21.5t-30 -27.5t-45.5 -21.5t-63 -9.5q-74 0 -122 46t-48 114q0 73 54.5 121.5t145.5 48.5h110v15q0 33 -16.5 51.5t-43.5 18.5q-60 0 -60 -50v-10h-150
q-10 20 -10 45q0 64 60 112t160 48q104 0 167 -59.5t63 -150.5v-155q0 -45 45 -45h15v-135q-4 -2 -10 -6t-21.5 -16t-27.5 -25.5t-21.5 -33t-9.5 -39.5q0 -15 11 -25t29 -10q11 0 22.5 2.5t17.5 4.5l5 3l30 -85q-40 -20 -100 -20zM250 125q32 0 57 21t33 49h-90
q-50 0 -50 -35t50 -35z" />
    <glyph glyph-name="Cacute" unicode="&#x106;" horiz-adv-x="710" 
d="M390 715q130 0 207.5 -62.5t77.5 -152.5q0 -18 -2.5 -35.5t-4.5 -26.5l-3 -8h-185q5 15 5 45q0 35 -25.5 57.5t-69.5 22.5q-70 0 -112.5 -51t-42.5 -149q0 -103 47 -156.5t128 -53.5q32 0 62 7.5t49.5 18.5t34.5 22.5t22 18.5l7 8l90 -115q-4 -5 -11.5 -13t-34 -28.5
t-56 -36.5t-78 -29t-100.5 -13q-162 0 -256 97t-94 268t93 268t252 97zM325 765l60 185h190l-140 -185h-110z" />
    <glyph glyph-name="cacute" unicode="&#x107;" horiz-adv-x="575" 
d="M545 355q0 -16 -2.5 -31t-4.5 -22l-3 -7h-165q5 15 5 35q0 30 -17.5 47.5t-47.5 17.5q-90 0 -90 -125q0 -135 110 -135q38 0 69 13.5t43 27.5l13 14l85 -115q-3 -4 -8.5 -10t-26 -21.5t-45 -27.5t-64.5 -21.5t-84 -9.5q-126 0 -199 74.5t-73 205.5t73.5 205.5t201.5 74.5
q106 0 168 -54.5t62 -135.5zM255 595l60 185h190l-140 -185h-110z" />
    <glyph glyph-name="Ccircumflex" unicode="&#x108;" horiz-adv-x="710" 
d="M390 715q130 0 207.5 -62.5t77.5 -152.5q0 -18 -2.5 -35.5t-4.5 -26.5l-3 -8h-185q5 15 5 45q0 35 -25.5 57.5t-69.5 22.5q-70 0 -112.5 -51t-42.5 -149q0 -103 47 -156.5t128 -53.5q32 0 62 7.5t49.5 18.5t34.5 22.5t22 18.5l7 8l90 -115q-4 -5 -11.5 -13t-34 -28.5
t-56 -36.5t-78 -29t-100.5 -13q-162 0 -256 97t-94 268t93 268t252 97zM160 765l170 185h120l170 -185h-150l-77 90h-6l-77 -90h-150z" />
    <glyph glyph-name="ccircumflex" unicode="&#x109;" horiz-adv-x="575" 
d="M545 355q0 -16 -2.5 -31t-4.5 -22l-3 -7h-165q5 15 5 35q0 30 -17.5 47.5t-47.5 17.5q-90 0 -90 -125q0 -135 110 -135q38 0 69 13.5t43 27.5l13 14l85 -115q-3 -4 -8.5 -10t-26 -21.5t-45 -27.5t-64.5 -21.5t-84 -9.5q-126 0 -199 74.5t-73 205.5t73.5 205.5t201.5 74.5
q106 0 168 -54.5t62 -135.5zM75 595l170 185h120l170 -185h-150l-77 90h-6l-77 -90h-150z" />
    <glyph glyph-name="Ccaron" unicode="&#x10c;" horiz-adv-x="710" 
d="M390 715q130 0 207.5 -62.5t77.5 -152.5q0 -18 -2.5 -35.5t-4.5 -26.5l-3 -8h-185q5 15 5 45q0 35 -25.5 57.5t-69.5 22.5q-70 0 -112.5 -51t-42.5 -149q0 -103 47 -156.5t128 -53.5q32 0 62 7.5t49.5 18.5t34.5 22.5t22 18.5l7 8l90 -115q-4 -5 -11.5 -13t-34 -28.5
t-56 -36.5t-78 -29t-100.5 -13q-162 0 -256 97t-94 268t93 268t252 97zM325 765l-170 185h150l77 -90h6l77 90h150l-170 -185h-120z" />
    <glyph glyph-name="ccaron" unicode="&#x10d;" horiz-adv-x="575" 
d="M545 355q0 -16 -2.5 -31t-4.5 -22l-3 -7h-165q5 15 5 35q0 30 -17.5 47.5t-47.5 17.5q-90 0 -90 -125q0 -135 110 -135q38 0 69 13.5t43 27.5l13 14l85 -115q-3 -4 -8.5 -10t-26 -21.5t-45 -27.5t-64.5 -21.5t-84 -9.5q-126 0 -199 74.5t-73 205.5t73.5 205.5t201.5 74.5
q106 0 168 -54.5t62 -135.5zM245 595l-170 185h150l77 -90h6l77 90h150l-170 -185h-120z" />
    <glyph glyph-name="Dcaron" unicode="&#x10e;" horiz-adv-x="735" 
d="M505 350q0 190 -175 190h-80v-380h80q175 0 175 190zM695 350q0 -166 -95 -258t-270 -92h-260v700h260q175 0 270 -92t95 -258zM305 765l-170 185h150l77 -90h6l77 90h150l-170 -185h-120z" />
    <glyph glyph-name="dcaron" unicode="&#x10f;" horiz-adv-x="745" 
d="M390 260v115q-35 20 -75 20q-43 0 -69 -32.5t-26 -97.5q0 -63 23.5 -96.5t56.5 -33.5q40 0 65 32t25 93zM560 760v-580q0 -45 45 -45h15v-135q-40 -15 -85 -15q-31 0 -54 9.5t-34 22.5t-18 26t-8 23l-1 9h-10l-5 -10t-16.5 -21.5t-30 -27.5t-45.5 -21.5t-63 -9.5
q-94 0 -152 70.5t-58 204.5q0 135 68 210t177 75q27 0 53 -5t39 -10l13 -5v235h170zM615 680q0 34 24 57t61 23q38 0 61.5 -26t23.5 -74q0 -77 -40 -122.5t-110 -57.5v70q22 4 38.5 19.5t16.5 30.5q-34 4 -54.5 25.5t-20.5 54.5z" />
    <glyph glyph-name="Dcroat" unicode="&#x110;" horiz-adv-x="755" 
d="M715 350q0 -166 -95 -258t-270 -92h-260v275h-70v150h70v275h260q175 0 270 -92t95 -258zM525 350q0 190 -175 190h-80v-115h105v-150h-105v-115h80q175 0 175 190z" />
    <glyph glyph-name="dcroat" unicode="&#x111;" horiz-adv-x="665" 
d="M560 760v-60h75v-140h-75v-380q0 -45 45 -45h15v-135q-40 -15 -85 -15q-31 0 -54 9.5t-34 22.5t-18 26t-8 23l-1 9h-10l-5 -10t-16.5 -21.5t-30 -27.5t-45.5 -21.5t-63 -9.5q-93 0 -151.5 67.5t-58.5 187.5q0 121 69 193t176 72q27 0 53 -5t39 -10l13 -5v75h-125v140h125
v60h170zM390 260v75q-35 20 -75 20q-42 0 -68.5 -29.5t-26.5 -80.5q0 -50 24 -80t56 -30q40 0 65 32t25 93z" />
    <glyph glyph-name="Emacron" unicode="&#x112;" horiz-adv-x="600" 
d="M250 540v-110h255v-160h-255v-110h310v-160h-490v700h490v-160h-310zM130 790v120h370v-120h-370z" />
    <glyph glyph-name="emacron" unicode="&#x113;" 
d="M315 405q-33 0 -57.5 -23.5t-32.5 -61.5h125q35 0 35 30q0 23 -18.5 39t-51.5 16zM335 125q38 0 71.5 13.5t48.5 27.5l15 14l70 -115q-3 -3 -9 -8.5t-27 -19.5t-45.5 -24.5t-64 -19t-82.5 -8.5q-126 0 -199 74.5t-73 205.5t73.5 205.5t201.5 74.5q111 0 175.5 -60
t64.5 -155q0 -29 -7.5 -59t-15.5 -45l-7 -16h-300q4 -36 33.5 -60.5t76.5 -24.5zM125 620v120h370v-120h-370z" />
    <glyph glyph-name="Edotaccent" unicode="&#x116;" horiz-adv-x="600" 
d="M250 540v-110h255v-160h-255v-110h310v-160h-490v700h490v-160h-310zM415 855q0 -38 -25.5 -61.5t-69.5 -23.5t-69.5 23.5t-25.5 61.5t25.5 61.5t69.5 23.5t69.5 -23.5t25.5 -61.5z" />
    <glyph glyph-name="edotaccent" unicode="&#x117;" 
d="M315 405q-33 0 -57.5 -23.5t-32.5 -61.5h125q35 0 35 30q0 23 -18.5 39t-51.5 16zM335 125q38 0 71.5 13.5t48.5 27.5l15 14l70 -115q-3 -3 -9 -8.5t-27 -19.5t-45.5 -24.5t-64 -19t-82.5 -8.5q-126 0 -199 74.5t-73 205.5t73.5 205.5t201.5 74.5q111 0 175.5 -60
t64.5 -155q0 -29 -7.5 -59t-15.5 -45l-7 -16h-300q4 -36 33.5 -60.5t76.5 -24.5zM400 685q0 -38 -25.5 -61.5t-69.5 -23.5t-69.5 23.5t-25.5 61.5t25.5 61.5t69.5 23.5t69.5 -23.5t25.5 -61.5z" />
    <glyph glyph-name="Eogonek" unicode="&#x118;" horiz-adv-x="600" 
d="M325 -250q-65 0 -102.5 30.5t-37.5 74.5q0 27 12.5 51.5t30 41t35 29t29.5 17.5l13 6h-235v700h490v-160h-310v-110h255v-160h-255v-110h310v-160h-160q-4 -2 -10 -6t-21.5 -16t-27.5 -25.5t-21.5 -33t-9.5 -39.5q0 -15 11 -25t29 -10q11 0 22.5 2.5t17.5 4.5l5 3l30 -85
q-40 -20 -100 -20z" />
    <glyph glyph-name="eogonek" unicode="&#x119;" 
d="M395 -234q-65 0 -102.5 30.5t-37.5 74.5q0 62 66 114h-9q-126 0 -199 74t-73 203q0 133 73.5 208t201.5 75q111 0 175.5 -60t64.5 -155q0 -29 -7.5 -59t-15.5 -45l-7 -16h-300q4 -36 33.5 -60.5t76.5 -24.5q38 0 71.5 13.5t48.5 27.5l15 14l70 -115q-22 -24 -65 -45
q-4 -2 -10.5 -6t-22.5 -17t-28.5 -27t-23 -34t-10.5 -40q0 -15 11 -25t29 -10q11 0 22.5 2.5t17.5 4.5l5 3l30 -85q-40 -20 -100 -20zM315 405q-33 0 -57.5 -23.5t-32.5 -61.5h125q35 0 35 30q0 23 -18.5 39t-51.5 16z" />
    <glyph glyph-name="Ecaron" unicode="&#x11a;" horiz-adv-x="600" 
d="M250 540v-110h255v-160h-255v-110h310v-160h-490v700h490v-160h-310zM255 765l-170 185h150l77 -90h6l77 90h150l-170 -185h-120z" />
    <glyph glyph-name="ecaron" unicode="&#x11b;" 
d="M315 405q-33 0 -57.5 -23.5t-32.5 -61.5h125q35 0 35 30q0 23 -18.5 39t-51.5 16zM335 125q38 0 71.5 13.5t48.5 27.5l15 14l70 -115q-3 -3 -9 -8.5t-27 -19.5t-45.5 -24.5t-64 -19t-82.5 -8.5q-126 0 -199 74.5t-73 205.5t73.5 205.5t201.5 74.5q111 0 175.5 -60
t64.5 -155q0 -29 -7.5 -59t-15.5 -45l-7 -16h-300q4 -36 33.5 -60.5t76.5 -24.5zM245 595l-170 185h150l77 -90h6l77 90h150l-170 -185h-120z" />
    <glyph glyph-name="Gbreve" unicode="&#x11e;" horiz-adv-x="750" 
d="M390 715q132 0 208.5 -60.5t76.5 -144.5q0 -18 -2.5 -34t-4.5 -24l-3 -7h-185q5 10 5 35q0 31 -26 53t-69 22q-70 0 -112.5 -51t-42.5 -149q0 -103 47 -156.5t128 -53.5q29 0 55 6.5t38 12.5l12 6v80h-100v140h280v-286q-4 -5 -12.5 -13t-37.5 -28.5t-61 -36t-84 -28.5
t-107 -13q-162 0 -255 96t-93 269q0 171 93 268t252 97zM180 950h130q0 -31 21.5 -50.5t58.5 -19.5t58.5 19.5t21.5 50.5h130q0 -88 -53.5 -136.5t-156.5 -48.5t-156.5 48.5t-53.5 136.5z" />
    <glyph glyph-name="gbreve" unicode="&#x11f;" horiz-adv-x="565" 
d="M465 630q20 0 41.5 -5t32.5 -10l11 -5v-120q-15 5 -40 5q-11 0 -21 -5t-15 -10l-4 -5q5 -4 12.5 -13t20 -41.5t12.5 -70.5q0 -85 -63 -140t-172 -55q-20 0 -40 2.5t-30 4.5l-10 3q-10 -5 -10 -21q0 -24 40 -24h145q81 0 130.5 -46.5t49.5 -118.5q0 -83 -68 -136.5
t-197 -53.5q-131 0 -198 48.5t-67 121.5q0 21 7.5 40.5t18.5 32.5t22.5 23t18.5 15l8 4q-6 3 -14 8.5t-22 26.5t-14 45q0 27 12.5 48t25.5 29l12 8q-6 5 -15 15t-24.5 45t-15.5 75q0 85 63 140t172 55l70 -5q0 36 32 63t83 27zM390 -50q0 40 -62 40h-123q-25 -10 -25 -40
q0 -55 105 -55q52 0 78.5 16.5t26.5 38.5zM350 350q0 30 -18.5 47.5t-51.5 17.5t-51.5 -17.5t-18.5 -47.5t18.5 -47.5t51.5 -17.5t51.5 17.5t18.5 47.5zM72 780h130q0 -31 21.5 -50.5t58.5 -19.5t58.5 19.5t21.5 50.5h130q0 -88 -53.5 -136.5t-156.5 -48.5t-156.5 48.5
t-53.5 136.5z" />
    <glyph glyph-name="Gcommaaccent" unicode="&#x122;" horiz-adv-x="750" 
d="M390 715q132 0 208.5 -60.5t76.5 -144.5q0 -18 -2.5 -34t-4.5 -24l-3 -7h-185q5 10 5 35q0 31 -26 53t-69 22q-70 0 -112.5 -51t-42.5 -149q0 -103 47 -156.5t128 -53.5q29 0 55 6.5t38 12.5l12 6v80h-100v140h280v-286q-4 -5 -12.5 -13t-37.5 -28.5t-61 -36t-84 -28.5
t-107 -13q-162 0 -255 96t-93 269q0 171 93 268t252 97zM310 -140q0 34 24 57t61 23q38 0 61.5 -26t23.5 -74q0 -77 -40 -122.5t-110 -57.5v70q22 4 38.5 19.5t16.5 30.5q-34 4 -54.5 25.5t-20.5 54.5z" />
    <glyph glyph-name="gcommaaccent" unicode="&#x123;" horiz-adv-x="565" 
d="M465 630q20 0 41.5 -5t32.5 -10l11 -5v-120q-15 5 -40 5q-11 0 -21 -5t-15 -10l-4 -5q5 -4 12.5 -13t20 -41.5t12.5 -70.5q0 -85 -63 -140t-172 -55q-20 0 -40 2.5t-30 4.5l-10 3q-10 -5 -10 -21q0 -24 40 -24h145q81 0 130.5 -46.5t49.5 -118.5q0 -83 -68 -136.5
t-197 -53.5q-131 0 -198 48.5t-67 121.5q0 21 7.5 40.5t18.5 32.5t22.5 23t18.5 15l8 4q-6 3 -14 8.5t-22 26.5t-14 45q0 27 12.5 48t25.5 29l12 8q-6 5 -15 15t-24.5 45t-15.5 75q0 85 63 140t172 55l70 -5q0 36 32 63t83 27zM390 -50q0 40 -62 40h-123q-25 -10 -25 -40
q0 -55 105 -55q52 0 78.5 16.5t26.5 38.5zM350 350q0 30 -18.5 47.5t-51.5 17.5t-51.5 -17.5t-18.5 -47.5t18.5 -47.5t51.5 -17.5t51.5 17.5t18.5 47.5zM365 670q0 -34 -24 -57t-61 -23q-38 0 -61.5 26t-23.5 74q0 77 40 122.5t110 57.5v-70q-22 -4 -38.5 -19.5t-16.5 -30.5
q34 -4 54.5 -25.5t20.5 -54.5z" />
    <glyph glyph-name="Imacron" unicode="&#x12a;" horiz-adv-x="320" 
d="M250 700v-700h-180v700h180zM-25 790v120h370v-120h-370z" />
    <glyph glyph-name="imacron" unicode="&#x12b;" horiz-adv-x="330" 
d="M-15 620v120h370v-120h-370zM260 395v-395h-170v350q0 45 -45 45h-15v135q40 15 85 15q145 0 145 -150z" />
    <glyph glyph-name="Iogonek" unicode="&#x12e;" horiz-adv-x="320" 
d="M175 -250q-65 0 -102.5 30.5t-37.5 74.5q0 27 12.5 51.5t30 41t35 29t29.5 17.5l13 6h-85v700h180v-700q-4 -2 -10 -6t-21.5 -16t-27.5 -25.5t-21.5 -33t-9.5 -39.5q0 -15 11 -25t29 -10q11 0 22.5 2.5t17.5 4.5l5 3l30 -85q-40 -20 -100 -20z" />
    <glyph glyph-name="iogonek" unicode="&#x12f;" horiz-adv-x="330" 
d="M185 -250q-65 0 -102.5 30.5t-37.5 74.5q0 27 12.5 51.5t30 41t35 29t29.5 17.5l13 6h-75v350q0 45 -45 45h-15v135q40 15 85 15q145 0 145 -150v-395q-4 -2 -10 -6t-21.5 -16t-27.5 -25.5t-21.5 -33t-9.5 -39.5q0 -15 11 -25t29 -10q11 0 22.5 2.5t17.5 4.5l5 3l30 -85
q-40 -20 -100 -20zM270 690q0 -38 -25.5 -61.5t-69.5 -23.5t-69.5 23.5t-25.5 61.5t25.5 61.5t69.5 23.5t69.5 -23.5t25.5 -61.5z" />
    <glyph glyph-name="Idotaccent" unicode="&#x130;" horiz-adv-x="320" 
d="M250 700v-700h-180v700h180zM255 855q0 -38 -25.5 -61.5t-69.5 -23.5t-69.5 23.5t-25.5 61.5t25.5 61.5t69.5 23.5t69.5 -23.5t25.5 -61.5z" />
    <glyph glyph-name="dotlessi" unicode="&#x131;" horiz-adv-x="330" 
d="M260 395v-395h-170v350q0 45 -45 45h-15v135q40 15 85 15q145 0 145 -150z" />
    <glyph glyph-name="Kcommaaccent" unicode="&#x136;" horiz-adv-x="699" 
d="M709 0h-210l-175 275h-75v-275h-179v700h179v-265h70l160 265h205l-215 -340zM284 -130q0 34 24 57t61 23q38 0 61.5 -26t23.5 -74q0 -77 -40 -122.5t-110 -57.5v70q22 4 38.5 19.5t16.5 30.5q-34 4 -54.5 25.5t-20.5 54.5z" />
    <glyph glyph-name="kcommaaccent" unicode="&#x137;" horiz-adv-x="590" 
d="M240 760v-415h50l110 185h185l-160 -250v-10l175 -270h-190l-120 195h-50v-195h-170v760h170zM235 -130q0 34 24 57t61 23q38 0 61.5 -26t23.5 -74q0 -77 -40 -122.5t-110 -57.5v70q22 4 38.5 19.5t16.5 30.5q-34 4 -54.5 25.5t-20.5 54.5z" />
    <glyph glyph-name="Lacute" unicode="&#x139;" horiz-adv-x="560" 
d="M250 700v-540h290v-160h-470v700h180zM110 765l60 185h190l-140 -185h-110z" />
    <glyph glyph-name="lacute" unicode="&#x13a;" horiz-adv-x="325" 
d="M70 135v625h170v-580q0 -45 45 -45h15v-135q-40 -15 -85 -15q-145 0 -145 150zM100 795l60 185h190l-140 -185h-110z" />
    <glyph glyph-name="Lcommaaccent" unicode="&#x13b;" horiz-adv-x="560" 
d="M250 700v-540h290v-160h-470v700h180zM225 -130q0 34 24 57t61 23q38 0 61.5 -26t23.5 -74q0 -77 -40 -122.5t-110 -57.5v70q22 4 38.5 19.5t16.5 30.5q-34 4 -54.5 25.5t-20.5 54.5z" />
    <glyph glyph-name="lcommaaccent" unicode="&#x13c;" horiz-adv-x="325" 
d="M70 135v625h170v-580q0 -45 45 -45h15v-135q-40 -15 -85 -15q-145 0 -145 150zM100 -140q0 34 24 57t61 23q38 0 61.5 -26t23.5 -74q0 -77 -40 -122.5t-110 -57.5v70q22 4 38.5 19.5t16.5 30.5q-34 4 -54.5 25.5t-20.5 54.5z" />
    <glyph glyph-name="Lcaron" unicode="&#x13d;" horiz-adv-x="560" 
d="M250 700v-540h290v-160h-470v700h180zM320 635q0 34 24 57t61 23q38 0 61.5 -26t23.5 -74q0 -77 -40 -122.5t-110 -57.5v70q22 4 38.5 19.5t16.5 30.5q-34 4 -54.5 25.5t-20.5 54.5z" />
    <glyph glyph-name="lcaron" unicode="&#x13e;" horiz-adv-x="430" 
d="M70 135v625h170v-580q0 -45 45 -45h15v-135q-40 -15 -85 -15q-145 0 -145 150zM300 685q0 34 24 57t61 23q38 0 61.5 -26t23.5 -74q0 -77 -40 -122.5t-110 -57.5v70q22 4 38.5 19.5t16.5 30.5q-34 4 -54.5 25.5t-20.5 54.5z" />
    <glyph glyph-name="Lslash" unicode="&#x141;" horiz-adv-x="580" 
d="M270 700v-225l100 25v-150l-100 -25v-165h290v-160h-470v285l-70 -15v150l70 15v265h180z" />
    <glyph glyph-name="lslash" unicode="&#x142;" horiz-adv-x="370" 
d="M90 135v185l-70 -15v145l70 15v295h170v-255l90 20v-145l-90 -20v-180q0 -45 45 -45h15v-135q-40 -15 -85 -15q-145 0 -145 150z" />
    <glyph glyph-name="Nacute" unicode="&#x143;" horiz-adv-x="780" 
d="M525 0l-210 310q-24 36 -40.5 63.5t-20.5 36.5l-4 10h-10q10 -30 10 -110v-310h-180v700h185l210 -310q24 -36 40 -63.5t21 -36.5l4 -10h10q-10 30 -10 110v310h180v-700h-185zM335 765l60 185h190l-140 -185h-110z" />
    <glyph glyph-name="nacute" unicode="&#x144;" horiz-adv-x="650" 
d="M345 395q-40 0 -65 -32t-25 -93v-270h-170v350q0 45 -45 45h-15v135q40 15 85 15q29 0 52 -9.5t34 -22.5t18.5 -26t9.5 -23l1 -9h10q1 4 4.5 10t16 21.5t29 27.5t46 21.5t64.5 9.5q84 0 134.5 -53.5t50.5 -146.5v-345h-170v330q0 30 -17.5 47.5t-47.5 17.5zM275 595
l60 185h190l-140 -185h-110z" />
    <glyph glyph-name="Ncommaaccent" unicode="&#x145;" horiz-adv-x="780" 
d="M525 0l-210 310q-24 36 -40.5 63.5t-20.5 36.5l-4 10h-10q10 -30 10 -110v-310h-180v700h185l210 -310q24 -36 40 -63.5t21 -36.5l4 -10h10q-10 30 -10 110v310h180v-700h-185zM305 -130q0 34 24 57t61 23q38 0 61.5 -26t23.5 -74q0 -77 -40 -122.5t-110 -57.5v70
q22 4 38.5 19.5t16.5 30.5q-34 4 -54.5 25.5t-20.5 54.5z" />
    <glyph glyph-name="ncommaaccent" unicode="&#x146;" horiz-adv-x="650" 
d="M345 395q-40 0 -65 -32t-25 -93v-270h-170v350q0 45 -45 45h-15v135q40 15 85 15q29 0 52 -9.5t34 -22.5t18.5 -26t9.5 -23l1 -9h10q1 4 4.5 10t16 21.5t29 27.5t46 21.5t64.5 9.5q84 0 134.5 -53.5t50.5 -146.5v-345h-170v330q0 30 -17.5 47.5t-47.5 17.5zM250 -130
q0 34 24 57t61 23q38 0 61.5 -26t23.5 -74q0 -77 -40 -122.5t-110 -57.5v70q22 4 38.5 19.5t16.5 30.5q-34 4 -54.5 25.5t-20.5 54.5z" />
    <glyph glyph-name="Ncaron" unicode="&#x147;" horiz-adv-x="780" 
d="M525 0l-210 310q-24 36 -40.5 63.5t-20.5 36.5l-4 10h-10q10 -30 10 -110v-310h-180v700h185l210 -310q24 -36 40 -63.5t21 -36.5l4 -10h10q-10 30 -10 110v310h180v-700h-185zM335 765l-170 185h150l77 -90h6l77 90h150l-170 -185h-120z" />
    <glyph glyph-name="ncaron" unicode="&#x148;" horiz-adv-x="650" 
d="M345 395q-40 0 -65 -32t-25 -93v-270h-170v350q0 45 -45 45h-15v135q40 15 85 15q29 0 52 -9.5t34 -22.5t18.5 -26t9.5 -23l1 -9h10q1 4 4.5 10t16 21.5t29 27.5t46 21.5t64.5 9.5q84 0 134.5 -53.5t50.5 -146.5v-345h-170v330q0 30 -17.5 47.5t-47.5 17.5zM265 595
l-170 185h150l77 -90h6l77 90h150l-170 -185h-120z" />
    <glyph glyph-name="Omacron" unicode="&#x14c;" horiz-adv-x="790" 
d="M235 350q0 -102 43 -153.5t117 -51.5t117 51.5t43 153.5t-43 153.5t-117 51.5t-117 -51.5t-43 -153.5zM745 350q0 -171 -94 -268t-256 -97t-256 97t-94 268t94 268t256 97t256 -97t94 -268zM210 790v120h370v-120h-370z" />
    <glyph glyph-name="omacron" unicode="&#x14d;" horiz-adv-x="630" 
d="M410 265q0 65 -26 97.5t-69 32.5t-69 -32.5t-26 -97.5t26 -97.5t69 -32.5t69 32.5t26 97.5zM40 265q0 131 73.5 205.5t201.5 74.5t201.5 -74.5t73.5 -205.5t-73.5 -205.5t-201.5 -74.5t-201.5 74.5t-73.5 205.5zM130 620v120h370v-120h-370z" />
    <glyph glyph-name="Ohungarumlaut" unicode="&#x150;" horiz-adv-x="790" 
d="M235 350q0 -102 43 -153.5t117 -51.5t117 51.5t43 153.5t-43 153.5t-117 51.5t-117 -51.5t-43 -153.5zM745 350q0 -171 -94 -268t-256 -97t-256 97t-94 268t94 268t256 97t256 -97t94 -268zM240 765l80 185h155l-125 -185h-110zM445 765l80 185h155l-125 -185h-110z" />
    <glyph glyph-name="ohungarumlaut" unicode="&#x151;" horiz-adv-x="630" 
d="M410 265q0 65 -26 97.5t-69 32.5t-69 -32.5t-26 -97.5t26 -97.5t69 -32.5t69 32.5t26 97.5zM40 265q0 131 73.5 205.5t201.5 74.5t201.5 -74.5t73.5 -205.5t-73.5 -205.5t-201.5 -74.5t-201.5 74.5t-73.5 205.5zM155 595l80 185h155l-125 -185h-110zM360 595l80 185h155
l-125 -185h-110z" />
    <glyph glyph-name="OE" unicode="&#x152;" horiz-adv-x="1000" 
d="M655 540v-110h250v-160h-250v-110h305v-160h-547q-177 0 -272.5 92t-95.5 258t95 258t270 92h550v-160h-305zM235 350q0 -190 175 -190h65v380h-65q-175 0 -175 -190z" />
    <glyph glyph-name="oe" unicode="&#x153;" horiz-adv-x="960" 
d="M220 265q0 -130 90 -130t90 130q0 64 -25 97t-65 33t-65 -33t-25 -97zM680 405q-33 0 -57.5 -23.5t-32.5 -61.5h125q35 0 35 30q0 23 -18.5 39t-51.5 16zM680 -15q-36 0 -68.5 7.5t-53 18.5t-35.5 22.5t-21 18.5l-7 8h-5q-2 -3 -7 -8t-22 -18t-36 -23t-50 -18t-65 -8
q-124 0 -197 74.5t-73 205.5t73 205.5t197 74.5q34 0 64.5 -7.5t51 -19t35.5 -22.5t22 -18l7 -8h5q2 3 6.5 8t21 18t36 23t52.5 18t69 8q111 0 175.5 -60t64.5 -155q0 -29 -7.5 -59t-14.5 -45l-8 -16h-300q4 -36 33.5 -60.5t76.5 -24.5q38 0 71.5 13.5t48.5 27.5l15 14
l70 -115q-3 -3 -9 -8.5t-27 -19.5t-45 -24.5t-63 -19t-81 -8.5z" />
    <glyph glyph-name="Racute" unicode="&#x154;" horiz-adv-x="690" 
d="M250 380h95q55 0 80 19.5t25 60.5q0 80 -105 80h-95v-160zM70 700h275q149 0 222 -60t73 -165q0 -43 -15 -77.5t-36 -53t-42.5 -30.5t-36.5 -16l-15 -3v-10q41 -15 60 -50l30 -55q19 -35 65 -35h25v-145q-35 -15 -80 -15q-67 0 -105.5 28t-64.5 82l-35 75q-23 50 -70 50
h-70v-220h-180v700zM280 765l60 185h190l-140 -185h-110z" />
    <glyph glyph-name="racute" unicode="&#x155;" horiz-adv-x="445" 
d="M395 540h40v-165h-70q-53 0 -81.5 -33t-28.5 -96v-246h-170v345q0 45 -45 45h-15v135q40 15 85 15q29 0 52 -9.5t34 -22.5t18.5 -26t9.5 -22l1 -10h10q1 4 4.5 10t16 21.5t29 27.5t46 21.5t64.5 9.5zM175 595l60 185h190l-140 -185h-110z" />
    <glyph glyph-name="Rcommaaccent" unicode="&#x156;" horiz-adv-x="690" 
d="M250 380h95q55 0 80 19.5t25 60.5q0 80 -105 80h-95v-160zM70 700h275q149 0 222 -60t73 -165q0 -43 -15 -77.5t-36 -53t-42.5 -30.5t-36.5 -16l-15 -3v-10q41 -15 60 -50l30 -55q19 -35 65 -35h25v-145q-35 -15 -80 -15q-67 0 -105.5 28t-64.5 82l-35 75q-23 50 -70 50
h-70v-220h-180v700zM285 -130q0 34 24 57t61 23q38 0 61.5 -26t23.5 -74q0 -77 -40 -122.5t-110 -57.5v70q22 4 38.5 19.5t16.5 30.5q-34 4 -54.5 25.5t-20.5 54.5z" />
    <glyph glyph-name="rcommaaccent" unicode="&#x157;" horiz-adv-x="445" 
d="M395 540h40v-165h-70q-53 0 -81.5 -33t-28.5 -96v-246h-170v345q0 45 -45 45h-15v135q40 15 85 15q29 0 52 -9.5t34 -22.5t18.5 -26t9.5 -22l1 -10h10q1 4 4.5 10t16 21.5t29 27.5t46 21.5t64.5 9.5zM85 -130q0 34 24 57t61 23q38 0 61.5 -26t23.5 -74q0 -77 -40 -122.5
t-110 -57.5v70q22 4 38.5 19.5t16.5 30.5q-34 4 -54.5 25.5t-20.5 54.5z" />
    <glyph glyph-name="Rcaron" unicode="&#x158;" horiz-adv-x="690" 
d="M250 380h95q55 0 80 19.5t25 60.5q0 80 -105 80h-95v-160zM70 700h275q149 0 222 -60t73 -165q0 -43 -15 -77.5t-36 -53t-42.5 -30.5t-36.5 -16l-15 -3v-10q41 -15 60 -50l30 -55q19 -35 65 -35h25v-145q-35 -15 -80 -15q-67 0 -105.5 28t-64.5 82l-35 75q-23 50 -70 50
h-70v-220h-180v700zM290 765l-170 185h150l77 -90h6l77 90h150l-170 -185h-120z" />
    <glyph glyph-name="rcaron" unicode="&#x159;" horiz-adv-x="445" 
d="M394 540h40v-165h-70q-53 0 -81.5 -33t-28.5 -96v-246h-170v345q0 45 -45 45h-15v135q40 15 85 15q29 0 52 -9.5t34 -22.5t18.5 -26t8.5 -22l2 -10h10q1 4 4.5 10t16 21.5t29 27.5t46 21.5t64.5 9.5zM175 595l-170 185h150l77 -90h6l77 90h150l-170 -185h-120z" />
    <glyph glyph-name="Sacute" unicode="&#x15a;" horiz-adv-x="625" 
d="M295 145q50 0 75 18.5t25 46.5q0 21 -25.5 37t-64 26t-83 28t-83 39.5t-64 63t-25.5 96.5q0 90 72.5 152.5t192.5 62.5q121 0 190.5 -54.5t69.5 -130.5q0 -16 -2.5 -31t-4.5 -22l-3 -7h-180q5 10 5 25q0 65 -75 65q-33 0 -54 -18t-21 -42q0 -21 25.5 -37t64 -26t83 -28
t83 -39.5t64 -63t25.5 -96.5q0 -97 -74.5 -161t-205.5 -64q-52 0 -101 12.5t-81.5 30t-58 35t-37.5 29.5l-12 13l95 125q3 -3 8.5 -9t23.5 -20.5t38 -26t51.5 -20.5t63.5 -9zM255 765l60 185h190l-140 -185h-110z" />
    <glyph glyph-name="sacute" unicode="&#x15b;" horiz-adv-x="520" 
d="M230 130q65 0 65 30q0 16 -27 27t-65 22t-76 27t-65 52t-27 87q0 71 60.5 120.5t164.5 49.5q107 0 163.5 -43.5t56.5 -111.5q0 -11 -2.5 -21t-5.5 -15l-2 -4h-160v10q0 16 -14 28t-36 12q-18 0 -29 -9t-11 -21q0 -16 27 -27t65 -22t76 -27t65 -51.5t27 -87.5
q0 -75 -58.5 -122.5t-166.5 -47.5q-46 0 -88 9.5t-68.5 22.5t-46.5 26t-28 23l-9 9l80 105q5 -6 15 -14t45 -22t75 -14zM195 595l60 185h190l-140 -185h-110z" />
    <glyph glyph-name="Scedilla" unicode="&#x15e;" horiz-adv-x="625" 
d="M315 -290q-29 0 -56.5 5t-40.5 10l-13 5l30 80q28 -15 60 -15q45 0 45 40q0 17 -18.5 28.5t-56.5 11.5h-25l30 110q-45 4 -87.5 18t-71.5 31t-52 33t-33 27l-11 11l95 125q3 -3 8.5 -9t23.5 -20.5t38 -26t51.5 -20.5t63.5 -9q50 0 75 18.5t25 46.5q0 21 -25.5 37t-64 26
t-83 28t-83 39.5t-64 63t-25.5 96.5q0 90 72.5 152.5t192.5 62.5q121 0 190.5 -54.5t69.5 -130.5q0 -16 -2.5 -31t-4.5 -22l-3 -7h-180q5 10 5 25q0 65 -75 65q-33 0 -54 -18t-21 -42q0 -21 25.5 -37t64 -26t83 -28t83 -39.5t64 -63t25.5 -96.5q0 -88 -59.5 -148.5
t-165.5 -71.5l-15 -55q4 -1 11.5 -2.5t26.5 -9.5t33.5 -19.5t26.5 -33.5t12 -50q0 -47 -37.5 -78.5t-102.5 -31.5z" />
    <glyph glyph-name="scedilla" unicode="&#x15f;" horiz-adv-x="520" 
d="M250 -290q-29 0 -56.5 5t-40.5 10l-13 5l30 80q28 -15 60 -15q45 0 45 40q0 17 -18.5 28.5t-56.5 11.5h-25l31 113q-58 7 -105.5 28.5t-66.5 39.5l-19 19l80 105q5 -6 15 -14t45 -22t75 -14q65 0 65 30q0 16 -27 27t-65 22t-76 27t-65 52t-27 87q0 71 60.5 120.5
t164.5 49.5q107 0 163.5 -43.5t56.5 -111.5q0 -11 -2.5 -21t-5.5 -15l-2 -4h-160v10q0 16 -14 28t-36 12q-18 0 -29 -9t-11 -21q0 -16 27 -27t65 -22t76 -27t65 -51.5t27 -87.5q0 -67 -47.5 -113t-136.5 -55l-16 -52q4 -1 11.5 -2.5t26.5 -9.5t33.5 -19.5t26.5 -33.5t12 -50
q0 -47 -37.5 -78.5t-102.5 -31.5z" />
    <glyph glyph-name="Scaron" unicode="&#x160;" horiz-adv-x="625" 
d="M295 145q50 0 75 18.5t25 46.5q0 21 -25.5 37t-64 26t-83 28t-83 39.5t-64 63t-25.5 96.5q0 90 72.5 152.5t192.5 62.5q121 0 190.5 -54.5t69.5 -130.5q0 -16 -2.5 -31t-4.5 -22l-3 -7h-180q5 10 5 25q0 65 -75 65q-33 0 -54 -18t-21 -42q0 -21 25.5 -37t64 -26t83 -28
t83 -39.5t64 -63t25.5 -96.5q0 -97 -74.5 -161t-205.5 -64q-52 0 -101 12.5t-81.5 30t-58 35t-37.5 29.5l-12 13l95 125q3 -3 8.5 -9t23.5 -20.5t38 -26t51.5 -20.5t63.5 -9zM255 765l-170 185h150l77 -90h6l77 90h150l-170 -185h-120z" />
    <glyph glyph-name="scaron" unicode="&#x161;" horiz-adv-x="520" 
d="M230 130q65 0 65 30q0 16 -27 27t-65 22t-76 27t-65 52t-27 87q0 71 60.5 120.5t164.5 49.5q107 0 163.5 -43.5t56.5 -111.5q0 -11 -2.5 -21t-5.5 -15l-2 -4h-160v10q0 16 -14 28t-36 12q-18 0 -29 -9t-11 -21q0 -16 27 -27t65 -22t76 -27t65 -51.5t27 -87.5
q0 -75 -58.5 -122.5t-166.5 -47.5q-46 0 -88 9.5t-68.5 22.5t-46.5 26t-28 23l-9 9l80 105q5 -6 15 -14t45 -22t75 -14zM200 595l-170 185h150l77 -90h6l77 90h150l-170 -185h-120z" />
    <glyph glyph-name="Tcommaaccent" unicode="&#x162;" horiz-adv-x="610" 
d="M395 540v-540h-180v540h-195v160h570v-160h-195zM215 -130q0 34 24 57t61 23q38 0 61.5 -26t23.5 -74q0 -77 -40 -122.5t-110 -57.5v70q22 4 38.5 19.5t16.5 30.5q-34 4 -54.5 25.5t-20.5 54.5z" />
    <glyph glyph-name="tcommaaccent" unicode="&#x163;" horiz-adv-x="460" 
d="M95 200v180h-75v150h80l20 130h145v-130h125v-150h-125v-170q0 -75 65 -75q18 0 36.5 3.5t28.5 7.5l10 4l20 -140q-55 -25 -135 -25q-84 0 -139.5 59.5t-55.5 155.5zM170 -140q0 34 24 57t61 23q38 0 61.5 -26t23.5 -74q0 -77 -40 -122.5t-110 -57.5v70q22 4 38.5 19.5
t16.5 30.5q-34 4 -54.5 25.5t-20.5 54.5z" />
    <glyph glyph-name="Tcaron" unicode="&#x164;" horiz-adv-x="610" 
d="M395 540v-540h-180v540h-195v160h570v-160h-195zM245 765l-170 185h150l77 -90h6l77 90h150l-170 -185h-120z" />
    <glyph glyph-name="tcaron" unicode="&#x165;" horiz-adv-x="525" 
d="M95 200v180h-75v150h80l20 130h145v-130h125v-150h-125v-170q0 -75 65 -75q18 0 36.5 3.5t28.5 7.5l10 4l20 -140q-55 -25 -135 -25q-84 0 -139.5 59.5t-55.5 155.5zM395 685q0 34 24 57t61 23q38 0 61.5 -26t23.5 -74q0 -77 -40 -122.5t-110 -57.5v70q22 4 38.5 19.5
t16.5 30.5q-34 4 -54.5 25.5t-20.5 54.5z" />
    <glyph glyph-name="Umacron" unicode="&#x16a;" horiz-adv-x="750" 
d="M375 145q58 0 91.5 39.5t33.5 116.5v399h180v-399q0 -150 -81 -233t-224 -83t-224 83t-81 233v399h180v-399q0 -77 33.5 -116.5t91.5 -39.5zM190 790v120h370v-120h-370z" />
    <glyph glyph-name="umacron" unicode="&#x16b;" horiz-adv-x="650" 
d="M305 135q40 0 65 32t25 93v270h170v-350q0 -45 45 -45h15v-135q-40 -15 -85 -15q-31 0 -54 9.5t-34 22.5t-18 26t-8 23l-1 9h-10l-5 -10t-16.5 -21.5t-30 -27.5t-45.5 -21.5t-63 -9.5q-84 0 -134.5 53.5t-50.5 146.5v345h170v-330q0 -30 17.5 -47.5t47.5 -17.5zM135 620
v120h370v-120h-370z" />
    <glyph glyph-name="Uring" unicode="&#x16e;" horiz-adv-x="750" 
d="M375 145q58 0 91.5 39.5t33.5 116.5v399h180v-399q0 -150 -81 -233t-224 -83t-224 83t-81 233v399h180v-399q0 -77 33.5 -116.5t91.5 -39.5zM330 880q0 -22 13 -36t32 -14t32 14t13 36t-13 36t-32 14t-32 -14t-13 -36zM510 880q0 -57 -37.5 -93.5t-97.5 -36.5t-97.5 36.5
t-37.5 93.5t37.5 93.5t97.5 36.5t97.5 -36.5t37.5 -93.5z" />
    <glyph glyph-name="uring" unicode="&#x16f;" horiz-adv-x="650" 
d="M305 135q40 0 65 32t25 93v270h170v-350q0 -45 45 -45h15v-135q-40 -15 -85 -15q-31 0 -54 9.5t-34 22.5t-18 26t-8 23l-1 9h-10l-5 -10t-16.5 -21.5t-30 -27.5t-45.5 -21.5t-63 -9.5q-84 0 -134.5 53.5t-50.5 146.5v345h170v-330q0 -30 17.5 -47.5t47.5 -17.5zM275 710
q0 -22 13 -36t32 -14t32 14t13 36t-13 36t-32 14t-32 -14t-13 -36zM455 710q0 -57 -37.5 -93.5t-97.5 -36.5t-97.5 36.5t-37.5 93.5t37.5 93.5t97.5 36.5t97.5 -36.5t37.5 -93.5z" />
    <glyph glyph-name="Uhungarumlaut" unicode="&#x170;" horiz-adv-x="750" 
d="M375 145q58 0 91.5 39.5t33.5 116.5v399h180v-399q0 -150 -81 -233t-224 -83t-224 83t-81 233v399h180v-399q0 -77 33.5 -116.5t91.5 -39.5zM210 765l80 185h155l-125 -185h-110zM415 765l80 185h155l-125 -185h-110z" />
    <glyph glyph-name="uhungarumlaut" unicode="&#x171;" horiz-adv-x="650" 
d="M305 135q40 0 65 32t25 93v270h170v-350q0 -45 45 -45h15v-135q-40 -15 -85 -15q-31 0 -54 9.5t-34 22.5t-18 26t-8 23l-1 9h-10l-5 -10t-16.5 -21.5t-30 -27.5t-45.5 -21.5t-63 -9.5q-84 0 -134.5 53.5t-50.5 146.5v345h170v-330q0 -30 17.5 -47.5t47.5 -17.5zM160 595
l80 185h155l-125 -185h-110zM365 595l80 185h155l-125 -185h-110z" />
    <glyph glyph-name="Uogonek" unicode="&#x172;" horiz-adv-x="750" 
d="M410 -250q-65 0 -102.5 30.5t-37.5 74.5q0 77 91 130q-137 5 -214 87.5t-77 228.5v399h180v-399q0 -77 33.5 -116.5t91.5 -39.5t91.5 39.5t33.5 116.5v399h180v-399q0 -118 -50.5 -195.5t-144.5 -105.5q-4 -2 -10 -6t-21.5 -16t-27.5 -25.5t-21.5 -33t-9.5 -39.5
q0 -15 11 -25t29 -10q11 0 22.5 2.5t16.5 4.5l6 3l30 -85q-40 -20 -100 -20z" />
    <glyph glyph-name="uogonek" unicode="&#x173;" horiz-adv-x="650" 
d="M550 -250q-65 0 -102.5 30.5t-37.5 74.5q0 79 97 134q-35 7 -55.5 28.5t-23.5 39.5l-3 18h-10l-5 -10t-16.5 -21.5t-30 -27.5t-45.5 -21.5t-63 -9.5q-84 0 -134.5 53.5t-50.5 146.5v345h170v-330q0 -30 17.5 -47.5t47.5 -17.5q40 0 65 32t25 93v270h170v-350
q0 -45 45 -45h15v-135q-4 -2 -10 -6t-21.5 -16t-27.5 -25.5t-21.5 -33t-9.5 -39.5q0 -15 11 -25t29 -10q11 0 22.5 2.5t16.5 4.5l6 3l30 -85q-40 -20 -100 -20z" />
    <glyph glyph-name="Ydieresis" unicode="&#x178;" horiz-adv-x="670" 
d="M330 410h10q0 44 30 100l105 190h200l-250 -455v-245h-180v245l-250 455h200l105 -190q13 -25 20.5 -50t8.5 -38zM135 855q0 37 23.5 61t61.5 24t61.5 -24t23.5 -61t-23.5 -61t-61.5 -24t-61.5 24t-23.5 61zM365 855q0 37 23.5 61t61.5 24t61.5 -24t23.5 -61t-23.5 -61
t-61.5 -24t-61.5 24t-23.5 61z" />
    <glyph glyph-name="Zacute" unicode="&#x179;" horiz-adv-x="615" 
d="M245 160h345v-160h-565v160l255 300q15 18 35 35.5t33 26.5l12 8v10h-315v160h535v-160l-255 -300q-15 -18 -35 -35.5t-32 -26.5l-13 -8v-10zM260 765l60 185h190l-140 -185h-110z" />
    <glyph glyph-name="zacute" unicode="&#x17a;" horiz-adv-x="515" 
d="M490 150v-150h-465v150l165 170q13 13 29.5 25.5t26.5 18.5l9 6v10h-215v150h440v-150l-165 -170q-13 -13 -29.5 -25.5t-25.5 -18.5l-10 -6v-10h240zM200 595l60 185h190l-140 -185h-110z" />
    <glyph glyph-name="Zdotaccent" unicode="&#x17b;" horiz-adv-x="615" 
d="M245 160h345v-160h-565v160l255 300q15 18 35 35.5t33 26.5l12 8v10h-315v160h535v-160l-255 -300q-15 -18 -35 -35.5t-32 -26.5l-13 -8v-10zM410 860q0 -38 -25.5 -61.5t-69.5 -23.5t-69.5 23.5t-25.5 61.5t25.5 61.5t69.5 23.5t69.5 -23.5t25.5 -61.5z" />
    <glyph glyph-name="zdotaccent" unicode="&#x17c;" horiz-adv-x="515" 
d="M490 150v-150h-465v150l165 170q13 13 29.5 25.5t26.5 18.5l9 6v10h-215v150h440v-150l-165 -170q-13 -13 -29.5 -25.5t-25.5 -18.5l-10 -6v-10h240zM350 685q0 -38 -25.5 -61.5t-69.5 -23.5t-69.5 23.5t-25.5 61.5t25.5 61.5t69.5 23.5t69.5 -23.5t25.5 -61.5z" />
    <glyph glyph-name="Zcaron" unicode="&#x17d;" horiz-adv-x="615" 
d="M245 160h345v-160h-565v160l255 300q15 18 35 35.5t33 26.5l12 8v10h-315v160h535v-160l-255 -300q-15 -18 -35 -35.5t-32 -26.5l-13 -8v-10zM255 765l-170 185h150l77 -90h6l77 90h150l-170 -185h-120z" />
    <glyph glyph-name="zcaron" unicode="&#x17e;" horiz-adv-x="515" 
d="M490 150v-150h-465v150l165 170q13 13 29.5 25.5t26.5 18.5l9 6v10h-215v150h440v-150l-165 -170q-13 -13 -29.5 -25.5t-25.5 -18.5l-10 -6v-10h240zM195 595l-170 185h150l77 -90h6l77 90h150l-170 -185h-120z" />
    <glyph glyph-name="florin" unicode="&#x192;" horiz-adv-x="440" 
d="M120 520v40q0 96 55.5 155.5t139.5 59.5q36 0 69.5 -6.5t49.5 -12.5l16 -6l-20 -140q-35 15 -75 15q-65 0 -65 -75v-30h125v-150h-125v-395q0 -100 -53.5 -157.5t-141.5 -57.5q-24 0 -50.5 4t-40.5 8l-14 3l15 145q25 -10 50 -10q65 0 65 75v385h-75v150h75z" />
    <glyph glyph-name="Scommaaccent" unicode="&#x218;" horiz-adv-x="625" 
d="M295 145q50 0 75 18.5t25 46.5q0 21 -25.5 37t-64 26t-83 28t-83 39.5t-64 63t-25.5 96.5q0 90 72.5 152.5t192.5 62.5q121 0 190.5 -54.5t69.5 -130.5q0 -16 -2.5 -31t-4.5 -22l-3 -7h-180q5 10 5 25q0 65 -75 65q-33 0 -54 -18t-21 -42q0 -21 25.5 -37t64 -26t83 -28
t83 -39.5t64 -63t25.5 -96.5q0 -97 -74.5 -161t-205.5 -64q-52 0 -101 12.5t-81.5 30t-58 35t-37.5 29.5l-12 13l95 125q3 -3 8.5 -9t23.5 -20.5t38 -26t51.5 -20.5t63.5 -9zM230 -140q0 34 24 57t61 23q38 0 61.5 -26t23.5 -74q0 -77 -40 -122.5t-110 -57.5v70
q22 4 38.5 19.5t16.5 30.5q-34 4 -54.5 25.5t-20.5 54.5z" />
    <glyph glyph-name="scommaaccent" unicode="&#x219;" horiz-adv-x="520" 
d="M230 130q65 0 65 30q0 16 -27 27t-65 22t-76 27t-65 52t-27 87q0 71 60.5 120.5t164.5 49.5q107 0 163.5 -43.5t56.5 -111.5q0 -11 -2.5 -21t-5.5 -15l-2 -4h-160v10q0 16 -14 28t-36 12q-18 0 -29 -9t-11 -21q0 -16 27 -27t65 -22t76 -27t65 -51.5t27 -87.5
q0 -75 -58.5 -122.5t-166.5 -47.5q-46 0 -88 9.5t-68.5 22.5t-46.5 26t-28 23l-9 9l80 105q5 -6 15 -14t45 -22t75 -14zM175 -135q0 34 24 57t61 23q38 0 61.5 -26t23.5 -74q0 -77 -40 -122.5t-110 -57.5v70q22 4 38.5 19.5t16.5 30.5q-34 4 -54.5 25.5t-20.5 54.5z" />
    <glyph glyph-name="afii57929" unicode="&#x2bc;" horiz-adv-x="230" 
d="M30 685q0 34 24 57t61 23q38 0 61.5 -26t23.5 -74q0 -77 -40 -122.5t-110 -57.5v70q22 4 38.5 19.5t16.5 30.5q-34 4 -54.5 25.5t-20.5 54.5z" />
    <glyph glyph-name="circumflex" unicode="&#x2c6;" horiz-adv-x="520" 
d="M30 570l170 185h120l170 -185h-150l-77 90h-6l-77 -90h-150z" />
    <glyph glyph-name="caron" unicode="&#x2c7;" horiz-adv-x="520" 
d="M200 570l-170 185h150l77 -90h6l77 90h150l-170 -185h-120z" />
    <glyph glyph-name="breve" unicode="&#x2d8;" horiz-adv-x="480" 
d="M30 755h130q0 -31 21.5 -50.5t58.5 -19.5t58.5 19.5t21.5 50.5h130q0 -88 -53.5 -136.5t-156.5 -48.5t-156.5 48.5t-53.5 136.5z" />
    <glyph glyph-name="dotaccent" unicode="&#x2d9;" horiz-adv-x="250" 
d="M220 695q0 -38 -25.5 -61.5t-69.5 -23.5t-69.5 23.5t-25.5 61.5t25.5 61.5t69.5 23.5t69.5 -23.5t25.5 -61.5z" />
    <glyph glyph-name="ring" unicode="&#x2da;" horiz-adv-x="330" 
d="M120 670q0 -22 13 -36t32 -14t32 14t13 36t-13 36t-32 14t-32 -14t-13 -36zM300 670q0 -57 -37.5 -93.5t-97.5 -36.5t-97.5 36.5t-37.5 93.5t37.5 93.5t97.5 36.5t97.5 -36.5t37.5 -93.5z" />
    <glyph glyph-name="ogonek" unicode="&#x2db;" horiz-adv-x="300" 
d="M170 -250q-65 0 -102.5 30.5t-37.5 74.5q0 27 12.5 51.5t30 41t35 29t30.5 17.5l12 6h95q-4 -2 -10 -6t-21.5 -16t-27.5 -25.5t-21.5 -33t-9.5 -39.5q0 -15 11 -25t29 -10q11 0 22.5 2.5t16.5 4.5l6 3l30 -85q-40 -20 -100 -20z" />
    <glyph glyph-name="tilde" unicode="&#x2dc;" horiz-adv-x="450" 
d="M310 580q-39 0 -67.5 15t-46.5 30t-31 15q-15 0 -25 -11t-10 -29v-10h-90q-10 24 -10 57q0 51 30.5 82t79.5 31q39 0 67.5 -15t46.5 -30t31 -15q15 0 25 11t10 29v10h90q10 -24 10 -57q0 -51 -30.5 -82t-79.5 -31z" />
    <glyph glyph-name="hungarumlaut" unicode="&#x2dd;" horiz-adv-x="500" 
d="M30 570l80 185h155l-125 -185h-110zM235 570l80 185h155l-125 -185h-110z" />
    <glyph glyph-name="afii10023" unicode="&#x401;" horiz-adv-x="600" 
d="M250 540v-110h255v-160h-255v-110h310v-160h-490v700h490v-160h-310zM120 853q0 37 24 61t61 24t61 -24t24 -61t-24 -61t-61 -24t-61 24t-24 61zM350 853q0 37 24 61t61 24t61 -24t24 -61t-24 -61t-61 -24t-61 24t-24 61z" />
    <glyph glyph-name="afii10051" unicode="&#x402;" horiz-adv-x="800" 
d="M575 155v20q0 110 -110 110q-31 0 -62.5 -7.5t-46.5 -15.5l-16 -7v-255h-180v540h-165v160h515v-160h-170v-140h10q7 5 21 12.5t59.5 20t94.5 12.5q106 0 168 -64t62 -176v-80q0 -112 -54 -168.5t-156 -56.5q-22 0 -44.5 2.5t-34.5 5.5l-11 2v150h25q52 0 73.5 21
t21.5 74z" />
    <glyph glyph-name="afii10052" unicode="&#x403;" horiz-adv-x="540" 
d="M235 765l60 185h190l-140 -185h-110zM250 540v-540h-180v700h460v-160h-280z" />
    <glyph glyph-name="afii10053" unicode="&#x404;" horiz-adv-x="710" 
d="M445 425v-160h-198q39 -120 163 -120q32 0 62 7.5t49.5 18.5t34.5 22.5t22 18.5l7 8l90 -115q-4 -5 -11.5 -13t-34 -28.5t-56 -36.5t-78 -29t-100.5 -13q-162 0 -256 97t-94 268t93 268t252 97q129 0 207 -60t78 -140q0 -18 -2.5 -34t-4.5 -23l-3 -8h-185q5 15 5 40
q0 65 -95 65q-59 0 -96.5 -34.5t-51.5 -95.5h203z" />
    <glyph glyph-name="afii10054" unicode="&#x405;" horiz-adv-x="625" 
d="M295 145q50 0 75 18.5t25 46.5q0 21 -25.5 37t-64 26t-83 28t-83 39.5t-64 63t-25.5 96.5q0 90 72.5 152.5t192.5 62.5q121 0 190.5 -54.5t69.5 -130.5q0 -16 -2.5 -31t-4.5 -22l-3 -7h-180q5 10 5 25q0 65 -75 65q-33 0 -54 -18t-21 -42q0 -21 25.5 -37t64 -26t83 -28
t83 -39.5t64 -63t25.5 -96.5q0 -97 -74.5 -161t-205.5 -64q-52 0 -101 12.5t-81.5 30t-58 35t-37.5 29.5l-12 13l95 125q3 -3 8.5 -9t23.5 -20.5t38 -26t51.5 -20.5t63.5 -9z" />
    <glyph glyph-name="afii10055" unicode="&#x406;" horiz-adv-x="320" 
d="M250 700v-700h-180v700h180z" />
    <glyph glyph-name="afii10056" unicode="&#x407;" horiz-adv-x="320" 
d="M250 700v-700h-180v700h180zM-40 855q0 37 24 61t61 24t61 -24t24 -61t-24 -61t-61 -24t-61 24t-24 61zM190 855q0 37 24 61t61 24t61 -24t24 -61t-24 -61t-61 -24t-61 24t-24 61z" />
    <glyph glyph-name="afii10057" unicode="&#x408;" horiz-adv-x="395" 
d="M110 -15q-22 0 -44.5 2.5t-33.5 4.5l-12 3v150h25q53 0 74 21.5t21 73.5v460h180v-490q0 -112 -54 -168.5t-156 -56.5z" />
    <glyph glyph-name="afii10058" unicode="&#x409;" horiz-adv-x="1005" 
d="M665 0h-220v540h-130q0 -161 -18.5 -273.5t-53 -172t-75.5 -84.5t-93 -25q-20 0 -41 2.5t-32 4.5l-12 3v155q15 -5 35 -5q30 0 49 14.5t36.5 58.5t26 134.5t8.5 232.5v115h480v-210h40q305 0 305 -245t-305 -245zM625 160h45q55 0 82.5 22.5t27.5 62.5q0 39 -28 62
t-82 23h-45v-170z" />
    <glyph glyph-name="afii10059" unicode="&#x40a;" horiz-adv-x="1040" 
d="M470 0v320h-220v-320h-180v700h180v-220h220v220h180v-220h55q157 0 228.5 -60t71.5 -180t-71.5 -180t-228.5 -60h-235zM650 160h60q105 0 105 80t-105 80h-60v-160z" />
    <glyph glyph-name="afii10060" unicode="&#x40b;" horiz-adv-x="810" 
d="M340 255v-255h-180v540h-165v160h515v-160h-170v-140h10q7 5 21 12.5t59.5 20t94.5 12.5q106 0 168 -64t62 -176v-205h-180v175q0 110 -110 110q-31 0 -62.5 -7.5t-46.5 -15.5z" />
    <glyph glyph-name="afii10061" unicode="&#x40c;" horiz-adv-x="700" 
d="M295 765l60 185h190l-140 -185h-110zM70 0v700h180v-270h50q21 0 37 12t23 28l45 110q24 65 60.5 100t109.5 35q17 0 38.5 -3.5t34.5 -7.5l12 -4v-145q-46 0 -67.5 -13t-32.5 -42l-40 -100q-6 -16 -16 -27t-17 -15l-7 -3v-10l225 -345h-210l-170 270h-75v-270h-180z" />
    <glyph glyph-name="afii10062" unicode="&#x40e;" horiz-adv-x="645" 
d="M320 760q-107 0 -163.5 51.5t-56.5 143.5h140q0 -37 21 -58.5t59 -21.5t59 21.5t21 58.5h140q0 -92 -56.5 -143.5t-163.5 -51.5zM455 700h200l-220 -480q-59 -129 -116 -182t-139 -53q-22 0 -44.5 2.5t-33.5 4.5l-12 3v155q25 -5 50 -5q72 0 105 75q-28 53 -80.5 151
t-95 178t-79.5 151h195l105 -210q16 -31 24.5 -58.5t9.5 -39.5l1 -12h10q0 40 30 110z" />
    <glyph glyph-name="afii10145" unicode="&#x40f;" horiz-adv-x="740" 
d="M670 0h-210v-135h-180v135h-210v700h180v-540h240v540h180v-700z" />
    <glyph glyph-name="afii10017" unicode="&#x410;" horiz-adv-x="700" 
d="M355 520h-10q-1 -40 -20 -100l-45 -140h140l-45 140q-8 27 -13 52t-6 36zM475 120h-250l-40 -120h-190l260 700h190l260 -700h-190z" />
    <glyph glyph-name="afii10018" unicode="&#x411;" horiz-adv-x="670" 
d="M250 440h110q139 0 207 -58t68 -162t-68 -162t-207 -58h-290v700h510v-160h-330v-100zM445 220q0 60 -85 60h-110v-120h110q85 0 85 60z" />
    <glyph glyph-name="afii10019" unicode="&#x412;" horiz-adv-x="685" 
d="M380 0h-310v700h300q126 0 190.5 -51t64.5 -134q0 -34 -11.5 -60.5t-27.5 -41t-32 -23.5t-28 -12l-11 -3v-10q5 -1 14.5 -3t32.5 -13.5t41 -27.5t32.5 -48t14.5 -73q0 -87 -70 -143.5t-200 -56.5zM460 220q0 27 -20 43.5t-60 16.5h-130v-120h131q39 0 59 16.5t20 43.5z
M370 540h-120v-100h120q65 0 65 50t-65 50z" />
    <glyph glyph-name="afii10020" unicode="&#x413;" horiz-adv-x="540" 
d="M250 540v-540h-180v700h460v-160h-280z" />
    <glyph glyph-name="afii10021" unicode="&#x414;" horiz-adv-x="755" 
d="M-5 160h60q4 5 10 15.5t21.5 49t27.5 83.5t21.5 119.5t9.5 157.5v115h505v-540h85v-295h-180v135h-380v-135h-180v295zM470 540h-155q0 -76 -8 -143t-20 -108.5t-24 -72t-20 -43.5l-8 -13h235v380z" />
    <glyph glyph-name="afii10022" unicode="&#x415;" horiz-adv-x="600" 
d="M250 540v-110h255v-160h-255v-110h310v-160h-490v700h490v-160h-310z" />
    <glyph glyph-name="afii10024" unicode="&#x416;" horiz-adv-x="1030" 
d="M425 0v270h-65l-155 -270h-210l210 345v10q-26 10 -40 45l-40 100q-11 29 -32.5 42t-67.5 13v145q46 15 85 15q73 0 109.5 -35t60.5 -100l45 -110q7 -16 23 -28t37 -12h40v270h180v-270h40q21 0 37 12t23 28l45 110q24 65 60.5 100t109.5 35q17 0 38.5 -3.5t33.5 -7.5
l13 -4v-145q-46 0 -67.5 -13t-32.5 -42l-40 -100q-6 -16 -16 -27t-17 -15l-7 -3v-10l210 -345h-210l-155 270h-65v-270h-180z" />
    <glyph glyph-name="afii10025" unicode="&#x417;" horiz-adv-x="630" 
d="M590 190q0 -84 -75.5 -144.5t-203.5 -60.5q-52 0 -101 12.5t-82 30t-58.5 35t-37.5 29.5l-12 13l95 125q3 -3 8.5 -9t23.5 -20.5t38 -26t51.5 -20.5t63.5 -9q50 0 75 18.5t25 46.5q0 25 -25.5 42.5t-74.5 17.5h-85v160h95q33 0 54 19t21 46t-21 46t-54 19q-75 0 -75 -65
l5 -25h-180q-10 25 -10 60q0 76 69.5 130.5t191.5 54.5q118 0 191 -60.5t73 -139.5q0 -35 -12.5 -63t-30 -42.5t-35 -24t-29.5 -12.5l-13 -3v-10q5 -1 14.5 -3.5t32.5 -14.5t41 -29t32.5 -49.5t14.5 -73.5z" />
    <glyph glyph-name="afii10026" unicode="&#x418;" horiz-adv-x="780" 
d="M315 390l210 310h185v-700h-180v310q0 36 2.5 63.5t5.5 36.5l2 10h-10q-11 -30 -65 -110l-210 -310h-185v700h180v-310q0 -36 -2.5 -63.5t-5.5 -36.5l-2 -10h10q11 30 65 110z" />
    <glyph glyph-name="afii10027" unicode="&#x419;" horiz-adv-x="780" 
d="M390 770q-107 0 -163.5 51.5t-56.5 143.5h140q0 -37 21 -58.5t59 -21.5t59 21.5t21 58.5h140q0 -92 -56.5 -143.5t-163.5 -51.5zM315 390l210 310h185v-700h-180v310q0 36 2.5 63.5t5.5 36.5l2 10h-10q-11 -30 -65 -110l-210 -310h-185v700h180v-310q0 -36 -2.5 -63.5
t-5.5 -36.5l-2 -10h10q11 30 65 110z" />
    <glyph glyph-name="afii10028" unicode="&#x41a;" horiz-adv-x="700" 
d="M70 0v700h180v-270h50q21 0 37 12t23 28l45 110q24 65 60.5 100t109.5 35q17 0 38.5 -3.5t34.5 -7.5l12 -4v-145q-46 0 -67.5 -13t-32.5 -42l-40 -100q-6 -16 -16 -27t-17 -15l-7 -3v-10l225 -345h-210l-170 270h-75v-270h-180z" />
    <glyph glyph-name="afii10029" unicode="&#x41b;" horiz-adv-x="720" 
d="M470 540h-155q0 -161 -18.5 -273.5t-53 -172t-75.5 -84.5t-93 -25q-20 0 -41 2.5t-32 4.5l-12 3v155q15 -5 35 -5q30 0 49 14.5t36.5 58.5t26 134.5t8.5 232.5v115h505v-700h-180v540z" />
    <glyph glyph-name="afii10030" unicode="&#x41c;" horiz-adv-x="950" 
d="M530 130h-110l-120 210q-18 31 -30.5 58.5t-15.5 39.5l-4 12h-10q10 -40 10 -110v-340h-180v700h220l150 -265q13 -23 20.5 -47t8.5 -36l1 -12h10q0 43 30 95l150 265h220v-700h-180v340q0 31 2.5 58.5t5.5 39.5l2 12h-10q-10 -40 -50 -110z" />
    <glyph glyph-name="afii10031" unicode="&#x41d;" horiz-adv-x="750" 
d="M500 0v250h-250v-250h-180v700h180v-290h250v290h180v-700h-180z" />
    <glyph glyph-name="afii10032" unicode="&#x41e;" horiz-adv-x="790" 
d="M235 350q0 -102 43 -153.5t117 -51.5t117 51.5t43 153.5t-43 153.5t-117 51.5t-117 -51.5t-43 -153.5zM745 350q0 -171 -94 -268t-256 -97t-256 97t-94 268t94 268t256 97t256 -97t94 -268z" />
    <glyph glyph-name="afii10033" unicode="&#x41f;" horiz-adv-x="740" 
d="M490 0v540h-240v-540h-180v700h600v-700h-180z" />
    <glyph glyph-name="afii10034" unicode="&#x420;" horiz-adv-x="675" 
d="M70 700h265q305 0 305 -245t-305 -245h-85v-210h-180v700zM340 540h-90v-170h90q54 0 82 23t28 62q0 40 -27.5 62.5t-82.5 22.5z" />
    <glyph glyph-name="afii10035" unicode="&#x421;" horiz-adv-x="710" 
d="M390 715q130 0 207.5 -62.5t77.5 -152.5q0 -18 -2.5 -35.5t-4.5 -26.5l-3 -8h-185q5 15 5 45q0 35 -25.5 57.5t-69.5 22.5q-70 0 -112.5 -51t-42.5 -149q0 -103 47 -156.5t128 -53.5q32 0 62 7.5t49.5 18.5t34.5 22.5t22 18.5l7 8l90 -115q-4 -5 -11.5 -13t-34 -28.5
t-56 -36.5t-78 -29t-100.5 -13q-162 0 -256 97t-94 268t93 268t252 97z" />
    <glyph glyph-name="afii10036" unicode="&#x422;" horiz-adv-x="610" 
d="M395 540v-540h-180v540h-195v160h570v-160h-195z" />
    <glyph glyph-name="afii10037" unicode="&#x423;" horiz-adv-x="645" 
d="M455 700h200l-220 -480q-59 -129 -116 -182t-139 -53q-22 0 -44.5 2.5t-33.5 4.5l-12 3v155q25 -5 50 -5q72 0 105 75q-28 53 -80.5 151t-95 178t-79.5 151h195l105 -210q16 -31 24.5 -58.5t9.5 -39.5l1 -12h10q0 40 30 110z" />
    <glyph glyph-name="afii10038" unicode="&#x424;" horiz-adv-x="920" 
d="M225 360q0 -74 38 -115t107 -45v320q-69 -4 -107 -45t-38 -115zM550 -20h-180v60q-153 7 -244 95.5t-91 224.5t91 224.5t244 95.5v60h180v-60q153 -7 244 -95.5t91 -224.5t-91 -224.5t-244 -95.5v-60zM695 360q0 74 -38 115t-107 45v-320q69 4 107 45t38 115z" />
    <glyph glyph-name="afii10039" unicode="&#x425;" horiz-adv-x="680" 
d="M345 240h-10q0 -25 -45 -100l-85 -140h-215l240 370l-220 330h215l65 -100q20 -31 31 -56t13 -34l1 -10h10q0 30 45 100l65 100h215l-220 -330l240 -370h-215l-85 140q-20 33 -31 58t-13 34z" />
    <glyph glyph-name="afii10040" unicode="&#x426;" horiz-adv-x="760" 
d="M560 0h-490v700h180v-540h225v540h180v-540h85v-295h-180v135z" />
    <glyph glyph-name="afii10041" unicode="&#x427;" horiz-adv-x="725" 
d="M475 390v310h180v-700h-180v245h-10q-7 -5 -21 -12.5t-59.5 -20t-94.5 -12.5q-106 0 -168 64t-62 176v260h180v-230q0 -110 110 -110q31 0 62.5 7.5t47.5 14.5z" />
    <glyph glyph-name="afii10042" unicode="&#x428;" horiz-adv-x="1080" 
d="M630 700v-540h200v540h180v-700h-940v700h180v-540h200v540h180z" />
    <glyph glyph-name="afii10043" unicode="&#x429;" horiz-adv-x="1120" 
d="M920 0h-850v700h180v-540h200v540h180v-540h200v540h180v-540h90v-295h-180v135z" />
    <glyph glyph-name="afii10044" unicode="&#x42a;" horiz-adv-x="745" 
d="M405 0h-240v540h-155v160h335v-210h60q305 0 305 -245t-305 -245zM345 160h65q55 0 82.5 22.5t27.5 62.5q0 39 -28 62t-82 23h-65v-170z" />
    <glyph glyph-name="afii10045" unicode="&#x42b;" horiz-adv-x="940" 
d="M870 700v-700h-180v700h180zM310 0h-240v700h180v-210h60q305 0 305 -245t-305 -245zM250 160h65q55 0 82.5 22.5t27.5 62.5q0 39 -28 62t-82 23h-65v-170z" />
    <glyph glyph-name="afii10046" unicode="&#x42c;" horiz-adv-x="660" 
d="M320 0h-250v700h180v-210h70q305 0 305 -245t-305 -245zM250 160h75q55 0 82.5 22.5t27.5 62.5q0 39 -28 62t-82 23h-75v-170z" />
    <glyph glyph-name="afii10047" unicode="&#x42d;" horiz-adv-x="710" 
d="M265 265v160h203q-14 61 -51.5 95.5t-96.5 34.5q-95 0 -95 -65l5 -40h-185q-10 25 -10 65q0 80 78 140t207 60q159 0 252 -97t93 -268t-94 -268t-256 -97q-52 0 -100 12.5t-79 30t-55 35t-35 29.5l-11 13l90 115q2 -3 7 -8t21.5 -18t35 -23t49 -18t62.5 -8q124 0 163 120
h-198z" />
    <glyph glyph-name="afii10048" unicode="&#x42e;" horiz-adv-x="1025" 
d="M660 -15q-135 0 -215.5 76.5t-99.5 208.5h-95v-270h-180v700h180v-270h95q19 133 100.5 209t214.5 76q145 0 232.5 -96t87.5 -269t-87.5 -269t-232.5 -96zM660 145q130 0 130 205t-130 205t-130 -205t130 -205z" />
    <glyph glyph-name="afii10049" unicode="&#x42f;" horiz-adv-x="695" 
d="M445 220h-103l-122 -220h-200l150 270v10q-4 2 -11.5 5.5t-26.5 18.5t-33.5 34.5t-26.5 54.5t-12 77q0 109 72 169.5t218 60.5h275v-700h-180v220zM445 540h-95q-47 0 -73.5 -22.5t-26.5 -57.5t26.5 -57.5t73.5 -22.5h95v160z" />
    <glyph glyph-name="afii10065" unicode="&#x430;" 
d="M250 125q32 0 57 21t33 49h-90q-50 0 -50 -35t50 -35zM280 545q104 0 167 -59.5t63 -150.5v-155q0 -45 45 -45h15v-135q-40 -15 -85 -15q-29 0 -52 9.5t-34 22.5t-18.5 26t-8.5 23l-2 9h-10l-5 -10t-16.5 -21.5t-30 -27.5t-45.5 -21.5t-63 -9.5q-74 0 -122 46t-48 114
q0 73 54.5 121.5t145.5 48.5h110v15q0 33 -16.5 51.5t-43.5 18.5q-60 0 -60 -50v-10h-150q-10 20 -10 45q0 64 60 112t160 48z" />
    <glyph glyph-name="afii10066" unicode="&#x431;" horiz-adv-x="625" 
d="M40 300q0 77 12.5 137.5t33.5 98.5t48.5 65.5t58 42t60.5 25t57.5 17t48.5 15t33.5 23t12.5 36.5h145q15 -25 15 -60q0 -61 -34.5 -92.5t-85.5 -41t-102.5 -18.5t-91 -38t-46.5 -85h10q1 3 4 8.5t15 19.5t27 24.5t41.5 19t57.5 8.5q100 0 162.5 -69.5t62.5 -190.5
q0 -117 -72.5 -188.5t-192.5 -71.5q-126 0 -203 84t-77 231zM225 245q0 -51 25.5 -80.5t64.5 -29.5t64.5 29.5t25.5 80.5t-25.5 80.5t-64.5 29.5t-64.5 -29.5t-25.5 -80.5z" />
    <glyph glyph-name="afii10067" unicode="&#x432;" horiz-adv-x="585" 
d="M70 0v530h237q112 0 170 -42.5t58 -107.5q0 -22 -9.5 -40.5t-22.5 -29t-26 -18t-23 -10.5l-9 -2v-10q4 -1 11.5 -3t26.5 -10.5t33.5 -20.5t26.5 -35t12 -51q0 -65 -59 -107.5t-176 -42.5h-250zM375 170q0 40 -55 40h-80v-80h80q55 0 55 40zM310 400h-70v-70h70
q50 0 50 35t-50 35z" />
    <glyph glyph-name="afii10068" unicode="&#x433;" horiz-adv-x="475" 
d="M70 0v530h395v-150h-225v-380h-170z" />
    <glyph glyph-name="afii10069" unicode="&#x434;" horiz-adv-x="615" 
d="M-5 150h55q6 9 15 28t24.5 92.5t15.5 164.5v95h425v-380h75v-265h-165v115h-280v-115h-165v265zM360 380h-95q0 -67 -12.5 -124.5t-24.5 -81.5l-13 -24h145v230z" />
    <glyph glyph-name="afii10070" unicode="&#x435;" 
d="M315 405q-33 0 -57.5 -23.5t-32.5 -61.5h125q35 0 35 30q0 23 -18.5 39t-51.5 16zM335 125q38 0 71.5 13.5t48.5 27.5l15 14l70 -115q-3 -3 -9 -8.5t-27 -19.5t-45.5 -24.5t-64 -19t-82.5 -8.5q-126 0 -199 74.5t-73 205.5t73.5 205.5t201.5 74.5q111 0 175.5 -60
t64.5 -155q0 -29 -7.5 -59t-15.5 -45l-7 -16h-300q4 -36 33.5 -60.5t76.5 -24.5z" />
    <glyph glyph-name="afii10072" unicode="&#x436;" horiz-adv-x="850" 
d="M340 0v190h-45l-105 -190h-195l160 260v10q-28 10 -45 50l-15 35q-18 40 -55 40h-20v135q35 15 70 15q62 0 97 -28.5t58 -91.5l15 -40q16 -45 55 -45h25v190h170v-190h25q39 0 55 45l15 40q23 63 58 91.5t97 28.5q16 0 33.5 -3.5t26.5 -7.5l10 -4v-135h-20q-37 0 -55 -40
l-15 -35q-8 -18 -19 -30.5t-19 -15.5l-7 -4v-10l160 -260h-195l-105 190h-45v-190h-170z" />
    <glyph glyph-name="afii10073" unicode="&#x437;" horiz-adv-x="520" 
d="M230 200h-60v120h80q45 0 45 40t-45 40q-18 0 -31.5 -12.5t-13.5 -27.5v-15h-160q-10 20 -10 45q0 67 55.5 111t159.5 44q107 0 168.5 -47.5t61.5 -112.5q0 -25 -10.5 -45.5t-25 -32t-29 -19.5t-25.5 -10l-10 -3v-10q4 -1 11 -3t24 -10.5t30 -20.5t24 -35t11 -51
q0 -68 -59 -114t-166 -46q-46 0 -88 9.5t-68.5 22.5t-46.5 26t-28 23l-9 9q65 86 80 105q5 -6 15 -14t45 -22t75 -14q65 0 65 35t-65 35z" />
    <glyph glyph-name="afii10074" unicode="&#x438;" horiz-adv-x="660" 
d="M245 0h-175v530h170v-190q0 -27 -2.5 -54.5t-5.5 -41.5l-2 -14h10l2 5q1 5 4.5 16t8.5 24t14.5 30.5t20.5 34.5l125 190h175v-530h-170v190q0 27 2.5 54.5t5.5 41.5l2 14h-10l-2 -5q-1 -5 -4.5 -16t-9 -24t-14.5 -30.5t-20 -34.5z" />
    <glyph glyph-name="afii10075" unicode="&#x439;" horiz-adv-x="660" 
d="M122 775h130q0 -31 21.5 -50.5t58.5 -19.5t58.5 19.5t21.5 50.5h130q0 -88 -53.5 -136.5t-156.5 -48.5t-156.5 48.5t-53.5 136.5zM245 0h-175v530h170v-190q0 -27 -2.5 -54.5t-5.5 -41.5l-2 -14h10l2 5q1 5 4.5 16t8.5 24t14.5 30.5t20.5 34.5l125 190h175v-530h-170v190
q0 27 2.5 54.5t5.5 41.5l2 14h-10l-2 -5q-1 -5 -4.5 -16t-9 -24t-14.5 -30.5t-20 -34.5z" />
    <glyph glyph-name="afii10076" unicode="&#x43a;" horiz-adv-x="600" 
d="M70 0v530h170v-190h30q22 0 34 10.5t21 34.5l15 40q23 63 58 91.5t97 28.5q16 0 33.5 -3.5t27.5 -7.5l9 -4v-135h-20q-37 0 -55 -40l-15 -35q-8 -18 -19 -30.5t-18 -15.5l-8 -4v-10l175 -260h-195l-120 190h-50v-190h-170z" />
    <glyph glyph-name="afii10077" unicode="&#x43b;" horiz-adv-x="615" 
d="M375 380h-100q0 -206 -58.5 -300.5t-146.5 -94.5q-18 0 -38 2.5t-31 4.5l-11 3v145q15 -5 35 -5q19 0 33.5 11.5t28 42t21 93t7.5 153.5v95h430v-530h-170v380z" />
    <glyph glyph-name="afii10078" unicode="&#x43c;" horiz-adv-x="780" 
d="M385 280h10q0 35 25 80l95 170h195v-530h-170v200q0 27 2.5 52t5.5 36l2 12h-10q-9 -40 -44 -100l-61 -105h-90l-61 105q-16 27 -27 52t-14 36l-3 12h-10q10 -40 10 -100v-200h-170v530h195l95 -170q11 -20 17.5 -40t6.5 -30z" />
    <glyph glyph-name="afii10079" unicode="&#x43d;" horiz-adv-x="640" 
d="M400 0v195h-160v-195h-170v530h170v-185h160v185h170v-530h-170z" />
    <glyph glyph-name="afii10080" unicode="&#x43e;" horiz-adv-x="630" 
d="M410 265q0 65 -26 97.5t-69 32.5t-69 -32.5t-26 -97.5t26 -97.5t69 -32.5t69 32.5t26 97.5zM40 265q0 131 73.5 205.5t201.5 74.5t201.5 -74.5t73.5 -205.5t-73.5 -205.5t-201.5 -74.5t-201.5 74.5t-73.5 205.5z" />
    <glyph glyph-name="afii10081" unicode="&#x43f;" horiz-adv-x="640" 
d="M400 0v380h-160v-380h-170v530h500v-530h-170z" />
    <glyph glyph-name="afii10082" unicode="&#x440;" horiz-adv-x="645" 
d="M255 270v-115q35 -20 75 -20q43 0 69 32.5t26 97.5q0 63 -23.5 96.5t-56.5 33.5q-40 0 -65 -32t-25 -93zM85 -220v570q0 45 -45 45h-15v135q40 15 85 15q29 0 52 -9.5t34 -22.5t18.5 -26t9.5 -23l1 -9h10q1 4 4.5 10t16 21.5t29 27.5t46 21.5t64.5 9.5q94 0 152 -70.5
t58 -204.5q0 -135 -68 -210t-177 -75q-27 0 -53 5t-39 10l-13 5v-225h-170z" />
    <glyph glyph-name="afii10083" unicode="&#x441;" horiz-adv-x="575" 
d="M545 355q0 -16 -2.5 -31t-4.5 -22l-3 -7h-165q5 15 5 35q0 30 -17.5 47.5t-47.5 17.5q-90 0 -90 -125q0 -135 110 -135q38 0 69 13.5t43 27.5l13 14l85 -115q-3 -4 -8.5 -10t-26 -21.5t-45 -27.5t-64.5 -21.5t-84 -9.5q-126 0 -199 74.5t-73 205.5t73.5 205.5t201.5 74.5
q106 0 168 -54.5t62 -135.5z" />
    <glyph glyph-name="afii10084" unicode="&#x442;" horiz-adv-x="490" 
d="M10 380v150h470v-150h-150v-380h-170v380h-150z" />
    <glyph glyph-name="afii10085" unicode="&#x443;" horiz-adv-x="570" 
d="M145 -240q-24 0 -49 4t-38 8l-13 3q10 75 20 145q20 -10 45 -10q34 0 54.5 20.5t35.5 69.5l-195 530h185l75 -220q9 -27 14 -54.5t5 -41.5l1 -14h10q1 50 20 110l70 220h180l-195 -545q-44 -123 -95 -174t-130 -51z" />
    <glyph glyph-name="afii10086" unicode="&#x444;" horiz-adv-x="850" 
d="M510 625v-105q40 25 90 25q87 0 146 -73.5t59 -206.5t-59 -206.5t-146 -73.5q-22 0 -44.5 6.5t-33.5 12.5l-12 6v-230h-170v230q-40 -25 -90 -25q-87 0 -146 73.5t-59 206.5t59 206.5t146 73.5q22 0 44.5 -6.5t33.5 -12.5l12 -6v60q0 45 -45 45h-15v135q40 15 85 15
q145 0 145 -150zM340 150v230q-15 15 -45 15q-29 0 -49.5 -32t-20.5 -98t20.5 -98t49.5 -32q13 0 24.5 3.5t16.5 7.5zM510 380v-230q15 -15 45 -15q29 0 49.5 32t20.5 98t-20.5 98t-49.5 32q-13 0 -24.5 -3.5t-16.5 -7.5z" />
    <glyph glyph-name="afii10087" unicode="&#x445;" horiz-adv-x="550" 
d="M270 380h10q0 34 30 80l45 70h185l-160 -255l175 -275h-190l-50 80q-16 24 -24.5 44t-9.5 28l-1 8h-10q0 -25 -35 -80l-50 -80h-190l175 275l-160 255h185l45 -70q13 -20 20.5 -40t8.5 -30z" />
    <glyph glyph-name="afii10088" unicode="&#x446;" horiz-adv-x="640" 
d="M630 150v-265h-165v115h-395v530h170v-380h145v380h170v-380h75z" />
    <glyph glyph-name="afii10089" unicode="&#x447;" horiz-adv-x="620" 
d="M380 320v210h170v-530h-170v175h-10q-40 -30 -135 -30q-83 0 -129 48t-46 137v200h170v-170q0 -30 18.5 -47.5t51.5 -17.5q22 0 42 6.5t29 12.5z" />
    <glyph glyph-name="afii10090" unicode="&#x448;" horiz-adv-x="890" 
d="M240 530v-380h120v380h170v-380h120v380h170v-530h-750v530h170z" />
    <glyph glyph-name="afii10091" unicode="&#x449;" horiz-adv-x="905" 
d="M730 0h-660v530h170v-380h120v380h170v-380h120v380h170v-380h75v-265h-165v115z" />
    <glyph glyph-name="afii10092" unicode="&#x44a;" horiz-adv-x="600" 
d="M295 390h45q113 0 174 -53t61 -142t-61 -142t-174 -53h-215v380h-125v150h295v-140zM340 240h-45v-90h45q25 0 40 13t15 32t-15 32t-40 13z" />
    <glyph glyph-name="afii10093" unicode="&#x44b;" horiz-adv-x="815" 
d="M745 530v-530h-170v530h170zM240 390h45q113 0 174 -53t61 -142t-61 -142t-174 -53h-215v530h170v-140zM285 240h-45v-90h45q25 0 40 13t15 32t-15 32t-40 13z" />
    <glyph glyph-name="afii10094" unicode="&#x44c;" horiz-adv-x="560" 
d="M240 390h60q113 0 174 -53t61 -142t-61 -142t-174 -53h-230v530h170v-140zM300 240h-60v-90h60q25 0 40 13t15 32t-15 32t-40 13z" />
    <glyph glyph-name="afii10095" unicode="&#x44d;" horiz-adv-x="570" 
d="M35 385q0 68 58 114t162 46q128 0 201.5 -74.5t73.5 -205.5t-73 -205.5t-199 -74.5q-44 0 -84 9.5t-65 22.5t-44 26t-27 23l-8 9l85 115q4 -6 13 -15t41.5 -24.5t70.5 -15.5q39 0 61.5 16t38.5 49h-135v125h140q-23 70 -85 70q-55 0 -55 -55h-160q-10 20 -10 45z" />
    <glyph glyph-name="afii10096" unicode="&#x44e;" horiz-adv-x="850" 
d="M630 265q0 67 -21 98.5t-54 31.5t-54 -31.5t-21 -98.5t21 -98.5t54 -31.5t54 31.5t21 98.5zM555 -15q-104 0 -169 57t-81 148h-65v-190h-170v530h170v-190h65q16 91 81 148t169 57q118 0 186.5 -73.5t68.5 -206.5q0 -134 -67 -207t-188 -73z" />
    <glyph glyph-name="afii10097" unicode="&#x44f;" horiz-adv-x="585" 
d="M345 140h-70l-78 -140h-182l115 189v11q-3 1 -8.5 4t-19.5 15t-24.5 26.5t-19 40t-8.5 54.5q0 86 62 138t178 52h225v-530h-170v140zM290 290h55v90h-55q-29 0 -44.5 -12.5t-15.5 -31.5q0 -20 15.5 -33t44.5 -13z" />
    <glyph glyph-name="afii10071" unicode="&#x451;" 
d="M315 405q-33 0 -57.5 -23.5t-32.5 -61.5h125q35 0 35 30q0 23 -18.5 39t-51.5 16zM335 125q38 0 71.5 13.5t48.5 27.5l15 14l70 -115q-3 -3 -9 -8.5t-27 -19.5t-45.5 -24.5t-64 -19t-82.5 -8.5q-126 0 -199 74.5t-73 205.5t73.5 205.5t201.5 74.5q111 0 175.5 -60
t64.5 -155q0 -29 -7.5 -59t-15.5 -45l-7 -16h-300q4 -36 33.5 -60.5t76.5 -24.5zM115 682q0 38 23.5 61.5t61.5 23.5t61.5 -23.5t23.5 -61.5t-23.5 -61.5t-61.5 -23.5t-61.5 23.5t-23.5 61.5zM345 682q0 38 23.5 61.5t61.5 23.5t61.5 -23.5t23.5 -61.5t-23.5 -61.5
t-61.5 -23.5t-61.5 23.5t-23.5 61.5z" />
    <glyph glyph-name="afii10099" unicode="&#x452;" horiz-adv-x="635" 
d="M405 125v145q0 30 -17.5 47.5t-47.5 17.5q-40 0 -65 -33t-25 -97v-205h-170v540h-75v140h75v80h170v-80h130v-140h-130v-120q5 7 14 18t45.5 29t80.5 18q84 0 134.5 -53.5t50.5 -146.5v-190q0 -190 -170 -190q-22 0 -46 3.5t-37 7.5l-12 4v140q15 -5 35 -5q60 0 60 70z
" />
    <glyph glyph-name="afii10100" unicode="&#x453;" horiz-adv-x="475" 
d="M205 595l60 185h190l-140 -185h-110zM70 0v530h395v-150h-225v-380h-170z" />
    <glyph glyph-name="afii10101" unicode="&#x454;" horiz-adv-x="570" 
d="M535 385q0 -11 -2.5 -22.5t-4.5 -16.5l-3 -6h-160q0 55 -55 55q-62 0 -85 -70h140v-125h-135q16 -33 38.5 -49t61.5 -16q38 0 69 13.5t43 27.5l13 14l85 -115q-3 -4 -8.5 -10t-26 -21.5t-45 -27.5t-64.5 -21.5t-84 -9.5q-126 0 -199 74.5t-73 205.5t73.5 205.5
t201.5 74.5q104 0 162 -46t58 -114z" />
    <glyph glyph-name="afii10102" unicode="&#x455;" horiz-adv-x="520" 
d="M230 130q65 0 65 30q0 16 -27 27t-65 22t-76 27t-65 52t-27 87q0 71 60.5 120.5t164.5 49.5q107 0 163.5 -43.5t56.5 -111.5q0 -11 -2.5 -21t-5.5 -15l-2 -4h-160v10q0 16 -14 28t-36 12q-18 0 -29 -9t-11 -21q0 -16 27 -27t65 -22t76 -27t65 -51.5t27 -87.5
q0 -75 -58.5 -122.5t-166.5 -47.5q-46 0 -88 9.5t-68.5 22.5t-46.5 26t-28 23l-9 9l80 105q5 -6 15 -14t45 -22t75 -14z" />
    <glyph glyph-name="afii10103" unicode="&#x456;" horiz-adv-x="330" 
d="M260 395v-395h-170v350q0 45 -45 45h-15v135q40 15 85 15q145 0 145 -150zM270 690q0 -38 -25.5 -61.5t-69.5 -23.5t-69.5 23.5t-25.5 61.5t25.5 61.5t69.5 23.5t69.5 -23.5t25.5 -61.5z" />
    <glyph glyph-name="afii10104" unicode="&#x457;" horiz-adv-x="330" 
d="M-30 685q0 37 24 61t61 24t61 -24t24 -61t-24 -61t-61 -24t-61 24t-24 61zM200 685q0 37 24 61t61 24t61 -24t24 -61t-24 -61t-61 -24t-61 24t-24 61zM260 395v-395h-170v350q0 45 -45 45h-15v135q40 15 85 15q145 0 145 -150z" />
    <glyph glyph-name="afii10105" unicode="&#x458;" horiz-adv-x="315" 
d="M245 530v-555q0 -101 -54 -158t-141 -57q-24 0 -50 4.5t-40 9.5l-15 4l15 137q20 -5 45 -5q70 0 70 75v545h170zM255 690q0 -38 -25.5 -61.5t-69.5 -23.5t-69.5 23.5t-25.5 61.5t25.5 61.5t69.5 23.5t69.5 -23.5t25.5 -61.5z" />
    <glyph glyph-name="afii10106" unicode="&#x459;" horiz-adv-x="830" 
d="M525 390h45q113 0 174 -53t61 -142t-61 -142t-174 -53h-215v380h-80q0 -206 -58.5 -300.5t-146.5 -94.5q-18 0 -38 2.5t-31 4.5l-11 3v145q15 -5 35 -5q19 0 33.5 11.5t28 42t21 93t7.5 153.5v95h410v-140zM570 240h-45v-90h45q25 0 40 13t15 32t-15 32t-40 13z" />
    <glyph glyph-name="afii10107" unicode="&#x45a;" horiz-adv-x="855" 
d="M550 380h45q117 0 176 -50.5t59 -139.5t-59 -139.5t-176 -50.5h-215v230h-140v-230h-170v530h170v-150h140v150h170v-150zM595 230h-45v-80h45q55 0 55 40t-55 40z" />
    <glyph glyph-name="afii10108" unicode="&#x45b;" horiz-adv-x="645" 
d="M340 335q-40 0 -65 -33t-25 -97v-205h-170v540h-75v140h75v80h170v-80h130v-140h-130v-120q5 7 14 18t45.5 29t80.5 18q84 0 134.5 -53.5t50.5 -146.5v-285h-170v270q0 30 -17.5 47.5t-47.5 17.5z" />
    <glyph glyph-name="afii10109" unicode="&#x45c;" horiz-adv-x="600" 
d="M255 595l60 185h190l-140 -185h-110zM70 0v530h170v-190h30q22 0 34 10.5t21 34.5l15 40q23 63 58 91.5t97 28.5q16 0 33.5 -3.5t27.5 -7.5l9 -4v-135h-20q-37 0 -55 -40l-15 -35q-8 -18 -19 -30.5t-18 -15.5l-8 -4v-10l175 -260h-195l-120 190h-50v-190h-170z" />
    <glyph glyph-name="afii10110" unicode="&#x45e;" horiz-adv-x="570" 
d="M145 -240q-24 0 -49 4t-38 8l-13 3q10 75 20 145q20 -10 45 -10q34 0 54.5 20.5t35.5 69.5l-195 530h185l75 -220q9 -27 14 -54.5t5 -41.5l1 -14h10q1 50 20 110l70 220h180l-195 -545q-44 -123 -95 -174t-130 -51zM77 777h130q0 -31 21.5 -50.5t58.5 -19.5t58.5 19.5
t21.5 50.5h130q0 -88 -53.5 -136.5t-156.5 -48.5t-156.5 48.5t-53.5 136.5z" />
    <glyph glyph-name="afii10193" unicode="&#x45f;" horiz-adv-x="640" 
d="M400 150v380h170v-530h-170v-115h-160v115h-170v530h170v-380h160z" />
    <glyph glyph-name="afii10050" unicode="&#x490;" horiz-adv-x="540" 
d="M350 700v90h180v-250h-280v-540h-180v700h280z" />
    <glyph glyph-name="afii10098" unicode="&#x491;" horiz-adv-x="475" 
d="M465 610v-230h-225v-380h-170v530h225v80h170z" />
    <glyph glyph-name="uni1E9E" unicode="&#x1e9e;" horiz-adv-x="710" 
d="M435 -15q-22 0 -44.5 2.5t-34.5 4.5l-11 3v145h50q44 0 67 20t23 55t-25.5 57.5t-69.5 22.5h-30v130q40 0 62.5 19.5t22.5 50.5q0 28 -22.5 46.5t-62.5 18.5q-49 0 -79.5 -30.5t-30.5 -79.5v-450h-180v450q0 118 78.5 191.5t211.5 73.5q132 0 201 -54t69 -141
q0 -31 -11 -56t-26 -39t-30.5 -24t-26.5 -13l-11 -3v-10q6 -1 15.5 -4.5t34.5 -17.5t44.5 -32t35 -51.5t15.5 -74.5q0 -95 -62 -152.5t-173 -57.5z" />
    <glyph glyph-name="endash" unicode="&#x2013;" horiz-adv-x="660" 
d="M30 250v140h600v-140h-600z" />
    <glyph glyph-name="emdash" unicode="&#x2014;" horiz-adv-x="830" 
d="M30 250v140h770v-140h-770z" />
    <glyph glyph-name="quoteleft" unicode="&#x2018;" horiz-adv-x="270" 
d="M230 565q0 -42 -25 -66t-70 -24q-95 0 -95 110q0 83 48.5 135t121.5 55v-80q-52 -6 -60 -40q80 -8 80 -90z" />
    <glyph glyph-name="quoteright" unicode="&#x2019;" horiz-adv-x="270" 
d="M40 675q0 42 25 66t70 24q95 0 95 -110q0 -83 -48.5 -135t-121.5 -55v80q52 6 60 40q-80 8 -80 90z" />
    <glyph glyph-name="quotesinglbase" unicode="&#x201a;" horiz-adv-x="270" 
d="M40 80q0 42 25 66t70 24q95 0 95 -110q0 -83 -48.5 -135t-121.5 -55v80q52 6 60 40q-80 8 -80 90z" />
    <glyph glyph-name="quotedblleft" unicode="&#x201c;" horiz-adv-x="500" 
d="M230 565q0 -42 -25 -66t-70 -24q-95 0 -95 110q0 83 48.5 135t121.5 55v-80q-52 -6 -60 -40q80 -8 80 -90zM460 565q0 -42 -25 -66t-70 -24q-95 0 -95 110q0 83 48.5 135t121.5 55v-80q-52 -6 -60 -40q80 -8 80 -90z" />
    <glyph glyph-name="quotedblright" unicode="&#x201d;" horiz-adv-x="500" 
d="M40 675q0 42 25 66t70 24q95 0 95 -110q0 -83 -48.5 -135t-121.5 -55v80q52 6 60 40q-80 8 -80 90zM270 675q0 42 25 66t70 24q95 0 95 -110q0 -83 -48.5 -135t-121.5 -55v80q52 6 60 40q-80 8 -80 90z" />
    <glyph glyph-name="quotedblbase" unicode="&#x201e;" horiz-adv-x="500" 
d="M40 80q0 42 25 66t70 24q95 0 95 -110q0 -83 -48.5 -135t-121.5 -55v80q52 6 60 40q-80 8 -80 90zM270 80q0 42 25 66t70 24q95 0 95 -110q0 -83 -48.5 -135t-121.5 -55v80q52 6 60 40q-80 8 -80 90z" />
    <glyph glyph-name="dagger" unicode="&#x2020;" horiz-adv-x="560" 
d="M55 291v149h145v260h160v-260h145v-149h-145v-511h-160v511h-145z" />
    <glyph glyph-name="daggerdbl" unicode="&#x2021;" horiz-adv-x="580" 
d="M65 10v149h145v162h-145v149h145v230h160v-230h145v-149h-145v-162h145v-149h-145v-230h-160v230h-145z" />
    <glyph glyph-name="bullet" unicode="&#x2022;" horiz-adv-x="440" 
d="M95 275q0 56 34.5 90.5t90.5 34.5t90.5 -34.5t34.5 -90.5t-34.5 -90.5t-90.5 -34.5t-90.5 34.5t-34.5 90.5z" />
    <glyph glyph-name="ellipsis" unicode="&#x2026;" horiz-adv-x="790" 
d="M40 80q0 42 25 66t70 24t70 -24t25 -66t-25 -66t-70 -24t-70 24t-25 66zM560 80q0 42 25 66t70 24t70 -24t25 -66t-25 -66t-70 -24t-70 24t-25 66zM300 80q0 42 25 66t70 24t70 -24t25 -66t-25 -66t-70 -24t-70 24t-25 66z" />
    <glyph glyph-name="perthousand" unicode="&#x2030;" horiz-adv-x="1290" 
d="M740 700l-400 -700h-170l400 700h170zM160 520q0 -80 45 -80t45 80t-45 80t-45 -80zM380 520q0 -89 -47.5 -139.5t-127.5 -50.5t-127.5 50.5t-47.5 139.5t47.5 139.5t127.5 50.5t127.5 -50.5t47.5 -139.5zM655 180q0 -80 45 -80t45 80t-45 80t-45 -80zM875 180
q0 -89 -47.5 -139.5t-127.5 -50.5t-127.5 50.5t-47.5 139.5t47.5 139.5t127.5 50.5t127.5 -50.5t47.5 -139.5zM1040 180q0 -80 45 -80t45 80t-45 80t-45 -80zM1260 180q0 -89 -47.5 -139.5t-127.5 -50.5t-127.5 50.5t-47.5 139.5t47.5 139.5t127.5 50.5t127.5 -50.5
t47.5 -139.5z" />
    <glyph glyph-name="guilsinglleft" unicode="&#x2039;" horiz-adv-x="380" 
d="M20 265l240 250l100 -100l-140 -145v-10l140 -145l-100 -100z" />
    <glyph glyph-name="guilsinglright" unicode="&#x203a;" horiz-adv-x="380" 
d="M120 515l240 -250l-240 -250l-100 100l140 145v10l-140 145z" />
    <glyph glyph-name="fraction" unicode="&#x2044;" horiz-adv-x="280" 
d="M425 700l-400 -700h-170l400 700h170z" />
    <glyph glyph-name="zerosuperior" unicode="&#x2070;" horiz-adv-x="410" 
d="M160 630q0 -80 45 -80t45 80t-45 80t-45 -80zM380 630q0 -89 -47.5 -139.5t-127.5 -50.5t-127.5 50.5t-47.5 139.5t47.5 139.5t127.5 50.5t127.5 -50.5t47.5 -139.5z" />
    <glyph glyph-name="foursuperior" unicode="&#x2074;" horiz-adv-x="380" 
d="M145 820h125l-80 -140q-10 -18 -22.5 -33t-19.5 -21l-8 -6v-10h60l25 85h95v-85h45v-100h-45v-70h-130v70h-170v100q41 70 125 210z" />
    <glyph glyph-name="fivesuperior" unicode="&#x2075;" horiz-adv-x="350" 
d="M168 720l-8 -40q15 5 45 5q55 0 90 -33t35 -82q0 -55 -43.5 -92.5t-116.5 -37.5q-44 0 -84 15t-58 30l-18 15l60 80q36 -40 85 -40q45 0 45 35t-50 35q-16 0 -31 -2.5t-22 -5.5l-7 -2l-60 30l35 190h250v-100h-147z" />
    <glyph glyph-name="sixsuperior" unicode="&#x2076;" horiz-adv-x="375" 
d="M195 820q72 0 108.5 -28t36.5 -72l-5 -30h-105q0 30 -25 30q-23 0 -39 -18.5t-16 -51.5q30 25 85 25t87.5 -29.5t32.5 -75.5q0 -58 -40 -94t-110 -36q-86 0 -133 52.5t-47 147.5q0 82 47 131t123 49zM155 590q4 -29 16.5 -44.5t28.5 -15.5q15 0 25 10t10 25q0 18 -10 29
t-25 11q-11 0 -22.5 -3.5t-17.5 -7.5z" />
    <glyph glyph-name="sevensuperior" unicode="&#x2077;" horiz-adv-x="335" 
d="M20 710v110h295v-105q-45 -110 -110 -275h-135l105 260v10h-155z" />
    <glyph glyph-name="eightsuperior" unicode="&#x2078;" horiz-adv-x="360" 
d="M180 820q68 0 106.5 -30.5t38.5 -74.5q0 -22 -10 -41t-20 -26l-10 -8q7 -2 17 -6t26.5 -24.5t16.5 -49.5q0 -52 -43 -86t-122 -34t-122 34t-43 86q0 27 15 48t30 29l15 8q-5 2 -12.5 7t-20 23t-12.5 40q0 41 41.5 73t108.5 32zM222 560q0 16 -15 28.5t-31 16.5l-15 4
q-26 -20 -26 -49q0 -18 12 -29t32 -11q19 0 31 11.5t12 28.5zM180 745q-15 0 -25 -9t-10 -21q0 -16 12.5 -26t24.5 -12l13 -2q20 15 20 40q0 12 -10 21t-25 9z" />
    <glyph glyph-name="ninesuperior" unicode="&#x2079;" horiz-adv-x="375" 
d="M180 440q-44 0 -84 15t-58 29l-18 15l60 81q30 -35 90 -35q23 0 39 18t16 47q-30 -25 -85 -25t-87.5 29.5t-32.5 75.5q0 58 40 94t110 36q86 0 133 -52.5t47 -147.5q0 -82 -47 -131t-123 -49zM220 675q-7 55 -45 55q-15 0 -25 -10t-10 -25t10 -25t25 -10q11 0 22.5 4
t16.5 8z" />
    <glyph glyph-name="zeroinferior" unicode="&#x2080;" horiz-adv-x="410" 
d="M160 70q0 -80 45 -80t45 80t-45 80t-45 -80zM380 70q0 -89 -47.5 -139.5t-127.5 -50.5t-127.5 50.5t-47.5 139.5t47.5 139.5t127.5 50.5t127.5 -50.5t47.5 -139.5z" />
    <glyph glyph-name="oneinferior" unicode="&#x2081;" horiz-adv-x="290" 
d="M245 -120h-130v220q-25 -30 -85 -30v110q33 0 55.5 20t28.5 40l6 20h125v-380z" />
    <glyph glyph-name="twoinferior" unicode="&#x2082;" horiz-adv-x="375" 
d="M350 140q0 -27 -14 -52.5t-33.5 -42t-39.5 -30t-34 -19.5l-14 -6v-10q35 10 80 10h55v-110h-320v110q8 4 20.5 10t45.5 24t58 34t45.5 35t20.5 32t-9 21.5t-26 8.5q-15 0 -25 -11t-10 -29v-5h-120q-5 15 -5 30q0 51 42 85.5t118 34.5q79 0 122 -34t43 -86z" />
    <glyph glyph-name="threeinferior" unicode="&#x2083;" horiz-adv-x="360" 
d="M330 170l-85 -55v-10l10 -2.5t21.5 -8.5t27.5 -17t21.5 -29t9.5 -43q0 -55 -42 -90t-118 -35q-47 0 -87 15t-56 30l-17 15q9 12 19 25t22 28.5t19 24.5q33 -38 81 -38q21 0 32.5 9.5t11.5 25.5q0 12 -11 21t-29 9h-40l-20 60l40 30q9 7 21.5 13t20.5 9l8 3v10
q-30 -10 -50 -10h-100v100h290v-90z" />
    <glyph glyph-name="fourinferior" unicode="&#x2084;" horiz-adv-x="380" 
d="M145 260h125l-80 -140q-10 -18 -22.5 -33t-19.5 -21l-8 -6v-10h60l25 85h95v-85h45v-100h-45v-70h-130v70h-170v100q41 70 125 210z" />
    <glyph glyph-name="fiveinferior" unicode="&#x2085;" horiz-adv-x="350" 
d="M168 160l-8 -40q15 5 45 5q55 0 90 -33t35 -82q0 -55 -43.5 -92.5t-116.5 -37.5q-44 0 -84 15t-58 30l-18 15l60 80q36 -40 85 -40q45 0 45 35t-50 35q-16 0 -31 -2.5t-22 -5.5l-7 -2l-60 30l35 190h250v-100h-147z" />
    <glyph glyph-name="sixinferior" unicode="&#x2086;" horiz-adv-x="375" 
d="M195 260q72 0 108.5 -28t36.5 -72l-5 -30h-105q0 30 -25 30q-23 0 -39 -18.5t-16 -51.5q30 25 85 25t87.5 -29.5t32.5 -75.5q0 -58 -40 -94t-110 -36q-86 0 -133 52.5t-47 147.5q0 82 47 131t123 49zM155 30q4 -29 16.5 -44.5t28.5 -15.5q15 0 25 10t10 25q0 18 -10 29
t-25 11q-11 0 -22.5 -3.5t-17.5 -7.5z" />
    <glyph glyph-name="seveninferior" unicode="&#x2087;" horiz-adv-x="335" 
d="M20 150v110h295v-105q-45 -110 -110 -275h-135l105 260v10h-155z" />
    <glyph glyph-name="eightinferior" unicode="&#x2088;" horiz-adv-x="360" 
d="M180 260q68 0 106.5 -30.5t38.5 -74.5q0 -22 -10 -41t-20 -26l-10 -8q7 -2 17 -6t26.5 -24.5t16.5 -49.5q0 -52 -43 -86t-122 -34t-122 34t-43 86q0 27 15 48t30 29l15 8q-5 2 -12.5 7t-20 23t-12.5 40q0 41 41.5 73t108.5 32zM222 0q0 16 -15 28.5t-31 16.5l-15 4
q-26 -20 -26 -49q0 -18 12 -29t32 -11q19 0 31 11.5t12 28.5zM180 185q-15 0 -25 -9t-10 -21q0 -16 12.5 -26t24.5 -12l13 -2q20 15 20 40q0 12 -10 21t-25 9z" />
    <glyph glyph-name="nineinferior" unicode="&#x2089;" horiz-adv-x="375" 
d="M180 -120q-44 0 -84 15t-58 29l-18 15l60 81q30 -35 90 -35q23 0 39 18t16 47q-30 -25 -85 -25t-87.5 29.5t-32.5 75.5q0 58 40 94t110 36q86 0 133 -52.5t47 -147.5q0 -82 -47 -131t-123 -49zM220 115q-7 55 -45 55q-15 0 -25 -10t-10 -25t10 -25t25 -10q11 0 22.5 4
t16.5 8z" />
    <glyph glyph-name="Euro" unicode="&#x20ac;" horiz-adv-x="755" 
d="M480 365h-200v-40h200v-85h-180q25 -49 58.5 -72t96.5 -23q32 0 62 7.5t49.5 18.5t34.5 22.5t22 18.5l7 8l90 -115q-4 -5 -11.5 -13t-34 -28.5t-56 -36.5t-78 -29t-100.5 -13q-266 0 -340 255h-75v85h65v40h-65v85h74q24 118 111.5 191.5t224.5 73.5q130 0 207.5 -62.5
t77.5 -152.5q0 -18 -2.5 -35.5t-5.5 -26.5l-2 -8h-185q5 15 5 45q0 35 -25.5 57.5t-69.5 22.5q-104 0 -141 -105h186v-85z" />
    <glyph glyph-name="uni20B4" unicode="&#x20b4;" horiz-adv-x="665" 
d="M50 370v90h290q65 0 65 50q0 20 -18 35t-47 15q-33 0 -51.5 -16.5t-18.5 -43.5v-10h-180q-10 20 -10 55q0 66 70 118t190 52q119 0 184.5 -53t65.5 -132q0 -22 -4 -39.5t-8 -24.5l-3 -6h40v-90h-565zM615 330v-90h-290q-65 0 -65 -50q0 -20 18 -35t47 -15q33 0 51.5 16.5
t18.5 43.5v10h180q10 -20 10 -55q0 -66 -70 -118t-190 -52q-119 0 -184.5 53t-65.5 132q0 22 3.5 39.5t7.5 24.5l4 6h-40v90h565z" />
    <glyph glyph-name="uni20BD" unicode="&#x20bd;" horiz-adv-x="700" 
d="M290 410h100q40 0 62.5 19.5t22.5 50.5t-22.5 50.5t-62.5 19.5h-100v-140zM665 490q0 -97 -67 -153.5t-198 -56.5h-110v-50h237v-130h-237v-100h-180v100h-75v130h75v50h-75v130h75v290h290q131 0 198 -56.5t67 -153.5z" />
    <glyph glyph-name="afii61352" unicode="&#x2116;" horiz-adv-x="1155" 
d="M1100 155h-330v130h330v-130zM525 0l-210 310q-24 36 -40.5 63.5t-20.5 36.5l-4 10h-10q10 -30 10 -110v-310h-180v700h185l210 -310q24 -36 40 -63.5t21 -36.5l4 -10h10q-10 30 -10 110v310h180v-700h-185zM890 520q0 -80 45 -80t45 80t-45 80t-45 -80zM1110 520
q0 -89 -47.5 -139.5t-127.5 -50.5t-127.5 50.5t-47.5 139.5t47.5 139.5t127.5 50.5t127.5 -50.5t47.5 -139.5z" />
    <glyph glyph-name="trademark" unicode="&#x2122;" horiz-adv-x="880" 
d="M240 590v-260h-125v260h-100v110h325v-110h-100zM640 395h-80l-30 60l-30 70h-10q5 -15 5 -70v-125h-125v370h145l60 -120q9 -18 14 -31.5t5 -18.5l1 -5h10q0 15 20 55l60 120h145v-370h-125v125q0 24 1.5 41.5t2.5 23.5l1 5h-10q-5 -15 -30 -70z" />
    <glyph glyph-name="minus" unicode="&#x2212;" horiz-adv-x="495" 
d="M30 255v150h435v-150h-435z" />
    <glyph glyph-name="commaaccent" unicode="&#xf6c3;" horiz-adv-x="230" 
d="M30 -150q0 34 24 57t61 23q38 0 61.5 -26t23.5 -74q0 -77 -40 -122.5t-110 -57.5v70q22 4 38.5 19.5t16.5 30.5q-34 4 -54.5 25.5t-20.5 54.5z" />
    <glyph glyph-name="cyrBreve" unicode="&#xf6d1;" horiz-adv-x="500" 
d="M250 770q-107 0 -163.5 51.5t-56.5 143.5h140q0 -37 21 -58.5t59 -21.5t59 21.5t21 58.5h140q0 -92 -56.5 -143.5t-163.5 -51.5z" />
    <glyph glyph-name="cyrbreve" unicode="&#xf6d4;" horiz-adv-x="480" 
d="M30 770h130q0 -31 21.5 -50.5t58.5 -19.5t58.5 19.5t21.5 50.5h130q0 -88 -53.5 -136.5t-156.5 -48.5t-156.5 48.5t-53.5 136.5z" />
    <glyph glyph-name="zerooldstyle" unicode="&#xf730;" horiz-adv-x="630" 
d="M225 265q0 -125 90 -125t90 125t-90 125t-90 -125zM590 265q0 -131 -73.5 -205.5t-201.5 -74.5t-201.5 74.5t-73.5 205.5t73.5 205.5t201.5 74.5t201.5 -74.5t73.5 -205.5z" />
    <glyph glyph-name="oneoldstyle" unicode="&#xf731;" horiz-adv-x="395" 
d="M330 0h-180v300q-4 -6 -13 -14t-41.5 -22t-70.5 -14v160q32 0 57.5 12.5t38.5 30t21.5 35t10.5 30.5l2 12h175v-530z" />
    <glyph glyph-name="twooldstyle" unicode="&#xf732;" horiz-adv-x="545" 
d="M320 345q0 23 -14.5 36.5t-40.5 13.5q-29 0 -47 -16t-18 -39l5 -35h-160q-10 30 -10 60q0 75 63.5 127.5t171.5 52.5t174 -54t66 -126q0 -46 -22.5 -84t-55 -59.5t-65 -36.5t-55.5 -20l-22 -5v-10q30 10 110 10h110v-160h-475v150q1 0 29.5 12t71 32.5t84 45t71 53
t29.5 52.5z" />
    <glyph glyph-name="threeoldstyle" unicode="&#xf733;" horiz-adv-x="530" 
d="M480 385l-165 -135v-10q83 -8 136.5 -62.5t53.5 -132.5q0 -100 -73 -165t-197 -65q-46 0 -88.5 10.5t-69.5 25t-48 29t-30 24.5l-9 11l94 120l6.5 -6.5t18.5 -14.5t29 -18t37.5 -14.5t44.5 -6.5q44 0 69.5 22.5t25.5 57.5q0 38 -25.5 61.5t-69.5 23.5q-18 0 -36.5 -2.5
t-28.5 -5.5l-10 -2l-35 105l120 95q16 13 31 22.5t22 11.5l7 3v8q-25 -5 -90 -5h-170v160h450v-145z" />
    <glyph glyph-name="fouroldstyle" unicode="&#xf734;" horiz-adv-x="555" 
d="M295 160l35 115h145v-115h75v-160h-75v-125h-180v125h-285v150l235 380h195l-170 -275q-20 -31 -39 -52.5t-28 -26.5l-9 -6v-10h101z" />
    <glyph glyph-name="fiveoldstyle" unicode="&#xf735;" horiz-adv-x="540" 
d="M250 -185q-50 0 -95 10.5t-73 25t-48.5 29t-29.5 24.5l-9 11l90 120l6.5 -6.5t18.5 -14.5t30 -18t40.5 -14.5t49.5 -6.5q41 0 65.5 23.5t24.5 61.5q0 35 -26.5 57.5t-73.5 22.5q-27 0 -48 -5t-29 -10l-8 -5l-100 60l55 350h390v-150h-240l-20 -110q30 10 70 10
q98 0 159 -63t61 -167q0 -100 -71.5 -167.5t-188.5 -67.5z" />
    <glyph glyph-name="sixoldstyle" unicode="&#xf736;" horiz-adv-x="600" 
d="M320 715q107 0 171 -52t64 -123q0 -16 -2.5 -31t-4.5 -22l-3 -7h-165q5 15 5 30q0 19 -15 32t-40 13q-48 0 -76.5 -37.5t-28.5 -112.5q5 5 14.5 12.5t42 20t68.5 12.5q97 0 158.5 -64.5t61.5 -165.5q0 -99 -70 -167t-180 -68q-124 0 -202 97.5t-78 272.5q0 164 80 262
t200 98zM235 275q14 -130 85 -130q27 0 46 22t19 58q0 37 -20.5 58.5t-54.5 21.5q-22 0 -41 -7.5t-27 -15.5z" />
    <glyph glyph-name="sevenoldstyle" unicode="&#xf737;" horiz-adv-x="505" 
d="M20 370v160h465v-130l-220 -570h-190l210 530v10h-265z" />
    <glyph glyph-name="eightoldstyle" unicode="&#xf738;" horiz-adv-x="620" 
d="M310 715q112 0 178.5 -55.5t66.5 -134.5q0 -32 -10 -60t-24 -44.5t-27.5 -28.5t-23.5 -17l-10 -5q5 -2 13.5 -6t30 -19t38 -33.5t30 -49.5t13.5 -67q0 -91 -71 -150.5t-204 -59.5q-130 0 -202.5 60t-72.5 150q0 36 13 67.5t31.5 50.5t36.5 32.5t31 18.5l13 6
q-4 2 -10.5 5t-22.5 16.5t-28.5 29.5t-23 44t-10.5 60q0 79 66.5 134.5t178.5 55.5zM395 205q0 31 -26.5 56t-52.5 35l-26 9q-7 -4 -18 -11.5t-29 -32t-18 -51.5q0 -34 24 -57t61 -23q40 0 62.5 21.5t22.5 53.5zM245 510q0 -27 23.5 -48t47.5 -29l24 -8q5 3 12.5 9.5
t20 27.5t12.5 43q0 30 -18.5 47.5t-51.5 17.5q-29 0 -49.5 -18.5t-20.5 -41.5z" />
    <glyph glyph-name="nineoldstyle" unicode="&#xf739;" horiz-adv-x="600" 
d="M285 -185q-46 0 -88.5 9.5t-69.5 22.5t-48 26t-30 23l-9 9l95 125q5 -6 15 -15t45 -24.5t75 -15.5q48 0 76.5 37.5t28.5 112.5q-5 -5 -14.5 -12.5t-42 -20t-68.5 -12.5q-97 0 -158.5 64.5t-61.5 165.5q0 99 70 167t180 68q124 0 202 -97.5t78 -272.5q0 -164 -79.5 -262
t-195.5 -98zM365 255q-14 130 -85 130q-27 0 -46 -22t-19 -58q0 -37 20.5 -58.5t54.5 -21.5q22 0 41 7.5t27 15.5z" />
    <glyph glyph-name="Germandbls" horiz-adv-x="710" 
d="M435 -15q-22 0 -44.5 2.5t-34.5 4.5l-11 3v145h50q44 0 67 20t23 55t-25.5 57.5t-69.5 22.5h-30v130q40 0 62.5 19.5t22.5 50.5q0 28 -22.5 46.5t-62.5 18.5q-49 0 -79.5 -30.5t-30.5 -79.5v-450h-180v450q0 118 78.5 191.5t211.5 73.5q132 0 201 -54t69 -141
q0 -31 -11 -56t-26 -39t-30.5 -24t-26.5 -13l-11 -3v-10q6 -1 15.5 -4.5t34.5 -17.5t44.5 -32t35 -51.5t15.5 -74.5q0 -95 -62 -152.5t-173 -57.5z" />
    <glyph glyph-name="foundryicon" horiz-adv-x="1230" 
d="M100 -110v920h1030v-920h-1030zM1110 -90v880h-990v-880h990zM635 610h110q36 0 58 -19t22 -46t-22 -46t-58 -19h-55v-80h-55v210zM635 300h110q36 0 58 -19t22 -46t-22 -46t-58 -19h-55v-80h-55v210zM495 170l-75 130h60l40 -75h5l40 75h65l-80 -130v-80h-55v80z
M495 480l-75 130h60l40 -75h5l40 75h65l-80 -130v-80h-55v80zM300 255h-65v45h165l25 -45h-70v-165h-55v165zM300 565h-65v45h165l25 -45h-70v-165h-55v165zM790 400v65q20 4 38 21t22 39h80v-45h-85v-35h120v-45h-175zM790 90v65q20 4 38 21t22 39h80v-45h-85v-35h120v-45
h-175zM810 300h155v-45h-115q-9 37 -40 45zM810 610h155v-45h-115q-9 37 -40 45zM765 545q0 7 -6.5 13.5t-13.5 6.5h-55v-40h55q8 0 14 6t6 14zM765 235q0 7 -6.5 13.5t-13.5 6.5h-55v-40h55q8 0 14 6t6 14z" />
    <glyph glyph-name="at.cap" horiz-adv-x="1020" 
d="M630 170h-10q-1 -3 -4 -7.5t-13.5 -16.5t-24.5 -21.5t-39 -17t-54 -7.5q-77 0 -131 60t-54 155q0 98 59.5 156.5t160.5 58.5q46 0 94.5 -10t74.5 -20l26 -10v-190q0 -30 16.5 -47.5t43.5 -17.5q60 0 60 105q0 126 -85.5 205.5t-229.5 79.5q-145 0 -235 -87t-90 -223
t90 -223t235 -87q51 0 102.5 13.5t77.5 27.5l25 14l55 -125q-13 -7 -37 -18t-92.5 -29t-130.5 -18q-215 0 -345 124t-130 321t130 321t345 124q214 0 339.5 -118t125.5 -302q0 -111 -60.5 -175.5t-159.5 -64.5q-29 0 -54 7t-39 17.5t-24.5 21t-13.5 17.5zM515 235
q27 0 43.5 17.5t16.5 47.5v85q-20 10 -50 10q-75 0 -75 -80t65 -80z" />
    <glyph glyph-name="parenleft.cap" horiz-adv-x="400" 
d="M230 310q0 -64 15 -129t36 -111.5t42.5 -84t36.5 -56.5l15 -19l-81 -75q-10 7 -26 20t-57 59t-72.5 97t-57.5 132.5t-26 166.5t24.5 165.5t59.5 134.5t70.5 95.5t60.5 60.5l24 20l81 -76q-6 -7 -15.5 -20t-34.5 -54.5t-44.5 -85.5t-35 -110t-15.5 -130z" />
    <glyph glyph-name="parenright.cap" horiz-adv-x="400" 
d="M170 310q0 64 -15 129t-36 111.5t-42.5 84t-36.5 56.5l-15 19l81 76q10 -7 26 -20.5t57 -59.5t72.5 -97t57.5 -132.5t26 -166.5t-24.5 -165.5t-59.5 -134t-70.5 -95t-60.5 -61.5l-24 -19l-81 75q6 7 15.5 20t34.5 54.5t44.5 85.5t35 110t15.5 130z" />
    <glyph glyph-name="bracketleft.cap" horiz-adv-x="390" 
d="M70 -165v970h295v-155h-120v-660h120v-155h-295z" />
    <glyph glyph-name="bracketright.cap" horiz-adv-x="395" 
d="M320 805v-970h-295v155h120v660h-120v155h295z" />
    <glyph glyph-name="braceleft.cap" horiz-adv-x="440" 
d="M65 250h-25v140h25q30 0 47.5 18.5t17.5 51.5v130q0 215 200 215q20 0 42.5 -2.5t35.5 -4.5l12 -3v-140h-30q-41 0 -63 -20.5t-22 -54.5v-115q0 -35 -9.5 -62.5t-22.5 -41t-26 -22.5t-23 -11l-9 -3v-10l10 -2.5t21.5 -11t27.5 -23t21.5 -41t9.5 -62.5v-115
q0 -34 22 -54.5t63 -20.5h30v-140q-45 -10 -90 -10q-200 0 -200 215v130q0 33 -17.5 51.5t-47.5 18.5z" />
    <glyph glyph-name="braceright.cap" horiz-adv-x="440" 
d="M400 250h-25q-30 0 -47.5 -18.5t-17.5 -51.5v-130q0 -215 -200 -215q-20 0 -42.5 2.5t-35.5 4.5l-12 3v140h30q41 0 63 20.5t22 54.5v115q0 35 9.5 62.5t22.5 41t26 22.5t23 11l9 3v10l-10 2.5t-21.5 11t-27.5 23t-21.5 41t-9.5 62.5v115q0 34 -22 54.5t-63 20.5h-30v140
q45 10 90 10q200 0 200 -215v-130q0 -33 17.5 -51.5t47.5 -18.5h25v-140z" />
    <glyph glyph-name="exclamdown.cap" horiz-adv-x="330" 
d="M105 465h120l30 -180v-285h-180v285zM260 625q0 -42 -25 -66t-70 -24t-70 24t-25 66t25 66t70 24t70 -24t25 -66z" />
    <glyph glyph-name="questiondown.cap" horiz-adv-x="550" 
d="M210 204q0 -26 17.5 -42.5t47.5 -16.5q33 0 51.5 17.5t18.5 47.5l-5 25h180q10 -20 10 -60q0 -77 -67 -131t-188 -54q-117 0 -186 58.5t-69 141.5q0 42 14 74t35 49.5t46 33.5t46 27.5t35 29.5t14 41v20h150q10 -25 10 -55q0 -37 -16.5 -65.5t-40 -45t-47 -30.5t-40 -30
t-16.5 -35zM385 625q0 -42 -25 -66t-70 -24t-70 24t-25 66t25 66t70 24t70 -24t25 -66z" />
    <glyph glyph-name="guillemotleft.cap" horiz-adv-x="610" 
d="M20 315l240 250l95 -95l-145 -150v-10l145 -150l-95 -95zM495 95l-210 220l210 220l95 -95l-115 -120v-10l115 -120z" />
    <glyph glyph-name="guillemotright.cap" horiz-adv-x="610" 
d="M350 565l240 -250l-240 -250l-95 95l145 150v10l-145 150zM325 315l-210 -220l-95 95l115 120v10l-115 120l95 95z" />
    <glyph glyph-name="guilsinglleft.cap" horiz-adv-x="380" 
d="M20 315l240 250l100 -100l-140 -145v-10l140 -145l-100 -100z" />
    <glyph glyph-name="guilsinglright.cap" horiz-adv-x="380" 
d="M120 565l240 -250l-240 -250l-100 100l140 145v10l-140 145z" />
    <glyph glyph-name="hyphen.cap" horiz-adv-x="460" 
d="M30 305v150h400v-150h-400z" />
    <glyph glyph-name="endash.cap" horiz-adv-x="660" 
d="M30 300v140h600v-140h-600z" />
    <glyph glyph-name="emdash.cap" horiz-adv-x="830" 
d="M30 300v140h770v-140h-770z" />
    <glyph glyph-name="periodcentered.cap" horiz-adv-x="240" 
d="M25 350q0 42 25 66t70 24t70 -24t25 -66t-25 -66t-70 -24t-70 24t-25 66z" />
    <glyph glyph-name="zero.tab" horiz-adv-x="710" 
d="M235 350q0 -102 35 -153.5t85 -51.5t85 51.5t35 153.5t-35 153.5t-85 51.5t-85 -51.5t-35 -153.5zM665 350q0 -172 -85.5 -268.5t-224.5 -96.5t-224.5 96.5t-85.5 268.5t85.5 268.5t224.5 96.5t224.5 -96.5t85.5 -268.5z" />
    <glyph glyph-name="one.tab" horiz-adv-x="710" 
d="M485 0h-180v470q-5 -6 -14 -14t-44 -22t-77 -14v160q35 0 62.5 12.5t41.5 30t22.5 35t11.5 30.5l2 12h175v-700z" />
    <glyph glyph-name="two.tab" horiz-adv-x="710" 
d="M420 490q0 30 -18.5 47.5t-51.5 17.5q-40 0 -60 -16.5t-20 -43.5l5 -40h-170q-10 30 -10 70q0 79 69 134.5t191 55.5q116 0 185.5 -60.5t69.5 -149.5q0 -79 -34 -131t-106 -114l-70 -60q-16 -13 -31 -23t-22 -13l-7 -4v-10q25 10 100 10h170v-160h-505v150l215 190
q56 49 78 80t22 70z" />
    <glyph glyph-name="three.tab" horiz-adv-x="710" 
d="M600 555l-155 -135v-10q77 -8 126 -61t49 -134q0 -100 -73 -165t-197 -65q-49 0 -94 11t-73.5 26t-50.5 30.5t-32 26.5l-10 11l95 120q7 -7 19.5 -18t51.5 -29t79 -18q44 0 69.5 22.5t25.5 57.5q0 38 -25.5 61.5t-69.5 23.5q-18 0 -36.5 -2.5t-28.5 -5.5l-10 -2l-35 105
l110 95q16 13 31 22.5t22 11.5l7 3v8q-25 -5 -90 -5h-170v160h465v-145z" />
    <glyph glyph-name="four.tab" horiz-adv-x="710" 
d="M380 285l35 115h145v-115h75v-160h-75v-125h-180v125h-305v150l265 425h195l-200 -320q-20 -31 -39 -52.5t-28 -27.5l-9 -5v-10h121z" />
    <glyph glyph-name="five.tab" horiz-adv-x="710" 
d="M350 -15q-50 0 -95.5 11t-74 26t-50 30.5t-30.5 26.5l-10 11l90 120q7 -7 19.5 -18t51.5 -29t79 -18q48 0 74 23.5t26 61.5q0 35 -26.5 57.5t-73.5 22.5q-22 0 -43.5 -5t-31.5 -10l-10 -5l-110 60l55 350h395v-150h-245l-20 -110q30 10 70 10q105 0 167.5 -62.5
t62.5 -167.5q0 -102 -72.5 -168.5t-197.5 -66.5z" />
    <glyph glyph-name="six.tab" horiz-adv-x="710" 
d="M371 715q110 0 174.5 -51.5t64.5 -123.5q0 -16 -2.5 -31t-5.5 -22l-2 -7h-165q5 15 5 30q0 19 -15 32t-40 13q-48 0 -79 -40t-31 -115q5 5 15.5 12.5t44.5 20t70 12.5q98 0 161.5 -64.5t63.5 -165.5q0 -99 -69.5 -164.5t-180.5 -65.5q-129 0 -209.5 95.5t-80.5 269.5
q0 170 81 267.5t200 97.5zM285 270q14 -125 95 -125q27 0 46 22t19 58q0 34 -21.5 54.5t-58.5 20.5q-22 0 -42 -7.5t-29 -14.5z" />
    <glyph glyph-name="seven.tab" horiz-adv-x="710" 
d="M115 540v160h480v-130l-225 -570h-190l215 530v10h-280z" />
    <glyph glyph-name="eight.tab" horiz-adv-x="710" 
d="M355 715q115 0 182.5 -55.5t67.5 -134.5q0 -32 -10 -60t-23.5 -44.5t-27.5 -28.5t-24 -17l-10 -5q5 -2 13.5 -6t30 -19t38 -33.5t30 -49.5t13.5 -67q0 -91 -73.5 -150.5t-206.5 -59.5t-206.5 59.5t-73.5 150.5q0 36 13.5 67.5t32.5 50.5t38 32.5t33 18.5l13 6q-4 2 -11 5
t-24 16.5t-30 29.5t-24 44t-11 60q0 82 67 136t183 54zM445 205q0 31 -27.5 56t-55.5 35l-27 9q-3 -1 -7.5 -4t-16.5 -12t-21.5 -19.5t-17 -26.5t-7.5 -33q0 -34 25 -57t65 -23t65 22t25 53zM285 510q0 -27 25 -48t50 -29l25 -8q6 3 14 9.5t22 27.5t14 43q0 65 -75 65
q-32 0 -53.5 -18t-21.5 -42z" />
    <glyph glyph-name="nine.tab" horiz-adv-x="710" 
d="M339 -15q-46 0 -88 9.5t-69 22.5t-48 26t-30 23l-9 9l95 125q5 -6 15 -15t45 -24.5t75 -15.5q47 0 78.5 41.5t31.5 113.5q-5 -5 -15.5 -12.5t-44.5 -20t-70 -12.5q-98 0 -161.5 64.5t-63.5 165.5q0 99 69.5 164.5t180.5 65.5q129 0 209.5 -95.5t80.5 -269.5
q0 -170 -81 -267.5t-200 -97.5zM425 430q-14 125 -95 125q-27 0 -46 -22t-19 -58q0 -34 21.5 -54.5t58.5 -20.5q22 0 42 7.5t29 14.5z" />
    <glyph glyph-name="zero.numr" horiz-adv-x="410" 
d="M160 510q0 -80 45 -80t45 80t-45 80t-45 -80zM380 510q0 -89 -47.5 -139.5t-127.5 -50.5t-127.5 50.5t-47.5 139.5t47.5 139.5t127.5 50.5t127.5 -50.5t47.5 -139.5z" />
    <glyph glyph-name="one.numr" horiz-adv-x="290" 
d="M245 320h-130v220q-25 -30 -85 -30v110q33 0 55.5 20t28.5 40l6 20h125v-380z" />
    <glyph glyph-name="two.numr" horiz-adv-x="375" 
d="M350 580q0 -27 -14 -52.5t-33.5 -42t-39.5 -30t-34 -19.5l-14 -6v-10q35 10 80 10h55v-110h-320v110q8 4 20.5 10t45.5 24t58 34t45.5 35t20.5 32t-9 21.5t-26 8.5q-15 0 -25 -11t-10 -29v-5h-120q-5 15 -5 30q0 51 42 85.5t118 34.5q79 0 122 -34t43 -86z" />
    <glyph glyph-name="three.numr" horiz-adv-x="360" 
d="M330 610l-85 -55v-10l10 -2.5t21.5 -8.5t27.5 -17t21.5 -29t9.5 -43q0 -55 -42 -90t-118 -35q-47 0 -87 15t-56 30l-17 15q9 12 19 25t22 28.5t19 24.5q33 -38 81 -38q21 0 32.5 9.5t11.5 25.5q0 12 -11 21t-29 9h-40l-20 60l40 30q9 7 21.5 13t20.5 9l8 3v10
q-30 -10 -50 -10h-100v100h290v-90z" />
    <glyph glyph-name="four.numr" horiz-adv-x="380" 
d="M145 700h125l-80 -140q-10 -18 -22.5 -33t-19.5 -21l-8 -6v-10h60l25 85h95v-85h45v-100h-45v-70h-130v70h-168v100q14 23 38.5 66t45 78t39.5 66z" />
    <glyph glyph-name="five.numr" horiz-adv-x="350" 
d="M168 600l-8 -40q15 5 45 5q55 0 90 -33t35 -82q0 -55 -43.5 -92.5t-116.5 -37.5q-44 0 -84 15t-58 30l-18 15l60 80q36 -40 85 -40q45 0 45 35t-50 35q-16 0 -31 -2.5t-22 -5.5l-7 -2l-60 30l35 190h250v-100h-147z" />
    <glyph glyph-name="six.numr" horiz-adv-x="375" 
d="M195 700q72 0 108.5 -28t36.5 -72l-5 -30h-105q0 30 -25 30q-23 0 -39 -18.5t-16 -51.5q30 25 85 25t87.5 -29.5t32.5 -75.5q0 -58 -40 -94t-110 -36q-86 0 -133 52.5t-47 147.5q0 82 47 131t123 49zM155 470q4 -29 16.5 -44.5t28.5 -15.5q15 0 25 10t10 25q0 18 -10 29
t-25 11q-11 0 -22.5 -3.5t-17.5 -7.5z" />
    <glyph glyph-name="seven.numr" horiz-adv-x="335" 
d="M20 590v110h295v-105q-45 -110 -110 -275h-135l105 260v10h-155z" />
    <glyph glyph-name="eight.numr" horiz-adv-x="370" 
d="M185 700q68 0 106.5 -30.5t38.5 -74.5q0 -22 -10 -41t-20 -26l-10 -8q7 -2 17 -6t26.5 -24.5t16.5 -49.5q0 -52 -43 -86t-122 -34t-122 34t-43 86q0 27 15 48t30 29l15 8q-5 2 -12.5 7t-20 23t-12.5 40q0 41 41.5 73t108.5 32zM227 440q0 16 -15 28.5t-30 16.5l-16 4
q-26 -20 -26 -49q0 -18 12 -29t32 -11q19 0 31 11.5t12 28.5zM185 625q-15 0 -25 -9t-10 -21q0 -16 12.5 -26t25.5 -12l12 -2q20 15 20 40q0 12 -10 21t-25 9z" />
    <glyph glyph-name="nine.numr" horiz-adv-x="375" 
d="M180 320q-44 0 -84 15t-58 29l-18 15l60 81q30 -35 90 -35q23 0 39 18t16 47q-30 -25 -85 -25t-87.5 29.5t-32.5 75.5q0 58 40 94t110 36q86 0 133 -52.5t47 -147.5q0 -82 -47 -131t-123 -49zM220 555q-7 55 -45 55q-15 0 -25 -10t-10 -25t10 -25t25 -10q11 0 22.5 4
t16.5 8z" />
    <glyph glyph-name="zero.dnom" horiz-adv-x="410" 
d="M160 190q0 -80 45 -80t45 80t-45 80t-45 -80zM380 190q0 -89 -47.5 -139.5t-127.5 -50.5t-127.5 50.5t-47.5 139.5t47.5 139.5t127.5 50.5t127.5 -50.5t47.5 -139.5z" />
    <glyph glyph-name="one.dnom" horiz-adv-x="290" 
d="M245 0h-130v220q-25 -30 -85 -30v110q33 0 55.5 20t28.5 40l6 20h125v-380z" />
    <glyph glyph-name="two.dnom" horiz-adv-x="375" 
d="M350 260q0 -27 -14 -52.5t-33.5 -42t-39.5 -30t-34 -19.5l-14 -6v-10q35 10 80 10h55v-110h-320v110q8 4 20.5 10t45.5 24t58 34t45.5 35t20.5 32t-9 21.5t-26 8.5q-15 0 -25 -11t-10 -29v-5h-120q-5 15 -5 30q0 51 42 85.5t118 34.5q79 0 122 -34t43 -86z" />
    <glyph glyph-name="three.dnom" horiz-adv-x="360" 
d="M330 290l-85 -55v-10l10 -2.5t21.5 -8.5t27.5 -17t21.5 -29t9.5 -43q0 -55 -42 -90t-118 -35q-47 0 -87 15t-56 30l-17 15q9 12 19 25t22 28.5t19 24.5q33 -38 81 -38q21 0 32.5 9.5t11.5 25.5q0 12 -11 21t-29 9h-40l-20 60l40 30q9 7 21.5 13t20.5 9l8 3v10
q-30 -10 -50 -10h-100v100h290v-90z" />
    <glyph glyph-name="four.dnom" horiz-adv-x="380" 
d="M145 380h125l-80 -140q-10 -18 -22.5 -33t-19.5 -21l-8 -6v-10h60l25 85h95v-85h45v-100h-45v-70h-130v70h-170v100q41 70 125 210z" />
    <glyph glyph-name="five.dnom" horiz-adv-x="350" 
d="M168 280l-8 -40q15 5 45 5q55 0 90 -33t35 -82q0 -55 -43.5 -92.5t-116.5 -37.5q-44 0 -84 15t-58 30l-18 15l60 80q36 -40 85 -40q45 0 45 35t-50 35q-16 0 -31 -2.5t-22 -5.5l-7 -2l-60 30l35 190h250v-100h-147z" />
    <glyph glyph-name="six.dnom" horiz-adv-x="375" 
d="M195 380q72 0 108.5 -28t36.5 -72l-5 -30h-105q0 30 -25 30q-23 0 -39 -18.5t-16 -51.5q30 25 85 25t87.5 -29.5t32.5 -75.5q0 -58 -40 -94t-110 -36q-86 0 -133 52.5t-47 147.5q0 82 47 131t123 49zM155 150q4 -29 16.5 -44.5t28.5 -15.5q15 0 25 10t10 25q0 18 -10 29
t-25 11q-11 0 -22.5 -3.5t-17.5 -7.5z" />
    <glyph glyph-name="seven.dnom" horiz-adv-x="335" 
d="M20 270v110h295v-105q-45 -110 -110 -275h-135l105 260v10h-155z" />
    <glyph glyph-name="eight.dnom" horiz-adv-x="360" 
d="M180 380q68 0 106.5 -30.5t38.5 -74.5q0 -22 -10 -41t-20 -26l-10 -8q7 -2 17 -6t26.5 -24.5t16.5 -49.5q0 -52 -43 -86t-122 -34t-122 34t-43 86q0 27 15 48t30 29l15 8q-5 2 -12.5 7t-20 23t-12.5 40q0 41 41.5 73t108.5 32zM222 120q0 16 -15 28.5t-31 16.5l-15 4
q-26 -20 -26 -49q0 -18 12 -29t32 -11q19 0 31 11.5t12 28.5zM180 305q-15 0 -25 -9t-10 -21q0 -16 12.5 -26t24.5 -12l13 -2q20 15 20 40q0 12 -10 21t-25 9z" />
    <glyph glyph-name="nine.dnom" horiz-adv-x="375" 
d="M180 0q-44 0 -84 15t-58 29l-18 15l60 81q30 -35 90 -35q23 0 39 18t16 47q-30 -25 -85 -25t-87.5 29.5t-32.5 75.5q0 58 40 94t110 36q86 0 133 -52.5t47 -147.5q0 -82 -47 -131t-123 -49zM220 235q-7 55 -45 55q-15 0 -25 -10t-10 -25t10 -25t25 -10q11 0 22.5 4
t16.5 8z" />
    </font>
</defs>
</svg>
