<?xml version="1.0" standalone="no"?>
<!DOCTYPE svg PUBLIC "-//W3C//DTD SVG 1.1//EN" "http://www.w3.org/Graphics/SVG/1.1/DTD/svg11.dtd" >
<svg xmlns="http://www.w3.org/2000/svg" xmlns:xlink="http://www.w3.org/1999/xlink" version="1.1">
<metadata>
Created by FontForge 20161003 at Wed May  9 14:28:15 2018
 By www-data
Copyright (c) 2017 by TypeType. Designer Ivan Gladkikh, technical designers Philipp Nurullin, Nadyr Rakhimov, Dmitriy Greshnev. All rights reserved.
</metadata>
<defs>
<font id="TTHazelnutsBold" horiz-adv-x="765" >
  <font-face 
    font-family="TTHazelnutsBold"
    font-weight="700"
    font-stretch="normal"
    units-per-em="1000"
    panose-1="2 0 8 3 4 0 0 2 0 4"
    ascent="800"
    descent="-200"
    x-height="525"
    cap-height="700"
    bbox="-145 -312 1205 1004"
    underline-thickness="50"
    underline-position="-150"
    unicode-range="U+000D-F739"
  />
<missing-glyph horiz-adv-x="0" 
 />
    <glyph glyph-name=".notdef" horiz-adv-x="0" 
 />
    <glyph glyph-name=".null" horiz-adv-x="0" 
 />
    <glyph glyph-name=".null" horiz-adv-x="0" 
 />
    <glyph glyph-name="nonmarkingreturn" horiz-adv-x="333" 
 />
    <glyph glyph-name="CR" unicode="&#xd;" horiz-adv-x="0" 
 />
    <glyph glyph-name="space" unicode=" " horiz-adv-x="230" 
 />
    <glyph glyph-name="exclam" unicode="!" horiz-adv-x="310" 
d="M202 224h-95l-22 186v290h140v-290zM75 65q0 34 21.5 54.5t58.5 20.5t58.5 -20.5t21.5 -54.5t-21.5 -54.5t-58.5 -20.5t-58.5 20.5t-21.5 54.5z" />
    <glyph glyph-name="quotedbl" unicode="&#x22;" horiz-adv-x="410" 
d="M67 510l-12 140v105h120v-105l-13 -140h-95zM247 510l-12 140v105h120v-105l-13 -140h-95z" />
    <glyph glyph-name="numbersign" unicode="#" horiz-adv-x="690" 
d="M462 700h118l-25 -157h115v-117h-133l-25 -153h108v-117h-125l-25 -156h-118l25 156h-122l-25 -156h-118l25 156h-117v117h135l25 153h-110v117h127l25 157h118l-25 -157h122zM420 426h-123l-25 -153h123z" />
    <glyph glyph-name="dollar" unicode="$" horiz-adv-x="600" 
d="M285 110q63 0 94 25.5t31 69.5q0 27 -26.5 47.5t-66.5 31.5t-87 29t-87 38.5t-66.5 61t-26.5 95.5q0 73 49.5 128.5t130.5 71.5v92h127v-90q88 -13 138 -63.5t50 -116.5q0 -14 -2.5 -29t-4.5 -23l-3 -8h-140q7 18 7 38q0 38 -26.5 61t-75.5 23q-47 0 -76 -25t-29 -59
q0 -28 26.5 -48t66.5 -31.5t87 -29t87 -38t66.5 -61t26.5 -95.5q0 -86 -52 -143.5t-146 -73.5v-88h-127v91q-37 6 -72.5 20.5t-59.5 30.5t-42.5 31t-27.5 25l-8 10l77 95q3 -4 8.5 -10t24 -22t38.5 -28.5t52 -22.5t65 -10z" />
    <glyph glyph-name="percent" unicode="%" horiz-adv-x="870" 
d="M702 700l-400 -700h-135l400 700h135zM730 177q0 49 -17 72.5t-45 23.5t-45.5 -24t-17.5 -72t17.5 -72t45.5 -24t45 23.5t17 72.5zM835 177q0 -86 -46.5 -136.5t-120.5 -50.5q-75 0 -121.5 50.5t-46.5 136.5t46.5 136.5t121.5 50.5q74 0 120.5 -50.5t46.5 -136.5z
M140 522q0 -48 17.5 -72t45.5 -24t45 23.5t17 72.5t-17 72.5t-45 23.5t-45.5 -24t-17.5 -72zM35 522q0 87 46.5 137.5t121.5 50.5q74 0 120.5 -50.5t46.5 -137.5q0 -86 -46.5 -136.5t-120.5 -50.5q-75 0 -121.5 50.5t-46.5 136.5z" />
    <glyph glyph-name="ampersand" unicode="&#x26;" horiz-adv-x="695" 
d="M427 521q0 29 -21.5 49t-55.5 20q-37 0 -60 -20t-23 -52q0 -38 52 -96l156 -172q27 53 27 121h120q0 -60 -15 -113t-30 -76l-15 -23l153 -159h-163l-70 73q-3 -4 -9 -9.5t-26.5 -21t-44 -27t-60.5 -21t-77 -9.5q-112 0 -178.5 59t-66.5 146q0 43 17 79.5t41.5 58
t49.5 36.5t42 20l17 6q-7 6 -17.5 18t-27.5 48.5t-17 73.5q0 79 60 132t162 53q90 0 150 -51.5t60 -118.5q0 -11 -1.5 -22.5t-3.5 -16.5l-2 -6h-125q2 10 2 21zM280 105q33 0 62.5 14t41.5 28l13 14l-130 145q-4 -1 -11 -2.5t-24.5 -9.5t-31 -19t-24.5 -32t-11 -47
q0 -39 30.5 -65t84.5 -26z" />
    <glyph glyph-name="quotesingle" unicode="'" horiz-adv-x="230" 
d="M67 510l-12 140v105h120v-105l-13 -140h-95z" />
    <glyph glyph-name="parenleft" unicode="(" horiz-adv-x="375" 
d="M197 263q0 -67 16 -134t38.5 -115t44.5 -87t38 -59l16 -19l-63 -59q-9 7 -24.5 21t-54.5 60.5t-69 97.5t-54.5 131t-24.5 163q0 82 23.5 161t57 133t66.5 96t57 62l23 20l63 -59q-6 -7 -16.5 -20.5t-37 -56.5t-46.5 -88t-36.5 -113t-16.5 -135z" />
    <glyph glyph-name="parenright" unicode=")" horiz-adv-x="375" 
d="M178 263q0 67 -16 134t-38 115t-44.5 86.5t-38.5 57.5l-16 20l63 59q9 -7 24.5 -21t54.5 -60.5t69 -97.5t54.5 -131t24.5 -162q0 -83 -23.5 -162t-56.5 -133t-66.5 -96t-56.5 -62l-24 -20l-63 59q6 7 16.5 20.5t37 56.5t46.5 88.5t36.5 113.5t16.5 135z" />
    <glyph glyph-name="asterisk" unicode="*" horiz-adv-x="455" 
d="M177 571v129h100v-129l123 43l30 -86l-123 -43l70 -113l-82 -44l-68 113l-67 -113l-83 44l70 113l-122 43l30 86z" />
    <glyph glyph-name="plus" unicode="+" horiz-adv-x="480" 
d="M30 270v120h150v162h120v-162h150v-120h-150v-162h-120v162h-150z" />
    <glyph glyph-name="comma" unicode="," horiz-adv-x="250" 
d="M45 65q0 34 21.5 54.5t58.5 20.5q80 0 80 -90q0 -75 -43 -121t-107 -54v65q51 7 60 50q-70 8 -70 75z" />
    <glyph glyph-name="hyphen" unicode="-" horiz-adv-x="455" 
d="M35 270v120h385v-120h-385z" />
    <glyph glyph-name="period" unicode="." horiz-adv-x="250" 
d="M45 65q0 34 21.5 54.5t58.5 20.5t58.5 -20.5t21.5 -54.5t-21.5 -54.5t-58.5 -20.5t-58.5 20.5t-21.5 54.5z" />
    <glyph glyph-name="slash" unicode="/" horiz-adv-x="520" 
d="M0 -220l390 980h130l-390 -980h-130z" />
    <glyph glyph-name="zero" unicode="0" horiz-adv-x="680" 
d="M482 350q0 119 -41.5 179.5t-100.5 60.5q-60 0 -101.5 -60.5t-41.5 -179.5q0 -120 41.5 -180.5t101.5 -60.5q59 0 100.5 61t41.5 180zM630 350q0 -175 -80.5 -270t-209.5 -95t-209.5 95t-80.5 270q0 174 80.5 269.5t209.5 95.5t209.5 -95.5t80.5 -269.5z" />
    <glyph glyph-name="one" unicode="1" horiz-adv-x="390" 
d="M310 0h-140v508q-2 -3 -5 -7t-15 -15t-26.5 -19.5t-39.5 -15.5t-54 -7v125q33 0 59.5 13.5t41.5 32.5t25 38.5t14 32.5l3 14h137v-700z" />
    <glyph glyph-name="two" unicode="2" horiz-adv-x="570" 
d="M377 500q0 39 -27 64.5t-73 25.5q-51 0 -78 -23t-27 -59q0 -13 2 -26t4 -19l2 -6h-135q-10 30 -10 70q0 79 65.5 133.5t179.5 54.5q111 0 178 -59.5t67 -148.5q0 -40 -9.5 -73t-32.5 -64.5t-40.5 -50t-55.5 -54.5l-100 -95q-16 -16 -31 -27t-22 -14l-7 -3v-10q24 9 90 9
h208v-125h-483v120l230 214q58 54 81.5 87.5t23.5 78.5z" />
    <glyph glyph-name="three" unicode="3" horiz-adv-x="565" 
d="M505 582l-180 -163v-9q84 0 142 -54.5t58 -143.5q0 -99 -69.5 -163t-185.5 -64q-48 0 -91 11t-71 26.5t-48.5 31.5t-29.5 27l-10 11l75 93q2 -3 7 -8t20.5 -18.5t33 -23.5t45 -18t56.5 -8q55 0 87.5 30t32.5 77q0 49 -32.5 79.5t-87.5 30.5q-19 0 -37.5 -3t-27.5 -7
l-10 -3l-37 89l135 123q19 18 34 30.5t20 16.5l6 3v10q-23 -10 -80 -10h-198v125h443v-118z" />
    <glyph glyph-name="four" unicode="4" horiz-adv-x="590" 
d="M347 263v137h140v-137h83v-125h-83v-138h-140v138h-317v120q54 87 157 252t118 190h152l-227 -360q-14 -23 -28 -39.5t-20 -22.5l-7 -5v-10h172z" />
    <glyph glyph-name="five" unicode="5" horiz-adv-x="570" 
d="M270 -15q-48 0 -92 11t-71.5 27t-48 32t-29.5 27l-9 11l72 93q2 -3 7 -8t21 -18.5t33.5 -23.5t45 -18t56.5 -8q57 0 89.5 31t32.5 81q0 49 -32.5 79.5t-89.5 30.5q-24 0 -48.5 -8t-36.5 -16l-13 -7l-90 54l55 345h370v-120h-252l-25 -148q35 15 80 15q103 0 166.5 -63.5
t63.5 -166.5q0 -102 -69.5 -167t-185.5 -65z" />
    <glyph glyph-name="six" unicode="6" horiz-adv-x="600" 
d="M318 715q102 0 162 -49t60 -118q0 -16 -2.5 -31t-5.5 -22l-2 -7h-133q8 18 8 41q0 26 -21 43.5t-59 17.5q-53 0 -89.5 -51t-40.5 -150q6 6 17.5 14.5t48.5 22.5t76 14q96 0 159.5 -64.5t63.5 -163.5q0 -98 -66.5 -162.5t-168.5 -64.5q-122 0 -198.5 94t-76.5 271
q0 175 76 270t192 95zM200 275q7 -80 41.5 -122.5t83.5 -42.5q36 0 63 30t27 77q0 48 -28.5 76.5t-79.5 28.5q-30 0 -56.5 -12t-38.5 -24z" />
    <glyph glyph-name="seven" unicode="7" horiz-adv-x="515" 
d="M30 575v125h455v-103l-238 -597h-147l230 568v7h-300z" />
    <glyph glyph-name="eight" unicode="8" horiz-adv-x="600" 
d="M300 715q107 0 171 -54.5t64 -132.5q0 -32 -10.5 -60t-25.5 -44.5t-30 -28.5t-25 -17l-11 -5q5 -2 14 -6t32 -19.5t40 -34.5t31.5 -51.5t14.5 -69.5q0 -88 -71 -147.5t-194 -59.5t-194 59.5t-71 147.5q0 38 14 70.5t33.5 51.5t39.5 32.5t34 18.5l14 5q-4 2 -11 5
t-25.5 16.5t-32 30t-25 45t-11.5 61.5q0 79 64 133t171 54zM418 202q0 24 -14 45t-34.5 34t-41 22.5t-34.5 13.5l-14 4q-4 -2 -10.5 -5t-23 -13.5t-29.5 -23t-23.5 -32.5t-10.5 -42q0 -43 32 -72.5t85 -29.5t85.5 29t32.5 70zM208 515q0 -32 30.5 -56.5t61.5 -32.5l30 -9
q3 1 7.5 3.5t16 11.5t20.5 19t16.5 27t7.5 35q0 37 -25.5 60.5t-69.5 23.5q-42 0 -68.5 -24t-26.5 -58z" />
    <glyph glyph-name="nine" unicode="9" horiz-adv-x="600" 
d="M400 424q-7 81 -41.5 123.5t-83.5 42.5q-37 0 -63.5 -30.5t-26.5 -76.5q0 -48 28.5 -76.5t78.5 -28.5q30 0 57 11.5t39 22.5zM270 109q56 0 93.5 51.5t41.5 149.5q-6 -6 -17.5 -14t-48.5 -22t-77 -14q-96 0 -159 64t-63 163q0 98 66 163t169 65q122 0 198.5 -94
t76.5 -271q0 -175 -76.5 -270t-191.5 -95q-42 0 -80.5 9.5t-63.5 23t-44.5 27t-27.5 23.5l-9 9l75 96q6 -7 16.5 -17.5t46.5 -28.5t75 -18z" />
    <glyph glyph-name="colon" unicode=":" horiz-adv-x="250" 
d="M45 65q0 34 21.5 54.5t58.5 20.5t58.5 -20.5t21.5 -54.5t-21.5 -54.5t-58.5 -20.5t-58.5 20.5t-21.5 54.5zM45 459q0 34 21.5 54.5t58.5 20.5t58.5 -20.5t21.5 -54.5t-21.5 -54.5t-58.5 -20.5t-58.5 20.5t-21.5 54.5z" />
    <glyph glyph-name="semicolon" unicode=";" horiz-adv-x="250" 
d="M45 459q0 34 21.5 54.5t58.5 20.5t58.5 -20.5t21.5 -54.5t-21.5 -54.5t-58.5 -20.5t-58.5 20.5t-21.5 54.5zM45 65q0 34 21.5 54.5t58.5 20.5q80 0 80 -90q0 -75 -43 -121t-107 -54v65q51 7 60 50q-70 8 -70 75z" />
    <glyph glyph-name="less" unicode="&#x3c;" horiz-adv-x="525" 
d="M485 13l-445 185v120l445 186v-123l-295 -119v-7l295 -119v-123z" />
    <glyph glyph-name="equal" unicode="=" horiz-adv-x="495" 
d="M40 166v111h415v-111h-415zM40 383v111h415v-111h-415z" />
    <glyph glyph-name="greater" unicode="&#x3e;" horiz-adv-x="525" 
d="M485 198l-445 -185v123l295 119v7l-295 119v123l445 -186v-120z" />
    <glyph glyph-name="question" unicode="?" horiz-adv-x="528" 
d="M355 511q0 35 -25 58t-67 23q-46 0 -70.5 -22t-24.5 -57q0 -11 2 -22t4 -16l1 -5h-140q-10 22 -10 65q0 75 64.5 127.5t173.5 52.5q110 0 175 -57t65 -141q0 -49 -19.5 -84t-47.5 -54t-56 -34.5t-47.5 -36t-19.5 -48.5l5 -37h-123q-10 28 -10 58q0 38 17.5 67.5
t42.5 47.5t50 33.5t42.5 36t17.5 45.5zM175 65q0 34 21.5 54.5t58.5 20.5t58.5 -20.5t21.5 -54.5t-21.5 -54.5t-58.5 -20.5t-58.5 20.5t-21.5 54.5z" />
    <glyph glyph-name="at" unicode="@" horiz-adv-x="1000" 
d="M620 128h-8q-1 -3 -4 -8t-14 -17.5t-24.5 -22t-37.5 -17.5t-52 -8q-77 0 -128.5 57.5t-51.5 152.5q0 98 56.5 154t155.5 56q44 0 89 -9.5t68 -19.5l23 -9v-187q0 -37 19.5 -59t50.5 -22q33 0 53 29.5t20 91.5q0 131 -89.5 216t-235.5 85q-149 0 -242 -91t-93 -235
t93 -235t242 -91q52 0 104 13.5t78 27.5l25 14l48 -106q-13 -7 -36 -17.5t-90 -28t-129 -17.5q-207 0 -333.5 123t-126.5 317t126.5 317t333.5 123q204 0 327 -117t123 -298q0 -108 -58 -171.5t-150 -63.5q-44 0 -77 18.5t-44 36.5zM502 169q31 0 50.5 22t19.5 59v101
q-25 10 -57 10q-90 0 -90 -96t77 -96z" />
    <glyph glyph-name="A" unicode="A" horiz-adv-x="670" 
d="M430 260l-65 185q-11 32 -17.5 58t-7.5 37v10h-10q0 -34 -25 -105l-65 -185h190zM410 700l260 -700h-150l-45 135h-280l-45 -135h-150l260 700h150z" />
    <glyph glyph-name="B" unicode="B" horiz-adv-x="670" 
d="M365 0h-285v700h273q121 0 184 -51t63 -134q0 -34 -11.5 -61t-27.5 -41.5t-32 -24.5t-27 -13l-12 -3v-7q5 -1 14.5 -3.5t32.5 -14t41 -28.5t32.5 -49t14.5 -73q0 -86 -67.5 -141.5t-192.5 -55.5zM478 212q0 40 -28.5 63.5t-84.5 23.5h-145v-174h146q56 0 84 23.5t28 63.5
zM353 575h-133v-154h133q100 0 100 77t-100 77z" />
    <glyph glyph-name="C" unicode="C" horiz-adv-x="685" 
d="M380 715q121 0 194 -61t73 -149q0 -18 -2.5 -35.5t-4.5 -25.5l-3 -9h-142q7 23 7 53q0 46 -32 74t-90 28q-84 0 -133.5 -60t-49.5 -178q0 -120 52.5 -181t145.5 -61q33 0 63.5 9t51 22t36.5 26t24 22l7 9l73 -90q-4 -5 -11 -13.5t-32 -29.5t-53.5 -37t-75 -29.5
t-96.5 -13.5q-154 0 -243 95.5t-89 269.5t89 269.5t241 95.5z" />
    <glyph glyph-name="D" unicode="D" horiz-adv-x="723" 
d="M220 124h98q207 0 207 226q0 225 -207 225h-98v-451zM673 350q0 -167 -92.5 -258.5t-262.5 -91.5h-238v700h238q170 0 262.5 -91.5t92.5 -258.5z" />
    <glyph glyph-name="E" unicode="E" horiz-adv-x="580" 
d="M220 575v-161h268v-125h-268v-164h325v-125h-465v700h465v-125h-325z" />
    <glyph glyph-name="F" unicode="F" horiz-adv-x="563" 
d="M220 575v-184h270v-125h-270v-266h-140v700h458v-125h-318z" />
    <glyph glyph-name="G" unicode="G" horiz-adv-x="727" 
d="M395 109q36 0 69 11.5t48 23.5l15 12v110h-120v115h260v-274q-4 -5 -12 -13t-36 -29t-58.5 -37.5t-79.5 -29.5t-100 -13q-154 0 -242.5 95t-88.5 270q0 174 89 269.5t241 95.5q122 0 194.5 -60t72.5 -145q0 -18 -2.5 -35t-4.5 -25l-3 -8h-142q7 21 7 48q0 41 -32 70.5
t-90 29.5q-84 0 -133.5 -60t-49.5 -178q0 -120 52.5 -181.5t145.5 -61.5z" />
    <glyph glyph-name="H" unicode="H" horiz-adv-x="735" 
d="M515 0v272h-295v-272h-140v700h140v-304h295v304h140v-700h-140z" />
    <glyph glyph-name="I" unicode="I" horiz-adv-x="300" 
d="M220 700v-700h-140v700h140z" />
    <glyph glyph-name="J" unicode="J" horiz-adv-x="380" 
d="M105 -12q-20 0 -41.5 2.5t-32.5 5.5l-11 2v117q23 -3 42 -3q98 0 98 103v485h140v-499q0 -104 -51.5 -158.5t-143.5 -54.5z" />
    <glyph glyph-name="K" unicode="K" horiz-adv-x="672" 
d="M512 0l-192 293h-100v-293h-140v700h140v-282h97l175 282h163q-26 -40 -220 -340l242 -360h-165z" />
    <glyph glyph-name="L" unicode="L" horiz-adv-x="545" 
d="M220 700v-575h305v-125h-445v700h140z" />
    <glyph glyph-name="M" unicode="M" horiz-adv-x="930" 
d="M515 137h-100l-135 243l-60 115h-10q10 -27 10 -115v-380h-140v700h175l160 -290q20 -36 31 -61t12 -32l2 -7h10q0 18 45 100l160 290h175v-700h-140v380q0 39 2.5 68t5.5 38l2 9h-10q-11 -27 -60 -115z" />
    <glyph glyph-name="N" unicode="N" 
d="M685 700v-700h-150l-245 360q-27 39 -44.5 68t-21.5 38l-4 9h-10q10 -27 10 -115v-360h-140v700h150l245 -360q27 -39 44.5 -68t21.5 -38l4 -9h10q-10 27 -10 115v360h140z" />
    <glyph glyph-name="O" unicode="O" 
d="M567 350q0 119 -49.5 179.5t-135.5 60.5t-135.5 -60.5t-49.5 -179.5q0 -120 49.5 -180.5t135.5 -60.5t135.5 60.5t49.5 180.5zM715 350q0 -175 -89 -270t-244 -95q-154 0 -243 95.5t-89 269.5t89 269.5t243 95.5t243.5 -95.5t89.5 -269.5z" />
    <glyph glyph-name="P" unicode="P" horiz-adv-x="655" 
d="M80 700h243q146 0 219 -63t73 -177q0 -113 -73 -176t-219 -63h-103v-221h-140v700zM325 575h-105v-229h105q71 0 107 30.5t36 83.5q0 54 -35.5 84.5t-107.5 30.5z" />
    <glyph glyph-name="Q" unicode="Q" 
d="M715 350q0 -269 -208 -346q0 -50 23.5 -73t74.5 -23q18 0 34.5 2t24.5 4l8 2v-118q-32 -12 -87 -12q-89 0 -148.5 57.5t-59.5 141.5q-327 21 -327 365q0 174 89 269.5t243 95.5t243.5 -95.5t89.5 -269.5zM197 350q0 -120 49.5 -180.5t135.5 -60.5t135.5 60.5t49.5 180.5
q0 119 -49.5 179.5t-135.5 60.5t-135.5 -60.5t-49.5 -179.5z" />
    <glyph glyph-name="R" unicode="R" horiz-adv-x="673" 
d="M220 361h113q135 0 135 107t-135 107h-113v-214zM80 700h253q140 0 211 -60t71 -165q0 -46 -15.5 -82t-37.5 -54.5t-44 -30.5t-38 -16l-15 -3v-7q5 -2 12.5 -5.5t24.5 -19t26 -36.5l26 -60q21 -49 71 -49l33 3v-115q-33 -12 -70 -12q-60 0 -96 26.5t-59 77.5l-43 94
q-23 50 -70 50h-100v-236h-140v700z" />
    <glyph glyph-name="S" unicode="S" horiz-adv-x="600" 
d="M285 110q60 0 91.5 26.5t31.5 68.5q0 27 -26.5 47.5t-66.5 31.5t-86 29t-86 38.5t-66.5 61t-26.5 95.5q0 87 68.5 147t181.5 60q114 0 179.5 -54t65.5 -131q0 -14 -2.5 -29t-4.5 -23l-3 -8h-140q8 18 8 38q0 38 -26.5 61t-76.5 23q-45 0 -73.5 -25t-28.5 -59
q0 -28 26.5 -48t66 -31.5t86 -29t86 -38t66 -61t26.5 -95.5q0 -96 -69.5 -158t-190.5 -62q-50 0 -96.5 12.5t-77.5 30.5t-55 36.5t-35 31.5l-11 12l75 95q3 -4 8.5 -10t24.5 -22t39.5 -28.5t52.5 -22.5t65 -10z" />
    <glyph glyph-name="T" unicode="T" horiz-adv-x="585" 
d="M362 575v-575h-140v575h-202v125h545v-125h-203z" />
    <glyph glyph-name="U" unicode="U" horiz-adv-x="735" 
d="M368 110q69 0 108 45.5t39 134.5v410h140v-410q0 -143 -77.5 -224t-209.5 -81q-133 0 -210.5 81t-77.5 224v410h140v-410q0 -89 39.5 -134.5t108.5 -45.5z" />
    <glyph glyph-name="V" unicode="V" horiz-adv-x="660" 
d="M400 0h-140l-255 700h155l140 -405q11 -31 17 -57t7 -37l1 -11h10q1 36 25 105l140 405h155z" />
    <glyph glyph-name="W" unicode="W" horiz-adv-x="990" 
d="M560 700l115 -360q12 -36 18.5 -65t6.5 -39l1 -11h10q0 33 24 115l105 360h145l-205 -700h-135l-119 375q-12 36 -18.5 65t-7.5 40v10h-10q0 -33 -26 -115l-119 -375h-135l-205 700h145l105 -360q11 -36 17 -65t6 -39l1 -11h10q0 33 26 115l115 360h130z" />
    <glyph glyph-name="X" unicode="X" horiz-adv-x="650" 
d="M330 265h-10q0 -19 -45 -90l-110 -175h-170l245 370l-220 330h170l85 -135q20 -32 31 -54.5t12 -28.5l2 -7h10q0 18 45 90l85 135h170l-220 -330l245 -370h-170l-110 175q-20 32 -31.5 54.5t-12.5 28.5z" />
    <glyph glyph-name="Y" unicode="Y" horiz-adv-x="640" 
d="M390 247v-247h-140v247l-250 453h160l115 -210q18 -32 28 -58.5t11 -36.5l1 -10h10q0 32 40 105l115 210h160z" />
    <glyph glyph-name="Z" unicode="Z" horiz-adv-x="590" 
d="M190 125h375v-125h-540v125l295 375q14 18 31.5 34t28.5 24l10 7v10h-345v125h510v-125l-295 -375q-14 -18 -31.5 -34t-28.5 -24l-10 -7v-10z" />
    <glyph glyph-name="bracketleft" unicode="[" horiz-adv-x="368" 
d="M75 -212v964h268v-122h-130v-720h130v-122h-268z" />
    <glyph glyph-name="backslash" unicode="\" horiz-adv-x="520" 
d="M130 760l390 -980h-130l-390 980h130z" />
    <glyph glyph-name="bracketright" unicode="]" horiz-adv-x="367" 
d="M292 752v-964h-267v122h130v720h-130v122h267z" />
    <glyph glyph-name="asciicircum" unicode="^" horiz-adv-x="477" 
d="M25 355l162 345h103l162 -345h-120l-90 203h-7l-90 -203h-120z" />
    <glyph glyph-name="underscore" unicode="_" horiz-adv-x="420" 
d="M-15 -204v118h450v-118h-450z" />
    <glyph glyph-name="grave" unicode="`" horiz-adv-x="272" 
d="M180 752l62 -177h-85l-127 177h150z" />
    <glyph glyph-name="a" unicode="a" horiz-adv-x="575" 
d="M237 100q43 0 74 29.5t39 73.5h-108q-35 0 -53.5 -15t-18.5 -37t17.5 -36.5t49.5 -14.5zM270 539q95 0 155 -58.5t60 -148.5v-179q0 -48 47 -48h18v-105q-35 -12 -73 -12q-28 0 -49.5 9t-31.5 22t-16.5 26.5t-7.5 22.5l-2 9h-8q-2 -4 -5.5 -10t-17 -22t-30 -28t-45.5 -22
t-62 -10q-72 0 -119.5 46t-47.5 114q0 69 53 115t144 46h118v24q0 43 -22.5 67t-57.5 24q-36 0 -55.5 -16.5t-19.5 -44.5l2 -20h-125q-7 20 -7 42q0 63 56.5 110t148.5 47z" />
    <glyph glyph-name="b" unicode="b" horiz-adv-x="610" 
d="M75 55v700h135v-291q2 3 5.5 8t17 18.5t29 23.5t41 18t54.5 8q89 0 148.5 -73t59.5 -202q0 -132 -71 -206t-192 -74q-59 0 -115.5 17.5t-84.5 35.5zM210 270v-139q42 -26 92 -26q54 0 87 39.5t33 115.5q0 75 -29.5 116t-70.5 41q-49 0 -80.5 -38t-31.5 -109z" />
    <glyph glyph-name="c" unicode="c" horiz-adv-x="557" 
d="M522 355q0 -15 -2 -28.5t-4 -20.5l-1 -6h-133q5 15 5 38q0 35 -24 58.5t-61 23.5q-52 0 -83.5 -39.5t-31.5 -116.5q0 -79 34 -119t96 -40q40 0 73.5 16.5t47.5 32.5l14 17l70 -91q-3 -4 -8.5 -10.5t-25 -22.5t-42.5 -28.5t-61.5 -23t-81.5 -10.5q-118 0 -188 73.5
t-70 203.5t70 204t190 74q96 0 156.5 -54t60.5 -131z" />
    <glyph glyph-name="d" unicode="d" horiz-adv-x="625" 
d="M400 255v139q-43 25 -93 25q-55 0 -87.5 -40t-32.5 -117q0 -75 29.5 -116t70.5 -41q49 0 81 39t32 111zM535 755v-602q0 -48 47 -48h18v-105q-33 -12 -73 -12q-29 0 -51 9.5t-32 22.5t-16 26t-7 22l-1 10h-8q-2 -4 -5.5 -10t-17 -22t-30 -28.5t-45.5 -22.5t-62 -10
q-88 0 -147.5 72.5t-59.5 202.5q0 132 67 206t175 74q29 0 57 -6t42 -12l14 -5v238h135z" />
    <glyph glyph-name="e" unicode="e" horiz-adv-x="577" 
d="M305 424q-45 0 -75 -29.5t-38 -79.5h185q20 0 20 35q0 32 -24.5 53t-67.5 21zM320 101q40 0 75 16.5t50 32.5l15 16l62 -90q-3 -4 -8.5 -10t-25.5 -21.5t-43.5 -27.5t-61.5 -22t-80 -10q-118 0 -188 73.5t-70 203.5t70 204t190 74q103 0 165 -58t62 -147q0 -30 -7 -60
t-13 -45l-7 -15h-313q6 -53 39.5 -83.5t88.5 -30.5z" />
    <glyph glyph-name="f" unicode="f" horiz-adv-x="397" 
d="M102 520v45q0 96 50 150.5t130 54.5q32 0 63.5 -6t46.5 -12l15 -7l-15 -113q-37 17 -80 17q-75 0 -75 -88v-41h133v-120h-133v-400h-135v400h-82v120h82z" />
    <glyph glyph-name="g" unicode="g" horiz-adv-x="558" 
d="M463 619q20 0 40 -4.5t30 -8.5l10 -4v-101q-18 7 -45 7q-15 0 -26 -7.5t-15 -14.5l-4 -8q5 -4 13 -13.5t21 -43.5t13 -74q0 -86 -59 -139t-163 -53q-24 0 -46 3.5t-32 6.5l-10 3q-12 -8 -12 -26q0 -33 45 -33h142q80 0 127.5 -44.5t47.5 -114.5q0 -81 -64 -131.5
t-188 -50.5q-125 0 -189 47.5t-64 119.5q0 33 17.5 62t35.5 41l17 12q-5 3 -13 8.5t-21 26.5t-13 45q0 27 12 48t24 29l11 8q-6 5 -14 15t-22 44t-14 73q0 87 59 140t164 53q20 0 38.5 -2t27.5 -4l9 -2q0 35 30.5 61t79.5 26zM408 -53q0 24 -18 39t-53 15h-142
q-32 -16 -32 -54q0 -31 29.5 -51t92.5 -20q62 0 92.5 20.5t30.5 50.5zM368 347q0 39 -24 61.5t-66 22.5q-43 0 -66.5 -22.5t-23.5 -61.5t23.5 -61.5t66.5 -22.5q42 0 66 22.5t24 61.5z" />
    <glyph glyph-name="h" unicode="h" horiz-adv-x="615" 
d="M322 419q-49 0 -80.5 -39.5t-31.5 -111.5v-268h-135v755h135v-294q2 3 5 8.5t16 19t28 24t41.5 19t56.5 8.5q82 0 132.5 -53.5t50.5 -144.5v-342h-135v335q0 38 -22.5 61t-60.5 23z" />
    <glyph glyph-name="i" unicode="i" horiz-adv-x="305" 
d="M225 403v-403h-135v372q0 47 -48 47h-17v106q35 12 72 12q128 0 128 -134zM235 690q0 -32 -21 -52t-57 -20q-35 0 -56 20t-21 52t21 51.5t56 19.5q36 0 57 -19.5t21 -51.5z" />
    <glyph glyph-name="j" unicode="j" horiz-adv-x="297" 
d="M217 525v-558q0 -98 -49 -151t-131 -53q-20 0 -43 3.5t-36 7.5l-13 3l8 111q25 -5 52 -5q77 0 77 89v553h135zM72 690q0 31 21.5 51t56.5 20t56 -20t21 -51q0 -32 -21 -52t-56 -20q-36 0 -57 20t-21 52z" />
    <glyph glyph-name="k" unicode="k" horiz-adv-x="560" 
d="M210 755v-427h67l121 197h150l-163 -245v-10l180 -270h-153l-135 208h-67v-208h-135v755h135z" />
    <glyph glyph-name="l" unicode="l" horiz-adv-x="300" 
d="M75 121v634h135v-602q0 -48 47 -48h18v-105q-35 -12 -73 -12q-127 0 -127 133z" />
    <glyph glyph-name="m" unicode="m" horiz-adv-x="900" 
d="M525 0h-135v335q0 41 -18 62.5t-49 21.5q-41 0 -69.5 -38.5t-28.5 -110.5v-270h-135v372q0 47 -47 47h-18v106q35 12 73 12q28 0 49.5 -9.5t31.5 -22.5t16.5 -26t8.5 -23l1 -9h8l5 10t15 22t27 28.5t41.5 22.5t56.5 10q31 0 56.5 -9.5t40.5 -23t25 -27.5t14 -24l4 -9h7
l5 10t16 22t29 28.5t43.5 22.5t59.5 10q73 0 120 -53t47 -145v-342h-135v336q0 40 -18 61.5t-49 21.5q-41 0 -69.5 -38.5t-28.5 -110.5v-270z" />
    <glyph glyph-name="n" unicode="n" horiz-adv-x="630" 
d="M338 419q-49 0 -81 -39t-32 -110v-270h-135v372q0 47 -47 47h-18v106q35 12 73 12q28 0 49.5 -9.5t31.5 -22.5t16.5 -26t8.5 -23l1 -9h8l5 10t16 22t29.5 28.5t46 22.5t63.5 10q81 0 131.5 -53.5t50.5 -144.5v-342h-135v335q0 38 -22.5 61t-59.5 23z" />
    <glyph glyph-name="o" unicode="o" horiz-adv-x="610" 
d="M422 262q0 77 -32 117t-85 40t-85.5 -40t-32.5 -117t32.5 -117t85.5 -40t85 40t32 117zM45 262q0 130 70 204t190 74q119 0 189.5 -74t70.5 -204t-70.5 -203.5t-189.5 -73.5q-120 0 -190 73.5t-70 203.5z" />
    <glyph glyph-name="p" unicode="p" horiz-adv-x="625" 
d="M225 270v-139q43 -26 93 -26q55 0 87.5 40t32.5 117q0 75 -29.5 116t-70.5 41q-49 0 -81 -39t-32 -110zM90 -220v592q0 47 -47 47h-18v106q33 12 73 12q28 0 49.5 -9.5t31.5 -22.5t16.5 -26t8.5 -23l1 -9h8l5 10t16 22t29.5 28.5t46 22.5t63.5 10q88 0 147.5 -73
t59.5 -202q0 -132 -67 -206t-175 -74q-29 0 -57 5.5t-42 11.5l-14 6v-228h-135z" />
    <glyph glyph-name="q" unicode="q" horiz-adv-x="610" 
d="M535 470v-690h-135v281q-2 -3 -5.5 -8t-17 -18.5t-29 -23.5t-41.5 -18t-55 -8q-88 0 -147.5 72.5t-59.5 202.5q0 132 70.5 206t191.5 74q59 0 116 -17.5t85 -34.5zM400 255v139q-43 25 -93 25q-54 0 -87 -39.5t-33 -114.5q0 -76 29.5 -116.5t70.5 -40.5q50 0 81.5 38
t31.5 109z" />
    <glyph glyph-name="r" unicode="r" horiz-adv-x="425" 
d="M373 540h42v-132h-67q-56 0 -89.5 -41t-33.5 -113v-254h-135v369q0 48 -47 48h-18v105q35 13 73 13q28 0 49.5 -9.5t31.5 -22.5t16.5 -26t8.5 -23l1 -9h8q2 4 5 10.5t16 22.5t29.5 28.5t46 23t63.5 10.5z" />
    <glyph glyph-name="s" unicode="s" horiz-adv-x="490" 
d="M225 103q40 0 60 14t20 37q0 20 -28 33.5t-67.5 24t-79 26t-67.5 50.5t-28 87q0 68 57 116t153 48q95 0 150 -45t55 -110q0 -10 -2 -20t-4 -15l-2 -5h-130q3 10 3 21q0 24 -18.5 40t-51.5 16q-29 0 -47 -14.5t-18 -34.5q0 -17 20 -29.5t50 -19.5t65 -19.5t65 -28
t50 -47.5t20 -76q0 -72 -55.5 -119.5t-152.5 -47.5q-43 0 -82.5 10t-64.5 23.5t-44 27.5t-27 24l-9 10l67 86q6 -7 16.5 -17.5t48 -28t78.5 -17.5z" />
    <glyph glyph-name="t" unicode="t" horiz-adv-x="442" 
d="M102 192v212h-82v121h85l20 135h112v-135h133v-121h-133v-208q0 -88 75 -88q19 0 39 4.5t31 9.5l10 4l15 -113q-52 -25 -125 -25q-81 0 -130.5 54t-49.5 150z" />
    <glyph glyph-name="u" unicode="u" horiz-adv-x="630" 
d="M292 105q49 0 81 39t32 111v270h135v-372q0 -48 47 -48h18v-105q-35 -12 -73 -12q-29 0 -51 9.5t-32 22.5t-16 26t-7 22l-1 10h-8q-2 -4 -5.5 -10t-17 -22t-30 -28.5t-45.5 -22.5t-62 -10q-81 0 -131.5 53.5t-50.5 143.5v343h135v-336q0 -38 22.5 -61t59.5 -23z" />
    <glyph glyph-name="v" unicode="v" horiz-adv-x="540" 
d="M335 0h-130l-195 525h150l85 -235q9 -24 14 -50.5t5 -40.5l1 -14h10q0 50 20 105l85 235h150z" />
    <glyph glyph-name="w" unicode="w" horiz-adv-x="790" 
d="M464 525l61 -215q8 -29 13 -52.5t6 -33.5l1 -9h10q0 30 20 95l65 215h140l-155 -525h-130l-75 255q-8 29 -13 52.5t-6 32.5l-1 10h-10q-1 -30 -20 -95l-75 -255h-130l-155 525h140l65 -215q9 -29 14 -52.5t5 -33.5l1 -9h10q2 30 20 95l61 215h138z" />
    <glyph glyph-name="x" unicode="x" horiz-adv-x="530" 
d="M270 175h-10q0 -18 -30 -65l-70 -110h-155l180 275l-165 250h155l50 -80q16 -25 24.5 -44.5t9.5 -26.5l1 -8h10q0 23 35 79l50 80h155l-165 -250l180 -275h-155l-70 110q-13 21 -20.5 37t-8.5 22z" />
    <glyph glyph-name="y" unicode="y" horiz-adv-x="545" 
d="M115 -240q-20 0 -40 4t-30 8l-10 3l15 115q20 -5 45 -5q38 0 61 24t49 91l-195 525h150l90 -250q9 -24 14 -50.5t6 -40.5v-14h10q0 50 20 105l90 250h145l-195 -530q-46 -124 -99 -179.5t-126 -55.5z" />
    <glyph glyph-name="z" unicode="z" horiz-adv-x="490" 
d="M465 120v-120h-440v120l195 220q16 18 31 31.5t22 18.5l7 5v10h-240v120h415v-120l-195 -220q-16 -18 -31 -31.5t-22 -18.5l-7 -5v-10h265z" />
    <glyph glyph-name="braceleft" unicode="{" horiz-adv-x="415" 
d="M190 273v-7q3 -1 8.5 -3t20 -11.5t25 -23t19.5 -39.5t9 -58v-138q0 -42 21.5 -64t61.5 -22l40 3v-113q-38 -10 -80 -10q-90 0 -135 52.5t-45 149.5v145q0 79 -68 79h-27v113h27q68 0 68 79v145q0 97 45 149.5t135 52.5q19 0 39 -2.5t30 -5.5l11 -2v-113q-20 3 -40 3
q-40 0 -61.5 -22t-21.5 -64v-138q0 -32 -8.5 -58t-20.5 -40t-24 -23t-21 -11z" />
    <glyph glyph-name="bar" unicode="|" horiz-adv-x="360" 
d="M115 -220v975h130v-975h-130z" />
    <glyph glyph-name="braceright" unicode="}" horiz-adv-x="415" 
d="M225 266v7q-3 1 -8.5 3t-20 11.5t-25 23t-19.5 39.5t-9 58v138q0 42 -21.5 64t-61.5 22l-40 -3v113q38 10 80 10q90 0 135 -52.5t45 -149.5v-145q0 -79 68 -79h27v-113h-27q-68 0 -68 -79v-145q0 -97 -45 -149.5t-135 -52.5q-19 0 -39 2.5t-31 4.5l-10 3v113q20 -3 40 -3
q40 0 61.5 22t21.5 64v138q0 32 8.5 58t20.5 40t24 23t20 12z" />
    <glyph glyph-name="asciitilde" unicode="~" horiz-adv-x="570" 
d="M405 221q-46 0 -87 23.5t-72 46.5t-53 23q-45 0 -45 -52l2 -31h-110q-10 34 -10 69q0 61 37.5 98.5t97.5 37.5q37 0 70.5 -14.5t54.5 -32t45 -32t42 -14.5q45 0 45 53l-2 30h110q10 -34 10 -69q0 -61 -37.5 -98.5t-97.5 -37.5z" />
    <glyph glyph-name="nbspace" unicode="&#xa0;" horiz-adv-x="230" 
 />
    <glyph glyph-name="exclamdown" unicode="&#xa1;" horiz-adv-x="310" 
d="M107 300h95l23 -186v-290h-140v290zM75 459q0 34 21.5 54.5t58.5 20.5t58.5 -20.5t21.5 -54.5t-21.5 -54.5t-58.5 -20.5t-58.5 20.5t-21.5 54.5z" />
    <glyph glyph-name="cent" unicode="&#xa2;" horiz-adv-x="557" 
d="M360 -95h-128v88q-84 17 -135.5 87t-51.5 182t51.5 182t135.5 87v86h128v-84q75 -15 118.5 -63t43.5 -115q0 -15 -2 -28.5t-4 -20.5l-1 -6h-133q5 15 5 38q0 35 -24 58t-61 23q-52 0 -83.5 -39t-31.5 -116q0 -79 34 -119t96 -40q40 0 73.5 16.5t47.5 32.5l14 17l70 -91
q-2 -3 -6.5 -8t-19.5 -18.5t-32 -24.5t-45 -22.5t-59 -15.5v-86z" />
    <glyph glyph-name="sterling" unicode="&#xa3;" horiz-adv-x="603" 
d="M40 350v82h65q-15 38 -15 79q0 87 66.5 145.5t176.5 58.5q107 0 169.5 -53.5t62.5 -131.5q0 -13 -2.5 -28t-4.5 -24l-3 -8h-137q7 20 7 41q0 34 -25.5 56.5t-69.5 22.5q-46 0 -73 -24.5t-27 -62.5q0 -17 4 -34.5t8 -26.5l3 -10h183v-82h-153q8 -18 10 -35h143v-83h-148
q-4 -21 -14.5 -42.5t-19.5 -32.5l-8 -11l5 -5q32 15 70 15q33 0 79.5 -21.5t77.5 -21.5q26 0 46.5 8t28.5 16l8 8l50 -110q-6 -5 -16.5 -13t-45 -21t-71.5 -13q-49 0 -114.5 26t-105.5 26q-36 0 -73.5 -14t-56.5 -28l-20 -15l-55 122q3 2 9 5t21.5 15t28 25.5t25.5 35.5
t19 46h-108v83h110l-10 35h-100z" />
    <glyph glyph-name="currency" unicode="&#xa4;" horiz-adv-x="680" 
d="M260 396h118q56 0 85.5 25.5t29.5 66.5q0 42 -29.5 67t-85.5 25h-118v-184zM640 493q0 -95 -66 -151.5t-191 -56.5h-123v-60h251v-112h-251v-113h-140v113h-80v112h80v60h-80v111h80v304h263q125 0 191 -56t66 -151z" />
    <glyph glyph-name="yen" unicode="&#xa5;" horiz-adv-x="640" 
d="M394 254h138v-104h-143v-150h-140v150h-142v104h137l-27 54h-153v103h95l-159 289h157l123 -220q16 -28 24.5 -52t9.5 -34l1 -9h10q0 32 35 95l122 220h158l-161 -289h95v-103h-152z" />
    <glyph glyph-name="brokenbar" unicode="&#xa6;" horiz-adv-x="360" 
d="M115 350v405h130v-405h-130zM115 -220v405h130v-405h-130z" />
    <glyph glyph-name="section" unicode="&#xa7;" horiz-adv-x="553" 
d="M260 78q39 0 58.5 15t19.5 38q0 19 -20 33.5t-50.5 24t-66 23.5t-66 30.5t-50.5 48t-20 72.5q0 20 6.5 39t16 32t18.5 23.5t16 15.5l6 5q-2 1 -6 3.5t-14 11.5t-17.5 20.5t-14 30.5t-6.5 41q0 61 57.5 108t150.5 47q95 0 150 -45t55 -108q0 -10 -2 -20.5t-4 -16.5l-2 -5
h-127v3q1 4 1.5 8.5t0.5 8.5q0 24 -18.5 40.5t-51.5 16.5q-28 0 -46.5 -14.5t-18.5 -32.5q0 -22 28 -37.5t68.5 -28.5t80.5 -30.5t68 -51.5t28 -83q0 -31 -16 -60t-32 -42l-15 -13q2 -1 6 -3.5t14 -11.5t17.5 -20.5t14 -30.5t6.5 -41q0 -67 -56.5 -114.5t-148.5 -47.5
q-46 0 -86 10t-64 23.5t-41.5 27.5t-24.5 24l-7 10l68 86q5 -7 15.5 -17.5t46 -28t75.5 -17.5zM358 327q0 25 -27 46.5t-56 32.5t-57 17q-23 -13 -23 -43q0 -36 47 -62t93 -34q23 13 23 43z" />
    <glyph glyph-name="dieresis" unicode="&#xa8;" horiz-adv-x="415" 
d="M315 617q-30 0 -50 19.5t-20 48.5q0 30 20 49.5t50 19.5t50 -19.5t20 -49.5q0 -29 -20 -48.5t-50 -19.5zM100 617q-30 0 -50 19.5t-20 48.5q0 30 20 49.5t50 19.5t50 -19.5t20 -49.5q0 -29 -20 -48.5t-50 -19.5z" />
    <glyph glyph-name="copyright" unicode="&#xa9;" horiz-adv-x="925" 
d="M160 335q0 -133 86 -219.5t217 -86.5t216.5 86.5t85.5 219.5t-85.5 219.5t-216.5 86.5t-217 -86.5t-86 -219.5zM633 408l-5 -40h-103q5 12 5 27q0 25 -15 39.5t-42 14.5q-39 0 -63.5 -29.5t-24.5 -84.5q0 -54 26.5 -84t71.5 -30q29 0 53 11t34 22l10 12l55 -68
q-2 -3 -6 -8t-18.5 -18t-32 -23t-46 -18t-59.5 -8q-95 0 -149 56t-54 156t54 156t149 56q72 0 116 -40t44 -99zM870 335q0 -169 -117.5 -285.5t-289.5 -116.5t-290 116.5t-118 285.5t118 285.5t290 116.5t289.5 -116.5t117.5 -285.5z" />
    <glyph glyph-name="ordfeminine" unicode="&#xaa;" horiz-adv-x="417" 
d="M190 419q26 0 46.5 20.5t20.5 45.5h-67q-20 0 -31.5 -9.5t-11.5 -23.5t11.5 -23.5t31.5 -9.5zM207 710q71 0 113 -40.5t42 -104.5v-109q0 -33 28 -33q5 0 10.5 0.5t8.5 1.5l3 1v-81q-20 -10 -45 -10q-80 0 -85 62h-7q-1 -3 -3 -7t-11 -14.5t-20.5 -19t-31.5 -15t-44 -6.5
q-52 0 -86 32.5t-34 79.5t36 78.5t96 31.5h80v13q0 26 -14 41t-38 15q-18 0 -29 -11.5t-11 -24.5l2 -18h-97q-5 15 -5 35q0 44 37 73.5t105 29.5z" />
    <glyph glyph-name="guillemotleft" unicode="&#xab;" horiz-adv-x="582" 
d="M260 18l-235 244l235 244l80 -78l-158 -161v-10l158 -161zM477 50l-202 212l202 212l80 -79l-125 -128v-10l125 -128z" />
    <glyph glyph-name="logicalnot" unicode="&#xac;" horiz-adv-x="510" 
d="M35 344v117h440v-230h-130v113h-310z" />
    <glyph glyph-name="uni00AD" unicode="&#xad;" horiz-adv-x="455" 
d="M35 271v118h385v-118h-385z" />
    <glyph glyph-name="registered" unicode="&#xae;" horiz-adv-x="925" 
d="M643 228h6l-6 -91q-18 -5 -40 -5q-34 0 -58 20.5t-34 45t-23.5 45t-29.5 20.5h-48v-131h-107v405h162q85 0 129 -35t44 -92q0 -22 -8 -40t-20 -28.5t-24 -17.5t-20 -10l-8 -2v-7q14 -3 24.5 -16t15.5 -26.5t16.5 -24t28.5 -10.5zM528 400q0 20 -15.5 33t-44.5 13h-58v-92
h58q29 0 44.5 13t15.5 33zM160 335q0 -134 85.5 -220t217.5 -86t217 86t85 220q0 133 -85.5 219t-216.5 86q-132 0 -217.5 -86t-85.5 -219zM870 335q0 -169 -117.5 -285t-289.5 -116t-290 116t-118 285t118 285t290 116t289.5 -116t117.5 -285z" />
    <glyph glyph-name="macron" unicode="&#xaf;" horiz-adv-x="410" 
d="M30 640v100h350v-100h-350z" />
    <glyph glyph-name="degree" unicode="&#xb0;" horiz-adv-x="430" 
d="M40 540q0 72 49 119.5t126 47.5q76 0 125.5 -47.5t49.5 -119.5t-49.5 -119.5t-125.5 -47.5q-77 0 -126 47.5t-49 119.5zM140 540q0 -34 20.5 -55t54.5 -21t54.5 21t20.5 55t-20.5 55t-54.5 21t-54.5 -21t-20.5 -55z" />
    <glyph glyph-name="plusminus" unicode="&#xb1;" horiz-adv-x="500" 
d="M42 64v117h148v132h-150v118h150v163h120v-163h150v-118h-150v-132h147v-117h-415z" />
    <glyph glyph-name="twosuperior" unicode="&#xb2;" horiz-adv-x="368" 
d="M338 700q0 -28 -15 -54.5t-36 -45t-42.5 -32.5t-36.5 -20l-15 -7v-7q30 5 60 5h85v-94h-305v94l11 5q11 6 28.5 15.5t39 22t43 26.5t39 28.5t28.5 29.5t11 27q0 16 -13.5 28t-36.5 12t-36.5 -13.5t-13.5 -36.5l2 -16h-100q-5 18 -5 35q0 51 40.5 84.5t112.5 33.5
t113.5 -34.5t41.5 -85.5z" />
    <glyph glyph-name="threesuperior" unicode="&#xb3;" horiz-adv-x="355" 
d="M320 740l-87 -60v-7q31 -7 61.5 -33t30.5 -73q0 -52 -41 -87t-111 -35q-44 0 -82.5 15t-54.5 30l-16 15q3 4 22.5 28.5t30.5 36.5q4 -5 11 -11.5t30.5 -18t48.5 -11.5t40 12.5t15 30.5q0 16 -14.5 28.5t-38.5 12.5h-45l-20 54l48 36q11 8 21.5 14.5t15.5 8.5l5 2v7
q-17 -5 -42 -5h-105v90h277v-80z" />
    <glyph glyph-name="acute" unicode="&#xb4;" horiz-adv-x="272" 
d="M30 575l62 177h150l-127 -177h-85z" />
    <glyph glyph-name="mu" unicode="&#xb5;" horiz-adv-x="625" 
d="M75 525h135v-336q0 -39 21 -60.5t58 -21.5q50 0 83 37.5t33 109.5v271h135v-372q0 -48 47 -48h18v-105q-35 -12 -73 -12q-29 0 -51 9t-32 22t-16 26.5t-7 22.5l-1 9h-8q-2 -4 -5.5 -10t-17 -22t-30 -28t-45.5 -22t-62 -10q-12 0 -23.5 2.5t-17.5 5.5l-6 3v-216h-135v745z
" />
    <glyph glyph-name="paragraph" unicode="&#xb6;" horiz-adv-x="657" 
d="M260 -220v506q-102 0 -160 56t-58 151q0 96 57.5 151.5t160.5 55.5h377v-116h-77v-804h-117v804h-66v-804h-117z" />
    <glyph glyph-name="periodcentered" unicode="&#xb7;" horiz-adv-x="230" 
d="M35 300q0 34 21.5 54.5t58.5 20.5t58.5 -20.5t21.5 -54.5t-21.5 -54.5t-58.5 -20.5t-58.5 20.5t-21.5 54.5z" />
    <glyph glyph-name="cedilla" unicode="&#xb8;" horiz-adv-x="290" 
d="M132 -279q-27 0 -52.5 5t-37.5 10l-12 5q12 34 25 69q29 -15 62 -15q24 0 37 12t13 31q0 46 -100 46l33 116h77l-20 -65q4 0 11 -1.5t25 -9t31.5 -17.5t24.5 -31t11 -47q0 -45 -35.5 -76.5t-92.5 -31.5z" />
    <glyph glyph-name="onesuperior" unicode="&#xb9;" horiz-adv-x="275" 
d="M225 445h-105v237q-2 -4 -8 -10.5t-29 -17.5t-53 -11v89q33 0 57 22t31 44l7 22h100v-375z" />
    <glyph glyph-name="ordmasculine" unicode="&#xba;" horiz-adv-x="405" 
d="M140 522q0 -48 17.5 -72t45.5 -24t45 23.5t17 72.5t-17 72.5t-45 23.5t-45.5 -24t-17.5 -72zM35 522q0 87 46.5 137.5t121.5 50.5q74 0 120.5 -50.5t46.5 -137.5q0 -86 -46.5 -136.5t-120.5 -50.5q-75 0 -121.5 50.5t-46.5 136.5z" />
    <glyph glyph-name="guillemotright" unicode="&#xbb;" horiz-adv-x="582" 
d="M557 262l-235 -244l-80 78l158 161v10l-158 161l80 78zM307 262l-202 -212l-80 79l125 128v10l-125 128l80 79z" />
    <glyph glyph-name="onequarter" unicode="&#xbc;" horiz-adv-x="825" 
d="M665 700l-400 -700h-135l400 700h135zM225 325h-105v237q-2 -4 -8 -10.5t-29 -17.5t-53 -11v89q33 0 57 22t31 44l7 22h100v-375zM603 375h105l-100 -170q-8 -13 -17 -24t-13 -15l-5 -4v-8h80l12 93h88v-93h47v-84h-47v-70h-105v70h-178v84z" />
    <glyph glyph-name="onehalf" unicode="&#xbd;" horiz-adv-x="863" 
d="M665 700l-400 -700h-135l400 700h135zM225 325h-105v237q-2 -4 -8 -10.5t-29 -17.5t-53 -11v89q33 0 57 22t31 44l7 22h100v-375zM823 255q0 -44 -36.5 -84t-72.5 -57l-36 -18v-7q30 5 60 5h85v-94h-305v94l11 6q11 5 28.5 14.5t39 22t43 26.5t39 28.5t28.5 29.5t11 27
q0 16 -13.5 28t-36.5 12q-22 0 -36 -14t-14 -36l2 -16h-100q-5 18 -5 35q0 51 40.5 84.5t112.5 33.5t113.5 -34.5t41.5 -85.5z" />
    <glyph glyph-name="threequarters" unicode="&#xbe;" horiz-adv-x="865" 
d="M715 700l-400 -700h-135l400 700h135zM653 375h105l-100 -170q-8 -13 -16.5 -24t-13.5 -15l-5 -4v-8h80l12 93h88v-93h47v-84h-47v-70h-105v70h-178v84zM320 620l-87 -60v-7q31 -7 61.5 -33t30.5 -73q0 -52 -41 -87t-111 -35q-44 0 -82.5 15t-54.5 30l-16 15
q3 4 22.5 28.5t30.5 36.5q4 -5 11 -11.5t30.5 -18t48.5 -11.5t40 12.5t15 30.5q0 16 -14.5 28.5t-38.5 12.5h-45l-20 54l48 36q11 8 21.5 14.5t15.5 8.5l5 2v7q-17 -5 -42 -5h-105v90h277v-80z" />
    <glyph glyph-name="questiondown" unicode="&#xbf;" horiz-adv-x="463" 
d="M153 -31q0 -35 25 -58t67 -23q46 0 70.5 22t24.5 57q0 11 -2 22t-4 16l-1 5h140q10 -22 10 -65q0 -75 -64.5 -127.5t-173.5 -52.5q-110 0 -175 57t-65 141q0 49 19.5 88.5t47.5 65t56 47.5t47.5 47t19.5 53l-5 37h123q10 -28 10 -58q0 -38 -17.5 -72t-42.5 -58.5
t-50 -46.5t-42.5 -47t-17.5 -50zM333 459q0 -34 -21.5 -54.5t-58.5 -20.5t-58.5 20.5t-21.5 54.5t21.5 54.5t58.5 20.5t58.5 -20.5t21.5 -54.5z" />
    <glyph glyph-name="Agrave" unicode="&#xc0;" horiz-adv-x="670" 
d="M430 260l-65 185q-11 32 -17.5 58t-7.5 37v10h-10q0 -34 -25 -105l-65 -185h190zM410 700l260 -700h-150l-45 135h-280l-45 -135h-150l260 700h150zM315 944l62 -177h-85l-127 177h150z" />
    <glyph glyph-name="Aacute" unicode="&#xc1;" horiz-adv-x="670" 
d="M430 260l-65 185q-11 32 -17.5 58t-7.5 37v10h-10q0 -34 -25 -105l-65 -185h190zM410 700l260 -700h-150l-45 135h-280l-45 -135h-150l260 700h150zM295 767l62 177h150l-127 -177h-85z" />
    <glyph glyph-name="Acircumflex" unicode="&#xc2;" horiz-adv-x="670" 
d="M430 260l-65 185q-11 32 -17.5 58t-7.5 37v10h-10q0 -34 -25 -105l-65 -185h190zM410 700l260 -700h-150l-45 135h-280l-45 -135h-150l260 700h150zM125 767l162 177h100l163 -177h-125l-85 98h-5l-85 -98h-125z" />
    <glyph glyph-name="Atilde" unicode="&#xc3;" horiz-adv-x="670" 
d="M430 260l-65 185q-11 32 -17.5 58t-7.5 37v10h-10q0 -34 -25 -105l-65 -185h190zM410 700l260 -700h-150l-45 135h-280l-45 -135h-150l260 700h150zM419 776q-29 0 -53.5 11t-37.5 24.5t-28 24.5t-28 11q-15 0 -25 -11t-10 -29l2 -21h-80q-7 22 -7 50q0 46 28.5 75
t73.5 29q30 0 54.5 -11t37.5 -24.5t28 -24.5t28 -11q15 0 25 11t10 29l-3 21h80q8 -22 8 -51q0 -46 -29 -74.5t-74 -28.5z" />
    <glyph glyph-name="Adieresis" unicode="&#xc4;" horiz-adv-x="670" 
d="M430 260l-65 185q-11 32 -17.5 58t-7.5 37v10h-10q0 -34 -25 -105l-65 -185h190zM410 700l260 -700h-150l-45 135h-280l-45 -135h-150l260 700h150zM445 786q-30 0 -50 19.5t-20 48.5q0 30 20 49.5t50 19.5t50 -19.5t20 -49.5q0 -29 -20 -48.5t-50 -19.5zM230 786
q-30 0 -50 19.5t-20 48.5q0 30 20 49.5t50 19.5t50 -19.5t20 -49.5q0 -29 -20 -48.5t-50 -19.5z" />
    <glyph glyph-name="Aring" unicode="&#xc5;" horiz-adv-x="670" 
d="M430 260l-65 185q-11 32 -17.5 58t-7.5 37v10h-10q0 -34 -25 -105l-65 -185h190zM410 700l260 -700h-150l-45 135h-280l-45 -135h-150l260 700h150zM465 880q0 -55 -36 -90t-92 -35t-91.5 35t-35.5 90q0 54 35.5 89t91.5 35t92 -35t36 -89zM390 880q0 24 -15 39.5
t-38 15.5t-37.5 -15.5t-14.5 -39.5q0 -25 14.5 -40.5t37.5 -15.5t38 15.5t15 40.5z" />
    <glyph glyph-name="AE" unicode="&#xc6;" horiz-adv-x="955" 
d="M600 575v-161h262v-125h-262v-164h320v-125h-460v169h-255l-78 -169h-152l320 700h625v-125h-320zM385 577l-130 -288h205v288h-75z" />
    <glyph glyph-name="Ccedilla" unicode="&#xc7;" horiz-adv-x="685" 
d="M365 -279q-27 0 -52.5 5t-38.5 10l-12 5l25 69q29 -15 63 -15q23 0 36.5 12t13.5 31q0 46 -100 46l28 103q-130 20 -204 111.5t-74 251.5q0 174 89 269.5t241 95.5q121 0 194 -61t73 -149q0 -18 -2.5 -35.5t-4.5 -25.5l-3 -9h-142q7 23 7 53q0 46 -32 74t-90 28
q-84 0 -133.5 -60t-49.5 -178q0 -120 52.5 -181t145.5 -61q33 0 63.5 9t51 22t36.5 26t24 22l7 9l73 -90q-3 -5 -9.5 -12.5t-29.5 -27t-49 -35.5t-68.5 -30t-88.5 -17l-15 -51q4 0 11 -1.5t24.5 -9t31 -17.5t24.5 -31t11 -47q0 -45 -35.5 -76.5t-91.5 -31.5z" />
    <glyph glyph-name="Egrave" unicode="&#xc8;" horiz-adv-x="580" 
d="M220 575v-161h268v-125h-268v-164h325v-125h-465v700h465v-125h-325zM307 944l62 -177h-85l-127 177h150z" />
    <glyph glyph-name="Eacute" unicode="&#xc9;" horiz-adv-x="580" 
d="M220 575v-161h268v-125h-268v-164h325v-125h-465v700h465v-125h-325zM262 767l62 177h150l-127 -177h-85z" />
    <glyph glyph-name="Ecircumflex" unicode="&#xca;" horiz-adv-x="580" 
d="M220 575v-161h268v-125h-268v-164h325v-125h-465v700h465v-125h-325zM97 767l162 177h100l163 -177h-125l-85 98h-5l-85 -98h-125z" />
    <glyph glyph-name="Edieresis" unicode="&#xcb;" horiz-adv-x="580" 
d="M220 575v-161h268v-125h-268v-164h325v-125h-465v700h465v-125h-325zM422 786q-30 0 -50 19.5t-20 48.5q0 30 20 49.5t50 19.5t50 -19.5t20 -49.5q0 -29 -20 -48.5t-50 -19.5zM207 786q-30 0 -50 19.5t-20 48.5q0 30 20 49.5t50 19.5t50 -19.5t20 -49.5q0 -29 -20 -48.5
t-50 -19.5z" />
    <glyph glyph-name="Igrave" unicode="&#xcc;" horiz-adv-x="300" 
d="M220 700v-700h-140v700h140zM130 934l62 -177h-85l-127 177h150z" />
    <glyph glyph-name="Iacute" unicode="&#xcd;" horiz-adv-x="300" 
d="M220 700v-700h-140v700h140zM108 757l62 177h150l-127 -177h-85z" />
    <glyph glyph-name="Icircumflex" unicode="&#xce;" horiz-adv-x="300" 
d="M220 700v-700h-140v700h140zM-65 767l162 177h100l163 -177h-125l-85 98h-5l-85 -98h-125z" />
    <glyph glyph-name="Idieresis" unicode="&#xcf;" horiz-adv-x="300" 
d="M220 700v-700h-140v700h140zM255 786q-30 0 -50 19.5t-20 48.5q0 30 20 49.5t50 19.5t50 -19.5t20 -49.5q0 -29 -20 -48.5t-50 -19.5zM40 786q-30 0 -50 19.5t-20 48.5q0 30 20 49.5t50 19.5t50 -19.5t20 -49.5q0 -29 -20 -48.5t-50 -19.5z" />
    <glyph glyph-name="Eth" unicode="&#xd0;" horiz-adv-x="743" 
d="M693 350q0 -167 -92.5 -258.5t-262.5 -91.5h-238v290h-80v120h80v290h238q170 0 262.5 -91.5t92.5 -258.5zM240 124h98q207 0 207 226q0 225 -207 225h-98v-165h117v-120h-117v-166z" />
    <glyph glyph-name="Ntilde" unicode="&#xd1;" 
d="M685 700v-700h-150l-245 360q-27 39 -44.5 68t-21.5 38l-4 9h-10q10 -27 10 -115v-360h-140v700h150l245 -360q27 -39 44.5 -68t21.5 -38l4 -9h10q-10 27 -10 115v360h140zM462 773q-29 0 -53.5 11t-37.5 24.5t-28 24.5t-28 11q-15 0 -25 -11t-10 -29l2 -21h-80
q-7 22 -7 50q0 46 28.5 75t73.5 29q30 0 54.5 -11t37.5 -24.5t28 -24.5t28 -11q15 0 25 11t10 29l-3 21h80q8 -22 8 -51q0 -46 -29 -74.5t-74 -28.5z" />
    <glyph glyph-name="Ograve" unicode="&#xd2;" 
d="M567 350q0 119 -49.5 179.5t-135.5 60.5t-135.5 -60.5t-49.5 -179.5q0 -120 49.5 -180.5t135.5 -60.5t135.5 60.5t49.5 180.5zM715 350q0 -175 -89 -270t-244 -95q-154 0 -243 95.5t-89 269.5t89 269.5t243 95.5t243.5 -95.5t89.5 -269.5zM365 944l62 -177h-85l-127 177
h150z" />
    <glyph glyph-name="Oacute" unicode="&#xd3;" 
d="M567 350q0 119 -49.5 179.5t-135.5 60.5t-135.5 -60.5t-49.5 -179.5q0 -120 49.5 -180.5t135.5 -60.5t135.5 60.5t49.5 180.5zM715 350q0 -175 -89 -270t-244 -95q-154 0 -243 95.5t-89 269.5t89 269.5t243 95.5t243.5 -95.5t89.5 -269.5zM340 767l62 177h150l-127 -177
h-85z" />
    <glyph glyph-name="Ocircumflex" unicode="&#xd4;" 
d="M567 350q0 119 -49.5 179.5t-135.5 60.5t-135.5 -60.5t-49.5 -179.5q0 -120 49.5 -180.5t135.5 -60.5t135.5 60.5t49.5 180.5zM715 350q0 -175 -89 -270t-244 -95q-154 0 -243 95.5t-89 269.5t89 269.5t243 95.5t243.5 -95.5t89.5 -269.5zM170 767l162 177h100l163 -177
h-125l-85 98h-5l-85 -98h-125z" />
    <glyph glyph-name="Otilde" unicode="&#xd5;" 
d="M567 350q0 119 -49.5 179.5t-135.5 60.5t-135.5 -60.5t-49.5 -179.5q0 -120 49.5 -180.5t135.5 -60.5t135.5 60.5t49.5 180.5zM715 350q0 -175 -89 -270t-244 -95q-154 0 -243 95.5t-89 269.5t89 269.5t243 95.5t243.5 -95.5t89.5 -269.5zM466 776q-29 0 -53.5 11
t-37.5 24.5t-28 24.5t-28 11q-15 0 -25 -11t-10 -29l2 -21h-80q-7 22 -7 50q0 46 28.5 75t73.5 29q30 0 54.5 -11t37.5 -24.5t28 -24.5t28 -11q15 0 25 11t10 29l-3 21h80q8 -22 8 -51q0 -46 -29 -74.5t-74 -28.5z" />
    <glyph glyph-name="Odieresis" unicode="&#xd6;" 
d="M567 350q0 119 -49.5 179.5t-135.5 60.5t-135.5 -60.5t-49.5 -179.5q0 -120 49.5 -180.5t135.5 -60.5t135.5 60.5t49.5 180.5zM715 350q0 -175 -89 -270t-244 -95q-154 0 -243 95.5t-89 269.5t89 269.5t243 95.5t243.5 -95.5t89.5 -269.5zM490 786q-30 0 -50 19.5
t-20 48.5q0 30 20 49.5t50 19.5t50 -19.5t20 -49.5q0 -29 -20 -48.5t-50 -19.5zM275 786q-30 0 -50 19.5t-20 48.5q0 30 20 49.5t50 19.5t50 -19.5t20 -49.5q0 -29 -20 -48.5t-50 -19.5z" />
    <glyph glyph-name="multiply" unicode="&#xd7;" horiz-adv-x="500" 
d="M35 199l130 131l-130 130l85 83l130 -130l130 130l85 -83l-130 -130l130 -131l-85 -83l-130 130l-130 -130z" />
    <glyph glyph-name="Oslash" unicode="&#xd8;" 
d="M567 350q0 14 -1 28t-2 24.5t-2.5 20t-3.5 16t-3 11.5t-2 8l-1 2l-272 -319q32 -32 102 -32q86 0 135.5 60.5t49.5 180.5zM212 239l273 319q-33 32 -103 32q-86 0 -135.5 -60.5t-49.5 -179.5q0 -32 3.5 -60t7.5 -40zM715 350q0 -175 -89 -270t-244 -95q-35 0 -67.5 5.5
t-54 14t-38.5 16.5t-24 13l-8 6l-58 -62l-87 73l60 73q-6 9 -15 25.5t-24.5 75t-15.5 125.5q0 174 89 269.5t243 95.5q57 0 105 -14t68 -28l20 -14l57 63l88 -74l-60 -73q6 -8 15 -25t24.5 -75t15.5 -125z" />
    <glyph glyph-name="Ugrave" unicode="&#xd9;" horiz-adv-x="735" 
d="M368 110q69 0 108 45.5t39 134.5v410h140v-410q0 -143 -77.5 -224t-209.5 -81q-133 0 -210.5 81t-77.5 224v410h140v-410q0 -89 39.5 -134.5t108.5 -45.5zM352 944l62 -177h-85l-127 177h150z" />
    <glyph glyph-name="Uacute" unicode="&#xda;" horiz-adv-x="735" 
d="M368 110q69 0 108 45.5t39 134.5v410h140v-410q0 -143 -77.5 -224t-209.5 -81q-133 0 -210.5 81t-77.5 224v410h140v-410q0 -89 39.5 -134.5t108.5 -45.5zM320 767l62 177h150l-127 -177h-85z" />
    <glyph glyph-name="Ucircumflex" unicode="&#xdb;" horiz-adv-x="735" 
d="M368 110q69 0 108 45.5t39 134.5v410h140v-410q0 -143 -77.5 -224t-209.5 -81q-133 0 -210.5 81t-77.5 224v410h140v-410q0 -89 39.5 -134.5t108.5 -45.5zM152 767l162 177h100l163 -177h-125l-85 98h-5l-85 -98h-125z" />
    <glyph glyph-name="Udieresis" unicode="&#xdc;" horiz-adv-x="735" 
d="M368 110q69 0 108 45.5t39 134.5v410h140v-410q0 -143 -77.5 -224t-209.5 -81q-133 0 -210.5 81t-77.5 224v410h140v-410q0 -89 39.5 -134.5t108.5 -45.5zM475 786q-30 0 -50 19.5t-20 48.5q0 30 20 49.5t50 19.5t50 -19.5t20 -49.5q0 -29 -20 -48.5t-50 -19.5zM260 786
q-30 0 -50 19.5t-20 48.5q0 30 20 49.5t50 19.5t50 -19.5t20 -49.5q0 -29 -20 -48.5t-50 -19.5z" />
    <glyph glyph-name="Yacute" unicode="&#xdd;" horiz-adv-x="640" 
d="M390 247v-247h-140v247l-250 453h160l115 -210q18 -32 28 -58.5t11 -36.5l1 -10h10q0 32 40 105l115 210h160zM277 767l62 177h150l-127 -177h-85z" />
    <glyph glyph-name="Thorn" unicode="&#xde;" horiz-adv-x="688" 
d="M220 188h73q99 0 150.5 46t51.5 126t-51.5 126t-150.5 46h-73v-344zM643 360q0 -135 -91.5 -216t-258.5 -81h-73v-63h-140v720h140v-63h73q167 0 258.5 -81t91.5 -216z" />
    <glyph glyph-name="germandbls" unicode="&#xdf;" horiz-adv-x="635" 
d="M385 105q37 0 57.5 18.5t20.5 49.5q0 23 -13.5 41.5t-33.5 33t-39.5 30t-33 40t-13.5 55.5q0 36 26.5 81.5t26.5 71.5q0 29 -22 49t-58 20q-44 0 -71 -29t-27 -78v-488h-135v488q0 101 64 164t169 63q99 0 157 -48.5t58 -121.5q0 -46 -25 -90.5t-25 -67.5q0 -21 13.5 -39
t33 -33.5t39 -35t33 -52.5t13.5 -75q0 -75 -50.5 -121t-134.5 -46q-27 0 -53.5 5t-39.5 10l-14 5l15 113q30 -13 62 -13z" />
    <glyph glyph-name="agrave" unicode="&#xe0;" horiz-adv-x="575" 
d="M237 100q43 0 74 29.5t39 73.5h-108q-35 0 -53.5 -15t-18.5 -37t17.5 -36.5t49.5 -14.5zM270 539q95 0 155 -58.5t60 -148.5v-179q0 -48 47 -48h18v-105q-35 -12 -73 -12q-28 0 -49.5 9t-31.5 22t-16.5 26.5t-7.5 22.5l-2 9h-8q-2 -4 -5.5 -10t-17 -22t-30 -28t-45.5 -22
t-62 -10q-72 0 -119.5 46t-47.5 114q0 69 53 115t144 46h118v24q0 43 -22.5 67t-57.5 24q-36 0 -55.5 -16.5t-19.5 -44.5l2 -20h-125q-7 20 -7 42q0 63 56.5 110t148.5 47zM262 774l62 -177h-85l-127 177h150z" />
    <glyph glyph-name="aacute" unicode="&#xe1;" horiz-adv-x="575" 
d="M237 100q43 0 74 29.5t39 73.5h-108q-35 0 -53.5 -15t-18.5 -37t17.5 -36.5t49.5 -14.5zM270 539q95 0 155 -58.5t60 -148.5v-179q0 -48 47 -48h18v-105q-35 -12 -73 -12q-28 0 -49.5 9t-31.5 22t-16.5 26.5t-7.5 22.5l-2 9h-8q-2 -4 -5.5 -10t-17 -22t-30 -28t-45.5 -22
t-62 -10q-72 0 -119.5 46t-47.5 114q0 69 53 115t144 46h118v24q0 43 -22.5 67t-57.5 24q-36 0 -55.5 -16.5t-19.5 -44.5l2 -20h-125q-7 20 -7 42q0 63 56.5 110t148.5 47zM230 597l62 177h150l-127 -177h-85z" />
    <glyph glyph-name="acircumflex" unicode="&#xe2;" horiz-adv-x="575" 
d="M237 100q43 0 74 29.5t39 73.5h-108q-35 0 -53.5 -15t-18.5 -37t17.5 -36.5t49.5 -14.5zM270 539q95 0 155 -58.5t60 -148.5v-179q0 -48 47 -48h18v-105q-35 -12 -73 -12q-28 0 -49.5 9t-31.5 22t-16.5 26.5t-7.5 22.5l-2 9h-8q-2 -4 -5.5 -10t-17 -22t-30 -28t-45.5 -22
t-62 -10q-72 0 -119.5 46t-47.5 114q0 69 53 115t144 46h118v24q0 43 -22.5 67t-57.5 24q-36 0 -55.5 -16.5t-19.5 -44.5l2 -20h-125q-7 20 -7 42q0 63 56.5 110t148.5 47zM70 597l162 177h100l163 -177h-125l-85 98h-5l-85 -98h-125z" />
    <glyph glyph-name="atilde" unicode="&#xe3;" horiz-adv-x="575" 
d="M237 100q43 0 74 29.5t39 73.5h-108q-35 0 -53.5 -15t-18.5 -37t17.5 -36.5t49.5 -14.5zM270 539q95 0 155 -58.5t60 -148.5v-179q0 -48 47 -48h18v-105q-35 -12 -73 -12q-28 0 -49.5 9t-31.5 22t-16.5 26.5t-7.5 22.5l-2 9h-8q-2 -4 -5.5 -10t-17 -22t-30 -28t-45.5 -22
t-62 -10q-72 0 -119.5 46t-47.5 114q0 69 53 115t144 46h118v24q0 43 -22.5 67t-57.5 24q-36 0 -55.5 -16.5t-19.5 -44.5l2 -20h-125q-7 20 -7 42q0 63 56.5 110t148.5 47zM359 603q-29 0 -53.5 11t-37.5 24.5t-28 24.5t-28 11q-15 0 -25 -11t-10 -29l2 -21h-80q-7 22 -7 50
q0 46 28.5 75t73.5 29q30 0 54.5 -11t37.5 -24.5t28 -24.5t28 -11q15 0 25 11t10 29l-3 21h80q8 -22 8 -51q0 -46 -29 -74.5t-74 -28.5z" />
    <glyph glyph-name="adieresis" unicode="&#xe4;" horiz-adv-x="575" 
d="M237 100q43 0 74 29.5t39 73.5h-108q-35 0 -53.5 -15t-18.5 -37t17.5 -36.5t49.5 -14.5zM270 539q95 0 155 -58.5t60 -148.5v-179q0 -48 47 -48h18v-105q-35 -12 -73 -12q-28 0 -49.5 9t-31.5 22t-16.5 26.5t-7.5 22.5l-2 9h-8q-2 -4 -5.5 -10t-17 -22t-30 -28t-45.5 -22
t-62 -10q-72 0 -119.5 46t-47.5 114q0 69 53 115t144 46h118v24q0 43 -22.5 67t-57.5 24q-36 0 -55.5 -16.5t-19.5 -44.5l2 -20h-125q-7 20 -7 42q0 63 56.5 110t148.5 47zM387 616q-30 0 -50 19.5t-20 48.5q0 30 20 49.5t50 19.5t50 -19.5t20 -49.5q0 -29 -20 -48.5
t-50 -19.5zM172 616q-30 0 -50 19.5t-20 48.5q0 30 20 49.5t50 19.5t50 -19.5t20 -49.5q0 -29 -20 -48.5t-50 -19.5z" />
    <glyph glyph-name="aring" unicode="&#xe5;" horiz-adv-x="575" 
d="M237 100q43 0 74 29.5t39 73.5h-108q-35 0 -53.5 -15t-18.5 -37t17.5 -36.5t49.5 -14.5zM270 539q95 0 155 -58.5t60 -148.5v-179q0 -48 47 -48h18v-105q-35 -12 -73 -12q-28 0 -49.5 9t-31.5 22t-16.5 26.5t-7.5 22.5l-2 9h-8q-2 -4 -5.5 -10t-17 -22t-30 -28t-45.5 -22
t-62 -10q-72 0 -119.5 46t-47.5 114q0 69 53 115t144 46h118v24q0 43 -22.5 67t-57.5 24q-36 0 -55.5 -16.5t-19.5 -44.5l2 -20h-125q-7 20 -7 42q0 63 56.5 110t148.5 47zM407 710q0 -55 -36 -90t-92 -35t-91.5 35t-35.5 90q0 54 35.5 89t91.5 35t92 -35t36 -89zM332 710
q0 24 -15 39.5t-38 15.5t-37.5 -15.5t-14.5 -39.5q0 -25 14.5 -40.5t37.5 -15.5t38 15.5t15 40.5z" />
    <glyph glyph-name="ae" unicode="&#xe6;" horiz-adv-x="875" 
d="M607 539q100 0 161.5 -57.5t61.5 -146.5q0 -30 -7 -60t-14 -45l-7 -15h-312q5 -53 38.5 -84t88.5 -31q40 0 75 16.5t50 33.5l15 16l63 -91q-3 -4 -8.5 -10t-25.5 -21.5t-42.5 -27.5t-59.5 -21.5t-77 -9.5q-36 0 -69 10t-54 23.5t-37 27.5t-23 24l-7 10h-5q-2 -4 -7 -10.5
t-23 -22.5t-39 -28.5t-56.5 -23t-74.5 -10.5q-79 0 -128 46t-49 116q0 72 53 118.5t144 46.5h118v18q0 43 -22 67t-58 24t-55.5 -17.5t-19.5 -43.5q0 -4 0.5 -8.5t0.5 -7.5l1 -4h-125q-7 20 -7 42q0 63 56.5 110t148.5 47q30 0 57.5 -8t46 -19.5t32 -23t20.5 -19.5l6 -8h5
q2 3 7 8.5t21 19t34 23.5t47.5 18.5t60.5 8.5zM237 100q43 0 74 30.5t39 77.5h-108q-36 0 -54 -15t-18 -39t17 -39t50 -15zM602 423q-45 0 -74.5 -29.5t-37.5 -79.5h185q9 0 14.5 10.5t5.5 25.5q0 31 -25 52t-68 21z" />
    <glyph glyph-name="ccedilla" unicode="&#xe7;" horiz-adv-x="557" 
d="M292 -279q-27 0 -52.5 5t-37.5 10l-12 5l25 69q29 -15 62 -15q24 0 37 12t13 31q0 46 -100 46l29 103q-97 15 -154 86t-57 189q0 130 70 203.5t190 73.5q96 0 156.5 -53.5t60.5 -130.5q0 -15 -2 -28.5t-4 -20.5l-1 -6h-133q5 15 5 38q0 36 -23.5 59t-61.5 23
q-52 0 -83.5 -39.5t-31.5 -116.5q0 -79 34.5 -119t95.5 -40q40 0 73.5 16.5t47.5 32.5l14 17l70 -91q-2 -3 -7 -9t-22.5 -21t-37.5 -26.5t-53 -23t-69 -14.5l-16 -51q4 0 11 -1.5t25 -9t31.5 -17.5t24.5 -31t11 -47q0 -45 -35.5 -76.5t-92.5 -31.5z" />
    <glyph glyph-name="egrave" unicode="&#xe8;" horiz-adv-x="577" 
d="M305 424q-45 0 -75 -29.5t-38 -79.5h185q20 0 20 35q0 32 -24.5 53t-67.5 21zM320 101q40 0 75 16.5t50 32.5l15 16l62 -90q-3 -4 -8.5 -10t-25.5 -21.5t-43.5 -27.5t-61.5 -22t-80 -10q-118 0 -188 73.5t-70 203.5t70 204t190 74q103 0 165 -58t62 -147q0 -30 -7 -60
t-13 -45l-7 -15h-313q6 -53 39.5 -83.5t88.5 -30.5zM285 774l62 -177h-85l-127 177h150z" />
    <glyph glyph-name="eacute" unicode="&#xe9;" horiz-adv-x="577" 
d="M305 424q-45 0 -75 -29.5t-38 -79.5h185q20 0 20 35q0 32 -24.5 53t-67.5 21zM320 101q40 0 75 16.5t50 32.5l15 16l62 -90q-3 -4 -8.5 -10t-25.5 -21.5t-43.5 -27.5t-61.5 -22t-80 -10q-118 0 -188 73.5t-70 203.5t70 204t190 74q103 0 165 -58t62 -147q0 -30 -7 -60
t-13 -45l-7 -15h-313q6 -53 39.5 -83.5t88.5 -30.5zM260 597l62 177h150l-127 -177h-85z" />
    <glyph glyph-name="ecircumflex" unicode="&#xea;" horiz-adv-x="577" 
d="M305 424q-45 0 -75 -29.5t-38 -79.5h185q20 0 20 35q0 32 -24.5 53t-67.5 21zM320 101q40 0 75 16.5t50 32.5l15 16l62 -90q-3 -4 -8.5 -10t-25.5 -21.5t-43.5 -27.5t-61.5 -22t-80 -10q-118 0 -188 73.5t-70 203.5t70 204t190 74q103 0 165 -58t62 -147q0 -30 -7 -60
t-13 -45l-7 -15h-313q6 -53 39.5 -83.5t88.5 -30.5zM90 597l162 177h100l163 -177h-125l-85 98h-5l-85 -98h-125z" />
    <glyph glyph-name="edieresis" unicode="&#xeb;" horiz-adv-x="577" 
d="M305 424q-45 0 -75 -29.5t-38 -79.5h185q20 0 20 35q0 32 -24.5 53t-67.5 21zM320 101q40 0 75 16.5t50 32.5l15 16l62 -90q-3 -4 -8.5 -10t-25.5 -21.5t-43.5 -27.5t-61.5 -22t-80 -10q-118 0 -188 73.5t-70 203.5t70 204t190 74q103 0 165 -58t62 -147q0 -30 -7 -60
t-13 -45l-7 -15h-313q6 -53 39.5 -83.5t88.5 -30.5zM407 616q-30 0 -50 19.5t-20 48.5q0 30 20 49.5t50 19.5t50 -19.5t20 -49.5q0 -29 -20 -48.5t-50 -19.5zM192 616q-30 0 -50 19.5t-20 48.5q0 30 20 49.5t50 19.5t50 -19.5t20 -49.5q0 -29 -20 -48.5t-50 -19.5z" />
    <glyph glyph-name="igrave" unicode="&#xec;" horiz-adv-x="305" 
d="M140 774l62 -177h-85l-127 177h150zM225 403v-403h-135v372q0 47 -48 47h-17v106q35 12 72 12q128 0 128 -134z" />
    <glyph glyph-name="iacute" unicode="&#xed;" horiz-adv-x="305" 
d="M113 597l62 177h150l-127 -177h-85zM225 403v-403h-135v372q0 47 -48 47h-17v106q35 12 72 12q128 0 128 -134z" />
    <glyph glyph-name="icircumflex" unicode="&#xee;" horiz-adv-x="305" 
d="M226 403v-403h-135v372q0 47 -48 47h-17v106q35 12 72 12q128 0 128 -134zM-55 597l162 177h100l163 -177h-125l-85 98h-5l-85 -98h-125z" />
    <glyph glyph-name="idieresis" unicode="&#xef;" horiz-adv-x="305" 
d="M265 616q-30 0 -50 19.5t-20 48.5q0 30 20 49.5t50 19.5t50 -19.5t20 -49.5q0 -29 -20 -48.5t-50 -19.5zM50 616q-30 0 -50 19.5t-20 48.5q0 30 20 49.5t50 19.5t50 -19.5t20 -49.5q0 -29 -20 -48.5t-50 -19.5zM225 403v-403h-135v372q0 47 -48 47h-17v106q35 12 72 12
q128 0 128 -134z" />
    <glyph glyph-name="eth" unicode="&#xf0;" horiz-adv-x="605" 
d="M418 400h7q-12 77 -45.5 123t-76.5 64l-18 -61l-95 30l20 62q-27 8 -55 8l28 101q11 0 24 -2t21 -4l7 -2l18 63l95 -29l-18 -63q41 -14 79 -43.5t71.5 -75.5t54 -114.5t20.5 -149.5v-35q0 -133 -71 -210t-188 -77q-112 0 -181.5 68t-69.5 174q0 105 63 171.5t158 66.5
q51 0 89 -16.5t51 -32.5zM408 227q0 56 -31.5 90.5t-78.5 34.5q-48 0 -79 -34.5t-31 -90.5t31 -90t79 -34q47 0 78.5 34t31.5 90z" />
    <glyph glyph-name="ntilde" unicode="&#xf1;" horiz-adv-x="630" 
d="M338 419q-49 0 -81 -39t-32 -110v-270h-135v372q0 47 -47 47h-18v106q35 12 73 12q28 0 49.5 -9.5t31.5 -22.5t16.5 -26t8.5 -23l1 -9h8l5 10t16 22t29.5 28.5t46 22.5t63.5 10q81 0 131.5 -53.5t50.5 -144.5v-342h-135v335q0 38 -22.5 61t-59.5 23zM407 606
q-29 0 -53.5 11t-37.5 24.5t-28 24.5t-28 11q-15 0 -25 -11t-10 -29l2 -21h-80q-7 22 -7 50q0 46 28.5 75t73.5 29q30 0 54.5 -11t37.5 -24.5t28 -24.5t28 -11q15 0 25 11t10 29l-3 21h80q8 -22 8 -51q0 -46 -29 -74.5t-74 -28.5z" />
    <glyph glyph-name="ograve" unicode="&#xf2;" horiz-adv-x="610" 
d="M422 262q0 77 -32 117t-85 40t-85.5 -40t-32.5 -117t32.5 -117t85.5 -40t85 40t32 117zM45 262q0 130 70 204t190 74q119 0 189.5 -74t70.5 -204t-70.5 -203.5t-189.5 -73.5q-120 0 -190 73.5t-70 203.5zM287 774l62 -177h-85l-127 177h150z" />
    <glyph glyph-name="oacute" unicode="&#xf3;" horiz-adv-x="610" 
d="M422 262q0 77 -32 117t-85 40t-85.5 -40t-32.5 -117t32.5 -117t85.5 -40t85 40t32 117zM45 262q0 130 70 204t190 74q119 0 189.5 -74t70.5 -204t-70.5 -203.5t-189.5 -73.5q-120 0 -190 73.5t-70 203.5zM262 597l62 177h150l-127 -177h-85z" />
    <glyph glyph-name="ocircumflex" unicode="&#xf4;" horiz-adv-x="610" 
d="M422 262q0 77 -32 117t-85 40t-85.5 -40t-32.5 -117t32.5 -117t85.5 -40t85 40t32 117zM45 262q0 130 70 204t190 74q119 0 189.5 -74t70.5 -204t-70.5 -203.5t-189.5 -73.5q-120 0 -190 73.5t-70 203.5zM90 597l162 177h100l163 -177h-125l-85 98h-5l-85 -98h-125z" />
    <glyph glyph-name="otilde" unicode="&#xf5;" horiz-adv-x="610" 
d="M422 262q0 77 -32 117t-85 40t-85.5 -40t-32.5 -117t32.5 -117t85.5 -40t85 40t32 117zM45 262q0 130 70 204t190 74q119 0 189.5 -74t70.5 -204t-70.5 -203.5t-189.5 -73.5q-120 0 -190 73.5t-70 203.5zM387 593q-29 0 -53.5 11t-37.5 24.5t-28 24.5t-28 11
q-15 0 -25 -11t-10 -29l2 -21h-80q-7 22 -7 50q0 46 28.5 75t73.5 29q30 0 54.5 -11t37.5 -24.5t28 -24.5t28 -11q15 0 25 11t10 29l-3 21h80q8 -22 8 -51q0 -46 -29 -74.5t-74 -28.5z" />
    <glyph glyph-name="odieresis" unicode="&#xf6;" horiz-adv-x="610" 
d="M422 262q0 77 -32 117t-85 40t-85.5 -40t-32.5 -117t32.5 -117t85.5 -40t85 40t32 117zM45 262q0 130 70 204t190 74q119 0 189.5 -74t70.5 -204t-70.5 -203.5t-189.5 -73.5q-120 0 -190 73.5t-70 203.5zM412 616q-30 0 -50 19.5t-20 48.5q0 30 20 49.5t50 19.5t50 -19.5
t20 -49.5q0 -29 -20 -48.5t-50 -19.5zM197 616q-30 0 -50 19.5t-20 48.5q0 30 20 49.5t50 19.5t50 -19.5t20 -49.5q0 -29 -20 -48.5t-50 -19.5z" />
    <glyph glyph-name="divide" unicode="&#xf7;" horiz-adv-x="485" 
d="M35 380h415v-100h-415v100zM320 524q0 -33 -21 -53.5t-57 -20.5q-35 0 -56 20.5t-21 53.5t21 53.5t56 20.5q36 0 57 -20.5t21 -53.5zM165 135q0 33 21 53.5t56 20.5q36 0 57 -20.5t21 -53.5t-21 -53.5t-57 -20.5q-35 0 -56 20.5t-21 53.5z" />
    <glyph glyph-name="oslash" unicode="&#xf8;" horiz-adv-x="610" 
d="M192 207l175 191q-22 21 -62 21q-53 0 -85.5 -40t-32.5 -117q0 -11 1.5 -24t2.5 -21.5t1 -9.5zM422 262q0 11 -1 24t-2.5 21.5t-1.5 9.5l-175 -191q25 -21 63 -21q53 0 85 40t32 117zM565 262q0 -130 -70.5 -203.5t-189.5 -73.5q-44 0 -82.5 11t-55.5 22l-17 12l-43 -47
l-67 61l47 51q-5 6 -12 18.5t-18.5 55.5t-11.5 93q0 130 70 203.5t190 73.5q43 0 81 -11.5t54 -22.5l17 -11l45 47l68 -61l-48 -51q5 -6 12 -18.5t19 -56t12 -92.5z" />
    <glyph glyph-name="ugrave" unicode="&#xf9;" horiz-adv-x="630" 
d="M292 105q49 0 81 39t32 111v270h135v-372q0 -48 47 -48h18v-105q-35 -12 -73 -12q-29 0 -51 9.5t-32 22.5t-16 26t-7 22l-1 10h-8q-2 -4 -5.5 -10t-17 -22t-30 -28.5t-45.5 -22.5t-62 -10q-81 0 -131.5 53.5t-50.5 143.5v343h135v-336q0 -38 22.5 -61t59.5 -23zM287 774
l62 -177h-85l-127 177h150z" />
    <glyph glyph-name="uacute" unicode="&#xfa;" horiz-adv-x="630" 
d="M292 105q49 0 81 39t32 111v270h135v-372q0 -48 47 -48h18v-105q-35 -12 -73 -12q-29 0 -51 9.5t-32 22.5t-16 26t-7 22l-1 10h-8q-2 -4 -5.5 -10t-17 -22t-30 -28.5t-45.5 -22.5t-62 -10q-81 0 -131.5 53.5t-50.5 143.5v343h135v-336q0 -38 22.5 -61t59.5 -23zM267 597
l62 177h150l-127 -177h-85z" />
    <glyph glyph-name="ucircumflex" unicode="&#xfb;" horiz-adv-x="630" 
d="M292 105q49 0 81 39t32 111v270h135v-372q0 -48 47 -48h18v-105q-35 -12 -73 -12q-29 0 -51 9.5t-32 22.5t-16 26t-7 22l-1 10h-8q-2 -4 -5.5 -10t-17 -22t-30 -28.5t-45.5 -22.5t-62 -10q-81 0 -131.5 53.5t-50.5 143.5v343h135v-336q0 -38 22.5 -61t59.5 -23zM97 597
l162 177h100l163 -177h-125l-85 98h-5l-85 -98h-125z" />
    <glyph glyph-name="udieresis" unicode="&#xfc;" horiz-adv-x="630" 
d="M292 105q49 0 81 39t32 111v270h135v-372q0 -48 47 -48h18v-105q-35 -12 -73 -12q-29 0 -51 9.5t-32 22.5t-16 26t-7 22l-1 10h-8q-2 -4 -5.5 -10t-17 -22t-30 -28.5t-45.5 -22.5t-62 -10q-81 0 -131.5 53.5t-50.5 143.5v343h135v-336q0 -38 22.5 -61t59.5 -23zM420 616
q-30 0 -50 19.5t-20 48.5q0 30 20 49.5t50 19.5t50 -19.5t20 -49.5q0 -29 -20 -48.5t-50 -19.5zM205 616q-30 0 -50 19.5t-20 48.5q0 30 20 49.5t50 19.5t50 -19.5t20 -49.5q0 -29 -20 -48.5t-50 -19.5z" />
    <glyph glyph-name="yacute" unicode="&#xfd;" horiz-adv-x="545" 
d="M115 -240q-20 0 -40 4t-30 8l-10 3l15 115q20 -5 45 -5q38 0 61 24t49 91l-195 525h150l90 -250q9 -24 14 -50.5t6 -40.5v-14h10q0 50 20 105l90 250h145l-195 -530q-46 -124 -99 -179.5t-126 -55.5zM232 597l62 177h150l-127 -177h-85z" />
    <glyph glyph-name="thorn" unicode="&#xfe;" horiz-adv-x="620" 
d="M220 633v-167q2 3 5.5 8t17 18t29 22.5t41.5 17.5t55 8q88 0 147.5 -73t59.5 -202q0 -132 -67 -206t-175 -74q-29 0 -57 5.5t-42 11.5l-14 6v-228h-135v822q0 47 -47 47h-18v106q35 12 73 12q127 0 127 -134zM220 270v-139q43 -26 93 -26q55 0 87.5 40t32.5 117
q0 75 -29.5 116t-70.5 41q-49 0 -81 -39t-32 -110z" />
    <glyph glyph-name="ydieresis" unicode="&#xff;" horiz-adv-x="545" 
d="M115 -240q-20 0 -40 4t-30 8l-10 3l15 115q20 -5 45 -5q38 0 61 24t49 91l-195 525h150l90 -250q9 -24 14 -50.5t6 -40.5v-14h10q0 50 20 105l90 250h145l-195 -530q-46 -124 -99 -179.5t-126 -55.5zM377 616q-30 0 -50 19.5t-20 48.5q0 30 20 49.5t50 19.5t50 -19.5
t20 -49.5q0 -29 -20 -48.5t-50 -19.5zM162 616q-30 0 -50 19.5t-20 48.5q0 30 20 49.5t50 19.5t50 -19.5t20 -49.5q0 -29 -20 -48.5t-50 -19.5z" />
    <glyph glyph-name="Amacron" unicode="&#x100;" horiz-adv-x="670" 
d="M430 260l-65 185q-11 32 -17.5 58t-7.5 37v10h-10q0 -34 -25 -105l-65 -185h190zM410 700l260 -700h-150l-45 135h-280l-45 -135h-150l260 700h150zM162 799v100h350v-100h-350z" />
    <glyph glyph-name="amacron" unicode="&#x101;" horiz-adv-x="575" 
d="M237 100q43 0 74 29.5t39 73.5h-108q-35 0 -53.5 -15t-18.5 -37t17.5 -36.5t49.5 -14.5zM270 539q95 0 155 -58.5t60 -148.5v-179q0 -48 47 -48h18v-105q-35 -12 -73 -12q-28 0 -49.5 9t-31.5 22t-16.5 26.5t-7.5 22.5l-2 9h-8q-2 -4 -5.5 -10t-17 -22t-30 -28t-45.5 -22
t-62 -10q-72 0 -119.5 46t-47.5 114q0 69 53 115t144 46h118v24q0 43 -22.5 67t-57.5 24q-36 0 -55.5 -16.5t-19.5 -44.5l2 -20h-125q-7 20 -7 42q0 63 56.5 110t148.5 47zM105 629v100h350v-100h-350z" />
    <glyph glyph-name="Abreve" unicode="&#x102;" horiz-adv-x="670" 
d="M430 260l-65 185q-11 32 -17.5 58t-7.5 37v10h-10q0 -34 -25 -105l-65 -185h190zM410 700l260 -700h-150l-45 135h-280l-45 -135h-150l260 700h150zM337 765q-94 0 -145.5 47t-51.5 127h110q0 -37 23 -59t64 -22t64.5 22.5t23.5 58.5h110q0 -80 -52 -127t-146 -47z" />
    <glyph glyph-name="abreve" unicode="&#x103;" horiz-adv-x="575" 
d="M237 100q43 0 74 29.5t39 73.5h-108q-35 0 -53.5 -15t-18.5 -37t17.5 -36.5t49.5 -14.5zM270 539q95 0 155 -58.5t60 -148.5v-179q0 -48 47 -48h18v-105q-35 -12 -73 -12q-28 0 -49.5 9t-31.5 22t-16.5 26.5t-7.5 22.5l-2 9h-8q-2 -4 -5.5 -10t-17 -22t-30 -28t-45.5 -22
t-62 -10q-72 0 -119.5 46t-47.5 114q0 69 53 115t144 46h118v24q0 43 -22.5 67t-57.5 24q-36 0 -55.5 -16.5t-19.5 -44.5l2 -20h-125q-7 20 -7 42q0 63 56.5 110t148.5 47zM279 603q-94 0 -145.5 47t-51.5 127h110q0 -37 23 -59t64 -22t64.5 22.5t23.5 58.5h110
q0 -80 -52 -127t-146 -47z" />
    <glyph glyph-name="Aogonek" unicode="&#x104;" horiz-adv-x="670" 
d="M600 -242q-57 0 -92 29.5t-35 70.5t29.5 76.5t58.5 50.5l29 15h-70l-45 135h-280l-45 -135h-150l260 700h150l260 -700q-4 -2 -11 -6t-24 -16.5t-30 -26t-24 -34t-11 -40.5q0 -17 13.5 -28.5t33.5 -11.5q12 0 25.5 3.5t20.5 6.5l7 3l25 -72q-40 -20 -95 -20zM430 260
l-65 185q-11 32 -17.5 58t-7.5 37v10h-10q0 -34 -25 -105l-65 -185h190z" />
    <glyph glyph-name="aogonek" unicode="&#x105;" horiz-adv-x="575" 
d="M477 -241q-56 0 -90.5 29t-34.5 70q0 27 12 51.5t31.5 41t32 25t23.5 14.5q-33 5 -53 27t-24 41l-4 19h-8q-2 -4 -5.5 -10t-17 -22t-30 -28t-45.5 -22t-62 -10q-72 0 -119.5 46t-47.5 114q0 69 53 115t144 46h118v24q0 43 -22.5 67t-57.5 24q-36 0 -55.5 -16.5
t-19.5 -44.5q0 -4 0.5 -8.5t0.5 -7.5l1 -4h-125q-7 20 -7 42q0 63 56.5 110t148.5 47q95 0 155 -58.5t60 -148.5v-179q0 -48 47 -48h18v-105q-4 -2 -11 -6t-24 -16.5t-30 -25.5t-24 -33.5t-11 -40.5q0 -18 12 -29.5t33 -11.5q12 0 24.5 3.5t18.5 6.5l7 3l25 -71
q-38 -20 -93 -20zM237 100q43 0 74 29.5t39 73.5h-108q-35 0 -53.5 -15t-18.5 -37t17.5 -36.5t49.5 -14.5z" />
    <glyph glyph-name="Cacute" unicode="&#x106;" horiz-adv-x="685" 
d="M380 715q121 0 194 -61t73 -149q0 -18 -2.5 -35.5t-4.5 -25.5l-3 -9h-142q7 23 7 53q0 46 -32 74t-90 28q-84 0 -133.5 -60t-49.5 -178q0 -120 52.5 -181t145.5 -61q33 0 63.5 9t51 22t36.5 26t24 22l7 9l73 -90q-4 -5 -11 -13.5t-32 -29.5t-53.5 -37t-75 -29.5
t-96.5 -13.5q-154 0 -243 95.5t-89 269.5t89 269.5t241 95.5zM327 767l62 177h150l-127 -177h-85z" />
    <glyph glyph-name="cacute" unicode="&#x107;" horiz-adv-x="557" 
d="M522 355q0 -15 -2 -28.5t-4 -20.5l-1 -6h-133q5 15 5 38q0 35 -24 58.5t-61 23.5q-52 0 -83.5 -39.5t-31.5 -116.5q0 -79 34 -119t96 -40q40 0 73.5 16.5t47.5 32.5l14 17l70 -91q-3 -4 -8.5 -10.5t-25 -22.5t-42.5 -28.5t-61.5 -23t-81.5 -10.5q-118 0 -188 73.5
t-70 203.5t70 204t190 74q96 0 156.5 -54t60.5 -131zM257 597l62 177h150l-127 -177h-85z" />
    <glyph glyph-name="Ccircumflex" unicode="&#x108;" horiz-adv-x="685" 
d="M380 715q121 0 194 -61t73 -149q0 -18 -2.5 -35.5t-4.5 -25.5l-3 -9h-142q7 23 7 53q0 46 -32 74t-90 28q-84 0 -133.5 -60t-49.5 -178q0 -120 52.5 -181t145.5 -61q33 0 63.5 9t51 22t36.5 26t24 22l7 9l73 -90q-4 -5 -11 -13.5t-32 -29.5t-53.5 -37t-75 -29.5
t-96.5 -13.5q-154 0 -243 95.5t-89 269.5t89 269.5t241 95.5zM165 767l162 177h100l163 -177h-125l-85 98h-5l-85 -98h-125z" />
    <glyph glyph-name="ccircumflex" unicode="&#x109;" horiz-adv-x="557" 
d="M522 355q0 -15 -2 -28.5t-4 -20.5l-1 -6h-133q5 15 5 38q0 35 -24 58.5t-61 23.5q-52 0 -83.5 -39.5t-31.5 -116.5q0 -79 34 -119t96 -40q40 0 73.5 16.5t47.5 32.5l14 17l70 -91q-3 -4 -8.5 -10.5t-25 -22.5t-42.5 -28.5t-61.5 -23t-81.5 -10.5q-118 0 -188 73.5
t-70 203.5t70 204t190 74q96 0 156.5 -54t60.5 -131zM85 597l162 177h100l163 -177h-125l-85 98h-5l-85 -98h-125z" />
    <glyph glyph-name="Ccaron" unicode="&#x10c;" horiz-adv-x="685" 
d="M380 715q121 0 194 -61t73 -149q0 -18 -2.5 -35.5t-4.5 -25.5l-3 -9h-142q7 23 7 53q0 46 -32 74t-90 28q-84 0 -133.5 -60t-49.5 -178q0 -120 52.5 -181t145.5 -61q33 0 63.5 9t51 22t36.5 26t24 22l7 9l73 -90q-4 -5 -11 -13.5t-32 -29.5t-53.5 -37t-75 -29.5
t-96.5 -13.5q-154 0 -243 95.5t-89 269.5t89 269.5t241 95.5zM324 767l-162 177h125l85 -98h5l85 98h125l-163 -177h-100z" />
    <glyph glyph-name="ccaron" unicode="&#x10d;" horiz-adv-x="557" 
d="M522 355q0 -15 -2 -28.5t-4 -20.5l-1 -6h-133q5 15 5 38q0 35 -24 58.5t-61 23.5q-52 0 -83.5 -39.5t-31.5 -116.5q0 -79 34 -119t96 -40q40 0 73.5 16.5t47.5 32.5l14 17l70 -91q-3 -4 -8.5 -10.5t-25 -22.5t-42.5 -28.5t-61.5 -23t-81.5 -10.5q-118 0 -188 73.5
t-70 203.5t70 204t190 74q96 0 156.5 -54t60.5 -131zM247 597l-162 177h125l85 -98h5l85 98h125l-163 -177h-100z" />
    <glyph glyph-name="Dcaron" unicode="&#x10e;" horiz-adv-x="723" 
d="M220 124h98q207 0 207 226q0 225 -207 225h-98v-451zM673 350q0 -167 -92.5 -258.5t-262.5 -91.5h-238v700h238q170 0 262.5 -91.5t92.5 -258.5zM302 767l-162 177h125l85 -98h5l85 98h125l-163 -177h-100z" />
    <glyph glyph-name="dcaron" unicode="&#x10f;" horiz-adv-x="712" 
d="M400 255v139q-43 25 -93 25q-55 0 -87.5 -40t-32.5 -117q0 -75 29.5 -116t70.5 -41q49 0 81 39t32 111zM535 755v-602q0 -48 47 -48h18v-105q-33 -12 -73 -12q-29 0 -51 9.5t-32 22.5t-16 26t-7 22l-1 10h-8q-2 -4 -5.5 -10t-17 -22t-30 -28.5t-45.5 -22.5t-62 -10
q-88 0 -147.5 72.5t-59.5 202.5q0 132 67 206t175 74q29 0 57 -6t42 -12l14 -5v238h135zM607 688q0 28 20 47.5t49 19.5q31 0 51 -21.5t20 -59.5q0 -68 -35.5 -110t-94.5 -51v56q22 4 37.5 18.5t17.5 34.5q-29 2 -47 20t-18 46z" />
    <glyph glyph-name="Dcroat" unicode="&#x110;" horiz-adv-x="743" 
d="M693 350q0 -167 -92.5 -258.5t-262.5 -91.5h-238v290h-80v120h80v290h238q170 0 262.5 -91.5t92.5 -258.5zM240 124h98q207 0 207 226q0 225 -207 225h-98v-165h117v-120h-117v-166z" />
    <glyph glyph-name="dcroat" unicode="&#x111;" horiz-adv-x="645" 
d="M535 755v-71h85v-116h-85v-415q0 -48 47 -48h18v-105q-33 -12 -73 -12q-29 0 -51 9.5t-32 22.5t-16 26t-7 22l-1 10h-8q-2 -4 -5.5 -10t-17 -22t-30 -28.5t-45.5 -22.5t-62 -10q-87 0 -147 69.5t-60 185.5q0 118 67.5 189t174.5 71q29 0 57 -6t42 -12l14 -5v91h-133v116
h133v71h135zM400 255v99q-43 25 -93 25q-53 0 -86.5 -37t-33.5 -100q0 -62 30 -99.5t70 -37.5q49 0 81 39t32 111z" />
    <glyph glyph-name="Emacron" unicode="&#x112;" horiz-adv-x="580" 
d="M220 575v-161h268v-125h-268v-164h325v-125h-465v700h465v-125h-325zM135 799v100h350v-100h-350z" />
    <glyph glyph-name="emacron" unicode="&#x113;" horiz-adv-x="577" 
d="M305 424q-45 0 -75 -29.5t-38 -79.5h185q20 0 20 35q0 32 -24.5 53t-67.5 21zM320 101q40 0 75 16.5t50 32.5l15 16l62 -90q-3 -4 -8.5 -10t-25.5 -21.5t-43.5 -27.5t-61.5 -22t-80 -10q-118 0 -188 73.5t-70 203.5t70 204t190 74q103 0 165 -58t62 -147q0 -30 -7 -60
t-13 -45l-7 -15h-313q6 -53 39.5 -83.5t88.5 -30.5zM127 629v100h350v-100h-350z" />
    <glyph glyph-name="Edotaccent" unicode="&#x116;" horiz-adv-x="580" 
d="M220 575v-161h268v-125h-268v-164h325v-125h-465v700h465v-125h-325zM395 855q0 -32 -21 -52t-57 -20q-35 0 -56 20t-21 52t21 51.5t56 19.5q36 0 57 -19.5t21 -51.5z" />
    <glyph glyph-name="edotaccent" unicode="&#x117;" horiz-adv-x="577" 
d="M305 424q-45 0 -75 -29.5t-38 -79.5h185q20 0 20 35q0 32 -24.5 53t-67.5 21zM320 101q40 0 75 16.5t50 32.5l15 16l62 -90q-3 -4 -8.5 -10t-25.5 -21.5t-43.5 -27.5t-61.5 -22t-80 -10q-118 0 -188 73.5t-70 203.5t70 204t190 74q103 0 165 -58t62 -147q0 -30 -7 -60
t-13 -45l-7 -15h-313q6 -53 39.5 -83.5t88.5 -30.5zM375 685q0 -32 -21 -52t-57 -20q-35 0 -56 20t-21 52t21 51.5t56 19.5q36 0 57 -19.5t21 -51.5z" />
    <glyph glyph-name="Eogonek" unicode="&#x118;" horiz-adv-x="580" 
d="M320 -242q-56 0 -90.5 29.5t-34.5 70.5q0 26 12 50t29.5 40t35 28.5t29.5 17.5l12 6h-233v700h465v-125h-325v-161h268v-125h-268v-164h325v-125h-152q-4 -2 -11 -6t-24 -16.5t-30 -26t-24 -34t-11 -40.5q0 -17 12.5 -28.5t32.5 -11.5q12 0 25 3.5t20 6.5l7 3l25 -72
q-40 -20 -95 -20z" />
    <glyph glyph-name="eogonek" unicode="&#x119;" horiz-adv-x="577" 
d="M362 -231q-56 0 -90.5 29t-34.5 70q0 67 73 117h-1h-6q-118 0 -188 73t-70 202q0 131 70 205t190 74q103 0 165 -57.5t62 -146.5q0 -30 -7 -60t-13 -45l-7 -15h-313q6 -53 39.5 -84t88.5 -31q40 0 75 16.5t50 33.5l15 16l62 -91q-20 -31 -75 -60l-19 -11q-18 -11 -25 -16
t-23 -18t-23.5 -23.5t-14.5 -26.5t-7 -32q0 -18 12 -29.5t33 -11.5q12 0 25 3.5t20 6.5l7 3l25 -71q-40 -20 -95 -20zM305 423q-45 0 -75 -29.5t-38 -79.5h185q20 0 20 36q0 31 -24.5 52t-67.5 21z" />
    <glyph glyph-name="Ecaron" unicode="&#x11a;" horiz-adv-x="580" 
d="M220 575v-161h268v-125h-268v-164h325v-125h-465v700h465v-125h-325zM262 767l-162 177h125l85 -98h5l85 98h125l-163 -177h-100z" />
    <glyph glyph-name="ecaron" unicode="&#x11b;" horiz-adv-x="577" 
d="M305 424q-45 0 -75 -29.5t-38 -79.5h185q20 0 20 35q0 32 -24.5 53t-67.5 21zM320 101q40 0 75 16.5t50 32.5l15 16l62 -90q-3 -4 -8.5 -10t-25.5 -21.5t-43.5 -27.5t-61.5 -22t-80 -10q-118 0 -188 73.5t-70 203.5t70 204t190 74q103 0 165 -58t62 -147q0 -30 -7 -60
t-13 -45l-7 -15h-313q6 -53 39.5 -83.5t88.5 -30.5zM247 597l-162 177h125l85 -98h5l85 98h125l-163 -177h-100z" />
    <glyph glyph-name="Gbreve" unicode="&#x11e;" horiz-adv-x="727" 
d="M395 109q36 0 69 11.5t48 23.5l15 12v110h-120v115h260v-274q-4 -5 -12 -13t-36 -29t-58.5 -37.5t-79.5 -29.5t-100 -13q-154 0 -242.5 95t-88.5 270q0 174 89 269.5t241 95.5q122 0 194.5 -60t72.5 -145q0 -18 -2.5 -35t-4.5 -25l-3 -8h-142q7 21 7 48q0 41 -32 70.5
t-90 29.5q-84 0 -133.5 -60t-49.5 -178q0 -120 52.5 -181.5t145.5 -61.5zM379 770q-94 0 -145.5 47t-51.5 127h110q0 -37 23 -59t64 -22t64.5 22.5t23.5 58.5h110q0 -80 -52 -127t-146 -47z" />
    <glyph glyph-name="gbreve" unicode="&#x11f;" horiz-adv-x="558" 
d="M463 619q20 0 40 -4.5t30 -8.5l10 -4v-101q-18 7 -45 7q-15 0 -26 -7.5t-15 -14.5l-4 -8q5 -4 13 -13.5t21 -43.5t13 -74q0 -86 -59 -139t-163 -53q-24 0 -46 3.5t-32 6.5l-10 3q-12 -8 -12 -26q0 -33 45 -33h142q80 0 127.5 -44.5t47.5 -114.5q0 -81 -64 -131.5
t-188 -50.5q-125 0 -189 47.5t-64 119.5q0 33 17.5 62t35.5 41l17 12q-5 3 -13 8.5t-21 26.5t-13 45q0 27 12 48t24 29l11 8q-6 5 -14 15t-22 44t-14 73q0 87 59 140t164 53q20 0 38.5 -2t27.5 -4l9 -2q0 35 30.5 61t79.5 26zM408 -53q0 24 -18 39t-53 15h-142
q-32 -16 -32 -54q0 -31 29.5 -51t92.5 -20q62 0 92.5 20.5t30.5 50.5zM368 347q0 39 -24 61.5t-66 22.5q-43 0 -66.5 -22.5t-23.5 -61.5t23.5 -61.5t66.5 -22.5q42 0 66 22.5t24 61.5zM275 600q-94 0 -145.5 47t-51.5 127h110q0 -37 23 -59t64 -22t64.5 22.5t23.5 58.5h110
q0 -80 -52 -127t-146 -47z" />
    <glyph glyph-name="Gcommaaccent" unicode="&#x122;" horiz-adv-x="727" 
d="M395 109q36 0 69 11.5t48 23.5l15 12v110h-120v115h260v-274q-4 -5 -12 -13t-36 -29t-58.5 -37.5t-79.5 -29.5t-100 -13q-154 0 -242.5 95t-88.5 270q0 174 89 269.5t241 95.5q122 0 194.5 -60t72.5 -145q0 -18 -2.5 -35t-4.5 -25l-3 -8h-142q7 21 7 48q0 41 -32 70.5
t-90 29.5q-84 0 -133.5 -60t-49.5 -178q0 -120 52.5 -181.5t145.5 -61.5zM312 -132q0 28 20 47.5t49 19.5q31 0 51 -21.5t20 -59.5q0 -68 -35.5 -110t-94.5 -51v56q22 4 37.5 19t17.5 34q-28 1 -46.5 20t-18.5 46z" />
    <glyph glyph-name="gcommaaccent" unicode="&#x123;" horiz-adv-x="558" 
d="M347 662q0 -28 -20 -47.5t-50 -19.5q-31 0 -50.5 22t-19.5 59q0 69 35.5 110.5t94.5 51.5v-57q-23 -4 -38.5 -19t-16.5 -34q28 -2 46.5 -20t18.5 -46zM463 619q20 0 40 -4.5t30 -8.5l10 -4v-101q-18 7 -45 7q-15 0 -26 -7.5t-15 -14.5l-4 -8q5 -4 13 -13.5t21 -43.5
t13 -74q0 -86 -59 -139t-163 -53q-24 0 -46 3.5t-32 6.5l-10 3q-12 -8 -12 -26q0 -33 45 -33h142q80 0 127.5 -44.5t47.5 -114.5q0 -81 -64 -131.5t-188 -50.5q-125 0 -189 47.5t-64 119.5q0 33 17.5 62t35.5 41l17 12q-5 3 -13 8.5t-21 26.5t-13 45q0 27 12 48t24 29l11 8
q-6 5 -14 15t-22 44t-14 73q0 87 59 140t164 53q20 0 38.5 -2t27.5 -4l9 -2q0 35 30.5 61t79.5 26zM408 -53q0 24 -18 39t-53 15h-142q-32 -16 -32 -54q0 -31 29.5 -51t92.5 -20q62 0 92.5 20.5t30.5 50.5zM368 347q0 39 -24 61.5t-66 22.5q-43 0 -66.5 -22.5t-23.5 -61.5
t23.5 -61.5t66.5 -22.5q42 0 66 22.5t24 61.5z" />
    <glyph glyph-name="Imacron" unicode="&#x12a;" horiz-adv-x="300" 
d="M220 700v-700h-140v700h140zM-25 800v100h350v-100h-350z" />
    <glyph glyph-name="imacron" unicode="&#x12b;" horiz-adv-x="305" 
d="M-20 630v100h350v-100h-350zM225 403v-403h-135v372q0 47 -48 47h-17v106q35 12 72 12q128 0 128 -134z" />
    <glyph glyph-name="Iogonek" unicode="&#x12e;" horiz-adv-x="300" 
d="M145 -242q-57 0 -91 29.5t-34 70.5q0 26 12 50t29 40t34.5 28.5t29.5 17.5l12 6h-60v700h140v-700q-4 -2 -11 -6t-24 -16.5t-30 -26t-24 -34t-11 -40.5q0 -17 12.5 -28.5t32.5 -11.5q12 0 25.5 3.5t20.5 6.5l7 3l25 -72q-40 -20 -95 -20z" />
    <glyph glyph-name="iogonek" unicode="&#x12f;" horiz-adv-x="305" 
d="M152 -242q-56 0 -90.5 29.5t-34.5 70.5q0 26 12 50t29.5 40t35 28.5t29.5 17.5l12 6h-55v372q0 47 -48 47h-17v106q35 12 72 12q128 0 128 -134v-403q-4 -2 -11 -6t-24 -16.5t-30 -26t-24 -34t-11 -40.5q0 -17 11.5 -28.5t31.5 -11.5q12 0 25 3.5t20 6.5l7 3l25 -72
q-38 -20 -93 -20zM235 690q0 -32 -21 -52t-57 -20q-35 0 -56 20t-21 52t21 51.5t56 19.5q36 0 57 -19.5t21 -51.5z" />
    <glyph glyph-name="Idotaccent" unicode="&#x130;" horiz-adv-x="300" 
d="M220 700v-700h-140v700h140zM225 855q0 -32 -21 -52t-57 -20q-35 0 -56 20t-21 52t21 51.5t56 19.5q36 0 57 -19.5t21 -51.5z" />
    <glyph glyph-name="dotlessi" unicode="&#x131;" horiz-adv-x="305" 
d="M225 403v-403h-135v372q0 47 -48 47h-17v106q35 12 72 12q128 0 128 -134z" />
    <glyph glyph-name="Kcommaaccent" unicode="&#x136;" horiz-adv-x="672" 
d="M512 0l-192 293h-100v-293h-140v700h140v-282h97l175 282h163q-26 -40 -220 -340l242 -360h-165zM284 -122q0 28 20 47.5t49 19.5q31 0 51 -21.5t20 -59.5q0 -68 -35.5 -110t-94.5 -51v56q22 4 37.5 19t17.5 34q-28 1 -46.5 20t-18.5 46z" />
    <glyph glyph-name="kcommaaccent" unicode="&#x137;" horiz-adv-x="560" 
d="M210 755v-427h67l121 197h150l-163 -245v-10l180 -270h-153l-135 208h-67v-208h-135v755h135zM235 -122q0 28 20 47.5t49 19.5q31 0 51 -21.5t20 -59.5q0 -68 -35.5 -110t-94.5 -51v56q22 4 37.5 19t17.5 34q-28 1 -46.5 20t-18.5 46z" />
    <glyph glyph-name="Lacute" unicode="&#x139;" horiz-adv-x="545" 
d="M220 700v-575h305v-125h-445v700h140zM107 767l62 177h150l-127 -177h-85z" />
    <glyph glyph-name="lacute" unicode="&#x13a;" horiz-adv-x="297" 
d="M75 121v634h135v-602q0 -48 47 -48h18v-105q-35 -12 -73 -12q-127 0 -127 133zM100 797l62 177h150l-127 -177h-85z" />
    <glyph glyph-name="Lcommaaccent" unicode="&#x13b;" horiz-adv-x="545" 
d="M220 700v-575h305v-125h-445v700h140zM237 -122q0 28 20 47.5t49 19.5q31 0 51 -21.5t20 -59.5q0 -68 -35.5 -110t-94.5 -51v56q22 4 37.5 19t17.5 34q-28 1 -46.5 20t-18.5 46z" />
    <glyph glyph-name="lcommaaccent" unicode="&#x13c;" horiz-adv-x="300" 
d="M75 121v634h135v-602q0 -48 47 -48h18v-105q-35 -12 -73 -12q-127 0 -127 133zM105 -132q0 28 20 47.5t49 19.5q31 0 51 -21.5t20 -59.5q0 -68 -35.5 -110t-94.5 -51v56q22 4 37.5 19t17.5 34q-28 1 -46.5 20t-18.5 46z" />
    <glyph glyph-name="Lcaron" unicode="&#x13d;" horiz-adv-x="545" 
d="M220 700v-575h305v-125h-445v700h140zM302 645q0 28 20 47.5t49 19.5q31 0 51 -21.5t20 -59.5q0 -68 -35.5 -110t-94.5 -51v56q22 4 37.5 18.5t17.5 34.5q-29 2 -47 20t-18 46z" />
    <glyph glyph-name="lcaron" unicode="&#x13e;" horiz-adv-x="390" 
d="M75 121v634h135v-602q0 -48 47 -48h18v-105q-35 -12 -73 -12q-127 0 -127 133zM285 690q0 28 20 47.5t49 19.5q31 0 51 -21.5t20 -59.5q0 -68 -35.5 -110t-94.5 -51v56q22 4 37.5 18.5t17.5 34.5q-29 2 -47 20t-18 46z" />
    <glyph glyph-name="Lslash" unicode="&#x141;" horiz-adv-x="560" 
d="M235 700v-244l110 28v-121l-110 -27v-211h305v-125h-445v304l-75 -18v120l75 18v276h140z" />
    <glyph glyph-name="lslash" unicode="&#x142;" horiz-adv-x="345" 
d="M95 121v212l-75 -17v118l75 17v304h135v-272l95 23v-118l-95 -23v-212q0 -48 47 -48h18v-105q-35 -12 -73 -12q-127 0 -127 133z" />
    <glyph glyph-name="Nacute" unicode="&#x143;" 
d="M685 700v-700h-150l-245 360q-27 39 -44.5 68t-21.5 38l-4 9h-10q10 -27 10 -115v-360h-140v700h150l245 -360q27 -39 44.5 -68t21.5 -38l4 -9h10q-10 27 -10 115v360h140zM340 767l62 177h150l-127 -177h-85z" />
    <glyph glyph-name="nacute" unicode="&#x144;" horiz-adv-x="630" 
d="M338 419q-49 0 -81 -39t-32 -110v-270h-135v372q0 47 -47 47h-18v106q35 12 73 12q28 0 49.5 -9.5t31.5 -22.5t16.5 -26t8.5 -23l1 -9h8l5 10t16 22t29.5 28.5t46 22.5t63.5 10q81 0 131.5 -53.5t50.5 -144.5v-342h-135v335q0 38 -22.5 61t-59.5 23zM278 597l62 177h150
l-127 -177h-85z" />
    <glyph glyph-name="Ncommaaccent" unicode="&#x145;" 
d="M685 700v-700h-150l-245 360q-27 39 -44.5 68t-21.5 38l-4 9h-10q10 -27 10 -115v-360h-140v700h150l245 -360q27 -39 44.5 -68t21.5 -38l4 -9h10q-10 27 -10 115v360h140zM312 -123q0 28 20 47.5t49 19.5q31 0 51 -21.5t20 -59.5q0 -68 -35.5 -110t-94.5 -51v56
q22 4 37.5 19t17.5 34q-28 1 -46.5 20t-18.5 46z" />
    <glyph glyph-name="ncommaaccent" unicode="&#x146;" horiz-adv-x="630" 
d="M338 419q-49 0 -81 -39t-32 -110v-270h-135v372q0 47 -47 47h-18v106q35 12 73 12q28 0 49.5 -9.5t31.5 -22.5t16.5 -26t8.5 -23l1 -9h8l5 10t16 22t29.5 28.5t46 22.5t63.5 10q81 0 131.5 -53.5t50.5 -144.5v-342h-135v335q0 38 -22.5 61t-59.5 23zM255 -122
q0 28 20 47.5t49 19.5q31 0 51 -21.5t20 -59.5q0 -68 -35.5 -110t-94.5 -51v56q22 4 37.5 19t17.5 34q-28 1 -46.5 20t-18.5 46z" />
    <glyph glyph-name="Ncaron" unicode="&#x147;" 
d="M685 700v-700h-150l-245 360q-27 39 -44.5 68t-21.5 38l-4 9h-10q10 -27 10 -115v-360h-140v700h150l245 -360q27 -39 44.5 -68t21.5 -38l4 -9h10q-10 27 -10 115v360h140zM337 767l-162 177h125l85 -98h5l85 98h125l-163 -177h-100z" />
    <glyph glyph-name="ncaron" unicode="&#x148;" horiz-adv-x="630" 
d="M338 419q-49 0 -81 -39t-32 -110v-270h-135v372q0 47 -47 47h-18v106q35 12 73 12q28 0 49.5 -9.5t31.5 -22.5t16.5 -26t8.5 -23l1 -9h8l5 10t16 22t29.5 28.5t46 22.5t63.5 10q81 0 131.5 -53.5t50.5 -144.5v-342h-135v335q0 38 -22.5 61t-59.5 23zM267 597l-162 177
h125l85 -98h5l85 98h125l-163 -177h-100z" />
    <glyph glyph-name="Omacron" unicode="&#x14c;" 
d="M567 350q0 119 -49.5 179.5t-135.5 60.5t-135.5 -60.5t-49.5 -179.5q0 -120 49.5 -180.5t135.5 -60.5t135.5 60.5t49.5 180.5zM715 350q0 -175 -89 -270t-244 -95q-154 0 -243 95.5t-89 269.5t89 269.5t243 95.5t243.5 -95.5t89.5 -269.5zM207 799v100h350v-100h-350z
" />
    <glyph glyph-name="omacron" unicode="&#x14d;" horiz-adv-x="610" 
d="M422 262q0 77 -32 117t-85 40t-85.5 -40t-32.5 -117t32.5 -117t85.5 -40t85 40t32 117zM45 262q0 130 70 204t190 74q119 0 189.5 -74t70.5 -204t-70.5 -203.5t-189.5 -73.5q-120 0 -190 73.5t-70 203.5zM130 629v100h350v-100h-350z" />
    <glyph glyph-name="Ohungarumlaut" unicode="&#x150;" 
d="M567 350q0 119 -49.5 179.5t-135.5 60.5t-135.5 -60.5t-49.5 -179.5q0 -120 49.5 -180.5t135.5 -60.5t135.5 60.5t49.5 180.5zM715 350q0 -175 -89 -270t-244 -95q-154 0 -243 95.5t-89 269.5t89 269.5t243 95.5t243.5 -95.5t89.5 -269.5zM252 767l80 177h122l-117 -177
h-85zM429 767l80 177h123l-118 -177h-85z" />
    <glyph glyph-name="ohungarumlaut" unicode="&#x151;" horiz-adv-x="610" 
d="M422 262q0 77 -32 117t-85 40t-85.5 -40t-32.5 -117t32.5 -117t85.5 -40t85 40t32 117zM45 262q0 130 70 204t190 74q119 0 189.5 -74t70.5 -204t-70.5 -203.5t-189.5 -73.5q-120 0 -190 73.5t-70 203.5zM172 597l80 177h122l-117 -177h-85zM349 597l80 177h123
l-118 -177h-85z" />
    <glyph glyph-name="OE" unicode="&#x152;" horiz-adv-x="967" 
d="M50 350q0 167 92.5 258.5t262.5 91.5h527v-125h-315v-162h258v-125h-258v-164h315v-124h-526q-171 0 -263.5 91t-92.5 259zM405 124h72v451h-72q-208 0 -208 -225q0 -226 208 -226z" />
    <glyph glyph-name="oe" unicode="&#x153;" horiz-adv-x="950" 
d="M677 423q-45 0 -74.5 -29.5t-37.5 -79.5h185q9 0 14.5 10.5t5.5 25.5q0 31 -25 52t-68 21zM417 262q0 76 -32 116.5t-83 40.5t-83 -40.5t-32 -116.5q0 -77 31.5 -117t83.5 -40q53 0 84 40t31 117zM302 539q34 0 65.5 -9.5t52 -22.5t36 -26.5t22.5 -22.5l7 -10h5
q2 4 6.5 10t20.5 21.5t35.5 27.5t53 22t71.5 10q103 0 165.5 -57.5t62.5 -146.5q0 -30 -7 -60t-14 -45l-7 -15h-312q5 -53 38.5 -84t88.5 -31q40 0 75 16.5t50 33.5l15 16l63 -91q-3 -4 -8.5 -10t-25.5 -21.5t-43 -27.5t-61.5 -21.5t-79.5 -9.5q-38 0 -71 9.5t-53.5 22.5
t-35.5 26.5t-21 22.5l-6 10h-5q-2 -4 -7 -10t-22 -21.5t-36.5 -27.5t-51.5 -22t-66 -10q-118 0 -187.5 73.5t-69.5 203.5t69.5 203.5t187.5 73.5z" />
    <glyph glyph-name="Racute" unicode="&#x154;" horiz-adv-x="673" 
d="M220 361h113q135 0 135 107t-135 107h-113v-214zM80 700h253q140 0 211 -60t71 -165q0 -46 -15.5 -82t-37.5 -54.5t-44 -30.5t-38 -16l-15 -3v-7q5 -2 12.5 -5.5t24.5 -19t26 -36.5l26 -60q21 -49 71 -49l33 3v-115q-33 -12 -70 -12q-60 0 -96 26.5t-59 77.5l-43 94
q-23 50 -70 50h-100v-236h-140v700zM285 767l62 177h150l-127 -177h-85z" />
    <glyph glyph-name="racute" unicode="&#x155;" horiz-adv-x="425" 
d="M373 540h42v-132h-67q-56 0 -89.5 -41t-33.5 -113v-254h-135v369q0 48 -47 48h-18v105q35 13 73 13q28 0 49.5 -9.5t31.5 -22.5t16.5 -26t8.5 -23l1 -9h8q2 4 5 10.5t16 22.5t29.5 28.5t46 23t63.5 10.5zM175 597l62 177h150l-127 -177h-85z" />
    <glyph glyph-name="Rcommaaccent" unicode="&#x156;" horiz-adv-x="673" 
d="M220 361h113q135 0 135 107t-135 107h-113v-214zM80 700h253q140 0 211 -60t71 -165q0 -46 -15.5 -82t-37.5 -54.5t-44 -30.5t-38 -16l-15 -3v-7q5 -2 12.5 -5.5t24.5 -19t26 -36.5l26 -60q21 -49 71 -49l33 3v-115q-33 -12 -70 -12q-60 0 -96 26.5t-59 77.5l-43 94
q-23 50 -70 50h-100v-236h-140v700zM287 -122q0 28 20 47.5t49 19.5q31 0 51 -21.5t20 -59.5q0 -68 -35.5 -110t-94.5 -51v56q22 4 37.5 19t17.5 34q-28 1 -46.5 20t-18.5 46z" />
    <glyph glyph-name="rcommaaccent" unicode="&#x157;" horiz-adv-x="425" 
d="M373 540h42v-132h-67q-56 0 -89.5 -41t-33.5 -113v-254h-135v369q0 48 -47 48h-18v105q35 13 73 13q28 0 49.5 -9.5t31.5 -22.5t16.5 -26t8.5 -23l1 -9h8q2 4 5 10.5t16 22.5t29.5 28.5t46 23t63.5 10.5zM85 -122q0 28 20 47.5t49 19.5q31 0 51 -21.5t20 -59.5
q0 -68 -35.5 -110t-94.5 -51v56q22 4 37.5 19t17.5 34q-28 1 -46.5 20t-18.5 46z" />
    <glyph glyph-name="Rcaron" unicode="&#x158;" horiz-adv-x="673" 
d="M220 361h113q135 0 135 107t-135 107h-113v-214zM80 700h253q140 0 211 -60t71 -165q0 -46 -15.5 -82t-37.5 -54.5t-44 -30.5t-38 -16l-15 -3v-7q5 -2 12.5 -5.5t24.5 -19t26 -36.5l26 -60q21 -49 71 -49l33 3v-115q-33 -12 -70 -12q-60 0 -96 26.5t-59 77.5l-43 94
q-23 50 -70 50h-100v-236h-140v700zM289 767l-162 177h125l85 -98h5l85 98h125l-163 -177h-100z" />
    <glyph glyph-name="rcaron" unicode="&#x159;" horiz-adv-x="425" 
d="M372 540h42v-132h-67q-56 0 -89.5 -41t-33.5 -113v-254h-135v369q0 48 -47 48h-18v105q35 13 73 13q28 0 49.5 -9.5t31.5 -22.5t16.5 -26t7.5 -23l2 -9h8q2 4 5 10.5t16 22.5t29.5 28.5t46 23t63.5 10.5zM172 597l-162 177h125l85 -98h5l85 98h125l-163 -177h-100z" />
    <glyph glyph-name="Sacute" unicode="&#x15a;" horiz-adv-x="600" 
d="M285 110q60 0 91.5 26.5t31.5 68.5q0 27 -26.5 47.5t-66.5 31.5t-86 29t-86 38.5t-66.5 61t-26.5 95.5q0 87 68.5 147t181.5 60q114 0 179.5 -54t65.5 -131q0 -14 -2.5 -29t-4.5 -23l-3 -8h-140q8 18 8 38q0 38 -26.5 61t-76.5 23q-45 0 -73.5 -25t-28.5 -59
q0 -28 26.5 -48t66 -31.5t86 -29t86 -38t66 -61t26.5 -95.5q0 -96 -69.5 -158t-190.5 -62q-50 0 -96.5 12.5t-77.5 30.5t-55 36.5t-35 31.5l-11 12l75 95q3 -4 8.5 -10t24.5 -22t39.5 -28.5t52.5 -22.5t65 -10zM252 767l62 177h150l-127 -177h-85z" />
    <glyph glyph-name="sacute" unicode="&#x15b;" horiz-adv-x="490" 
d="M225 103q40 0 60 14t20 37q0 20 -28 33.5t-67.5 24t-79 26t-67.5 50.5t-28 87q0 68 57 116t153 48q95 0 150 -45t55 -110q0 -10 -2 -20t-4 -15l-2 -5h-130q3 10 3 21q0 24 -18.5 40t-51.5 16q-29 0 -47 -14.5t-18 -34.5q0 -17 20 -29.5t50 -19.5t65 -19.5t65 -28
t50 -47.5t20 -76q0 -72 -55.5 -119.5t-152.5 -47.5q-43 0 -82.5 10t-64.5 23.5t-44 27.5t-27 24l-9 10l67 86q6 -7 16.5 -17.5t48 -28t78.5 -17.5zM195 597l62 177h150l-127 -177h-85z" />
    <glyph glyph-name="Scedilla" unicode="&#x15e;" horiz-adv-x="600" 
d="M285 110q60 0 91.5 26.5t31.5 68.5q0 27 -26.5 47.5t-66.5 31.5t-86 29t-86 38.5t-66.5 61t-26.5 95.5q0 87 68.5 147t181.5 60q114 0 179.5 -54t65.5 -131q0 -14 -2.5 -29t-4.5 -23l-3 -8h-140q8 18 8 38q0 38 -26.5 61t-76.5 23q-45 0 -73.5 -25t-28.5 -59
q0 -28 26.5 -48t66 -31.5t86 -29t86 -38t66 -61t26.5 -95.5q0 -89 -59.5 -148.5t-164.5 -69.5l-14 -52q4 0 11 -1.5t25 -9t31.5 -17.5t24.5 -31t11 -47q0 -45 -35.5 -76.5t-92.5 -31.5q-27 0 -52.5 5t-37.5 10l-12 5l25 69q29 -15 62 -15q24 0 37 12t13 31q0 46 -100 46
l28 103q-42 4 -82 18.5t-66.5 31.5t-47 33t-29.5 27l-10 11l75 95q3 -4 8.5 -10t24.5 -22t39.5 -28.5t52.5 -22.5t65 -10z" />
    <glyph glyph-name="scedilla" unicode="&#x15f;" horiz-adv-x="490" 
d="M232 -279q-27 0 -52.5 5t-37.5 10l-12 5l25 69q29 -15 62 -15q24 0 37 12t13 31q0 46 -100 46l31 106q-35 4 -66.5 14.5t-52 23t-36 24.5t-21.5 20l-7 8l67 86q6 -7 16.5 -17.5t48 -28t78.5 -17.5t60.5 15.5t19.5 35.5t-28 33.5t-67.5 24t-79 26t-67.5 50.5t-28 87
q0 68 57 116t153 48q95 0 150 -45t55 -110q0 -10 -2 -20t-4 -15l-2 -5h-130l1 4q1 3 1.5 8t0.5 9q0 24 -18.5 40t-51.5 16q-29 0 -47 -14.5t-18 -34.5q0 -17 20 -29.5t50 -19.5t65 -19.5t65 -28t50 -47.5t20 -76q0 -66 -47.5 -111.5t-129.5 -54.5l-16 -51q4 0 11 -1.5t25 -9
t31.5 -17.5t24.5 -31t11 -47q0 -45 -35.5 -76.5t-92.5 -31.5z" />
    <glyph glyph-name="Scaron" unicode="&#x160;" horiz-adv-x="600" 
d="M285 110q60 0 91.5 26.5t31.5 68.5q0 27 -26.5 47.5t-66.5 31.5t-86 29t-86 38.5t-66.5 61t-26.5 95.5q0 87 68.5 147t181.5 60q114 0 179.5 -54t65.5 -131q0 -14 -2.5 -29t-4.5 -23l-3 -8h-140q8 18 8 38q0 38 -26.5 61t-76.5 23q-45 0 -73.5 -25t-28.5 -59
q0 -28 26.5 -48t66 -31.5t86 -29t86 -38t66 -61t26.5 -95.5q0 -96 -69.5 -158t-190.5 -62q-50 0 -96.5 12.5t-77.5 30.5t-55 36.5t-35 31.5l-11 12l75 95q3 -4 8.5 -10t24.5 -22t39.5 -28.5t52.5 -22.5t65 -10zM247 767l-162 177h125l85 -98h5l85 98h125l-163 -177h-100z
" />
    <glyph glyph-name="scaron" unicode="&#x161;" horiz-adv-x="490" 
d="M225 103q40 0 60 14t20 37q0 20 -28 33.5t-67.5 24t-79 26t-67.5 50.5t-28 87q0 68 57 116t153 48q95 0 150 -45t55 -110q0 -10 -2 -20t-4 -15l-2 -5h-130q3 10 3 21q0 24 -18.5 40t-51.5 16q-29 0 -47 -14.5t-18 -34.5q0 -17 20 -29.5t50 -19.5t65 -19.5t65 -28
t50 -47.5t20 -76q0 -72 -55.5 -119.5t-152.5 -47.5q-43 0 -82.5 10t-64.5 23.5t-44 27.5t-27 24l-9 10l67 86q6 -7 16.5 -17.5t48 -28t78.5 -17.5zM192 597l-162 177h125l85 -98h5l85 98h125l-163 -177h-100z" />
    <glyph glyph-name="Tcommaaccent" unicode="&#x162;" horiz-adv-x="585" 
d="M362 575v-575h-140v575h-202v125h545v-125h-203zM220 -123q0 28 20 47.5t49 19.5q31 0 51 -21.5t20 -59.5q0 -68 -35.5 -110t-94.5 -51v56q22 4 37.5 19t17.5 34q-28 1 -46.5 20t-18.5 46z" />
    <glyph glyph-name="tcommaaccent" unicode="&#x163;" horiz-adv-x="442" 
d="M102 192v212h-82v121h85l20 135h112v-135h133v-121h-133v-208q0 -88 75 -88q19 0 39 4.5t31 9.5l10 4l15 -113q-52 -25 -125 -25q-81 0 -130.5 54t-49.5 150zM180 -132q0 28 20 47.5t49 19.5q31 0 51 -21.5t20 -59.5q0 -68 -35.5 -110t-94.5 -51v56q22 4 37.5 19t17.5 34
q-28 1 -46.5 20t-18.5 46z" />
    <glyph glyph-name="Tcaron" unicode="&#x164;" horiz-adv-x="585" 
d="M362 575v-575h-140v575h-202v125h545v-125h-203zM242 767l-162 177h125l85 -98h5l85 98h125l-163 -177h-100z" />
    <glyph glyph-name="tcaron" unicode="&#x165;" horiz-adv-x="492" 
d="M102 192v212h-82v121h85l20 135h112v-135h133v-121h-133v-208q0 -88 75 -88q19 0 39 4.5t31 9.5l10 4l15 -113q-52 -25 -125 -25q-81 0 -130.5 54t-49.5 150zM387 690q0 28 20 47.5t49 19.5q31 0 51 -21.5t20 -59.5q0 -68 -35.5 -110t-94.5 -51v56q22 4 37.5 18.5
t17.5 34.5q-29 2 -47 20t-18 46z" />
    <glyph glyph-name="Umacron" unicode="&#x16a;" horiz-adv-x="735" 
d="M368 110q69 0 108 45.5t39 134.5v410h140v-410q0 -143 -77.5 -224t-209.5 -81q-133 0 -210.5 81t-77.5 224v410h140v-410q0 -89 39.5 -134.5t108.5 -45.5zM190 799v100h350v-100h-350z" />
    <glyph glyph-name="umacron" unicode="&#x16b;" horiz-adv-x="630" 
d="M292 105q49 0 81 39t32 111v270h135v-372q0 -48 47 -48h18v-105q-35 -12 -73 -12q-29 0 -51 9.5t-32 22.5t-16 26t-7 22l-1 10h-8q-2 -4 -5.5 -10t-17 -22t-30 -28.5t-45.5 -22.5t-62 -10q-81 0 -131.5 53.5t-50.5 143.5v343h135v-336q0 -38 22.5 -61t59.5 -23zM137 629
v100h350v-100h-350z" />
    <glyph glyph-name="Uring" unicode="&#x16e;" horiz-adv-x="735" 
d="M368 110q69 0 108 45.5t39 134.5v410h140v-410q0 -143 -77.5 -224t-209.5 -81q-133 0 -210.5 81t-77.5 224v410h140v-410q0 -89 39.5 -134.5t108.5 -45.5zM492 880q0 -55 -36 -90t-92 -35t-91.5 35t-35.5 90q0 54 35.5 89t91.5 35t92 -35t36 -89zM417 880q0 24 -15 39.5
t-38 15.5t-37.5 -15.5t-14.5 -39.5q0 -25 14.5 -40.5t37.5 -15.5t38 15.5t15 40.5z" />
    <glyph glyph-name="uring" unicode="&#x16f;" horiz-adv-x="630" 
d="M292 105q49 0 81 39t32 111v270h135v-372q0 -48 47 -48h18v-105q-35 -12 -73 -12q-29 0 -51 9.5t-32 22.5t-16 26t-7 22l-1 10h-8q-2 -4 -5.5 -10t-17 -22t-30 -28.5t-45.5 -22.5t-62 -10q-81 0 -131.5 53.5t-50.5 143.5v343h135v-336q0 -38 22.5 -61t59.5 -23zM437 710
q0 -55 -36 -90t-92 -35t-91.5 35t-35.5 90q0 54 35.5 89t91.5 35t92 -35t36 -89zM362 710q0 24 -15 39.5t-38 15.5t-37.5 -15.5t-14.5 -39.5q0 -25 14.5 -40.5t37.5 -15.5t38 15.5t15 40.5z" />
    <glyph glyph-name="Uhungarumlaut" unicode="&#x170;" horiz-adv-x="735" 
d="M368 110q69 0 108 45.5t39 134.5v410h140v-410q0 -143 -77.5 -224t-209.5 -81q-133 0 -210.5 81t-77.5 224v410h140v-410q0 -89 39.5 -134.5t108.5 -45.5zM225 767l80 177h122l-117 -177h-85zM402 767l80 177h123l-118 -177h-85z" />
    <glyph glyph-name="uhungarumlaut" unicode="&#x171;" horiz-adv-x="630" 
d="M292 105q49 0 81 39t32 111v270h135v-372q0 -48 47 -48h18v-105q-35 -12 -73 -12q-29 0 -51 9.5t-32 22.5t-16 26t-7 22l-1 10h-8q-2 -4 -5.5 -10t-17 -22t-30 -28.5t-45.5 -22.5t-62 -10q-81 0 -131.5 53.5t-50.5 143.5v343h135v-336q0 -38 22.5 -61t59.5 -23zM175 597
l80 177h122l-117 -177h-85zM352 597l80 177h123l-118 -177h-85z" />
    <glyph glyph-name="Uogonek" unicode="&#x172;" horiz-adv-x="735" 
d="M403 -241q-56 0 -90.5 29t-34.5 70q0 33 20 63t37.5 43.5t32.5 20.5q-134 1 -211 81t-77 224v410h140v-410q0 -89 39.5 -134.5t108.5 -45.5t108 45.5t39 134.5v410h140v-410q0 -221 -180 -289q-4 -2 -11 -6t-24 -16.5t-30 -26t-24 -34t-11 -40.5q0 -18 12.5 -29.5
t32.5 -11.5q12 0 25.5 3.5t20.5 6.5l7 3l25 -71q-40 -20 -95 -20z" />
    <glyph glyph-name="uogonek" unicode="&#x173;" horiz-adv-x="630" 
d="M425 77h-8q-2 -4 -5.5 -10t-17 -22t-30 -28t-45.5 -22t-62 -10q-81 0 -131.5 53.5t-50.5 143.5v342h135v-335q0 -38 22.5 -61t59.5 -23q49 0 81 39t32 110v270h135v-371q0 -48 47 -48h18v-105q-4 -2 -11 -6t-24 -16.5t-30 -25.5t-24 -33.5t-11 -40.5q0 -18 12 -29.5
t33 -11.5q12 0 24.5 3.5t19.5 6.5l6 3l25 -71q-38 -20 -93 -20q-56 0 -90.5 29t-34.5 70q0 27 12 51.5t31.5 41t32 25t23.5 14.5q-36 7 -56 28.5t-22 39.5z" />
    <glyph glyph-name="Ydieresis" unicode="&#x178;" horiz-adv-x="640" 
d="M390 247v-247h-140v247l-250 453h160l115 -210q18 -32 28 -58.5t11 -36.5l1 -10h10q0 32 40 105l115 210h160zM425 783q-30 0 -50 19.5t-20 48.5q0 30 20 49.5t50 19.5t50 -19.5t20 -49.5q0 -29 -20 -48.5t-50 -19.5zM210 783q-30 0 -50 19.5t-20 48.5q0 30 20 49.5
t50 19.5t50 -19.5t20 -49.5q0 -29 -20 -48.5t-50 -19.5z" />
    <glyph glyph-name="Zacute" unicode="&#x179;" horiz-adv-x="590" 
d="M190 125h375v-125h-540v125l295 375q14 18 31.5 34t28.5 24l10 7v10h-345v125h510v-125l-295 -375q-14 -18 -31.5 -34t-28.5 -24l-10 -7v-10zM255 767l62 177h150l-127 -177h-85z" />
    <glyph glyph-name="zacute" unicode="&#x17a;" horiz-adv-x="490" 
d="M465 120v-120h-440v120l195 220q16 18 31 31.5t22 18.5l7 5v10h-240v120h415v-120l-195 -220q-16 -18 -31 -31.5t-22 -18.5l-7 -5v-10h265zM197 597l62 177h150l-127 -177h-85z" />
    <glyph glyph-name="Zdotaccent" unicode="&#x17b;" horiz-adv-x="590" 
d="M190 125h375v-125h-540v125l295 375q14 18 31.5 34t28.5 24l10 7v10h-345v125h510v-125l-295 -375q-14 -18 -31.5 -34t-28.5 -24l-10 -7v-10zM377 858q0 -32 -21 -52t-57 -20q-35 0 -56 20t-21 52t21 51.5t56 19.5q36 0 57 -19.5t21 -51.5z" />
    <glyph glyph-name="zdotaccent" unicode="&#x17c;" horiz-adv-x="490" 
d="M465 120v-120h-440v120l195 220q16 18 31 31.5t22 18.5l7 5v10h-240v120h415v-120l-195 -220q-16 -18 -31 -31.5t-22 -18.5l-7 -5v-10h265zM320 683q0 -32 -21 -52t-57 -20q-35 0 -56 20t-21 52t21 51.5t56 19.5q36 0 57 -19.5t21 -51.5z" />
    <glyph glyph-name="Zcaron" unicode="&#x17d;" horiz-adv-x="590" 
d="M190 125h375v-125h-540v125l295 375q14 18 31.5 34t28.5 24l10 7v10h-345v125h510v-125l-295 -375q-14 -18 -31.5 -34t-28.5 -24l-10 -7v-10zM249 767l-162 177h125l85 -98h5l85 98h125l-163 -177h-100z" />
    <glyph glyph-name="zcaron" unicode="&#x17e;" horiz-adv-x="490" 
d="M465 120v-120h-440v120l195 220q16 18 31 31.5t22 18.5l7 5v10h-240v120h415v-120l-195 -220q-16 -18 -31 -31.5t-22 -18.5l-7 -5v-10h265zM189 597l-162 177h125l85 -98h5l85 98h125l-163 -177h-100z" />
    <glyph glyph-name="florin" unicode="&#x192;" horiz-adv-x="412" 
d="M117 520v45q0 96 50 150.5t130 54.5q32 0 63.5 -6t46.5 -12l15 -7l-15 -113q-37 17 -80 17q-75 0 -75 -88v-41h133v-120h-133v-433q0 -97 -48.5 -150.5t-131.5 -53.5q-21 0 -44 3t-36 6l-12 3l7 115q28 -7 55 -7q75 0 75 88v429h-82v120h82z" />
    <glyph glyph-name="Scommaaccent" unicode="&#x218;" horiz-adv-x="600" 
d="M285 110q60 0 91.5 26.5t31.5 68.5q0 27 -26.5 47.5t-66.5 31.5t-86 29t-86 38.5t-66.5 61t-26.5 95.5q0 87 68.5 147t181.5 60q114 0 179.5 -54t65.5 -131q0 -14 -2.5 -29t-4.5 -23l-3 -8h-140q8 18 8 38q0 38 -26.5 61t-76.5 23q-45 0 -73.5 -25t-28.5 -59
q0 -28 26.5 -48t66 -31.5t86 -29t86 -38t66 -61t26.5 -95.5q0 -96 -69.5 -158t-190.5 -62q-50 0 -96.5 12.5t-77.5 30.5t-55 36.5t-35 31.5l-11 12l75 95q3 -4 8.5 -10t24.5 -22t39.5 -28.5t52.5 -22.5t65 -10zM227 -132q0 28 20 47.5t49 19.5q31 0 51 -21.5t20 -59.5
q0 -68 -35.5 -110t-94.5 -51v56q22 4 37.5 19t17.5 34q-28 1 -46.5 20t-18.5 46z" />
    <glyph glyph-name="scommaaccent" unicode="&#x219;" horiz-adv-x="490" 
d="M225 103q40 0 60 14t20 37q0 20 -28 33.5t-67.5 24t-79 26t-67.5 50.5t-28 87q0 68 57 116t153 48q95 0 150 -45t55 -110q0 -10 -2 -20t-4 -15l-2 -5h-130q3 10 3 21q0 24 -18.5 40t-51.5 16q-29 0 -47 -14.5t-18 -34.5q0 -17 20 -29.5t50 -19.5t65 -19.5t65 -28
t50 -47.5t20 -76q0 -72 -55.5 -119.5t-152.5 -47.5q-43 0 -82.5 10t-64.5 23.5t-44 27.5t-27 24l-9 10l67 86q6 -7 16.5 -17.5t48 -28t78.5 -17.5zM175 -130q0 28 20 47.5t49 19.5q31 0 51 -21.5t20 -59.5q0 -68 -35.5 -110t-94.5 -51v56q22 4 37.5 19t17.5 34
q-28 1 -46.5 20t-18.5 46z" />
    <glyph glyph-name="afii57929" unicode="&#x2bc;" horiz-adv-x="200" 
d="M30 690q0 28 20 47.5t49 19.5q31 0 51 -21.5t20 -59.5q0 -68 -35.5 -110t-94.5 -51v56q22 4 37.5 18.5t17.5 34.5q-29 2 -47 20t-18 46z" />
    <glyph glyph-name="circumflex" unicode="&#x2c6;" horiz-adv-x="485" 
d="M30 575l162 177h100l163 -177h-125l-85 98h-5l-85 -98h-125z" />
    <glyph glyph-name="caron" unicode="&#x2c7;" horiz-adv-x="485" 
d="M192 575l-162 177h125l85 -98h5l85 98h125l-163 -177h-100z" />
    <glyph glyph-name="breve" unicode="&#x2d8;" horiz-adv-x="455" 
d="M227 578q-94 0 -145.5 47t-51.5 127h110q0 -37 23 -59t64 -22t64.5 22.5t23.5 58.5h110q0 -80 -52 -127t-146 -47z" />
    <glyph glyph-name="dotaccent" unicode="&#x2d9;" horiz-adv-x="215" 
d="M185 698q0 -32 -21 -52t-57 -20q-35 0 -56 20t-21 52t21 51.5t56 19.5q36 0 57 -19.5t21 -51.5z" />
    <glyph glyph-name="ring" unicode="&#x2da;" horiz-adv-x="315" 
d="M285 670q0 -55 -36 -90t-92 -35t-91.5 35t-35.5 90q0 54 35.5 89t91.5 35t92 -35t36 -89zM210 670q0 24 -15 39.5t-38 15.5t-37.5 -15.5t-14.5 -39.5q0 -25 14.5 -40.5t37.5 -15.5t38 15.5t15 40.5z" />
    <glyph glyph-name="ogonek" unicode="&#x2db;" horiz-adv-x="280" 
d="M155 -242q-57 0 -91 29.5t-34 70.5q0 26 12 50t29 40t34.5 28.5t29.5 17.5l12 6h80q-4 -2 -11 -6t-24 -16.5t-30 -26t-24 -34t-11 -40.5q0 -17 12.5 -28.5t32.5 -11.5q12 0 25.5 3.5t20.5 6.5l7 3l25 -72q-40 -20 -95 -20z" />
    <glyph glyph-name="tilde" unicode="&#x2dc;" horiz-adv-x="430" 
d="M297 591q-29 0 -53.5 11t-37.5 24.5t-28 24.5t-28 11q-15 0 -25 -11t-10 -29l2 -21h-80q-7 22 -7 50q0 46 28.5 75t73.5 29q30 0 54.5 -11t37.5 -24.5t28 -24.5t28 -11q15 0 25 11t10 29l-3 21h80q8 -22 8 -51q0 -46 -29 -74.5t-74 -28.5z" />
    <glyph glyph-name="hungarumlaut" unicode="&#x2dd;" horiz-adv-x="440" 
d="M30 575l80 177h122l-117 -177h-85zM207 575l80 177h123l-118 -177h-85z" />
    <glyph glyph-name="afii10023" unicode="&#x401;" horiz-adv-x="580" 
d="M220 575v-161h268v-125h-268v-164h325v-125h-465v700h465v-125h-325zM422 783q-30 0 -50 19.5t-20 48.5q0 30 20 49.5t50 19.5t50 -19.5t20 -49.5q0 -29 -20 -48.5t-50 -19.5zM207 783q-30 0 -50 19.5t-20 48.5q0 30 20 49.5t50 19.5t50 -19.5t20 -49.5q0 -29 -20 -48.5
t-50 -19.5z" />
    <glyph glyph-name="afii10051" unicode="&#x402;" horiz-adv-x="782" 
d="M307 393h10q7 5 21.5 13.5t61 22t97.5 13.5q106 0 168 -64t62 -176v-86q0 -102 -49 -154.5t-139 -52.5q-20 0 -41.5 2.5t-32.5 4.5l-11 3v116l16 -1q16 -1 27 -1q47 0 68.5 22.5t21.5 74.5v58q0 129 -130 129q-38 0 -75.5 -11t-55.5 -22l-19 -11v-273h-140v575h-172v125
h492v-125h-180v-182z" />
    <glyph glyph-name="afii10052" unicode="&#x403;" horiz-adv-x="525" 
d="M245 767l62 177h150l-127 -177h-85zM220 575v-575h-140v700h435v-125h-295z" />
    <glyph glyph-name="afii10053" unicode="&#x404;" horiz-adv-x="685" 
d="M440 409v-125h-237q30 -174 192 -174q33 0 63.5 9t51 22t36.5 26t24 22l7 9l73 -90q-4 -5 -11 -13.5t-32 -29.5t-53.5 -37t-75 -29.5t-96.5 -13.5q-154 0 -243 95.5t-89 269.5t89 269.5t241 95.5q121 0 194 -60t73 -143q0 -15 -2.5 -30.5t-4.5 -23.5l-3 -8h-142
q7 20 7 45q0 45 -30 70t-92 25q-75 0 -121 -46.5t-58 -134.5h239z" />
    <glyph glyph-name="afii10054" unicode="&#x405;" horiz-adv-x="600" 
d="M285 110q60 0 91.5 26.5t31.5 68.5q0 27 -26.5 47.5t-66.5 31.5t-86 29t-86 38.5t-66.5 61t-26.5 95.5q0 87 68.5 147t181.5 60q114 0 179.5 -54t65.5 -131q0 -14 -2.5 -29t-4.5 -23l-3 -8h-140q8 18 8 38q0 38 -26.5 61t-76.5 23q-45 0 -73.5 -25t-28.5 -59
q0 -28 26.5 -48t66 -31.5t86 -29t86 -38t66 -61t26.5 -95.5q0 -96 -69.5 -158t-190.5 -62q-50 0 -96.5 12.5t-77.5 30.5t-55 36.5t-35 31.5l-11 12l75 95q3 -4 8.5 -10t24.5 -22t39.5 -28.5t52.5 -22.5t65 -10z" />
    <glyph glyph-name="afii10055" unicode="&#x406;" horiz-adv-x="300" 
d="M220 700v-700h-140v700h140z" />
    <glyph glyph-name="afii10056" unicode="&#x407;" horiz-adv-x="300" 
d="M220 700v-700h-140v700h140zM255 786q-30 0 -50 19.5t-20 48.5q0 30 20 49.5t50 19.5t50 -19.5t20 -49.5q0 -29 -20 -48.5t-50 -19.5zM40 786q-30 0 -50 19.5t-20 48.5q0 30 20 49.5t50 19.5t50 -19.5t20 -49.5q0 -29 -20 -48.5t-50 -19.5z" />
    <glyph glyph-name="afii10057" unicode="&#x408;" horiz-adv-x="380" 
d="M105 -12q-20 0 -41.5 2.5t-32.5 5.5l-11 2v117q23 -3 42 -3q98 0 98 103v485h140v-499q0 -104 -51.5 -158.5t-143.5 -54.5z" />
    <glyph glyph-name="afii10058" unicode="&#x409;" horiz-adv-x="982" 
d="M650 0h-198v575h-167q0 -143 -11.5 -249t-31 -170t-49.5 -102.5t-61.5 -52t-71.5 -13.5q-18 0 -36.5 2.5t-28.5 5.5l-10 2v119q20 -5 40 -5q30 0 50 16t38.5 62t27.5 142t9 244v124h442v-221h58q146 0 219 -63t73 -177q0 -113 -73 -176t-219 -63zM592 124h60
q71 0 107 30.5t36 84.5t-36 84.5t-107 30.5h-60v-230z" />
    <glyph glyph-name="afii10059" unicode="&#x40a;" horiz-adv-x="1018" 
d="M478 0v339h-258v-339h-140v700h140v-236h258v236h140v-236h75q144 0 214.5 -60.5t70.5 -171.5t-70.5 -171.5t-214.5 -60.5h-215zM618 125h77q135 0 135 107t-135 107h-77v-214z" />
    <glyph glyph-name="afii10060" unicode="&#x40b;" horiz-adv-x="787" 
d="M307 575v-182h10q7 5 21.5 13.5t61 22t97.5 13.5q106 0 168 -64t62 -176v-202h-140v188q0 129 -130 129q-38 0 -75.5 -11t-55.5 -22l-19 -11v-273h-140v575h-172v125h492v-125h-180z" />
    <glyph glyph-name="afii10061" unicode="&#x40c;" horiz-adv-x="675" 
d="M295 767l62 177h150l-127 -177h-85zM80 0v700h140v-287h78q47 0 65 46l42 108q30 78 61.5 111.5t103.5 33.5q16 0 34 -3t28 -6l11 -3v-114q-14 1 -30 1q-55 0 -73 -50l-47 -124q-5 -13 -12 -23.5t-13 -16.5t-11.5 -10.5t-8.5 -6.5l-3 -1v-8l235 -347h-167l-188 288h-105
v-288h-140z" />
    <glyph glyph-name="afii10062" unicode="&#x40e;" horiz-adv-x="617" 
d="M307 861q45 0 68.5 23t23.5 65h118q0 -83 -55.5 -133.5t-154.5 -50.5t-154.5 50.5t-55.5 133.5h117q0 -42 24 -65t69 -23zM622 700l-222 -486q-58 -125 -111 -175.5t-127 -50.5q-20 0 -40 2.5t-30 5.5l-10 2v119q25 -5 50 -5q41 0 66.5 23.5t48.5 78.5l-252 486h152
l123 -240q20 -38 31 -67t12 -39l1 -10h7q1 31 39 116l107 240h155z" />
    <glyph glyph-name="afii10145" unicode="&#x40f;" horiz-adv-x="730" 
d="M650 0h-215v-138h-140v138h-215v700h140v-575h290v575h140v-700z" />
    <glyph glyph-name="afii10017" unicode="&#x410;" horiz-adv-x="670" 
d="M430 260l-65 185q-11 32 -17.5 58t-7.5 37v10h-10q0 -34 -25 -105l-65 -185h190zM410 700l260 -700h-150l-45 135h-280l-45 -135h-150l260 700h150z" />
    <glyph glyph-name="afii10018" unicode="&#x411;" horiz-adv-x="650" 
d="M220 435h123q133 0 200 -57.5t67 -160.5q0 -102 -67 -159.5t-200 -57.5h-263v700h478v-125h-338v-140zM463 217q0 93 -120 93h-123v-185h123q120 0 120 92z" />
    <glyph glyph-name="afii10019" unicode="&#x412;" horiz-adv-x="670" 
d="M365 0h-285v700h273q121 0 184 -51t63 -134q0 -34 -11.5 -61t-27.5 -41.5t-32 -24.5t-27 -13l-12 -3v-7q5 -1 14.5 -3.5t32.5 -14t41 -28.5t32.5 -49t14.5 -73q0 -86 -67.5 -141.5t-192.5 -55.5zM478 212q0 40 -28.5 63.5t-84.5 23.5h-145v-174h146q56 0 84 23.5t28 63.5
zM353 575h-133v-154h133q100 0 100 77t-100 77z" />
    <glyph glyph-name="afii10020" unicode="&#x413;" horiz-adv-x="525" 
d="M220 575v-575h-140v700h435v-125h-295z" />
    <glyph glyph-name="afii10021" unicode="&#x414;" horiz-adv-x="729" 
d="M-5 124h59q4 6 10.5 17t22.5 52t28.5 88.5t23 127t10.5 167.5v124h473v-576h87v-261h-140v137h-435v-137h-139v261zM482 575h-198q0 -88 -9.5 -167t-22 -128.5t-26.5 -86.5t-22.5 -53t-9.5 -16h288v451z" />
    <glyph glyph-name="afii10022" unicode="&#x415;" horiz-adv-x="580" 
d="M220 575v-161h268v-125h-268v-164h325v-125h-465v700h465v-125h-325z" />
    <glyph glyph-name="afii10024" unicode="&#x416;" horiz-adv-x="995" 
d="M567 288v-288h-140v288h-90l-175 -288h-167l222 347v8q-29 12 -47 58l-48 124q-10 25 -25.5 36.5t-47.5 11.5l-29 -1v116q38 12 72 12q65 0 99 -29t56 -87l53 -137q18 -46 65 -46h62v287h140v-287h63q47 0 65 46l52 137l9 19q23 49 55.5 73t90.5 24q16 0 34 -3t28 -6
l11 -3v-116q-18 1 -30 1q-32 0 -48 -11.5t-25 -36.5l-47 -124q-5 -13 -12 -23.5t-13 -16.5t-11.5 -10.5t-8.5 -6.5l-3 -1v-8l223 -347h-168l-175 288h-90z" />
    <glyph glyph-name="afii10025" unicode="&#x417;" horiz-adv-x="610" 
d="M560 187q0 -84 -70.5 -143t-188.5 -59q-50 0 -96.5 12.5t-78 30.5t-55.5 36.5t-35 31.5l-11 12l75 95q3 -4 8.5 -10t24.5 -22t39.5 -28.5t52.5 -22.5t65 -10q60 0 91.5 26t31.5 66q0 39 -32 64.5t-91 25.5h-85v122h90q46 0 74.5 26t28.5 63q0 38 -28.5 63.5t-74.5 25.5
q-49 0 -75.5 -23t-26.5 -61q0 -9 1.5 -18.5t3.5 -14.5l2 -5h-140q-10 28 -10 60q0 77 66 131t180 54q111 0 180 -58.5t69 -138.5q0 -36 -12.5 -64.5t-30 -44t-35 -26t-29.5 -13.5l-13 -3v-7q5 -1 14.5 -3.5t32.5 -15t41 -29.5t32.5 -50.5t14.5 -74.5z" />
    <glyph glyph-name="afii10026" unicode="&#x418;" 
d="M685 700v-700h-140v360q0 39 2.5 68t4.5 38l3 9h-10q-3 -5 -10 -19t-20 -35t-40 -61l-245 -360h-150v700h140v-360q0 -39 -2.5 -68t-5.5 -38l-2 -9h10q3 5 10 19t20 35t40 61l245 360h150z" />
    <glyph glyph-name="afii10027" unicode="&#x419;" 
d="M380 871q45 0 68.5 23t23.5 65h118q0 -83 -55.5 -133.5t-154.5 -50.5t-154.5 50.5t-55.5 133.5h117q0 -42 24 -65t69 -23zM685 700v-700h-140v360q0 39 2.5 68t4.5 38l3 9h-10q-3 -5 -10 -19t-20 -35t-40 -61l-245 -360h-150v700h140v-360q0 -39 -2.5 -68t-5.5 -38l-2 -9
h10q3 5 10 19t20 35t40 61l245 360h150z" />
    <glyph glyph-name="afii10028" unicode="&#x41a;" horiz-adv-x="675" 
d="M80 0v700h140v-287h78q47 0 65 46l42 108q30 78 61.5 111.5t103.5 33.5q16 0 34 -3t28 -6l11 -3v-114q-14 1 -30 1q-55 0 -73 -50l-47 -124q-5 -13 -12 -23.5t-13 -16.5t-11.5 -10.5t-8.5 -6.5l-3 -1v-8l235 -347h-167l-188 288h-105v-288h-140z" />
    <glyph glyph-name="afii10029" unicode="&#x41b;" horiz-adv-x="702" 
d="M482 575h-197q0 -143 -11.5 -249t-31 -170t-49.5 -102.5t-61.5 -52t-71.5 -13.5q-18 0 -36.5 2.5t-28.5 5.5l-10 2v119q20 -5 40 -5q30 0 50 16t38.5 62t27.5 142t9 244v124h472v-700h-140v575z" />
    <glyph glyph-name="afii10030" unicode="&#x41c;" horiz-adv-x="930" 
d="M515 137h-100l-135 243l-60 115h-10q10 -27 10 -115v-380h-140v700h175l160 -290q20 -36 31 -61t12 -32l2 -7h10q0 18 45 100l160 290h175v-700h-140v380q0 39 2.5 68t5.5 38l2 9h-10q-11 -27 -60 -115z" />
    <glyph glyph-name="afii10031" unicode="&#x41d;" horiz-adv-x="735" 
d="M515 0v272h-295v-272h-140v700h140v-304h295v304h140v-700h-140z" />
    <glyph glyph-name="afii10032" unicode="&#x41e;" 
d="M567 350q0 119 -49.5 179.5t-135.5 60.5t-135.5 -60.5t-49.5 -179.5q0 -120 49.5 -180.5t135.5 -60.5t135.5 60.5t49.5 180.5zM715 350q0 -175 -89 -270t-244 -95q-154 0 -243 95.5t-89 269.5t89 269.5t243 95.5t243.5 -95.5t89.5 -269.5z" />
    <glyph glyph-name="afii10033" unicode="&#x41f;" horiz-adv-x="730" 
d="M510 0v575h-290v-575h-140v700h570v-700h-140z" />
    <glyph glyph-name="afii10034" unicode="&#x420;" horiz-adv-x="655" 
d="M80 700h243q146 0 219 -63t73 -177q0 -113 -73 -176t-219 -63h-103v-221h-140v700zM325 575h-105v-229h105q71 0 107 30.5t36 83.5q0 54 -35.5 84.5t-107.5 30.5z" />
    <glyph glyph-name="afii10035" unicode="&#x421;" horiz-adv-x="685" 
d="M380 715q121 0 194 -61t73 -149q0 -18 -2.5 -35.5t-4.5 -25.5l-3 -9h-142q7 23 7 53q0 46 -32 74t-90 28q-84 0 -133.5 -60t-49.5 -178q0 -120 52.5 -181t145.5 -61q33 0 63.5 9t51 22t36.5 26t24 22l7 9l73 -90q-4 -5 -11 -13.5t-32 -29.5t-53.5 -37t-75 -29.5
t-96.5 -13.5q-154 0 -243 95.5t-89 269.5t89 269.5t241 95.5z" />
    <glyph glyph-name="afii10036" unicode="&#x422;" horiz-adv-x="585" 
d="M362 575v-575h-140v575h-202v125h545v-125h-203z" />
    <glyph glyph-name="afii10037" unicode="&#x423;" horiz-adv-x="617" 
d="M622 700l-222 -486q-58 -125 -111 -175.5t-127 -50.5q-20 0 -40 2.5t-30 5.5l-10 2v119q25 -5 50 -5q41 0 66.5 23.5t48.5 78.5l-252 486h152l123 -240q20 -38 31 -67t12 -39l1 -10h7q1 31 39 116l107 240h155z" />
    <glyph glyph-name="afii10038" unicode="&#x424;" horiz-adv-x="890" 
d="M515 42v-62h-140v62q-155 6 -245 93t-90 225t90.5 225t244.5 92v63h140v-63q154 -5 244.5 -92t90.5 -225t-90.5 -225t-244.5 -93zM702 360q0 89 -48.5 138.5t-138.5 53.5v-385q90 4 138.5 54t48.5 139zM187 360q0 -89 49 -139t139 -54v385q-90 -4 -139 -54t-49 -138z" />
    <glyph glyph-name="afii10039" unicode="&#x425;" horiz-adv-x="650" 
d="M330 265h-10q0 -19 -45 -90l-110 -175h-170l245 370l-220 330h170l85 -135q20 -32 31 -54.5t12 -28.5l2 -7h10q0 18 45 90l85 135h170l-220 -330l245 -370h-170l-110 175q-20 32 -31.5 54.5t-12.5 28.5z" />
    <glyph glyph-name="afii10040" unicode="&#x426;" horiz-adv-x="740" 
d="M580 0h-500v700h140v-575h273v575h140v-575h87v-263h-140v138z" />
    <glyph glyph-name="afii10041" unicode="&#x427;" horiz-adv-x="710" 
d="M490 384v316h140v-700h-140v265h-10q-7 -5 -21.5 -13.5t-61 -22t-97.5 -13.5q-106 0 -168 64t-62 176v244h140v-230q0 -129 130 -129q38 0 75.5 10.5t56.5 21.5z" />
    <glyph glyph-name="afii10042" unicode="&#x428;" horiz-adv-x="1060" 
d="M600 700v-575h240v575h140v-700h-900v700h140v-575h240v575h140z" />
    <glyph glyph-name="afii10043" unicode="&#x429;" horiz-adv-x="1090" 
d="M930 0h-850v700h140v-575h240v575h140v-575h240v575h140v-575h90v-263h-140v138z" />
    <glyph glyph-name="afii10044" unicode="&#x42a;" horiz-adv-x="715" 
d="M382 0h-217v575h-160v125h300v-221h77q146 0 219.5 -63t73.5 -176t-73.5 -176.5t-219.5 -63.5zM305 125h80q71 0 106.5 30.5t35.5 84.5q0 53 -35.5 83.5t-106.5 30.5h-80v-229z" />
    <glyph glyph-name="afii10045" unicode="&#x42b;" horiz-adv-x="903" 
d="M823 700v-700h-140v700h140zM298 0h-218v700h140v-221h78q146 0 219 -63t73 -176q0 -114 -73 -177t-219 -63zM220 125h80q72 0 107.5 30.5t35.5 84.5q0 53 -36 83.5t-107 30.5h-80v-229z" />
    <glyph glyph-name="afii10046" unicode="&#x42c;" horiz-adv-x="640" 
d="M308 0h-228v700h140v-221h88q146 0 219 -63t73 -176q0 -114 -73 -177t-219 -63zM220 125h90q72 0 107.5 30.5t35.5 84.5q0 53 -36 83.5t-107 30.5h-90v-229z" />
    <glyph glyph-name="afii10047" unicode="&#x42d;" horiz-adv-x="680" 
d="M240 284v125h239q-12 88 -58 134.5t-121 46.5q-62 0 -92 -25t-30 -70q0 -11 2 -22.5t4 -16.5l1 -6h-142q-10 28 -10 62q0 83 73 143t194 60q152 0 241 -95.5t89 -269.5t-89 -269.5t-243 -95.5q-50 0 -96 12.5t-76 30.5t-52.5 36.5t-33.5 31.5l-10 12l73 90q3 -4 8 -9.5
t22.5 -21t37 -27t50.5 -21t64 -9.5q162 0 192 174h-237z" />
    <glyph glyph-name="afii10048" unicode="&#x42e;" horiz-adv-x="998" 
d="M643 -15q-130 0 -208 78.5t-95 222.5h-120v-286h-140v700h140v-289h120q17 148 95 226t208 78q139 0 222 -94.5t83 -270.5t-83 -270.5t-222 -94.5zM643 110q72 0 114.5 58.5t42.5 181.5t-42.5 181.5t-114.5 58.5t-115 -58.5t-43 -181.5t43 -181.5t115 -58.5z" />
    <glyph glyph-name="afii10049" unicode="&#x42f;" horiz-adv-x="672" 
d="M452 236h-134l-131 -236h-157l152 273v7q-5 2 -13 5t-29 18t-37.5 34.5t-29.5 55.5t-13 80q0 106 70.5 166.5t209.5 60.5h252v-700h-140v236zM452 575h-112q-66 0 -99.5 -28.5t-33.5 -78.5t33.5 -78.5t99.5 -28.5h112v214z" />
    <glyph glyph-name="afii10065" unicode="&#x430;" horiz-adv-x="575" 
d="M237 100q43 0 74 29.5t39 73.5h-108q-35 0 -53.5 -15t-18.5 -37t17.5 -36.5t49.5 -14.5zM270 539q95 0 155 -58.5t60 -148.5v-179q0 -48 47 -48h18v-105q-35 -12 -73 -12q-28 0 -49.5 9t-31.5 22t-16.5 26.5t-7.5 22.5l-2 9h-8q-2 -4 -5.5 -10t-17 -22t-30 -28t-45.5 -22
t-62 -10q-72 0 -119.5 46t-47.5 114q0 69 53 115t144 46h118v24q0 43 -22.5 67t-57.5 24q-36 0 -55.5 -16.5t-19.5 -44.5l2 -20h-125q-7 20 -7 42q0 63 56.5 110t148.5 47z" />
    <glyph glyph-name="afii10066" unicode="&#x431;" horiz-adv-x="608" 
d="M50 283q0 84 12.5 148t33 102.5t47.5 65t57 39t60 21t57 14t47.5 14.5t33 27t12.5 46h118q15 -25 15 -55q0 -59 -35.5 -89.5t-87 -40t-103.5 -19.5t-90.5 -43.5t-43.5 -96.5h7q2 3 5 9t15.5 20t28 25t43 20t58.5 9q96 0 159.5 -70t63.5 -187q0 -116 -70 -186.5
t-183 -70.5q-117 0 -188.5 78.5t-71.5 219.5zM195 242q0 -63 32 -100t81 -37q48 0 80 37t32 100t-32 100t-80 37q-49 0 -81 -37t-32 -100z" />
    <glyph glyph-name="afii10067" unicode="&#x432;" horiz-adv-x="565" 
d="M75 0v525h231q97 0 150.5 -42t53.5 -103q0 -37 -22 -62.5t-44 -33.5l-22 -7v-7q4 -1 11.5 -3t26 -10.5t33 -20.5t26 -35t11.5 -51q0 -64 -55.5 -107t-157.5 -43h-242zM387 165q0 24 -17.5 38.5t-52.5 14.5h-107v-107h107q35 0 52.5 15t17.5 39zM307 413h-97v-91h97
q31 0 47 12.5t16 33.5q0 20 -16 32.5t-47 12.5z" />
    <glyph glyph-name="afii10068" unicode="&#x433;" horiz-adv-x="460" 
d="M75 0v525h375v-121h-240v-404h-135z" />
    <glyph glyph-name="afii10069" unicode="&#x434;" horiz-adv-x="594" 
d="M-5 120h57q2 4 6.5 11t14.5 33.5t18 58.5t14.5 85t6.5 113v104h395v-405h77v-237h-132v117h-325v-117h-132v237zM242 405q0 -87 -14.5 -158t-29.5 -99l-14 -28h188v285h-130z" />
    <glyph glyph-name="afii10070" unicode="&#x435;" horiz-adv-x="577" 
d="M305 424q-45 0 -75 -29.5t-38 -79.5h185q20 0 20 35q0 32 -24.5 53t-67.5 21zM320 101q40 0 75 16.5t50 32.5l15 16l62 -90q-3 -4 -8.5 -10t-25.5 -21.5t-43.5 -27.5t-61.5 -22t-80 -10q-118 0 -188 73.5t-70 203.5t70 204t190 74q103 0 165 -58t62 -147q0 -30 -7 -60
t-13 -45l-7 -15h-313q6 -53 39.5 -83.5t88.5 -30.5z" />
    <glyph glyph-name="afii10072" unicode="&#x436;" horiz-adv-x="813" 
d="M339 0v206h-62l-123 -206h-154l164 262v8l-2 1q-3 1 -8.5 5t-11 9.5t-12 16t-11.5 23.5l-20 55q-13 36 -52 36l-28 -3v111q33 12 63 12q51 0 82 -22.5t53 -83.5l22 -62q16 -42 58 -42h42v199h135v-199h42q42 0 58 42l22 62q22 61 53 83.5t82 22.5q13 0 29 -3t25 -6l9 -3
v-111q-17 3 -28 3q-38 0 -52 -36l-20 -55q-5 -13 -11.5 -23.5t-12 -16t-11 -9.5t-7.5 -5l-3 -1v-8l164 -262h-154l-123 206h-62v-206h-135z" />
    <glyph glyph-name="afii10073" unicode="&#x437;" horiz-adv-x="500" 
d="M235 210h-65v104h75q33 0 50 15t17 39t-17 38.5t-50 14.5q-29 0 -48.5 -16.5t-19.5 -39.5l3 -23h-130q-8 20 -8 42q0 65 54.5 110t148.5 45q96 0 154 -46t58 -108q0 -41 -24.5 -69.5t-48.5 -35.5l-24 -8v-7q4 -1 11 -3t24 -11t30 -21t24 -35.5t11 -52.5q0 -65 -56 -111
t-152 -46q-43 0 -82.5 10t-64.5 23.5t-44 27.5t-27 24l-9 10l67 86q6 -7 16.5 -17.5t48 -28t78.5 -17.5t60.5 15.5t19.5 37.5q0 54 -80 54z" />
    <glyph glyph-name="afii10074" unicode="&#x438;" horiz-adv-x="637" 
d="M427 0v235q0 30 2.5 55t4.5 35l3 10h-10q-10 -32 -55 -100l-155 -235h-142v525h135v-235q0 -30 -2.5 -55t-5.5 -35l-2 -10h10q10 32 55 100l155 235h142v-525h-135z" />
    <glyph glyph-name="afii10075" unicode="&#x439;" horiz-adv-x="637" 
d="M320 592q-94 0 -145.5 47t-51.5 127h110q0 -37 23 -59t64 -22t64.5 22.5t23.5 58.5h110q0 -80 -52 -127t-146 -47zM427 0v235q0 30 2.5 55t4.5 35l3 10h-10q-10 -32 -55 -100l-155 -235h-142v525h135v-235q0 -30 -2.5 -55t-5.5 -35l-2 -10h10q10 32 55 100l155 235h142
v-525h-135z" />
    <glyph glyph-name="afii10076" unicode="&#x43a;" horiz-adv-x="570" 
d="M75 0v525h135v-199h50q41 0 57 42l23 62q23 62 50 84t85 22q13 0 28.5 -3t24.5 -6l9 -3v-111q-16 3 -27 3q-42 0 -56 -42l-17 -49q-7 -20 -18.5 -33.5t-18.5 -17.5l-8 -4v-8l178 -262h-155l-135 206h-70v-206h-135z" />
    <glyph glyph-name="afii10077" unicode="&#x43b;" horiz-adv-x="597" 
d="M387 405h-132q0 -417 -195 -417q-16 0 -33.5 2.5t-26.5 5.5l-10 2v115q17 -5 37 -5q21 0 37 12t30.5 44t22.5 96.5t8 160.5v104h397v-525h-135v405z" />
    <glyph glyph-name="afii10078" unicode="&#x43c;" horiz-adv-x="750" 
d="M415 97h-80l-80 143q-16 28 -27 50.5t-14 31.5l-4 8h-10q10 -27 10 -90v-240h-135v525h157l103 -185q15 -27 24 -47t10 -27l1 -6h10q1 20 35 80l103 185h157v-525h-135v240q0 28 2.5 50.5t5.5 31.5l2 8h-10q-10 -27 -45 -90z" />
    <glyph glyph-name="afii10079" unicode="&#x43d;" horiz-adv-x="617" 
d="M407 0v208h-197v-208h-135v525h135v-196h197v196h135v-525h-135z" />
    <glyph glyph-name="afii10080" unicode="&#x43e;" horiz-adv-x="610" 
d="M422 262q0 77 -32 117t-85 40t-85.5 -40t-32.5 -117t32.5 -117t85.5 -40t85 40t32 117zM45 262q0 130 70 204t190 74q119 0 189.5 -74t70.5 -204t-70.5 -203.5t-189.5 -73.5q-120 0 -190 73.5t-70 203.5z" />
    <glyph glyph-name="afii10081" unicode="&#x43f;" horiz-adv-x="617" 
d="M407 0v404h-197v-404h-135v525h467v-525h-135z" />
    <glyph glyph-name="afii10082" unicode="&#x440;" horiz-adv-x="625" 
d="M225 270v-139q43 -26 93 -26q55 0 87.5 40t32.5 117q0 75 -29.5 116t-70.5 41q-49 0 -81 -39t-32 -110zM90 -220v592q0 47 -47 47h-18v106q33 12 73 12q28 0 49.5 -9.5t31.5 -22.5t16.5 -26t8.5 -23l1 -9h8l5 10t16 22t29.5 28.5t46 22.5t63.5 10q88 0 147.5 -73
t59.5 -202q0 -132 -67 -206t-175 -74q-29 0 -57 5.5t-42 11.5l-14 6v-228h-135z" />
    <glyph glyph-name="afii10083" unicode="&#x441;" horiz-adv-x="557" 
d="M522 355q0 -15 -2 -28.5t-4 -20.5l-1 -6h-133q5 15 5 38q0 35 -24 58.5t-61 23.5q-52 0 -83.5 -39.5t-31.5 -116.5q0 -79 34 -119t96 -40q40 0 73.5 16.5t47.5 32.5l14 17l70 -91q-3 -4 -8.5 -10.5t-25 -22.5t-42.5 -28.5t-61.5 -23t-81.5 -10.5q-118 0 -188 73.5
t-70 203.5t70 204t190 74q96 0 156.5 -54t60.5 -131z" />
    <glyph glyph-name="afii10084" unicode="&#x442;" horiz-adv-x="470" 
d="M10 404v121h450v-121h-158v-404h-135v404h-157z" />
    <glyph glyph-name="afii10085" unicode="&#x443;" horiz-adv-x="545" 
d="M115 -240q-20 0 -40 4t-30 8l-10 3l15 115q20 -5 45 -5q38 0 61 24t49 91l-195 525h150l90 -250q9 -24 14 -50.5t6 -40.5v-14h10q0 50 20 105l90 250h145l-195 -530q-46 -124 -99 -179.5t-126 -55.5z" />
    <glyph glyph-name="afii10086" unicode="&#x444;" horiz-adv-x="825" 
d="M480 393v-262q22 -26 62 -26q39 0 64.5 38.5t25.5 118.5t-25.5 118.5t-64.5 38.5q-18 0 -33.5 -6.5t-22.5 -12.5zM345 -220v235q-40 -30 -95 -30q-86 0 -143 72t-57 205t57 205t143 72q24 0 48 -7.5t36 -15.5l11 -7v92q0 48 -48 48h-17v105q35 12 72 12q67 0 97.5 -39
t30.5 -120v-98q40 30 95 30q85 0 142.5 -72.5t57.5 -204.5t-57.5 -204.5t-142.5 -72.5q-24 0 -48 7.5t-35 15.5l-12 7v-235h-135zM345 131v262q-23 26 -63 26q-39 0 -64.5 -38.5t-25.5 -118.5t25.5 -118.5t64.5 -38.5q18 0 33.5 6.5t22.5 12.5z" />
    <glyph glyph-name="afii10087" unicode="&#x445;" horiz-adv-x="530" 
d="M270 175h-10q0 -18 -30 -65l-70 -110h-155l180 275l-165 250h155l50 -80q16 -25 24.5 -44.5t9.5 -26.5l1 -8h10q0 23 35 79l50 80h155l-165 -250l180 -275h-155l-70 110q-13 21 -20.5 37t-8.5 22z" />
    <glyph glyph-name="afii10088" unicode="&#x446;" horiz-adv-x="617" 
d="M607 120v-238h-132v118h-400v525h135v-405h185v405h135v-405h77z" />
    <glyph glyph-name="afii10089" unicode="&#x447;" horiz-adv-x="597" 
d="M387 306v219h135v-525h-135v188q-62 -35 -142 -35q-83 0 -131.5 50.5t-48.5 139.5v182h135v-168q0 -39 22.5 -61.5t64.5 -22.5q27 0 52 8.5t37 16.5z" />
    <glyph glyph-name="afii10090" unicode="&#x448;" horiz-adv-x="865" 
d="M210 525v-405h155v405h135v-405h155v405h135v-525h-715v525h135z" />
    <glyph glyph-name="afii10091" unicode="&#x449;" horiz-adv-x="877" 
d="M735 0h-660v525h135v-405h155v405h135v-405h155v405h135v-405h77v-238h-132v118z" />
    <glyph glyph-name="afii10092" unicode="&#x44a;" horiz-adv-x="582" 
d="M265 374h65q104 0 163 -52t59 -135t-59 -135t-163 -52h-200v404h-130v121h265v-151zM330 253h-65v-133h65q36 0 58 19.5t22 47.5t-22 47t-58 19z" />
    <glyph glyph-name="afii10093" unicode="&#x44b;" horiz-adv-x="772" 
d="M697 525v-525h-135v525h135zM210 374h65q104 0 163 -52t59 -135t-59 -135t-163 -52h-200v525h135v-151zM275 253h-65v-133h65q36 0 58 19.5t22 47.5t-22 47t-58 19z" />
    <glyph glyph-name="afii10094" unicode="&#x44c;" horiz-adv-x="540" 
d="M210 374h77q105 0 164 -52t59 -135t-59 -135t-164 -52h-212v525h135v-151zM287 253h-77v-133h77q36 0 58 19.5t22 47.5t-22 47t-58 19z" />
    <glyph glyph-name="afii10095" unicode="&#x44d;" horiz-adv-x="557" 
d="M40 379q0 65 57.5 113t154.5 48q120 0 190 -74t70 -204t-70 -203.5t-188 -73.5q-43 0 -81 10t-62 23.5t-42 27.5t-26 24l-8 10l70 91q2 -3 5.5 -7.5t16 -15.5t27 -20t38 -16t48.5 -7q96 0 125 100h-163v109h165q-24 106 -112 106q-78 0 -78 -86h-129q-8 20 -8 45z" />
    <glyph glyph-name="afii10096" unicode="&#x44e;" horiz-adv-x="820" 
d="M532 -15q-99 0 -162.5 60t-74.5 158h-85v-203h-135v525h135v-202h85q12 97 75 156.5t162 59.5q111 0 177 -72.5t66 -204.5q0 -133 -65 -205t-178 -72zM532 105q44 0 72 39t28 118t-28 118t-72 39t-72 -39t-28 -118t28 -118t72 -39z" />
    <glyph glyph-name="afii10097" unicode="&#x44f;" horiz-adv-x="560" 
d="M350 151h-95l-86 -151h-149l118 191v8q-4 1 -9.5 4.5t-21 15t-27 26.5t-21 40.5t-9.5 54.5q0 81 59.5 133t165.5 52h210v-525h-135v151zM275 271h75v133h-75q-38 0 -60 -19t-22 -47t22 -47.5t60 -19.5z" />
    <glyph glyph-name="afii10071" unicode="&#x451;" horiz-adv-x="577" 
d="M305 424q-45 0 -75 -29.5t-38 -79.5h185q20 0 20 35q0 32 -24.5 53t-67.5 21zM320 101q40 0 75 16.5t50 32.5l15 16l62 -90q-3 -4 -8.5 -10t-25.5 -21.5t-43.5 -27.5t-61.5 -22t-80 -10q-118 0 -188 73.5t-70 203.5t70 204t190 74q103 0 165 -58t62 -147q0 -30 -7 -60
t-13 -45l-7 -15h-313q6 -53 39.5 -83.5t88.5 -30.5zM412 612q-30 0 -50 19.5t-20 48.5q0 30 20 49.5t50 19.5t50 -19.5t20 -49.5q0 -29 -20 -48.5t-50 -19.5zM197 612q-30 0 -50 19.5t-20 48.5q0 30 20 49.5t50 19.5t50 -19.5t20 -49.5q0 -29 -20 -48.5t-50 -19.5z" />
    <glyph glyph-name="afii10099" unicode="&#x452;" horiz-adv-x="620" 
d="M338 359q-50 0 -81.5 -39.5t-31.5 -112.5v-207h-135v550h-85v116h85v88h135v-88h138v-116h-138v-149q2 3 5 8.5t16 19t28.5 23.5t42 18.5t56.5 8.5q81 0 131.5 -53.5t50.5 -143.5v-171q0 -95 -43.5 -143.5t-123.5 -48.5q-19 0 -40 3t-32 6l-11 3v112q20 -5 43 -5
q72 0 72 87v150q0 38 -22.5 61t-59.5 23z" />
    <glyph glyph-name="afii10100" unicode="&#x453;" horiz-adv-x="460" 
d="M215 597l62 177h150l-127 -177h-85zM75 0v525h375v-121h-240v-404h-135z" />
    <glyph glyph-name="afii10101" unicode="&#x454;" horiz-adv-x="557" 
d="M517 379q0 -11 -2 -22.5t-4 -16.5l-2 -6h-129q0 86 -78 86q-88 0 -112 -106h165v-109h-163q29 -100 125 -100q40 0 73.5 16.5t47.5 32.5l14 17l70 -91q-3 -4 -8.5 -10.5t-25 -22.5t-42.5 -28.5t-61.5 -23t-81.5 -10.5q-118 0 -188 73.5t-70 203.5t70 204t190 74
q97 0 154.5 -48t57.5 -113z" />
    <glyph glyph-name="afii10102" unicode="&#x455;" horiz-adv-x="490" 
d="M225 103q40 0 60 14t20 37q0 20 -28 33.5t-67.5 24t-79 26t-67.5 50.5t-28 87q0 68 57 116t153 48q95 0 150 -45t55 -110q0 -10 -2 -20t-4 -15l-2 -5h-130q3 10 3 21q0 24 -18.5 40t-51.5 16q-29 0 -47 -14.5t-18 -34.5q0 -17 20 -29.5t50 -19.5t65 -19.5t65 -28
t50 -47.5t20 -76q0 -72 -55.5 -119.5t-152.5 -47.5q-43 0 -82.5 10t-64.5 23.5t-44 27.5t-27 24l-9 10l67 86q6 -7 16.5 -17.5t48 -28t78.5 -17.5z" />
    <glyph glyph-name="afii10103" unicode="&#x456;" horiz-adv-x="305" 
d="M225 403v-403h-135v372q0 47 -48 47h-17v106q35 12 72 12q128 0 128 -134zM235 690q0 -32 -21 -52t-57 -20q-35 0 -56 20t-21 52t21 51.5t56 19.5q36 0 57 -19.5t21 -51.5z" />
    <glyph glyph-name="afii10104" unicode="&#x457;" horiz-adv-x="305" 
d="M260 616q-30 0 -50 19.5t-20 48.5q0 30 20 49.5t50 19.5t50 -19.5t20 -49.5q0 -29 -20 -48.5t-50 -19.5zM45 616q-30 0 -50 19.5t-20 48.5q0 30 20 49.5t50 19.5t50 -19.5t20 -49.5q0 -29 -20 -48.5t-50 -19.5zM225 403v-403h-135v372q0 47 -48 47h-17v106q35 12 72 12
q128 0 128 -134z" />
    <glyph glyph-name="afii10105" unicode="&#x458;" horiz-adv-x="297" 
d="M217 525v-558q0 -98 -49 -151t-131 -53q-20 0 -43 3.5t-36 7.5l-13 3l8 111q25 -5 52 -5q77 0 77 89v553h135zM72 690q0 31 21.5 51t56.5 20t56 -20t21 -51q0 -32 -21 -52t-56 -20q-36 0 -57 20t-21 52z" />
    <glyph glyph-name="afii10106" unicode="&#x459;" horiz-adv-x="815" 
d="M365 404h-110q0 -416 -195 -416q-16 0 -33.5 2.5t-26.5 5.5l-10 2v115q17 -5 37 -5q21 0 37 12t30.5 44t22.5 96.5t8 160.5v103h375v-151h62q105 0 164 -52t59 -135q0 -82 -59.5 -134t-163.5 -52h-197v404zM562 253h-62v-133h62q36 0 58 19.5t22 46.5q0 28 -22 47.5
t-58 19.5z" />
    <glyph glyph-name="afii10107" unicode="&#x45a;" horiz-adv-x="832" 
d="M382 0v243h-172v-243h-135v524h135v-161h172v161h135v-161h65q106 0 163 -49.5t57 -132.5q0 -82 -57 -131.5t-163 -49.5h-200zM582 243h-65v-123h65q38 0 58 17t20 44q0 28 -20 45t-58 17z" />
    <glyph glyph-name="afii10108" unicode="&#x45b;" horiz-adv-x="630" 
d="M338 359q-49 0 -81 -39.5t-32 -111.5v-208h-135v550h-85v115h85v90h135v-90h138v-115h-138v-149q2 3 5 8.5t16 19t28.5 24t42 19t56.5 8.5q81 0 131.5 -53.5t50.5 -144.5v-282h-135v275q0 38 -22.5 61t-59.5 23z" />
    <glyph glyph-name="afii10109" unicode="&#x45c;" horiz-adv-x="570" 
d="M252 597l62 177h150l-127 -177h-85zM75 0v525h135v-199h50q41 0 57 42l23 62q23 62 50 84t85 22q13 0 28.5 -3t24.5 -6l9 -3v-111q-16 3 -27 3q-42 0 -56 -42l-17 -49q-7 -20 -18.5 -33.5t-18.5 -17.5l-8 -4v-8l178 -262h-155l-135 206h-70v-206h-135z" />
    <glyph glyph-name="afii10110" unicode="&#x45e;" horiz-adv-x="545" 
d="M115 -240q-20 0 -40 4t-30 8l-10 3l15 115q20 -5 45 -5q38 0 61 24t49 91l-195 525h150l90 -250q9 -24 14 -50.5t6 -40.5v-14h10q0 50 20 105l90 250h145l-195 -530q-46 -124 -99 -179.5t-126 -55.5zM270 596q-94 0 -145.5 47t-51.5 127h110q0 -37 23 -59t64 -22
t64.5 22.5t23.5 58.5h110q0 -80 -52 -127t-146 -47z" />
    <glyph glyph-name="afii10193" unicode="&#x45f;" horiz-adv-x="620" 
d="M410 120v405h135v-525h-170v-118h-130v118h-170v525h135v-405h200z" />
    <glyph glyph-name="afii10050" unicode="&#x490;" horiz-adv-x="525" 
d="M375 700v90h140v-215h-295v-575h-140v700h295z" />
    <glyph glyph-name="afii10098" unicode="&#x491;" horiz-adv-x="460" 
d="M450 610v-206h-240v-404h-135v524h240v86h135z" />
    <glyph glyph-name="uni1E9E" unicode="&#x1e9e;" horiz-adv-x="690" 
d="M413 -15q-20 0 -40.5 2.5t-31.5 4.5l-11 3v115q23 -3 53 -3q55 0 85 25.5t30 66.5q0 109 -145 109v108q49 0 78 26t29 63q0 38 -28 62.5t-79 24.5q-59 0 -96 -38t-37 -99v-455h-140v455q0 115 74 187.5t199 72.5q120 0 186 -54t66 -139q0 -50 -26.5 -85.5t-52.5 -46.5
l-26 -11v-7q6 -1 15.5 -4t34.5 -16.5t44.5 -32t35 -52.5t15.5 -75q0 -92 -62.5 -149.5t-169.5 -57.5z" />
    <glyph glyph-name="endash" unicode="&#x2013;" horiz-adv-x="650" 
d="M35 263v113h580v-113h-580z" />
    <glyph glyph-name="emdash" unicode="&#x2014;" horiz-adv-x="813" 
d="M35 263v113h743v-113h-743z" />
    <glyph glyph-name="quoteleft" unicode="&#x2018;" horiz-adv-x="245" 
d="M200 578q0 -33 -21 -53t-57 -20t-56.5 22.5t-20.5 65.5q0 75 41.5 122t103.5 52v-64q-52 -7 -60 -51q32 -2 51 -21.5t19 -52.5z" />
    <glyph glyph-name="quoteright" unicode="&#x2019;" horiz-adv-x="245" 
d="M45 688q0 34 21 54t56 20q37 0 57.5 -22.5t20.5 -65.5q0 -75 -41.5 -122t-103.5 -52v64q52 7 60 51q-32 2 -51 21t-19 52z" />
    <glyph glyph-name="quotesinglbase" unicode="&#x201a;" horiz-adv-x="250" 
d="M45 65q0 34 21.5 54.5t58.5 20.5q80 0 80 -90q0 -75 -43 -121t-107 -54v65q51 7 60 50q-70 8 -70 75z" />
    <glyph glyph-name="quotedblleft" unicode="&#x201c;" horiz-adv-x="445" 
d="M200 578q0 -33 -21 -53t-57 -20t-56.5 22.5t-20.5 65.5q0 75 41.5 122t103.5 52v-64q-52 -7 -60 -51q32 -2 51 -21.5t19 -52.5zM400 578q0 -33 -21 -53t-57 -20t-56.5 22.5t-20.5 65.5q0 75 41.5 122t103.5 52v-64q-52 -7 -60 -51q32 -2 51 -21.5t19 -52.5z" />
    <glyph glyph-name="quotedblright" unicode="&#x201d;" horiz-adv-x="445" 
d="M45 688q0 34 21 54t56 20q37 0 57.5 -22.5t20.5 -65.5q0 -75 -41.5 -122t-103.5 -52v64q52 7 60 51q-32 2 -51 21t-19 52zM245 688q0 34 21 54t56 20q37 0 57.5 -22.5t20.5 -65.5q0 -75 -41.5 -122t-103.5 -52v64q52 7 60 51q-32 2 -51 21t-19 52z" />
    <glyph glyph-name="quotedblbase" unicode="&#x201e;" horiz-adv-x="450" 
d="M245 65q0 34 21.5 54.5t58.5 20.5q80 0 80 -90q0 -75 -43 -121t-107 -54v65q51 7 60 50q-70 8 -70 75zM45 65q0 34 21.5 54.5t58.5 20.5q80 0 80 -90q0 -75 -43 -121t-107 -54v65q51 7 60 50q-70 8 -70 75z" />
    <glyph glyph-name="dagger" unicode="&#x2020;" horiz-adv-x="545" 
d="M55 307v119h153v274h130v-274h152v-119h-152v-527h-130v527h-153z" />
    <glyph glyph-name="daggerdbl" unicode="&#x2021;" horiz-adv-x="555" 
d="M495 456v-120h-152v-193h152v-120h-152v-243h-130v243h-153v120h153v193h-153v120h153v244h130v-244h152z" />
    <glyph glyph-name="bullet" unicode="&#x2022;" horiz-adv-x="410" 
d="M315 277q0 -48 -30.5 -78.5t-79.5 -30.5t-79.5 30.5t-30.5 78.5t30.5 78.5t79.5 30.5t79.5 -30.5t30.5 -78.5z" />
    <glyph glyph-name="ellipsis" unicode="&#x2026;" horiz-adv-x="725" 
d="M520 65q0 34 21.5 54.5t58.5 20.5t58.5 -20.5t21.5 -54.5t-21.5 -54.5t-58.5 -20.5t-58.5 20.5t-21.5 54.5zM282 65q0 34 21.5 54.5t58.5 20.5t58.5 -20.5t21.5 -54.5t-21.5 -54.5t-58.5 -20.5t-58.5 20.5t-21.5 54.5zM45 65q0 34 21.5 54.5t58.5 20.5t58.5 -20.5
t21.5 -54.5t-21.5 -54.5t-58.5 -20.5t-58.5 20.5t-21.5 54.5z" />
    <glyph glyph-name="perthousand" unicode="&#x2030;" horiz-adv-x="1240" 
d="M705 700l-400 -700h-135l400 700h135zM728 177q0 48 -17.5 72t-45.5 24t-45 -23.5t-17 -72.5t17 -72.5t45 -23.5t45.5 24t17.5 72zM833 177q0 -86 -46.5 -136.5t-121.5 -50.5q-74 0 -120.5 50.5t-46.5 136.5t46.5 136.5t120.5 50.5q75 0 121.5 -50.5t46.5 -136.5z
M140 522q0 -48 17.5 -72t45.5 -24t45 23.5t17 72.5t-17 72.5t-45 23.5t-45.5 -24t-17.5 -72zM35 522q0 87 46.5 137.5t121.5 50.5q74 0 120.5 -50.5t46.5 -137.5q0 -86 -46.5 -136.5t-120.5 -50.5q-75 0 -121.5 50.5t-46.5 136.5zM1100 177q0 49 -17 72.5t-45 23.5
t-45.5 -24t-17.5 -72t17.5 -72t45.5 -24t45 23.5t17 72.5zM1205 177q0 -86 -46.5 -136.5t-120.5 -50.5q-75 0 -121.5 50.5t-46.5 136.5t46.5 136.5t121.5 50.5q74 0 120.5 -50.5t46.5 -136.5z" />
    <glyph glyph-name="guilsinglleft" unicode="&#x2039;" horiz-adv-x="367" 
d="M260 18l-235 244l235 244l82 -81l-152 -158v-10l152 -159z" />
    <glyph glyph-name="guilsinglright" unicode="&#x203a;" horiz-adv-x="367" 
d="M342 262l-235 -244l-82 80l152 159v10l-152 158l82 81z" />
    <glyph glyph-name="fraction" unicode="&#x2044;" horiz-adv-x="245" 
d="M390 700l-400 -700h-135l400 700h135z" />
    <glyph glyph-name="zerosuperior" unicode="&#x2070;" horiz-adv-x="405" 
d="M140 632q0 -48 17.5 -72t45.5 -24t45 23.5t17 72.5t-17 72.5t-45 23.5t-45.5 -24t-17.5 -72zM35 632q0 87 46.5 137.5t121.5 50.5q74 0 120.5 -50.5t46.5 -137.5q0 -86 -46.5 -136.5t-120.5 -50.5q-75 0 -121.5 50.5t-46.5 136.5z" />
    <glyph glyph-name="foursuperior" unicode="&#x2074;" horiz-adv-x="370" 
d="M158 820h105l-100 -170q-8 -13 -16.5 -24t-13.5 -15l-5 -4v-8h80l12 93h88v-93h47v-84h-47v-70h-105v70h-178v84z" />
    <glyph glyph-name="fivesuperior" unicode="&#x2075;" horiz-adv-x="340" 
d="M149 731l-9 -48q15 5 45 5q59 0 94.5 -32.5t35.5 -82.5q0 -54 -42 -91t-111 -37q-43 0 -81 15t-55 30l-16 15l52 67q4 -5 11.5 -12t32 -19t49.5 -12t40 13t15 30q0 18 -15.5 30.5t-42.5 12.5q-16 0 -32.5 -2.5t-24.5 -4.5l-8 -3l-55 28l35 187h233v-89h-151z" />
    <glyph glyph-name="sixsuperior" unicode="&#x2076;" horiz-adv-x="360" 
d="M193 820q65 0 98.5 -26.5t33.5 -67.5l-5 -33h-92q2 5 2 11q0 15 -9 23.5t-23 8.5q-30 0 -47.5 -21.5t-17.5 -64.5q30 28 87 28q54 0 87 -31t33 -77q0 -55 -37.5 -89.5t-102.5 -34.5q-78 0 -124 52t-46 145q0 81 45.5 129t117.5 48zM140 590q12 -64 58 -64q19 0 30.5 11.5
t11.5 28.5q0 18 -12 30t-33 12q-13 0 -27 -4.5t-21 -9.5z" />
    <glyph glyph-name="sevensuperior" unicode="&#x2077;" horiz-adv-x="320" 
d="M20 726v94h280v-92l-113 -283h-110l110 274v7h-167z" />
    <glyph glyph-name="eightsuperior" unicode="&#x2078;" horiz-adv-x="350" 
d="M175 820q63 0 100.5 -30.5t37.5 -71.5q0 -22 -10.5 -41t-21.5 -27l-11 -7q2 -1 6.5 -2.5t14.5 -8t18 -15t14.5 -24t6.5 -33.5q0 -48 -41.5 -81.5t-113.5 -33.5t-113.5 33.5t-41.5 81.5q0 28 15.5 50t31.5 30l16 8l-5 2.5t-11.5 7.5t-15 13.5t-11.5 20t-5 26.5q0 40 39 71
t101 31zM229 560q0 18 -18.5 32t-36.5 18l-18 5q-36 -20 -36 -55q0 -19 15 -32t40 -13q24 0 39 13t15 32zM175 753q-18 0 -30 -11t-12 -24q0 -17 15 -28.5t30 -14.5l15 -3q25 15 25 46q0 13 -12.5 24t-30.5 11z" />
    <glyph glyph-name="ninesuperior" unicode="&#x2079;" horiz-adv-x="360" 
d="M167 445q-42 0 -79 15t-52 30l-16 15l52 67q3 -5 10 -11.5t29.5 -18t48.5 -11.5q31 0 49 21.5t18 62.5q-30 -27 -87 -27q-54 0 -87 30.5t-33 76.5q0 56 37.5 90.5t102.5 34.5q78 0 124 -52t46 -145q0 -81 -45.5 -129.5t-117.5 -48.5zM220 678q-12 63 -58 63
q-18 0 -30 -11.5t-12 -28.5q0 -18 12 -29.5t33 -11.5q13 0 27 4.5t21 9.5z" />
    <glyph glyph-name="zeroinferior" unicode="&#x2080;" horiz-adv-x="405" 
d="M140 67q0 -48 17.5 -71.5t45.5 -23.5t45 23.5t17 71.5q0 49 -17 72.5t-45 23.5t-45.5 -24t-17.5 -72zM35 67q0 86 46.5 136.5t121.5 50.5q74 0 120.5 -50.5t46.5 -136.5t-46.5 -136.5t-120.5 -50.5q-75 0 -121.5 50.5t-46.5 136.5z" />
    <glyph glyph-name="oneinferior" unicode="&#x2081;" horiz-adv-x="275" 
d="M225 -120h-105v236q-2 -4 -8 -10.5t-29 -17t-53 -10.5v88q21 0 38.5 9t27.5 22t17 26.5t9 22.5l3 9h100v-375z" />
    <glyph glyph-name="twoinferior" unicode="&#x2082;" horiz-adv-x="368" 
d="M338 135q0 -28 -15 -54.5t-36 -45t-42.5 -32.5t-36.5 -21l-15 -6v-7q30 5 60 5h85v-94h-305v94l11 6q11 5 28.5 14.5t39 22t43 26.5t39 28.5t28.5 29.5t11 27q0 16 -13.5 28t-36.5 12t-36.5 -14t-13.5 -36l2 -16h-100q-5 18 -5 35q0 51 40.5 84.5t112.5 33.5t113.5 -34.5
t41.5 -85.5z" />
    <glyph glyph-name="threeinferior" unicode="&#x2083;" horiz-adv-x="355" 
d="M320 175l-87 -60v-7q31 -7 61.5 -33t30.5 -73q0 -52 -41 -87t-111 -35q-44 0 -82.5 15t-54.5 30l-16 15q3 4 22.5 28.5t30.5 36.5q4 -5 11 -11.5t30.5 -18t48.5 -11.5t40 12.5t15 30.5q0 16 -14.5 28.5t-38.5 12.5h-45l-20 54l48 36q11 8 21.5 14.5t15.5 8.5l5 2v7
q-17 -5 -42 -5h-105v90h277v-80z" />
    <glyph glyph-name="fourinferior" unicode="&#x2084;" horiz-adv-x="370" 
d="M158 254h105l-100 -170q-8 -13 -17 -24t-14 -15l-4 -4v-8h80l12 93h88v-93h47v-84h-47v-70h-105v70h-178v84z" />
    <glyph glyph-name="fiveinferior" unicode="&#x2085;" horiz-adv-x="340" 
d="M149 165l-9 -48q15 5 45 5q59 0 94.5 -32.5t35.5 -82.5q0 -54 -42 -90.5t-111 -36.5q-43 0 -81 15t-55 30l-16 15l52 66q4 -5 11.5 -12t32 -18.5t49.5 -11.5t40 12.5t15 30.5t-15.5 30.5t-42.5 12.5q-16 0 -32.5 -2.5t-24.5 -5.5l-8 -2l-55 27l35 188h233v-90h-151z" />
    <glyph glyph-name="sixinferior" unicode="&#x2086;" horiz-adv-x="360" 
d="M193 254q65 0 98.5 -26.5t33.5 -67.5l-5 -33h-92q2 5 2 11q0 15 -9 23.5t-23 8.5q-30 0 -47.5 -21.5t-17.5 -64.5q30 28 87 28q54 0 87 -31t33 -77q0 -55 -37.5 -89.5t-102.5 -34.5q-78 0 -124 52t-46 145q0 81 45.5 129t117.5 48zM140 24q12 -64 58 -64q19 0 30.5 11.5
t11.5 28.5q0 18 -12 30t-33 12q-13 0 -27 -4.5t-21 -9.5z" />
    <glyph glyph-name="seveninferior" unicode="&#x2087;" horiz-adv-x="320" 
d="M20 161v94h280v-92l-113 -283h-110l110 273v8h-167z" />
    <glyph glyph-name="eightinferior" unicode="&#x2088;" horiz-adv-x="350" 
d="M175 255q63 0 100.5 -30.5t37.5 -72.5q0 -22 -10.5 -41t-21.5 -27l-11 -7q7 -2 17 -6.5t26.5 -25.5t16.5 -50q0 -48 -41.5 -81.5t-113.5 -33.5t-113.5 33.5t-41.5 81.5q0 28 15.5 49.5t31.5 29.5l16 8l-5 2.5t-11.5 7.5t-15 13.5t-11.5 20t-5 26.5q0 40 39 71.5t101 31.5
zM229 -5q0 18 -18.5 32t-36.5 19l-18 4q-36 -20 -36 -55q0 -19 15 -32.5t40 -13.5q24 0 39 13.5t15 32.5zM175 188q-18 0 -30 -11t-12 -25q0 -16 15 -27.5t30 -14.5l15 -3q25 15 25 45q0 14 -12.5 25t-30.5 11z" />
    <glyph glyph-name="nineinferior" unicode="&#x2089;" horiz-adv-x="360" 
d="M167 -120q-42 0 -79 15t-52 30l-16 15l52 66q3 -4 10 -11t29.5 -18t48.5 -11q31 0 49 21.5t18 62.5q-30 -28 -87 -28q-54 0 -87 31t-33 77q0 55 37.5 90t102.5 35q78 0 124 -52.5t46 -145.5q0 -81 -45.5 -129t-117.5 -48zM220 112q-12 63 -58 63q-19 0 -30.5 -11
t-11.5 -28q0 -18 12 -29.5t33 -11.5q13 0 27 4.5t21 8.5z" />
    <glyph glyph-name="Euro" unicode="&#x20ac;" horiz-adv-x="733" 
d="M428 715q121 0 194 -61t73 -149q0 -18 -2.5 -35.5t-4.5 -25.5l-3 -9h-142q7 23 7 53q0 46 -32 74t-90 28q-67 0 -110.5 -38t-60.5 -102h223v-83h-235v-45h235v-82h-220q43 -131 183 -131q52 0 97.5 22.5t65.5 44.5l19 22l73 -91q-4 -5 -11 -13t-32 -29t-53.5 -37.5
t-75 -29.5t-96.5 -13q-132 0 -213.5 68.5t-108.5 186.5h-78v82h68v45h-68v83h77q20 118 104 191.5t217 73.5z" />
    <glyph glyph-name="uni20B4" unicode="&#x20b4;" horiz-adv-x="643" 
d="M50 245v85h543v-85h-325q-19 0 -33.5 -17.5t-14.5 -43.5q0 -30 27 -53.5t68 -23.5q47 0 73.5 22t26.5 54l-5 27h140q10 -20 10 -53q0 -69 -66.5 -120.5t-178.5 -51.5q-110 0 -175 55t-65 135q0 21 4.5 38.5t8.5 24.5l5 7h-43zM593 455v-85h-543v85h325q19 0 33.5 17.5
t14.5 43.5q0 30 -27 53.5t-68 23.5q-47 0 -73.5 -22t-26.5 -54l5 -27h-140q-10 20 -10 53q0 69 66.5 120.5t178.5 51.5q110 0 175 -55t65 -135q0 -21 -4.5 -38.5t-9.5 -24.5l-4 -7h43z" />
    <glyph glyph-name="uni20BD" unicode="&#x20bd;" horiz-adv-x="680" 
d="M260 396h118q56 0 85.5 25.5t29.5 66.5q0 42 -29.5 67t-85.5 25h-118v-184zM640 493q0 -95 -66 -151.5t-191 -56.5h-123v-60h251v-112h-251v-113h-140v113h-80v112h80v60h-80v111h80v304h263q125 0 191 -56t66 -151z" />
    <glyph glyph-name="afii61352" unicode="&#x2116;" horiz-adv-x="1127" 
d="M1065 168h-310v108h310v-108zM910 618q-28 0 -45.5 -24t-17.5 -72t17.5 -72t45.5 -24t45 23.5t17 72.5t-17 72.5t-45 23.5zM1077 522q0 -86 -46.5 -136.5t-120.5 -50.5q-75 0 -121.5 50.5t-46.5 136.5q0 87 46.5 137.5t121.5 50.5q74 0 120.5 -50.5t46.5 -137.5zM685 700
v-700h-150l-245 360q-27 39 -44.5 68t-21.5 38l-4 9h-10q10 -27 10 -115v-360h-140v700h150l245 -360q27 -39 44.5 -68t21.5 -38l4 -9h10q-10 27 -10 115v360h140z" />
    <glyph glyph-name="trademark" unicode="&#x2122;" horiz-adv-x="853" 
d="M223 608v-278h-103v278h-105v92h313v-92h-105zM615 400h-67l-43 80q-12 23 -21 43t-12 29l-2 8h-10q8 -29 8 -80v-150h-103v370h120l75 -140q7 -13 11.5 -24t5.5 -16l1 -4h7q2 15 18 44l75 140h120v-370h-103v150q0 23 2 43t4 29l2 8h-10q-7 -29 -35 -80z" />
    <glyph glyph-name="minus" unicode="&#x2212;" horiz-adv-x="488" 
d="M35 270v120h418v-120h-418z" />
    <glyph glyph-name="commaaccent" unicode="&#xf6c3;" horiz-adv-x="200" 
d="M30 -137q0 28 20 47.5t49 19.5q31 0 51 -21.5t20 -59.5q0 -68 -35.5 -110t-94.5 -51v56q22 4 37.5 19t17.5 34q-28 1 -46.5 20t-18.5 46z" />
    <glyph glyph-name="cyrBreve" unicode="&#xf6d1;" horiz-adv-x="480" 
d="M240 871q45 0 68.5 23t23.5 65h118q0 -83 -55.5 -133.5t-154.5 -50.5t-154.5 50.5t-55.5 133.5h117q0 -42 24 -65t69 -23z" />
    <glyph glyph-name="cyrbreve" unicode="&#xf6d4;" horiz-adv-x="455" 
d="M227 590q-94 0 -145.5 47t-51.5 127h110q0 -37 23 -59t64 -22t64.5 22.5t23.5 58.5h110q0 -80 -52 -127t-146 -47z" />
    <glyph glyph-name="zerooldstyle" unicode="&#xf730;" horiz-adv-x="610" 
d="M420 262q0 77 -31.5 116t-83.5 39q-53 0 -84 -39t-31 -116t31 -116t84 -39q52 0 83.5 39t31.5 116zM45 262q0 130 70 203.5t190 73.5q119 0 189.5 -73.5t70.5 -203.5t-70.5 -203.5t-189.5 -73.5q-120 0 -190 73.5t-70 203.5z" />
    <glyph glyph-name="oneoldstyle" unicode="&#xf731;" horiz-adv-x="383" 
d="M308 0h-140v332q-5 -7 -14 -17.5t-44.5 -28t-79.5 -17.5v125q32 0 58 13.5t40.5 33t24.5 38.5t13 33l4 13h138v-525z" />
    <glyph glyph-name="twooldstyle" unicode="&#xf732;" horiz-adv-x="533" 
d="M345 347q0 31 -21.5 51.5t-58.5 20.5q-43 0 -67.5 -21t-24.5 -53l5 -40h-130q-8 27 -8 57q0 72 62.5 124.5t165.5 52.5q99 0 162 -53t63 -124q0 -44 -24.5 -84.5t-60 -67.5t-71 -47t-59.5 -29l-25 -10v-10q26 10 70 10h170v-124h-453v120l213 120q92 52 92 107z" />
    <glyph glyph-name="threeoldstyle" unicode="&#xf733;" horiz-adv-x="527" 
d="M470 407l-185 -163v-8q84 0 145.5 -56t61.5 -141q0 -97 -69.5 -160.5t-185.5 -63.5q-46 0 -88 11t-69 26.5t-47 31t-29 26.5l-9 11l74 92q7 -8 19 -20t52.5 -32.5t84.5 -20.5q55 0 87.5 29.5t32.5 74.5q0 47 -32.5 76.5t-87.5 29.5q-19 0 -38 -3t-28 -6l-9 -3l-38 88
l158 136q14 12 26.5 21.5t17.5 12.5l6 4v10q-20 -10 -70 -10h-215v125h435v-118z" />
    <glyph glyph-name="fouroldstyle" unicode="&#xf734;" horiz-adv-x="535" 
d="M307 124l18 137h122v-137h83v-124h-83v-149h-140v149h-297v120l250 404h152l-212 -338q-10 -16 -21 -29t-17 -19l-5 -5v-9h150z" />
    <glyph glyph-name="fiveoldstyle" unicode="&#xf735;" horiz-adv-x="528" 
d="M248 -185q-48 0 -91.5 11t-71 26t-47.5 30.5t-29 26.5l-9 11l73 93q2 -3 6.5 -8t20 -17.5t32.5 -22t44.5 -17.5t56.5 -8q53 0 85 30.5t32 78.5q0 47 -33 77t-89 30q-27 0 -51.5 -8t-35.5 -16l-11 -7l-85 55l55 345h368v-121h-250l-25 -148q35 16 80 16q99 0 162 -63.5
t63 -163.5q0 -99 -69 -164.5t-181 -65.5z" />
    <glyph glyph-name="sixoldstyle" unicode="&#xf736;" horiz-adv-x="585" 
d="M312 710q101 0 160.5 -49t59.5 -118q0 -16 -2.5 -31t-5.5 -22l-2 -7h-132q7 17 7 40q0 27 -21 44.5t-59 17.5q-52 0 -87.5 -49t-39.5 -145q6 6 17 14.5t47 22.5t76 14q95 0 157.5 -64t62.5 -163q0 -98 -66.5 -164t-168.5 -66q-120 0 -195 95t-75 272q0 169 76 263.5
t191 94.5zM195 278q7 -82 40.5 -125t79.5 -43q36 0 63 30t27 77q0 50 -28 78.5t-77 28.5q-30 0 -56.5 -11.5t-37.5 -22.5z" />
    <glyph glyph-name="sevenoldstyle" unicode="&#xf737;" horiz-adv-x="480" 
d="M20 400v125h440v-103l-233 -592h-147l225 562v8h-285z" />
    <glyph glyph-name="eightoldstyle" unicode="&#xf738;" horiz-adv-x="605" 
d="M303 710q105 0 168.5 -54.5t63.5 -130.5q0 -31 -10.5 -58.5t-25.5 -44t-30 -28t-25 -16.5l-11 -5q5 -2 14 -6t32 -19.5t40 -34.5t31.5 -51.5t14.5 -69.5q0 -88 -69.5 -147.5t-192.5 -59.5q-122 0 -192.5 59.5t-70.5 147.5q0 38 13.5 70.5t33 51.5t39.5 32.5t34 18.5l13 5
q-4 2 -11 5t-25 16.5t-31.5 29.5t-24.5 44t-11 60q0 76 64 130.5t169 54.5zM418 202q0 38 -34 68t-68 40l-33 11q-4 -2 -10.5 -5t-22.5 -13.5t-28.5 -23t-23 -32.5t-10.5 -42q0 -43 32 -72.5t83 -29.5q52 0 83.5 29t31.5 70zM213 513q0 -20 12.5 -37t30 -27.5t35 -18
t29.5 -10.5l13 -3q3 1 7 3.5t15.5 11t20 18.5t15.5 26t7 34q0 35 -25.5 58.5t-67.5 23.5q-40 0 -66 -24t-26 -55z" />
    <glyph glyph-name="nineoldstyle" unicode="&#xf739;" horiz-adv-x="585" 
d="M390 246q-7 82 -41 125t-79 43q-37 0 -63.5 -30t-26.5 -77q0 -50 28 -78.5t77 -28.5q30 0 56 11.5t37 22.5zM262 -60q56 0 92.5 48.5t40.5 144.5q-6 -6 -17 -14.5t-47.5 -22.5t-75.5 -14q-96 0 -158 64t-62 164q0 98 66 163.5t169 65.5q119 0 194.5 -95t75.5 -272
q0 -168 -75.5 -262.5t-189.5 -94.5q-67 0 -123 23.5t-79 46.5l-23 23l75 95q6 -7 16.5 -17.5t46 -28t74.5 -17.5z" />
    <glyph glyph-name="Germandbls" horiz-adv-x="690" 
d="M413 -15q-20 0 -40.5 2.5t-31.5 4.5l-11 3v115q23 -3 53 -3q55 0 85 25.5t30 66.5q0 109 -145 109v108q49 0 78 26t29 63q0 38 -28 62.5t-79 24.5q-59 0 -96 -38t-37 -99v-455h-140v455q0 115 74 187.5t199 72.5q120 0 186 -54t66 -139q0 -50 -26.5 -85.5t-52.5 -46.5
l-26 -11v-7q6 -1 15.5 -4t34.5 -16.5t44.5 -32t35 -52.5t15.5 -75q0 -92 -62.5 -149.5t-169.5 -57.5z" />
    <glyph glyph-name="foundryicon" horiz-adv-x="1230" 
d="M100 -110v920h1030v-920h-1030zM1110 -90v880h-990v-880h990zM635 610h110q36 0 58 -19t22 -46t-22 -46t-58 -19h-55v-80h-55v210zM635 300h110q36 0 58 -19t22 -46t-22 -46t-58 -19h-55v-80h-55v210zM495 170l-75 130h60l40 -75h5l40 75h65l-80 -130v-80h-55v80z
M495 480l-75 130h60l40 -75h5l40 75h65l-80 -130v-80h-55v80zM300 255h-65v45h165l25 -45h-70v-165h-55v165zM300 565h-65v45h165l25 -45h-70v-165h-55v165zM790 400v65q20 4 38 21t22 39h80v-45h-85v-35h120v-45h-175zM790 90v65q20 4 38 21t22 39h80v-45h-85v-35h120v-45
h-175zM810 300h155v-45h-115q-9 37 -40 45zM810 610h155v-45h-115q-9 37 -40 45zM765 545q0 7 -6.5 13.5t-13.5 6.5h-55v-40h55q8 0 14 6t6 14zM765 235q0 7 -6.5 13.5t-13.5 6.5h-55v-40h55q8 0 14 6t6 14z" />
    <glyph glyph-name="at.cap" horiz-adv-x="1000" 
d="M620 178h-8q-1 -3 -4 -8t-14 -17.5t-24.5 -22t-37.5 -17.5t-52 -8q-77 0 -128.5 57.5t-51.5 152.5q0 98 56.5 154t155.5 56q44 0 89 -9.5t68 -19.5l23 -9v-187q0 -37 19.5 -59t50.5 -22q33 0 53 29.5t20 91.5q0 131 -89.5 216t-235.5 85q-149 0 -242 -91t-93 -235
t93 -235t242 -91q52 0 104 13.5t78 27.5l25 14l48 -106q-13 -7 -36 -17.5t-90 -28t-129 -17.5q-207 0 -333.5 123t-126.5 317t126.5 317t333.5 123q204 0 327 -117t123 -298q0 -108 -58 -171.5t-150 -63.5q-44 0 -77 18.5t-44 36.5zM502 219q31 0 50.5 22t19.5 59v101
q-25 10 -57 10q-90 0 -90 -96t77 -96z" />
    <glyph glyph-name="parenleft.cap" horiz-adv-x="375" 
d="M197 313q0 -67 16 -134t38.5 -115t44.5 -87t38 -59l16 -19l-63 -59q-9 7 -24.5 21t-54.5 60.5t-69 97.5t-54.5 131t-24.5 163q0 82 23.5 161t57 133t66.5 96t57 62l23 20l63 -59q-6 -7 -16.5 -20.5t-37 -56.5t-46.5 -88t-36.5 -113t-16.5 -135z" />
    <glyph glyph-name="parenright.cap" horiz-adv-x="375" 
d="M178 313q0 67 -16 134t-38 115t-44.5 86.5t-38.5 57.5l-16 20l63 59q9 -7 24.5 -21t54.5 -60.5t69 -97.5t54.5 -131t24.5 -162q0 -83 -23.5 -162t-56.5 -133t-66.5 -96t-56.5 -62l-24 -20l-63 59q6 7 16.5 20.5t37 56.5t46.5 88.5t36.5 113.5t16.5 135z" />
    <glyph glyph-name="bracketleft.cap" horiz-adv-x="368" 
d="M75 -162v964h268v-122h-130v-720h130v-122h-268z" />
    <glyph glyph-name="bracketright.cap" horiz-adv-x="367" 
d="M292 802v-964h-267v122h130v720h-130v122h267z" />
    <glyph glyph-name="braceleft.cap" horiz-adv-x="415" 
d="M190 323v-7q3 -1 8.5 -3t20 -11.5t25 -23t19.5 -39.5t9 -58v-138q0 -42 21.5 -64t61.5 -22l40 3v-113q-38 -10 -80 -10q-90 0 -135 52.5t-45 149.5v145q0 79 -68 79h-27v113h27q68 0 68 79v145q0 97 45 149.5t135 52.5q19 0 39 -2.5t30 -5.5l11 -2v-113q-20 3 -40 3
q-40 0 -61.5 -22t-21.5 -64v-138q0 -32 -8.5 -58t-20.5 -40t-24 -23t-21 -11z" />
    <glyph glyph-name="braceright.cap" horiz-adv-x="415" 
d="M225 316v7q-3 1 -8.5 3t-20 11.5t-25 23t-19.5 39.5t-9 58v138q0 42 -21.5 64t-61.5 22l-40 -3v113q38 10 80 10q90 0 135 -52.5t45 -149.5v-145q0 -79 68 -79h27v-113h-27q-68 0 -68 -79v-145q0 -97 -45 -149.5t-135 -52.5q-19 0 -39 2.5t-31 4.5l-10 3v113q20 -3 40 -3
q40 0 61.5 22t21.5 64v138q0 32 8.5 58t20.5 40t24 23t20 12z" />
    <glyph glyph-name="exclamdown.cap" horiz-adv-x="310" 
d="M107 478h95l23 -186v-290h-140v290zM75 637q0 34 21.5 54.5t58.5 20.5t58.5 -20.5t21.5 -54.5t-21.5 -54.5t-58.5 -20.5t-58.5 20.5t-21.5 54.5z" />
    <glyph glyph-name="questiondown.cap" horiz-adv-x="528" 
d="M173 194q0 -35 25 -58t67 -23q46 0 70.5 22t24.5 57q0 11 -2 22t-4 16l-1 5h140q10 -22 10 -65q0 -75 -64.5 -127.5t-173.5 -52.5q-110 0 -175 57t-65 141q0 49 19.5 84t47.5 54t56 34.5t47.5 36t19.5 48.5l-5 37h123q10 -28 10 -58q0 -38 -17.5 -67.5t-42.5 -47.5
t-50 -33.5t-42.5 -36t-17.5 -45.5zM353 640q0 -34 -21.5 -54.5t-58.5 -20.5t-58.5 20.5t-21.5 54.5t21.5 54.5t58.5 20.5t58.5 -20.5t21.5 -54.5z" />
    <glyph glyph-name="guillemotleft.cap" horiz-adv-x="582" 
d="M260 68l-235 244l235 244l80 -78l-158 -161v-10l158 -161zM477 100l-202 212l202 212l80 -79l-125 -128v-10l125 -128z" />
    <glyph glyph-name="guillemotright.cap" horiz-adv-x="582" 
d="M557 312l-235 -244l-80 78l158 161v10l-158 161l80 78zM307 312l-202 -212l-80 79l125 128v10l-125 128l80 79z" />
    <glyph glyph-name="guilsinglleft.cap" horiz-adv-x="367" 
d="M260 68l-235 244l235 244l82 -81l-152 -158v-10l152 -159z" />
    <glyph glyph-name="guilsinglright.cap" horiz-adv-x="367" 
d="M342 312l-235 -244l-82 80l152 159v10l-152 158l82 81z" />
    <glyph glyph-name="hyphen.cap" horiz-adv-x="455" 
d="M35 320v120h385v-120h-385z" />
    <glyph glyph-name="endash.cap" horiz-adv-x="650" 
d="M35 313v113h580v-113h-580z" />
    <glyph glyph-name="emdash.cap" horiz-adv-x="813" 
d="M35 313v113h743v-113h-743z" />
    <glyph glyph-name="periodcentered.cap" horiz-adv-x="230" 
d="M35 350q0 34 21.5 54.5t58.5 20.5t58.5 -20.5t21.5 -54.5t-21.5 -54.5t-58.5 -20.5t-58.5 20.5t-21.5 54.5z" />
    <glyph glyph-name="zero.tab" horiz-adv-x="680" 
d="M482 350q0 119 -41.5 179.5t-100.5 60.5q-60 0 -101.5 -60.5t-41.5 -179.5q0 -120 41.5 -180.5t101.5 -60.5q59 0 100.5 61t41.5 180zM630 350q0 -175 -80.5 -270t-209.5 -95t-209.5 95t-80.5 270q0 174 80.5 269.5t209.5 95.5t209.5 -95.5t80.5 -269.5z" />
    <glyph glyph-name="one.tab" horiz-adv-x="680" 
d="M460 0h-140v508q-2 -3 -5 -7t-15 -15t-26.5 -19.5t-39.5 -15.5t-54 -7v125q33 0 59.5 13.5t41.5 32.5t25 38.5t14 32.5l3 14h137v-700z" />
    <glyph glyph-name="two.tab" horiz-adv-x="680" 
d="M432 500q0 39 -27 64.5t-73 25.5q-51 0 -78 -23t-27 -59q0 -13 2 -26t4 -19l2 -6h-135q-10 30 -10 70q0 79 65.5 133.5t179.5 54.5q111 0 178 -59.5t67 -148.5q0 -40 -9.5 -73t-32.5 -64.5t-40.5 -50t-55.5 -54.5l-100 -95q-16 -16 -31 -27t-22 -14l-7 -3v-10q24 9 90 9
h208v-125h-483v120l230 214q58 54 81.5 87.5t23.5 78.5z" />
    <glyph glyph-name="three.tab" horiz-adv-x="680" 
d="M570 582l-180 -163v-9q84 0 142 -54.5t58 -143.5q0 -99 -69.5 -163t-185.5 -64q-48 0 -91 11t-71 26.5t-48.5 31.5t-30.5 27l-9 11l75 93q2 -3 7 -8t20.5 -18.5t33 -23.5t45 -18t56.5 -8q55 0 87.5 30t32.5 77q0 49 -32.5 79.5t-87.5 30.5q-19 0 -37.5 -3t-28.5 -7l-9 -3
l-37 89l135 123q19 18 34 30.5t21 16.5l5 3v10q-23 -10 -80 -10h-198v125h443v-118z" />
    <glyph glyph-name="four.tab" horiz-adv-x="680" 
d="M387 263v137h140v-137h83v-125h-83v-138h-140v138h-317v120q54 87 157 252t118 190h152l-227 -360q-14 -23 -28 -39.5t-20 -22.5l-7 -5v-10h172z" />
    <glyph glyph-name="five.tab" horiz-adv-x="680" 
d="M335 -15q-48 0 -92 11t-71.5 27t-48 32t-29.5 27l-9 11l72 93q2 -3 7 -8t21 -18.5t33.5 -23.5t45 -18t56.5 -8q57 0 89.5 31t32.5 81q0 49 -32.5 79.5t-89.5 30.5q-24 0 -48.5 -8t-37.5 -16l-12 -7l-90 54l55 345h370v-120h-252l-25 -148q35 15 80 15q103 0 166.5 -63.5
t63.5 -166.5q0 -102 -69.5 -167t-185.5 -65z" />
    <glyph glyph-name="six.tab" horiz-adv-x="680" 
d="M358 715q102 0 162 -49t60 -118q0 -16 -2.5 -31t-5.5 -22l-2 -7h-133q8 18 8 41q0 26 -21 43.5t-59 17.5q-53 0 -89.5 -51t-40.5 -150q6 6 17.5 14.5t48.5 22.5t76 14q96 0 159.5 -64.5t63.5 -163.5q0 -98 -66.5 -162.5t-168.5 -64.5q-122 0 -198.5 94t-76.5 271
q0 175 76 270t192 95zM240 275q7 -80 41.5 -122.5t83.5 -42.5q36 0 63 30t27 77q0 48 -28.5 76.5t-79.5 28.5q-30 0 -56.5 -12t-38.5 -24z" />
    <glyph glyph-name="seven.tab" horiz-adv-x="680" 
d="M110 575v125h455v-103l-238 -597h-147l230 568v7h-300z" />
    <glyph glyph-name="eight.tab" horiz-adv-x="680" 
d="M340 715q107 0 171 -54.5t64 -132.5q0 -32 -10.5 -60t-25.5 -44.5t-30 -28.5t-25 -17l-11 -5q5 -2 14 -6t32 -19.5t40 -34.5t31.5 -51.5t14.5 -69.5q0 -88 -71 -147.5t-194 -59.5t-194 59.5t-71 147.5q0 38 14 70.5t33.5 51.5t39.5 32.5t34 18.5l14 5q-4 2 -11 5
t-25.5 16.5t-32 30t-25 45t-11.5 61.5q0 79 64 133t171 54zM458 202q0 24 -14 45t-34.5 34t-41 22.5t-34.5 13.5l-14 4q-4 -2 -10.5 -5t-23 -13.5t-29.5 -23t-23.5 -32.5t-10.5 -42q0 -43 32 -72.5t85 -29.5t85.5 29t32.5 70zM248 515q0 -32 30.5 -56.5t61.5 -32.5l30 -9
q3 1 7.5 3.5t16 11.5t20.5 19t16.5 27t7.5 35q0 37 -25.5 60.5t-69.5 23.5q-42 0 -68.5 -24t-26.5 -58z" />
    <glyph glyph-name="nine.tab" horiz-adv-x="680" 
d="M440 424q-7 81 -41.5 123.5t-83.5 42.5q-37 0 -63.5 -30.5t-26.5 -76.5q0 -48 28.5 -76.5t78.5 -28.5q30 0 57 11.5t39 22.5zM310 109q56 0 93.5 51.5t41.5 149.5q-6 -6 -17.5 -14t-48.5 -22t-77 -14q-96 0 -159 64t-63 163q0 98 66 163t169 65q122 0 198.5 -94
t76.5 -271q0 -175 -76.5 -270t-191.5 -95q-42 0 -80.5 9.5t-64 23t-44.5 27t-27 23.5l-9 9l75 96q6 -7 16.5 -17.5t46.5 -28.5t75 -18z" />
    <glyph glyph-name="zero.numr" horiz-adv-x="405" 
d="M140 512q0 -48 17.5 -72t45.5 -24t45 23.5t17 72.5t-17 72.5t-45 23.5t-45.5 -24t-17.5 -72zM35 512q0 87 46.5 137.5t121.5 50.5q74 0 120.5 -50.5t46.5 -137.5q0 -86 -46.5 -136.5t-120.5 -50.5q-75 0 -121.5 50.5t-46.5 136.5z" />
    <glyph glyph-name="one.numr" horiz-adv-x="275" 
d="M225 325h-105v237q-2 -4 -8 -10.5t-29 -17.5t-53 -11v89q33 0 57 22t31 44l7 22h100v-375z" />
    <glyph glyph-name="two.numr" horiz-adv-x="368" 
d="M338 580q0 -28 -15 -54.5t-36 -45t-42.5 -32.5t-36.5 -20l-15 -7v-7q30 5 60 5h85v-94h-305v94l11 5q11 6 28.5 15.5t39 22t43 26.5t39 28.5t28.5 29.5t11 27q0 16 -13.5 28t-36.5 12t-36.5 -13.5t-13.5 -36.5l2 -16h-100q-5 18 -5 35q0 51 40.5 84.5t112.5 33.5
t113.5 -34.5t41.5 -85.5z" />
    <glyph glyph-name="three.numr" horiz-adv-x="355" 
d="M320 620l-87 -60v-7q31 -7 61.5 -33t30.5 -73q0 -52 -41 -87t-111 -35q-44 0 -82.5 15t-54.5 30l-16 15q3 4 22.5 28.5t30.5 36.5q4 -5 11 -11.5t30.5 -18t48.5 -11.5t40 12.5t15 30.5q0 16 -14.5 28.5t-38.5 12.5h-45l-20 54l48 36q11 8 21.5 14.5t15.5 8.5l5 2v7
q-17 -5 -42 -5h-105v90h277v-80z" />
    <glyph glyph-name="four.numr" horiz-adv-x="370" 
d="M158 700h105l-100 -170q-8 -13 -17 -24t-14 -15l-4 -4v-8h80l12 93h88v-93h47v-84h-47v-70h-105v70h-178v84z" />
    <glyph glyph-name="five.numr" horiz-adv-x="340" 
d="M149 611l-9 -48q15 5 45 5q59 0 94.5 -32.5t35.5 -82.5q0 -54 -42 -91t-111 -37q-43 0 -81 15t-55 30l-16 15l52 67q4 -5 11.5 -12t32 -19t49.5 -12t40 13t15 30q0 18 -15.5 30.5t-42.5 12.5q-16 0 -32.5 -2.5t-24.5 -4.5l-8 -3l-55 28l35 187h233v-89h-151z" />
    <glyph glyph-name="six.numr" horiz-adv-x="360" 
d="M193 700q65 0 98.5 -26.5t33.5 -67.5l-5 -33h-92q2 5 2 11q0 15 -9 23.5t-23 8.5q-30 0 -47.5 -21.5t-17.5 -64.5q30 28 87 28q54 0 87 -31t33 -77q0 -55 -37.5 -89.5t-102.5 -34.5q-78 0 -124 52t-46 145q0 81 45.5 129t117.5 48zM140 470q12 -64 58 -64q19 0 30.5 11.5
t11.5 28.5q0 18 -12 30t-33 12q-13 0 -27 -4.5t-21 -9.5z" />
    <glyph glyph-name="seven.numr" horiz-adv-x="320" 
d="M20 606v94h280v-92l-113 -283h-110l110 274v7h-167z" />
    <glyph glyph-name="eight.numr" horiz-adv-x="350" 
d="M175 700q62 0 99.5 -30.5t37.5 -71.5q0 -22 -10.5 -41t-21.5 -27l-10 -7q2 -1 6.5 -2.5t14.5 -8t18 -15t14.5 -24t6.5 -33.5q0 -48 -41.5 -81.5t-113.5 -33.5t-113.5 33.5t-41.5 81.5q0 28 15.5 50t30.5 30l16 8l-5 2.5t-11 7.5t-14.5 13.5t-11.5 20t-5 26.5
q0 40 38.5 71t101.5 31zM228 440q0 18 -18 32t-36 18l-19 5q-35 -20 -35 -55q0 -19 15 -32t39 -13t39 13t15 32zM175 633q-18 0 -30.5 -11t-12.5 -24q0 -17 15 -28.5t30 -14.5l15 -3q25 15 25 46q0 13 -12 24t-30 11z" />
    <glyph glyph-name="nine.numr" horiz-adv-x="360" 
d="M167 325q-42 0 -79 15t-52 30l-16 15l52 67q3 -5 10 -11.5t29.5 -18t48.5 -11.5q31 0 49 21.5t18 62.5q-30 -27 -87 -27q-54 0 -87 30.5t-33 76.5q0 56 37.5 90.5t102.5 34.5q78 0 124 -52t46 -145q0 -81 -45.5 -129.5t-117.5 -48.5zM220 558q-12 63 -58 63
q-18 0 -30 -11.5t-12 -28.5q0 -18 12 -29.5t33 -11.5q13 0 27 4.5t21 9.5z" />
    <glyph glyph-name="zero.dnom" horiz-adv-x="405" 
d="M140 187q0 -48 17.5 -72t45.5 -24t45 23.5t17 72.5t-17 72.5t-45 23.5t-45.5 -24t-17.5 -72zM35 187q0 86 46.5 136.5t121.5 50.5q74 0 120.5 -50.5t46.5 -136.5t-46.5 -136.5t-120.5 -50.5q-75 0 -121.5 50.5t-46.5 136.5z" />
    <glyph glyph-name="one.dnom" horiz-adv-x="275" 
d="M225 0h-105v236q-2 -4 -8 -10.5t-29 -17t-53 -10.5v88q21 0 38.5 9t27.5 22t17 26.5t9 22.5l3 9h100v-375z" />
    <glyph glyph-name="two.dnom" horiz-adv-x="368" 
d="M338 255q0 -28 -15 -54.5t-36 -44.5t-42.5 -32.5t-36.5 -21.5l-15 -6v-7q30 5 60 5h85v-94h-305v94l11 6q11 5 28.5 14.5t39 22t43 26.5t39 28.5t28.5 29.5t11 27q0 16 -13.5 28t-36.5 12t-36.5 -14t-13.5 -36l2 -16h-100q-5 18 -5 35q0 51 40.5 84.5t112.5 33.5
t113.5 -34.5t41.5 -85.5z" />
    <glyph glyph-name="three.dnom" horiz-adv-x="355" 
d="M320 295l-87 -60v-7q31 -7 61.5 -33t30.5 -73q0 -52 -41 -87t-111 -35q-44 0 -82.5 15t-54.5 30l-16 15q3 4 22.5 28.5t30.5 36.5q4 -5 11 -11.5t30.5 -18t48.5 -11.5t40 12.5t15 30.5q0 16 -14.5 28.5t-38.5 12.5h-45l-20 54l48 36q11 8 21.5 14.5t15.5 8.5l5 2v7
q-17 -5 -42 -5h-105v90h277v-80z" />
    <glyph glyph-name="four.dnom" horiz-adv-x="370" 
d="M158 375h105l-100 -170q-8 -13 -17 -24t-14 -15l-4 -4v-8h80l12 93h88v-93h47v-84h-47v-70h-105v70h-178v84z" />
    <glyph glyph-name="five.dnom" horiz-adv-x="340" 
d="M149 285l-9 -48q15 5 45 5q59 0 94.5 -32.5t35.5 -82.5q0 -54 -42 -90.5t-111 -36.5q-43 0 -81 15t-55 30l-16 15l52 66q4 -5 11.5 -12t32 -18.5t49.5 -11.5t40 12.5t15 30.5t-15.5 30.5t-42.5 12.5q-16 0 -32.5 -2.5t-24.5 -5.5l-8 -2l-55 27l35 188h233v-90h-151z" />
    <glyph glyph-name="six.dnom" horiz-adv-x="360" 
d="M193 374q65 0 98.5 -26.5t33.5 -67.5l-5 -33h-92q2 5 2 11q0 15 -9 23.5t-23 8.5q-30 0 -47.5 -21.5t-17.5 -64.5q30 28 87 28q54 0 87 -31t33 -77q0 -55 -37.5 -89.5t-102.5 -34.5q-78 0 -124 52t-46 145q0 81 45.5 129t117.5 48zM140 144q12 -64 58 -64q19 0 30.5 11.5
t11.5 28.5q0 18 -12 30t-33 12q-13 0 -27 -4.5t-21 -9.5z" />
    <glyph glyph-name="seven.dnom" horiz-adv-x="320" 
d="M20 281v94h280v-92l-113 -283h-110l110 273v8h-167z" />
    <glyph glyph-name="eight.dnom" horiz-adv-x="350" 
d="M175 375q63 0 100.5 -30.5t37.5 -72.5q0 -22 -10.5 -41t-21.5 -27l-11 -7q7 -2 17 -6.5t26.5 -25.5t16.5 -50q0 -48 -41.5 -81.5t-113.5 -33.5t-113.5 33.5t-41.5 81.5q0 28 15.5 49.5t31.5 29.5l16 8l-5 2.5t-11.5 7.5t-15 13.5t-11.5 20t-5 26.5q0 40 39 71.5t101 31.5
zM229 115q0 18 -18.5 32t-36.5 19l-18 4q-36 -20 -36 -55q0 -19 15 -32.5t40 -13.5q24 0 39 13.5t15 32.5zM175 308q-18 0 -30 -11t-12 -25q0 -16 15 -27.5t30 -14.5l15 -3q25 15 25 45q0 14 -12.5 25t-30.5 11z" />
    <glyph glyph-name="nine.dnom" horiz-adv-x="360" 
d="M167 0q-42 0 -79 15t-52 30l-16 15l52 66q3 -4 10 -11t29.5 -18t48.5 -11q31 0 49 21.5t18 62.5q-30 -28 -87 -28q-54 0 -87 31t-33 77q0 55 37.5 90t102.5 35q78 0 124 -52.5t46 -145.5q0 -81 -45.5 -129t-117.5 -48zM220 232q-12 63 -58 63q-19 0 -30.5 -11t-11.5 -28
q0 -18 12 -29.5t33 -11.5q13 0 27 4.5t21 8.5z" />
    </font>
</defs>
</svg>
